<svg width="51" height="91" viewBox="0 0 51 91" fill="none" xmlns="http://www.w3.org/2000/svg">
<mask id="path-1-outside-1_201_8129" maskUnits="userSpaceOnUse" x="0" y="0.0869141" width="51" height="90" fill="black">
<rect fill="white" y="0.0869141" width="51" height="90"/>
<path d="M15.697 5.74054C16.7443 6.78784 17.6525 7.94969 18.4216 9.22609C19.2071 10.5025 19.788 12.2453 20.1644 14.4544C20.4917 16.1563 20.6553 18.079 20.6553 20.2227C20.6553 21.3028 20.5899 22.6937 20.459 24.3956C20.279 26.212 20.0335 28.0284 19.7226 29.8448C19.428 31.6449 19.0926 33.1667 18.7162 34.4104C19.3708 35.2777 20.1971 36.1204 21.1954 36.9386C22.2099 37.7568 23.2572 38.1659 24.3373 38.1659C25.09 38.1659 25.7527 38.0268 26.3255 37.7486C26.9146 37.4705 27.4955 37.0368 28.0683 36.4477C28.6574 35.8422 29.4756 34.8768 30.5229 33.5513C29.0828 24.8292 27.2255 18.1445 24.9509 13.4971C22.6599 8.80062 19.5753 6.2151 15.697 5.74054ZM13.4388 6.05964C13.0951 6.20692 12.7679 6.33783 12.4569 6.45238C12.146 6.55056 11.8678 6.64875 11.6224 6.74693C11.3933 6.84512 11.2787 6.91057 11.2787 6.9433C11.9006 7.36877 12.3915 7.88423 12.7515 8.4897C13.1279 9.09517 13.3161 9.87247 13.3161 10.8216C13.3161 12.1471 13.0788 13.2189 12.6042 14.0371C12.146 14.8553 11.5569 15.4281 10.8369 15.7553C10.1333 16.0826 9.38869 16.2463 8.60321 16.2463C6.99953 16.2463 5.67404 15.7144 4.62674 14.6508C3.59581 13.5707 3.08034 12.3107 3.08034 10.8707C3.08034 7.66332 4.02127 5.37235 5.90314 3.99777C7.80137 2.62319 10.5751 1.9359 14.2243 1.9359C16.4825 1.9359 18.5607 2.28772 20.459 2.99138C22.4063 3.72776 24.1327 4.76688 25.6382 6.10873C26.5382 6.84512 27.5037 7.88423 28.5346 9.22609C29.5819 10.5516 30.5638 12.3762 31.4802 14.6999L34.7939 24.1992C35.1048 25.132 35.3748 25.9502 35.6039 26.6538C35.8494 27.3575 36.1685 28.192 36.5612 29.1575C36.9703 30.123 37.4121 31.0557 37.8867 31.9558C38.3613 32.8558 38.9585 33.7885 39.6786 34.754C40.6768 36.1286 41.7159 37.0859 42.7959 37.6259C43.0905 37.7896 43.3605 37.9205 43.6059 38.0187C43.8514 38.1168 44.1705 38.1987 44.5632 38.2641C44.956 38.3296 45.406 38.3623 45.9133 38.3623C46.6824 38.3623 47.5169 38.2968 48.417 38.1659C47.9751 38.7714 46.8788 39.4096 45.1278 40.0805C43.3768 40.7515 42.215 41.0869 41.6423 41.0869C39.9895 41.0869 38.2549 40.6533 36.4385 39.786C34.6384 38.9187 33.0675 37.6423 31.7256 35.9568C31.0547 37.0695 30.2529 38.0105 29.3201 38.7796C28.4037 39.5487 27.4792 40.1296 26.5464 40.5224C25.6137 40.8987 24.8445 41.0869 24.2391 41.0869C23.1918 41.0869 22.2345 40.8496 21.3672 40.3751C20.5162 39.9005 19.2235 38.8287 17.4889 37.1595C17.0307 38.1905 16.2043 39.1069 15.0097 39.9087C13.8152 40.6942 12.4815 41.0869 11.0087 41.0869C7.09772 41.0869 4.34856 39.7942 2.76124 37.2086C1.99213 35.9813 1.60757 34.5577 1.60757 32.9376C1.60757 30.9248 1.95122 29.4275 2.63851 28.4457C3.3258 27.4638 4.57765 26.9729 6.39406 26.9729C7.91592 26.9729 9.09413 27.3329 9.9287 28.0529C10.7796 28.7566 11.2051 29.7793 11.2051 31.1212C11.2051 32.6103 10.9596 33.7722 10.4687 34.6067C9.99416 35.4413 9.06959 36.0059 7.69501 36.3004C7.90774 36.7259 8.34139 37.1432 8.99595 37.5523C9.66688 37.9614 10.6078 38.1659 11.8187 38.1659C13.897 38.1659 15.2879 36.9141 15.9916 34.4104C15.9916 34.4758 16.1225 34.0258 16.3843 33.0603C16.6461 32.0949 16.9243 30.8757 17.2189 29.403C17.5134 27.9302 17.7753 26.2447 18.0044 24.3465C18.1353 23.0537 18.2007 21.6464 18.2007 20.1246C18.2007 17.3263 17.8325 14.7653 17.0962 12.4416C16.3598 10.1016 15.1407 7.97424 13.4388 6.05964ZM10.6651 53.4951L3.79218 49.8868H15.9425C14.1915 55.8106 12.997 60.7689 12.3588 64.7617C11.7369 68.7382 11.426 72.3383 11.426 75.562C11.426 77.6566 11.6224 79.5385 12.0151 81.2076C12.4242 82.8604 13.1197 84.1777 14.1015 85.1595C15.0997 86.1414 16.417 86.6323 18.0535 86.6323C19.0844 86.6323 20.0581 86.3623 20.9744 85.8223C21.8908 85.2823 22.8972 84.4232 23.9936 83.2449C23.3881 81.9195 22.7499 80.4058 22.079 78.7039C21.4081 76.9857 20.7944 75.0465 20.2381 72.8865C19.698 70.7264 19.428 68.7546 19.428 66.9709C19.428 64.8108 19.6162 62.5608 19.9926 60.2207C20.369 57.8806 20.9335 55.7533 21.6863 53.8387C22.4554 51.9241 23.38 50.6068 24.46 49.8868C25.4582 50.4432 26.3746 51.4087 27.2091 52.7832C28.0601 54.1578 28.7965 55.7451 29.4183 57.5452C30.0401 59.3289 30.5065 61.0471 30.8174 62.6999C31.1283 64.3363 31.2838 65.7599 31.2838 66.9709C31.2838 68.5255 31.1611 69.9819 30.9156 71.3401C30.6865 72.6819 30.3265 74.122 29.8356 75.6602C29.3447 77.1821 28.4528 79.6612 27.1601 83.0977C27.6019 83.5231 28.011 83.9241 28.3874 84.3004C28.7801 84.6604 29.2137 84.9877 29.6883 85.2823C30.1792 85.5605 30.7029 85.7732 31.2593 85.9205C31.832 86.0677 32.5766 86.1659 33.4929 86.215C35.4239 86.215 36.9212 85.2414 37.9849 83.294C39.0485 81.3467 39.5804 78.6057 39.5804 75.0711C39.5804 72.0928 39.1058 68.6073 38.1567 64.6145C37.224 60.6216 35.473 55.7124 32.9038 49.8868H45.1032L39.3349 53.3478C40.7422 56.4079 41.8795 58.9607 42.7468 61.0062C43.6141 63.0517 44.4241 65.3508 45.1769 67.9036C45.9296 70.4401 46.306 72.6574 46.306 74.5556C46.306 76.3557 46.0933 78.1148 45.6678 79.833C45.2423 81.5349 44.5469 83.0813 43.5814 84.4722C42.6159 85.8632 41.3068 86.9841 39.654 87.8351C38.0176 88.6696 36.013 89.0869 33.6402 89.0869C32.6911 89.0869 31.8156 88.9315 31.0138 88.6205C30.2283 88.2933 29.451 87.8678 28.6819 87.3441C27.9292 86.8041 26.9228 86.0268 25.6627 85.0123C24.4682 86.2887 23.1427 87.2869 21.6863 88.0069C20.2299 88.7269 18.8553 89.0869 17.5625 89.0869C14.5515 89.0869 12.0397 88.3505 10.0269 86.8778C8.03047 85.3886 6.56588 83.5231 5.63313 81.2813C4.70038 79.023 4.23401 76.7811 4.23401 74.5556C4.23401 73.0829 4.52856 71.2337 5.11766 69.0082C5.70677 66.7663 6.3777 64.5981 7.13044 62.5035C7.88319 60.4089 8.66048 58.3879 9.46232 56.4406C10.2642 54.4933 10.6651 53.5114 10.6651 53.4951Z"/>
</mask>
<path d="M15.697 5.74054C16.7443 6.78784 17.6525 7.94969 18.4216 9.22609C19.2071 10.5025 19.788 12.2453 20.1644 14.4544C20.4917 16.1563 20.6553 18.079 20.6553 20.2227C20.6553 21.3028 20.5899 22.6937 20.459 24.3956C20.279 26.212 20.0335 28.0284 19.7226 29.8448C19.428 31.6449 19.0926 33.1667 18.7162 34.4104C19.3708 35.2777 20.1971 36.1204 21.1954 36.9386C22.2099 37.7568 23.2572 38.1659 24.3373 38.1659C25.09 38.1659 25.7527 38.0268 26.3255 37.7486C26.9146 37.4705 27.4955 37.0368 28.0683 36.4477C28.6574 35.8422 29.4756 34.8768 30.5229 33.5513C29.0828 24.8292 27.2255 18.1445 24.9509 13.4971C22.6599 8.80062 19.5753 6.2151 15.697 5.74054ZM13.4388 6.05964C13.0951 6.20692 12.7679 6.33783 12.4569 6.45238C12.146 6.55056 11.8678 6.64875 11.6224 6.74693C11.3933 6.84512 11.2787 6.91057 11.2787 6.9433C11.9006 7.36877 12.3915 7.88423 12.7515 8.4897C13.1279 9.09517 13.3161 9.87247 13.3161 10.8216C13.3161 12.1471 13.0788 13.2189 12.6042 14.0371C12.146 14.8553 11.5569 15.4281 10.8369 15.7553C10.1333 16.0826 9.38869 16.2463 8.60321 16.2463C6.99953 16.2463 5.67404 15.7144 4.62674 14.6508C3.59581 13.5707 3.08034 12.3107 3.08034 10.8707C3.08034 7.66332 4.02127 5.37235 5.90314 3.99777C7.80137 2.62319 10.5751 1.9359 14.2243 1.9359C16.4825 1.9359 18.5607 2.28772 20.459 2.99138C22.4063 3.72776 24.1327 4.76688 25.6382 6.10873C26.5382 6.84512 27.5037 7.88423 28.5346 9.22609C29.5819 10.5516 30.5638 12.3762 31.4802 14.6999L34.7939 24.1992C35.1048 25.132 35.3748 25.9502 35.6039 26.6538C35.8494 27.3575 36.1685 28.192 36.5612 29.1575C36.9703 30.123 37.4121 31.0557 37.8867 31.9558C38.3613 32.8558 38.9585 33.7885 39.6786 34.754C40.6768 36.1286 41.7159 37.0859 42.7959 37.6259C43.0905 37.7896 43.3605 37.9205 43.6059 38.0187C43.8514 38.1168 44.1705 38.1987 44.5632 38.2641C44.956 38.3296 45.406 38.3623 45.9133 38.3623C46.6824 38.3623 47.5169 38.2968 48.417 38.1659C47.9751 38.7714 46.8788 39.4096 45.1278 40.0805C43.3768 40.7515 42.215 41.0869 41.6423 41.0869C39.9895 41.0869 38.2549 40.6533 36.4385 39.786C34.6384 38.9187 33.0675 37.6423 31.7256 35.9568C31.0547 37.0695 30.2529 38.0105 29.3201 38.7796C28.4037 39.5487 27.4792 40.1296 26.5464 40.5224C25.6137 40.8987 24.8445 41.0869 24.2391 41.0869C23.1918 41.0869 22.2345 40.8496 21.3672 40.3751C20.5162 39.9005 19.2235 38.8287 17.4889 37.1595C17.0307 38.1905 16.2043 39.1069 15.0097 39.9087C13.8152 40.6942 12.4815 41.0869 11.0087 41.0869C7.09772 41.0869 4.34856 39.7942 2.76124 37.2086C1.99213 35.9813 1.60757 34.5577 1.60757 32.9376C1.60757 30.9248 1.95122 29.4275 2.63851 28.4457C3.3258 27.4638 4.57765 26.9729 6.39406 26.9729C7.91592 26.9729 9.09413 27.3329 9.9287 28.0529C10.7796 28.7566 11.2051 29.7793 11.2051 31.1212C11.2051 32.6103 10.9596 33.7722 10.4687 34.6067C9.99416 35.4413 9.06959 36.0059 7.69501 36.3004C7.90774 36.7259 8.34139 37.1432 8.99595 37.5523C9.66688 37.9614 10.6078 38.1659 11.8187 38.1659C13.897 38.1659 15.2879 36.9141 15.9916 34.4104C15.9916 34.4758 16.1225 34.0258 16.3843 33.0603C16.6461 32.0949 16.9243 30.8757 17.2189 29.403C17.5134 27.9302 17.7753 26.2447 18.0044 24.3465C18.1353 23.0537 18.2007 21.6464 18.2007 20.1246C18.2007 17.3263 17.8325 14.7653 17.0962 12.4416C16.3598 10.1016 15.1407 7.97424 13.4388 6.05964ZM10.6651 53.4951L3.79218 49.8868H15.9425C14.1915 55.8106 12.997 60.7689 12.3588 64.7617C11.7369 68.7382 11.426 72.3383 11.426 75.562C11.426 77.6566 11.6224 79.5385 12.0151 81.2076C12.4242 82.8604 13.1197 84.1777 14.1015 85.1595C15.0997 86.1414 16.417 86.6323 18.0535 86.6323C19.0844 86.6323 20.0581 86.3623 20.9744 85.8223C21.8908 85.2823 22.8972 84.4232 23.9936 83.2449C23.3881 81.9195 22.7499 80.4058 22.079 78.7039C21.4081 76.9857 20.7944 75.0465 20.2381 72.8865C19.698 70.7264 19.428 68.7546 19.428 66.9709C19.428 64.8108 19.6162 62.5608 19.9926 60.2207C20.369 57.8806 20.9335 55.7533 21.6863 53.8387C22.4554 51.9241 23.38 50.6068 24.46 49.8868C25.4582 50.4432 26.3746 51.4087 27.2091 52.7832C28.0601 54.1578 28.7965 55.7451 29.4183 57.5452C30.0401 59.3289 30.5065 61.0471 30.8174 62.6999C31.1283 64.3363 31.2838 65.7599 31.2838 66.9709C31.2838 68.5255 31.1611 69.9819 30.9156 71.3401C30.6865 72.6819 30.3265 74.122 29.8356 75.6602C29.3447 77.1821 28.4528 79.6612 27.1601 83.0977C27.6019 83.5231 28.011 83.9241 28.3874 84.3004C28.7801 84.6604 29.2137 84.9877 29.6883 85.2823C30.1792 85.5605 30.7029 85.7732 31.2593 85.9205C31.832 86.0677 32.5766 86.1659 33.4929 86.215C35.4239 86.215 36.9212 85.2414 37.9849 83.294C39.0485 81.3467 39.5804 78.6057 39.5804 75.0711C39.5804 72.0928 39.1058 68.6073 38.1567 64.6145C37.224 60.6216 35.473 55.7124 32.9038 49.8868H45.1032L39.3349 53.3478C40.7422 56.4079 41.8795 58.9607 42.7468 61.0062C43.6141 63.0517 44.4241 65.3508 45.1769 67.9036C45.9296 70.4401 46.306 72.6574 46.306 74.5556C46.306 76.3557 46.0933 78.1148 45.6678 79.833C45.2423 81.5349 44.5469 83.0813 43.5814 84.4722C42.6159 85.8632 41.3068 86.9841 39.654 87.8351C38.0176 88.6696 36.013 89.0869 33.6402 89.0869C32.6911 89.0869 31.8156 88.9315 31.0138 88.6205C30.2283 88.2933 29.451 87.8678 28.6819 87.3441C27.9292 86.8041 26.9228 86.0268 25.6627 85.0123C24.4682 86.2887 23.1427 87.2869 21.6863 88.0069C20.2299 88.7269 18.8553 89.0869 17.5625 89.0869C14.5515 89.0869 12.0397 88.3505 10.0269 86.8778C8.03047 85.3886 6.56588 83.5231 5.63313 81.2813C4.70038 79.023 4.23401 76.7811 4.23401 74.5556C4.23401 73.0829 4.52856 71.2337 5.11766 69.0082C5.70677 66.7663 6.3777 64.5981 7.13044 62.5035C7.88319 60.4089 8.66048 58.3879 9.46232 56.4406C10.2642 54.4933 10.6651 53.5114 10.6651 53.4951Z" fill="#FAC46D"/>
<path d="M15.697 5.74054L15.8185 4.74794L12.9377 4.39545L14.9899 6.44765L15.697 5.74054ZM18.4216 9.22609L17.5651 9.74222L17.57 9.75018L18.4216 9.22609ZM20.1644 14.4544L19.1786 14.6224L19.1804 14.6328L19.1824 14.6433L20.1644 14.4544ZM20.459 24.3956L21.4541 24.4942L21.4552 24.4832L21.456 24.4723L20.459 24.3956ZM19.7226 29.8448L18.7369 29.6761L18.7357 29.6833L19.7226 29.8448ZM18.7162 34.4104L17.7591 34.1207L17.6119 34.6071L17.918 35.0128L18.7162 34.4104ZM21.1954 36.9386L20.5614 37.712L20.5676 37.717L21.1954 36.9386ZM26.3255 37.7486L25.8985 36.8443L25.8886 36.8491L26.3255 37.7486ZM28.0683 36.4477L27.3515 35.7503L27.3513 35.7506L28.0683 36.4477ZM30.5229 33.5513L31.3075 34.1712L31.5815 33.8244L31.5095 33.3884L30.5229 33.5513ZM24.9509 13.4971L24.0521 13.9355L24.0527 13.9367L24.9509 13.4971ZM13.4388 6.05964L14.1862 5.39528L13.7074 4.85657L13.0449 5.1405L13.4388 6.05964ZM12.4569 6.45238L12.7581 7.40596L12.7805 7.39887L12.8027 7.39072L12.4569 6.45238ZM11.6224 6.74693L11.251 5.81845L11.2397 5.82298L11.2285 5.82779L11.6224 6.74693ZM11.2787 6.9433H10.2787V7.47076L10.7141 7.76861L11.2787 6.9433ZM12.7515 8.4897L11.892 9.00078L11.897 9.00926L11.9022 9.01764L12.7515 8.4897ZM12.6042 14.0371L11.7392 13.5354L11.7354 13.5419L11.7317 13.5485L12.6042 14.0371ZM10.8369 15.7553L10.4231 14.8449L10.4152 14.8486L10.8369 15.7553ZM4.62674 14.6508L3.90339 15.3412L3.90874 15.3469L3.91418 15.3524L4.62674 14.6508ZM5.90314 3.99777L5.31663 3.18782L5.3133 3.19025L5.90314 3.99777ZM20.459 2.99138L20.8127 2.056L20.8066 2.05373L20.459 2.99138ZM25.6382 6.10873L24.9728 6.85525L24.9886 6.86931L25.005 6.88269L25.6382 6.10873ZM28.5346 9.22609L27.7416 9.83539L27.75 9.84604L28.5346 9.22609ZM31.4802 14.6999L32.4244 14.3705L32.4178 14.3516L32.4104 14.333L31.4802 14.6999ZM34.7939 24.1992L35.7427 23.8829L35.7381 23.8698L34.7939 24.1992ZM35.6039 26.6538L34.653 26.9634L34.6563 26.9733L34.6597 26.9832L35.6039 26.6538ZM36.5612 29.1575L35.6349 29.5343L35.6376 29.541L35.6405 29.5477L36.5612 29.1575ZM39.6786 34.754L40.4878 34.1664L40.4802 34.1562L39.6786 34.754ZM42.7959 37.6259L43.2816 36.7518L43.2626 36.7412L43.2431 36.7315L42.7959 37.6259ZM48.417 38.1659L49.2248 38.7554L50.6269 36.834L48.273 37.1763L48.417 38.1659ZM45.1278 40.0805L44.77 39.1467L45.1278 40.0805ZM36.4385 39.786L36.0044 40.6869L36.0076 40.6884L36.4385 39.786ZM31.7256 35.9568L32.508 35.3339L31.612 34.2085L30.8693 35.4404L31.7256 35.9568ZM29.3201 38.7796L28.6839 38.008L28.6772 38.0136L29.3201 38.7796ZM26.5464 40.5224L26.9206 41.4497L26.9276 41.4469L26.9345 41.444L26.5464 40.5224ZM21.3672 40.3751L20.8801 41.2485L20.8872 41.2523L21.3672 40.3751ZM17.4889 37.1595L18.1823 36.439L17.1544 35.4499L16.5751 36.7534L17.4889 37.1595ZM15.0097 39.9087L15.5592 40.7443L15.5671 40.739L15.0097 39.9087ZM2.76124 37.2086L3.61349 36.6854L3.6086 36.6776L2.76124 37.2086ZM9.9287 28.0529L9.27547 28.8101L9.28338 28.8169L9.29144 28.8236L9.9287 28.0529ZM10.4687 34.6067L9.60678 34.0997L9.60306 34.1061L9.59942 34.1124L10.4687 34.6067ZM7.69501 36.3004L7.48548 35.3226L6.2233 35.5931L6.80058 36.7476L7.69501 36.3004ZM8.99595 37.5523L8.46592 38.4003L8.47534 38.4061L8.99595 37.5523ZM15.9916 34.4104H16.9916L15.0289 34.1398L15.9916 34.4104ZM18.0044 24.3465L18.9972 24.4663L18.9983 24.4568L18.9993 24.4472L18.0044 24.3465ZM17.0962 12.4416L16.1423 12.7418L16.1429 12.7437L17.0962 12.4416ZM15.697 5.74054L14.9899 6.44765C15.9795 7.43722 16.8376 8.53486 17.5651 9.7422L18.4216 9.22609L19.2782 8.70998C18.4674 7.36452 17.5092 6.13846 16.4041 5.03343L15.697 5.74054ZM18.4216 9.22609L17.57 9.75018C18.2637 10.8775 18.8141 12.4828 19.1786 14.6224L20.1644 14.4544L21.1502 14.2865C20.762 12.0077 20.1505 10.1275 19.2733 8.70199L18.4216 9.22609ZM20.1644 14.4544L19.1824 14.6433C19.4953 16.2703 19.6553 18.1282 19.6553 20.2227H20.6553H21.6553C21.6553 18.0299 21.4881 16.0422 21.1464 14.2656L20.1644 14.4544ZM20.6553 20.2227H19.6553C19.6553 21.2669 19.5919 22.6297 19.4619 24.3189L20.459 24.3956L21.456 24.4723C21.5879 22.7577 21.6553 21.3386 21.6553 20.2227H20.6553ZM20.459 24.3956L19.4638 24.297C19.2862 26.0897 19.0439 27.8827 18.7369 29.6761L19.7226 29.8448L20.7083 30.0135C21.0231 28.1741 21.2717 26.3343 21.4541 24.4942L20.459 24.3956ZM19.7226 29.8448L18.7357 29.6833C18.4457 31.4559 18.1188 32.932 17.7591 34.1207L18.7162 34.4104L19.6733 34.7C20.0663 33.4014 20.4104 31.8338 20.7095 30.0063L19.7226 29.8448ZM18.7162 34.4104L17.918 35.0128C18.6283 35.9539 19.513 36.8526 20.5614 37.712L21.1954 36.9386L21.8293 36.1652C20.8813 35.3882 20.1132 34.6014 19.5144 33.808L18.7162 34.4104ZM21.1954 36.9386L20.5676 37.717C21.7219 38.6479 22.9843 39.1659 24.3373 39.1659V38.1659V37.1659C23.5302 37.1659 22.698 36.8657 21.8231 36.1602L21.1954 36.9386ZM24.3373 38.1659V39.1659C25.214 39.1659 26.0309 39.0035 26.7624 38.6482L26.3255 37.7486L25.8886 36.8491C25.4746 37.0502 24.966 37.1659 24.3373 37.1659V38.1659ZM26.3255 37.7486L26.7525 38.6529C27.474 38.3122 28.1499 37.7983 28.7853 37.1448L28.0683 36.4477L27.3513 35.7506C26.8411 36.2754 26.3552 36.6287 25.8985 36.8444L26.3255 37.7486ZM28.0683 36.4477L28.785 37.1451C29.4114 36.5013 30.2555 35.5027 31.3075 34.1712L30.5229 33.5513L29.7382 32.9313C28.6956 34.2508 27.9034 35.1832 27.3515 35.7503L28.0683 36.4477ZM30.5229 33.5513L31.5095 33.3884C30.0631 24.628 28.1863 17.8327 25.8491 13.0575L24.9509 13.4971L24.0527 13.9367C26.2648 18.4563 28.1025 25.0305 29.5362 33.7142L30.5229 33.5513ZM24.9509 13.4971L25.8497 13.0587C23.4659 8.17202 20.1423 5.27701 15.8185 4.74794L15.697 5.74054L15.5756 6.73314C19.0084 7.15318 21.8539 9.42922 24.0521 13.9355L24.9509 13.4971ZM13.4388 6.05964L13.0449 5.1405C12.7152 5.2818 12.404 5.40617 12.1112 5.51403L12.4569 6.45238L12.8027 7.39072C13.1317 7.26949 13.4751 7.13203 13.8327 6.97879L13.4388 6.05964ZM12.4569 6.45238L12.1558 5.4988C11.8264 5.60282 11.5241 5.7092 11.251 5.81845L11.6224 6.74693L11.9938 7.67541C12.2116 7.58829 12.4657 7.4983 12.7581 7.40596L12.4569 6.45238ZM11.6224 6.74693L11.2285 5.82779C11.1038 5.8812 10.9761 5.93992 10.8685 6.00142C10.8192 6.0296 10.7345 6.08047 10.6494 6.15336C10.6074 6.18936 10.5344 6.25675 10.4649 6.35603C10.4016 6.44643 10.2787 6.65201 10.2787 6.9433H11.2787H12.2787C12.2787 7.22641 12.1595 7.42278 12.1033 7.50295C12.041 7.59201 11.9787 7.64815 11.951 7.67187C11.9188 7.69945 11.8932 7.71708 11.8818 7.72472C11.869 7.73322 11.8612 7.73765 11.8608 7.7379C11.8607 7.73798 11.8726 7.73127 11.902 7.71729C11.9301 7.70392 11.9677 7.68692 12.0163 7.66608L11.6224 6.74693ZM11.2787 6.9433L10.7141 7.76861C11.2244 8.11782 11.6113 8.5288 11.892 9.00078L12.7515 8.4897L13.611 7.97863C13.1717 7.23967 12.5767 6.61971 11.8434 6.11799L11.2787 6.9433ZM12.7515 8.4897L11.9022 9.01764C12.1525 9.42029 12.3161 9.99886 12.3161 10.8216H13.3161H14.3161C14.3161 9.74608 14.1032 8.77006 13.6008 7.96177L12.7515 8.4897ZM13.3161 10.8216H12.3161C12.3161 12.0381 12.0968 12.9188 11.7392 13.5354L12.6042 14.0371L13.4693 14.5388C14.0607 13.519 14.3161 12.2561 14.3161 10.8216H13.3161ZM12.6042 14.0371L11.7317 13.5485C11.3577 14.2164 10.9151 14.6213 10.4231 14.845L10.8369 15.7553L11.2507 16.6657C12.1987 16.2348 12.9344 15.4942 13.4767 14.5257L12.6042 14.0371ZM10.8369 15.7553L10.4152 14.8486C9.84527 15.1137 9.24482 15.2463 8.60321 15.2463V16.2463V17.2463C9.53255 17.2463 10.4212 17.0516 11.2586 16.6621L10.8369 15.7553ZM8.60321 16.2463V15.2463C7.24536 15.2463 6.1837 14.8068 5.33931 13.9492L4.62674 14.6508L3.91418 15.3524C5.16438 16.6221 6.75371 17.2463 8.60321 17.2463V16.2463ZM4.62674 14.6508L5.3501 13.9603C4.48948 13.0587 4.08034 12.0432 4.08034 10.8707H3.08034H2.08034C2.08034 12.5782 2.70213 14.0828 3.90339 15.3412L4.62674 14.6508ZM3.08034 10.8707H4.08034C4.08034 7.85315 4.95805 5.92646 6.49298 4.80529L5.90314 3.99777L5.3133 3.19025C3.0845 4.81824 2.08034 7.47348 2.08034 10.8707H3.08034ZM5.90314 3.99777L6.48965 4.80771C8.14603 3.60826 10.6763 2.9359 14.2243 2.9359V1.9359V0.935897C10.4739 0.935897 7.45671 1.63811 5.31663 3.18783L5.90314 3.99777ZM14.2243 1.9359V2.9359C16.3775 2.9359 18.3365 3.2711 20.1114 3.92903L20.459 2.99138L20.8066 2.05373C18.785 1.30435 16.5875 0.935897 14.2243 0.935897V1.9359ZM20.459 2.99138L20.1053 3.92674C21.9418 4.62122 23.5617 5.59754 24.9728 6.85525L25.6382 6.10873L26.3036 5.36222C24.7037 3.93622 22.8708 2.83431 20.8127 2.05602L20.459 2.99138ZM25.6382 6.10873L25.005 6.88269C25.8254 7.55397 26.7383 8.52944 27.7417 9.83533L28.5346 9.22609L29.3276 8.61684C28.2691 7.23903 27.251 6.13626 26.2714 5.33478L25.6382 6.10873ZM28.5346 9.22609L27.75 9.84604C28.7151 11.0675 29.654 12.7949 30.5499 15.0667L31.4802 14.6999L32.4104 14.333C31.4736 11.9574 30.4487 10.0356 29.3193 8.60613L28.5346 9.22609ZM31.4802 14.6999L30.536 15.0292L33.8497 24.5286L34.7939 24.1992L35.7381 23.8698L32.4244 14.3705L31.4802 14.6999ZM34.7939 24.1992L33.8452 24.5154C34.1556 25.4466 34.4249 26.2625 34.653 26.9634L35.6039 26.6538L36.5548 26.3442C36.3248 25.6378 36.054 24.8173 35.7426 23.883L34.7939 24.1992ZM35.6039 26.6538L34.6597 26.9832C34.9124 27.7077 35.2381 28.5588 35.6349 29.5343L36.5612 29.1575L37.4875 28.7807C37.0988 27.8253 36.7863 27.0073 36.5481 26.3244L35.6039 26.6538ZM36.5612 29.1575L35.6405 29.5477C36.0602 30.5383 36.514 31.4965 37.0021 32.4222L37.8867 31.9558L38.7713 31.4894C38.3102 30.615 37.8804 29.7077 37.482 28.7674L36.5612 29.1575ZM37.8867 31.9558L37.0021 32.4222C37.5048 33.3755 38.1314 34.3521 38.8769 35.3518L39.6786 34.754L40.4802 34.1562C39.7857 33.225 39.2177 32.3361 38.7713 31.4894L37.8867 31.9558ZM39.6786 34.754L38.8694 35.3416C39.9258 36.7964 41.0788 37.8854 42.3487 38.5203L42.7959 37.6259L43.2431 36.7315C42.353 36.2864 41.4277 35.4608 40.4877 34.1664L39.6786 34.754ZM42.7959 37.6259L42.3103 38.5001C42.6323 38.6789 42.941 38.8297 43.2345 38.9471L43.6059 38.0187L43.9773 37.0902C43.78 37.0112 43.5487 36.9002 43.2816 36.7518L42.7959 37.6259ZM43.6059 38.0187L43.2345 38.9471C43.5712 39.0818 43.967 39.1785 44.3988 39.2505L44.5632 38.2641L44.7276 37.2777C44.374 37.2188 44.1316 37.1519 43.9773 37.0902L43.6059 38.0187ZM44.5632 38.2641L44.3988 39.2505C44.8583 39.3271 45.3651 39.3623 45.9133 39.3623V38.3623V37.3623C45.4469 37.3623 45.0537 37.3321 44.7276 37.2777L44.5632 38.2641ZM45.9133 38.3623V39.3623C46.7383 39.3623 47.6216 39.2921 48.5609 39.1555L48.417 38.1659L48.273 37.1763C47.4123 37.3015 46.6265 37.3623 45.9133 37.3623V38.3623ZM48.417 38.1659L47.6092 37.5765C47.5074 37.7159 47.2605 37.9432 46.7602 38.2344C46.2748 38.517 45.6166 38.8223 44.77 39.1467L45.1278 40.0805L45.4856 41.0143C46.3899 40.6678 47.1554 40.3186 47.7664 39.9629C48.3625 39.6159 48.8847 39.2214 49.2248 38.7554L48.417 38.1659ZM45.1278 40.0805L44.77 39.1467C43.9083 39.4769 43.2091 39.7177 42.6658 39.8746C42.0981 40.0385 41.7789 40.0869 41.6423 40.0869V41.0869V42.0869C42.0783 42.0869 42.6265 41.9676 43.2206 41.7961C43.8392 41.6175 44.5964 41.3551 45.4856 41.0143L45.1278 40.0805ZM41.6423 41.0869V40.0869C40.1675 40.0869 38.58 39.7004 36.8694 38.8836L36.4385 39.786L36.0076 40.6884C37.9298 41.6062 39.8115 42.0869 41.6423 42.0869V41.0869ZM36.4385 39.786L36.8725 38.8851C35.2184 38.0881 33.7636 36.9111 32.508 35.3339L31.7256 35.9568L30.9433 36.5796C32.3714 38.3734 34.0584 39.7492 36.0044 40.6869L36.4385 39.786ZM31.7256 35.9568L30.8693 35.4404C30.2524 36.4635 29.5231 37.3161 28.6839 38.008L29.3201 38.7796L29.9563 39.5511C30.9827 38.7048 31.857 37.6755 32.582 36.4731L31.7256 35.9568ZM29.3201 38.7796L28.6772 38.0136C27.824 38.7297 26.9838 39.2531 26.1583 39.6007L26.5464 40.5224L26.9345 41.444C27.9745 41.0061 28.9835 40.3676 29.963 39.5456L29.3201 38.7796ZM26.5464 40.5224L26.1722 39.595C25.2902 39.9509 24.659 40.0869 24.2391 40.0869V41.0869V42.0869C25.0301 42.0869 25.9372 41.8465 26.9206 41.4497L26.5464 40.5224ZM24.2391 41.0869V40.0869C23.3493 40.0869 22.5585 39.887 21.8472 39.4978L21.3672 40.3751L20.8872 41.2523C21.9104 41.8122 23.0343 42.0869 24.2391 42.0869V41.0869ZM21.3672 40.3751L21.8542 39.5017C21.1291 39.0973 19.9192 38.1104 18.1823 36.439L17.4889 37.1595L16.7955 37.8801C18.5277 39.547 19.9034 40.7038 20.8801 41.2484L21.3672 40.3751ZM17.4889 37.1595L16.5751 36.7534C16.2119 37.5707 15.5332 38.353 14.4524 39.0784L15.0097 39.9087L15.5671 40.739C16.8755 39.8608 17.8495 38.8103 18.4027 37.5657L17.4889 37.1595ZM15.0097 39.9087L14.4603 39.0731C13.434 39.748 12.2925 40.0869 11.0087 40.0869V41.0869V42.0869C12.6705 42.0869 14.1963 41.6404 15.5591 40.7443L15.0097 39.9087ZM11.0087 41.0869V40.0869C7.33087 40.0869 4.9661 38.8887 3.61345 36.6854L2.76124 37.2086L1.90903 37.7318C3.73101 40.6996 6.86456 42.0869 11.0087 42.0869V41.0869ZM2.76124 37.2086L3.6086 36.6776C2.95075 35.6278 2.60757 34.3928 2.60757 32.9376H1.60757H0.607575C0.607575 34.7225 1.03351 36.3348 1.91388 37.7396L2.76124 37.2086ZM1.60757 32.9376H2.60757C2.60757 31.0045 2.9439 29.7532 3.45774 29.0191L2.63851 28.4457L1.81928 27.8722C0.958538 29.1018 0.607575 30.8451 0.607575 32.9376H1.60757ZM2.63851 28.4457L3.45774 29.0191C3.87578 28.4219 4.72816 27.9729 6.39406 27.9729V26.9729V25.9729C4.42714 25.9729 2.77582 26.5057 1.81928 27.8722L2.63851 28.4457ZM6.39406 26.9729V27.9729C7.76726 27.9729 8.68129 28.2975 9.27547 28.8101L9.9287 28.0529L10.5819 27.2958C9.50698 26.3684 8.06458 25.9729 6.39406 25.9729V26.9729ZM9.9287 28.0529L9.29144 28.8236C9.86327 29.2964 10.2051 30.0069 10.2051 31.1212H11.2051H12.2051C12.2051 29.5518 11.696 28.2167 10.566 27.2823L9.9287 28.0529ZM11.2051 31.1212H10.2051C10.2051 32.5201 9.9712 33.4802 9.60678 34.0997L10.4687 34.6067L11.3306 35.1138C11.9481 34.0642 12.2051 32.7006 12.2051 31.1212H11.2051ZM10.4687 34.6067L9.59942 34.1124C9.32086 34.6023 8.71278 35.0596 7.48548 35.3226L7.69501 36.3004L7.90453 37.2782C9.4264 36.9521 10.6675 36.2803 11.338 35.101L10.4687 34.6067ZM7.69501 36.3004L6.80058 36.7476C7.13199 37.4105 7.74293 37.9484 8.46595 38.4003L8.99595 37.5523L9.52595 36.7043C8.93985 36.338 8.68348 36.0413 8.58943 35.8532L7.69501 36.3004ZM8.99595 37.5523L8.47534 38.4061C9.36615 38.9492 10.5156 39.1659 11.8187 39.1659V38.1659V37.1659C10.7 37.1659 9.9676 36.9735 9.51656 36.6985L8.99595 37.5523ZM11.8187 38.1659V39.1659C13.0755 39.1659 14.1897 38.7802 15.0896 37.9703C15.9705 37.1775 16.5704 36.0468 16.9543 34.6809L15.9916 34.4104L15.0289 34.1398C14.7091 35.2777 14.2617 36.0247 13.7517 36.4837C13.2606 36.9257 12.6403 37.1659 11.8187 37.1659V38.1659ZM15.9916 34.4104H14.9916C14.9916 34.434 14.9912 34.533 15.021 34.654C15.0349 34.7105 15.0734 34.8504 15.1795 34.9986C15.3007 35.1677 15.5488 35.3908 15.9307 35.4147C16.2644 35.4355 16.497 35.2878 16.5875 35.2211C16.6886 35.1466 16.7524 35.0698 16.7809 35.0336C16.8402 34.9582 16.8753 34.8908 16.8863 34.8694C16.9297 34.7853 16.9577 34.7 16.9628 34.6851C16.9871 34.6138 17.017 34.5146 17.05 34.4013C17.1181 34.167 17.2183 33.8057 17.3495 33.3221L16.3843 33.0603L15.4192 32.7986C15.2885 33.2805 15.1923 33.6269 15.1296 33.8426C15.0971 33.9544 15.0779 34.0157 15.0695 34.0406C15.0582 34.0737 15.0739 34.0203 15.1091 33.9521C15.1181 33.9347 15.1514 33.8702 15.2092 33.7968C15.2369 33.7616 15.3 33.6855 15.4004 33.6115C15.4903 33.5452 15.7223 33.3977 16.0555 33.4186C16.4369 33.4424 16.6846 33.6652 16.8054 33.8338C16.9111 33.9814 16.9493 34.1205 16.963 34.176C16.9923 34.2949 16.9916 34.3908 16.9916 34.4104H15.9916ZM16.3843 33.0603L17.3495 33.3221C17.6193 32.3271 17.9025 31.0842 18.1995 29.5991L17.2189 29.403L16.2383 29.2069C15.9462 30.6673 15.673 31.8627 15.4192 32.7986L16.3843 33.0603ZM17.2189 29.403L18.1995 29.5991C18.5002 28.0953 18.7658 26.3836 18.9972 24.4663L18.0044 24.3465L17.0116 24.2267C16.7848 26.1058 16.5267 27.7651 16.2383 29.2069L17.2189 29.403ZM18.0044 24.3465L18.9993 24.4472C19.1341 23.1159 19.2007 21.6745 19.2007 20.1246H18.2007H17.2007C17.2007 21.6183 17.1365 22.9915 17.0095 24.2457L18.0044 24.3465ZM18.2007 20.1246H19.2007C19.2007 17.2387 18.821 14.5742 18.0494 12.1395L17.0962 12.4416L16.1429 12.7437C16.8441 14.9565 17.2007 17.4139 17.2007 20.1246H18.2007ZM17.0962 12.4416L18.05 12.1415C17.2694 9.66083 15.9776 7.41057 14.1862 5.39528L13.4388 6.05964L12.6914 6.724C14.3037 8.5379 15.4501 10.5423 16.1423 12.7418L17.0962 12.4416ZM10.6651 53.4951H11.6651V52.8906L11.1299 52.6097L10.6651 53.4951ZM3.79218 49.8868V48.8868L3.32734 50.7722L3.79218 49.8868ZM15.9425 49.8868L16.9015 50.1703L17.2808 48.8868H15.9425V49.8868ZM12.3588 64.7617L11.3713 64.6039L11.3708 64.6072L12.3588 64.7617ZM12.0151 81.2076L11.0416 81.4367L11.0444 81.4479L12.0151 81.2076ZM14.1015 85.1595L13.3944 85.8667L13.4003 85.8725L14.1015 85.1595ZM23.9936 83.2449L24.7257 83.9262L25.1808 83.4371L24.9032 82.8295L23.9936 83.2449ZM22.079 78.7039L21.1475 79.0676L21.1487 79.0707L22.079 78.7039ZM20.2381 72.8865L19.2679 73.129L19.2697 73.1359L20.2381 72.8865ZM21.6863 53.8387L20.7583 53.466L20.7556 53.4728L21.6863 53.8387ZM24.46 49.8868L24.9468 49.0133L24.4134 48.716L23.9053 49.0548L24.46 49.8868ZM27.2091 52.7832L26.3543 53.3022L26.3589 53.3096L27.2091 52.7832ZM29.4183 57.5452L28.4731 57.8717L28.474 57.8744L29.4183 57.5452ZM30.8174 62.6999L29.8347 62.8847L29.835 62.8865L30.8174 62.6999ZM30.9156 71.3401L29.9315 71.1622L29.9299 71.1718L30.9156 71.3401ZM29.8356 75.6602L30.7873 75.9672L30.7882 75.9642L29.8356 75.6602ZM27.1601 83.0977L26.2241 82.7456L25.9924 83.3615L26.4664 83.818L27.1601 83.0977ZM28.3874 84.3004L27.6803 85.0075L27.6956 85.0229L27.7116 85.0376L28.3874 84.3004ZM29.6883 85.2823L29.1609 86.1319L29.1779 86.1424L29.1953 86.1523L29.6883 85.2823ZM31.2593 85.9205L31.0034 86.8872L31.0102 86.889L31.2593 85.9205ZM33.4929 86.215L33.4395 87.2136L33.4662 87.215H33.4929V86.215ZM38.1567 64.6145L37.1829 64.8419L37.1838 64.8457L38.1567 64.6145ZM32.9038 49.8868V48.8868H31.3699L31.9889 50.2903L32.9038 49.8868ZM45.1032 49.8868L45.6177 50.7443L48.7136 48.8868H45.1032V49.8868ZM39.3349 53.3478L38.8204 52.4903L38.0519 52.9514L38.4264 53.7656L39.3349 53.3478ZM45.1769 67.9036L44.2177 68.1865L44.2182 68.1881L45.1769 67.9036ZM45.6678 79.833L46.638 80.0756L46.6385 80.0734L45.6678 79.833ZM39.654 87.8351L40.1083 88.7259L40.1118 88.7241L39.654 87.8351ZM31.0138 88.6205L30.6292 89.5436L30.6407 89.5484L30.6523 89.5529L31.0138 88.6205ZM28.6819 87.3441L28.099 88.1567L28.109 88.1638L28.1191 88.1707L28.6819 87.3441ZM25.6627 85.0123L26.2899 84.2334L25.5669 83.6512L24.9326 84.3289L25.6627 85.0123ZM10.0269 86.8778L9.42896 87.6794L9.43637 87.6848L10.0269 86.8778ZM5.63313 81.2813L4.70887 81.663L4.70986 81.6654L5.63313 81.2813ZM5.11766 69.0082L6.08437 69.2641L6.08483 69.2624L5.11766 69.0082ZM7.13044 62.5035L6.18937 62.1653L7.13044 62.5035ZM10.6651 53.4951L11.1299 52.6097L4.25701 49.0014L3.79218 49.8868L3.32734 50.7722L10.2002 54.3805L10.6651 53.4951ZM3.79218 49.8868V50.8868H15.9425V49.8868V48.8868H3.79218V49.8868ZM15.9425 49.8868L14.9835 49.6033C13.226 55.5493 12.0188 60.5527 11.3713 64.6039L12.3588 64.7617L13.3462 64.9196C13.9751 60.9851 15.1571 56.0719 16.9015 50.1703L15.9425 49.8868ZM12.3588 64.7617L11.3708 64.6072C10.7428 68.6228 10.426 72.2757 10.426 75.562H11.426H12.426C12.426 72.4009 12.731 68.8536 13.3468 64.9162L12.3588 64.7617ZM11.426 75.562H10.426C10.426 77.7174 10.6279 79.6781 11.0417 81.4367L12.0151 81.2076L12.9885 80.9786C12.6168 79.3989 12.426 77.5958 12.426 75.562H11.426ZM12.0151 81.2076L11.0444 81.4479C11.4874 83.2375 12.2576 84.7298 13.3944 85.8666L14.1015 85.1595L14.8086 84.4524C13.9818 83.6256 13.3611 82.4833 12.9858 80.9673L12.0151 81.2076ZM14.1015 85.1595L13.4003 85.8725C14.617 87.0692 16.2023 87.6323 18.0535 87.6323V86.6323V85.6323C16.6318 85.6323 15.5825 85.2136 14.8028 84.4466L14.1015 85.1595ZM18.0535 86.6323V87.6323C19.2688 87.6323 20.417 87.3115 21.4821 86.6838L20.9744 85.8223L20.4667 84.9607C19.6991 85.4131 18.9 85.6323 18.0535 85.6323V86.6323ZM20.9744 85.8223L21.4821 86.6838C22.5126 86.0766 23.5936 85.1427 24.7257 83.9262L23.9936 83.2449L23.2615 82.5637C22.2008 83.7036 21.2691 84.4879 20.4667 84.9607L20.9744 85.8223ZM23.9936 83.2449L24.9032 82.8295C24.3066 81.5235 23.6753 80.0265 23.0093 78.3372L22.079 78.7039L21.1487 79.0707C21.8246 80.785 22.4696 82.3155 23.084 83.6604L23.9936 83.2449ZM22.079 78.7039L23.0105 78.3402C22.3568 76.666 21.7548 74.766 21.2064 72.6371L20.2381 72.8865L19.2697 73.1359C19.8341 75.3271 20.4594 77.3053 21.1475 79.0676L22.079 78.7039ZM20.2381 72.8865L21.2082 72.644C20.6833 70.5445 20.428 68.6556 20.428 66.9709H19.428H18.428C18.428 68.8536 18.7127 70.9083 19.2679 73.129L20.2381 72.8865ZM19.428 66.9709H20.428C20.428 64.8689 20.6112 62.6721 20.9799 60.3795L19.9926 60.2207L19.0053 60.0619C18.6213 62.4495 18.428 64.7528 18.428 66.9709H19.428ZM19.9926 60.2207L20.9799 60.3795C21.3466 58.0999 21.8941 56.0432 22.6169 54.2046L21.6863 53.8387L20.7556 53.4728C19.973 55.4634 19.3914 57.6614 19.0053 60.0619L19.9926 60.2207ZM21.6863 53.8387L22.6142 54.2115C23.3489 52.3827 24.175 51.2787 25.0147 50.7189L24.46 49.8868L23.9053 49.0548C22.5849 49.935 21.5619 51.4656 20.7583 53.466L21.6863 53.8387ZM24.46 49.8868L23.9731 50.7603C24.7708 51.2049 25.575 52.0186 26.3544 53.3022L27.2091 52.7832L28.0639 52.2643C27.1741 50.7987 26.1456 49.6815 24.9468 49.0133L24.46 49.8868ZM27.2091 52.7832L26.3589 53.3096C27.1647 54.6113 27.8713 56.1296 28.4731 57.8717L29.4183 57.5452L30.3635 57.2187C29.7216 55.3607 28.9554 53.7043 28.0594 52.2569L27.2091 52.7832ZM29.4183 57.5452L28.474 57.8744C29.0814 59.6166 29.534 61.2865 29.8347 62.8847L30.8174 62.6999L31.8002 62.515C31.479 60.8077 30.9988 59.0411 30.3626 57.216L29.4183 57.5452ZM30.8174 62.6999L29.835 62.8865C30.1382 64.4825 30.2838 65.8409 30.2838 66.9709H31.2838H32.2838C32.2838 65.679 32.1184 64.19 31.7998 62.5132L30.8174 62.6999ZM31.2838 66.9709H30.2838C30.2838 68.4732 30.1652 69.8695 29.9315 71.1622L30.9156 71.3401L31.8997 71.5179C32.157 70.0942 32.2838 68.5778 32.2838 66.9709H31.2838ZM30.9156 71.3401L29.9299 71.1718C29.7099 72.4602 29.3622 73.8544 28.8829 75.3562L29.8356 75.6602L30.7882 75.9642C31.2908 74.3895 31.6631 72.9037 31.9013 71.5084L30.9156 71.3401ZM29.8356 75.6602L28.8839 75.3532C28.4009 76.8503 27.5165 79.31 26.2241 82.7456L27.1601 83.0977L28.096 83.4498C29.3891 80.0124 30.2884 77.5138 30.7873 75.9672L29.8356 75.6602ZM27.1601 83.0977L26.4664 83.818C26.9044 84.2397 27.3089 84.6362 27.6803 85.0075L28.3874 84.3004L29.0945 83.5933C28.713 83.2119 28.2994 82.8065 27.8537 82.3773L27.1601 83.0977ZM28.3874 84.3004L27.7116 85.0376C28.1524 85.4416 28.6361 85.8061 29.1609 86.1319L29.6883 85.2823L30.2157 84.4326C29.7914 84.1693 29.4078 83.8793 29.0631 83.5633L28.3874 84.3004ZM29.6883 85.2823L29.1953 86.1523C29.7623 86.4736 30.3658 86.7184 31.0034 86.8872L31.2593 85.9205L31.5151 84.9538C31.04 84.828 30.5962 84.6473 30.1813 84.4122L29.6883 85.2823ZM31.2593 85.9205L31.0102 86.889C31.6719 87.0591 32.4889 87.1627 33.4395 87.2136L33.4929 86.215L33.5464 85.2165C32.6642 85.1692 31.9921 85.0764 31.5083 84.952L31.2593 85.9205ZM33.4929 86.215V87.215C35.8512 87.215 37.6551 85.9838 38.8625 83.7734L37.9849 83.294L37.1073 82.8147C36.1873 84.4989 34.9966 85.215 33.4929 85.215V86.215ZM37.9849 83.294L38.8625 83.7734C40.0405 81.6167 40.5804 78.6839 40.5804 75.0711H39.5804H38.5804C38.5804 78.5276 38.0566 81.0767 37.1073 82.8147L37.9849 83.294ZM39.5804 75.0711H40.5804C40.5804 71.9919 40.0905 68.4255 39.1296 64.3832L38.1567 64.6145L37.1838 64.8457C38.1212 68.789 38.5804 72.1937 38.5804 75.0711H39.5804ZM38.1567 64.6145L39.1305 64.387C38.1782 60.3103 36.4009 55.3382 33.8188 49.4833L32.9038 49.8868L31.9889 50.2903C34.5451 56.0866 36.2698 60.9329 37.1829 64.8419L38.1567 64.6145ZM32.9038 49.8868V50.8868H45.1032V49.8868V48.8868H32.9038V49.8868ZM45.1032 49.8868L44.5888 49.0293L38.8204 52.4903L39.3349 53.3478L39.8494 54.2053L45.6177 50.7443L45.1032 49.8868ZM39.3349 53.3478L38.4264 53.7656C39.8314 56.8207 40.9642 59.3636 41.8262 61.3965L42.7468 61.0062L43.6675 60.6158C42.7948 58.5577 41.653 55.995 40.2434 52.93L39.3349 53.3478ZM42.7468 61.0062L41.8262 61.3965C42.676 63.4009 43.4737 65.6633 44.2177 68.1865L45.1769 67.9036L46.1361 67.6208C45.3746 65.0384 44.5522 62.7025 43.6675 60.6158L42.7468 61.0062ZM45.1769 67.9036L44.2182 68.1881C44.9535 70.6656 45.306 72.7833 45.306 74.5556H46.306H47.306C47.306 72.5315 46.9058 70.2145 46.1356 67.6191L45.1769 67.9036ZM46.306 74.5556H45.306C45.306 76.276 45.1028 77.9544 44.6971 79.5927L45.6678 79.833L46.6385 80.0734C47.0838 78.2752 47.306 76.4353 47.306 74.5556H46.306ZM45.6678 79.833L44.6977 79.5905C44.3005 81.1793 43.6539 82.614 42.7599 83.902L43.5814 84.4723L44.4029 85.0425C45.4398 83.5486 46.1842 81.8905 46.638 80.0756L45.6678 79.833ZM43.5814 84.4723L42.7599 83.902C41.8966 85.1457 40.7181 86.1625 39.1963 86.946L39.654 87.8351L40.1118 88.7241C41.8955 87.8058 43.3352 86.5807 44.4029 85.0425L43.5814 84.4723ZM39.654 87.8351L39.1997 86.9442C37.7389 87.6892 35.8997 88.0869 33.6402 88.0869V89.0869V90.0869C36.1264 90.0869 38.2963 89.6501 40.1083 88.7259L39.654 87.8351ZM33.6402 89.0869V88.0869C32.802 88.0869 32.0505 87.95 31.3753 87.6882L31.0138 88.6205L30.6523 89.5529C31.5808 89.9129 32.5803 90.0869 33.6402 90.0869V89.0869ZM31.0138 88.6205L31.3984 87.6975C30.6809 87.3985 29.963 87.0066 29.2447 86.5175L28.6819 87.3441L28.1191 88.1707C28.9391 88.729 29.7757 89.188 30.6292 89.5436L31.0138 88.6205ZM28.6819 87.3441L29.2648 86.5316C28.5342 86.0075 27.5444 85.2435 26.2899 84.2334L25.6627 85.0123L25.0356 85.7912C26.3011 86.8102 27.3241 87.6008 28.099 88.1567L28.6819 87.3441ZM25.6627 85.0123L24.9326 84.3289C23.8138 85.5244 22.5839 86.4476 21.2431 87.1105L21.6863 88.0069L22.1295 88.9033C23.7015 88.1261 25.1225 87.053 26.3929 85.6956L25.6627 85.0123ZM21.6863 88.0069L21.2431 87.1105C19.89 87.7794 18.6672 88.0869 17.5625 88.0869V89.0869V90.0869C19.0433 90.0869 20.5697 89.6744 22.1295 88.9033L21.6863 88.0069ZM17.5625 89.0869V88.0869C14.7188 88.0869 12.4257 87.3939 10.6174 86.0707L10.0269 86.8778L9.43637 87.6848C11.6536 89.3072 14.3843 90.0869 17.5625 90.0869V89.0869ZM10.0269 86.8778L10.6248 86.0762C8.76846 84.6916 7.41832 82.9687 6.55641 80.8971L5.63313 81.2813L4.70986 81.6654C5.71345 84.0775 7.29247 86.0857 9.42899 87.6793L10.0269 86.8778ZM5.63313 81.2813L6.55739 80.8995C5.66973 78.7504 5.23401 76.6379 5.23401 74.5556H4.23401H3.23401C3.23401 76.9244 3.73103 79.2956 4.70887 81.663L5.63313 81.2813ZM4.23401 74.5556H5.23401C5.23401 73.2034 5.50646 71.4473 6.08437 69.2641L5.11766 69.0082L4.15096 68.7523C3.55066 71.0201 3.23401 72.9623 3.23401 74.5556H4.23401ZM5.11766 69.0082L6.08483 69.2624C6.66678 67.0477 7.3291 64.9076 8.07152 62.8417L7.13044 62.5035L6.18937 62.1653C5.4263 64.2886 4.74676 66.485 4.1505 68.7541L5.11766 69.0082ZM7.13044 62.5035L8.07152 62.8417C8.81941 60.7606 9.59127 58.7539 10.387 56.8214L9.46232 56.4406L8.53765 56.0599C7.7297 58.022 6.94697 60.0572 6.18937 62.1653L7.13044 62.5035ZM9.46232 56.4406L10.387 56.8214C10.788 55.8475 11.0892 55.1141 11.2902 54.6218C11.3906 54.3759 11.4666 54.1886 11.5179 54.0611C11.5433 53.9978 11.5637 53.9464 11.5783 53.9089C11.5853 53.891 11.5929 53.8711 11.5996 53.8529C11.6025 53.8449 11.6083 53.8288 11.6145 53.81C11.6172 53.8015 11.6236 53.7817 11.6304 53.7565C11.6337 53.7443 11.6398 53.7208 11.6457 53.691C11.6489 53.6752 11.6651 53.5967 11.6651 53.4951H10.6651H9.66508C9.66508 53.3937 9.68123 53.3156 9.68427 53.3003C9.69011 53.271 9.69606 53.2481 9.69917 53.2366C9.70556 53.2128 9.71137 53.1949 9.71334 53.1889C9.71598 53.1808 9.71809 53.1748 9.71907 53.172C9.72018 53.1688 9.72095 53.1667 9.72121 53.166C9.72162 53.1649 9.71985 53.1697 9.71428 53.184C9.7038 53.211 9.68667 53.2542 9.66196 53.3157C9.61295 53.4377 9.53866 53.6207 9.4386 53.8657C9.23871 54.3552 8.93848 55.0864 8.53765 56.0599L9.46232 56.4406Z" fill="#89662D" mask="url(#path-1-outside-1_201_8129)"/>
</svg>
