<svg xmlns="http://www.w3.org/2000/svg" width="51" height="91" fill="none"><mask id="a" width="51" height="90" x="0" y=".087" fill="#000" maskUnits="userSpaceOnUse"><path fill="#fff" d="M0 .087h51v90H0z"/><path d="M15.697 5.74a18.176 18.176 0 0 1 2.725 3.486c.785 1.276 1.366 3.02 1.742 5.228.328 1.702.491 3.625.491 5.769 0 1.08-.065 2.47-.196 4.173a77.72 77.72 0 0 1-.736 5.449c-.295 1.8-.63 3.322-1.007 4.565.655.868 1.481 1.71 2.48 2.529 1.014.818 2.061 1.227 3.141 1.227.753 0 1.416-.14 1.989-.417.589-.279 1.17-.712 1.742-1.301.59-.606 1.408-1.571 2.455-2.897-1.44-8.722-3.297-15.407-5.572-20.054-2.291-4.696-5.376-7.282-9.254-7.756Zm-2.258.32c-.344.147-.671.278-.982.392-.311.099-.59.197-.835.295-.229.098-.343.164-.343.196.622.426 1.113.941 1.473 1.547.376.605.564 1.382.564 2.332 0 1.325-.237 2.397-.712 3.215-.458.818-1.047 1.391-1.767 1.718a5.233 5.233 0 0 1-2.234.491c-1.603 0-2.929-.532-3.976-1.595-1.031-1.08-1.547-2.34-1.547-3.78 0-3.208.941-5.499 2.823-6.873 1.898-1.375 4.672-2.062 8.321-2.062 2.259 0 4.337.352 6.235 1.055a16.454 16.454 0 0 1 5.18 3.118c.9.736 1.865 1.775 2.896 3.117 1.047 1.326 2.029 3.15 2.945 5.474l3.314 9.5c.31.932.58 1.75.81 2.454.245.704.565 1.538.957 2.503.41.966.851 1.899 1.326 2.799.474.9 1.072 1.832 1.792 2.798.998 1.375 2.037 2.332 3.117 2.872.294.164.565.294.81.393.245.098.564.18.957.245.393.066.843.098 1.35.098.77 0 1.604-.065 2.504-.196-.442.605-1.538 1.244-3.29 1.915-1.75.67-2.912 1.006-3.485 1.006-1.653 0-3.387-.434-5.204-1.301-1.8-.867-3.37-2.144-4.712-3.83a10.935 10.935 0 0 1-2.406 2.824c-.916.769-1.84 1.35-2.774 1.742-.932.377-1.701.565-2.307.565-1.047 0-2.005-.237-2.872-.712-.85-.474-2.143-1.546-3.878-3.215-.458 1.03-1.285 1.947-2.48 2.749-1.194.785-2.527 1.178-4 1.178-3.911 0-6.66-1.293-8.248-3.878-.769-1.228-1.153-2.651-1.153-4.271 0-2.013.343-3.51 1.03-4.492.688-.982 1.94-1.473 3.756-1.473 1.522 0 2.7.36 3.535 1.08.85.704 1.276 1.726 1.276 3.068 0 1.49-.245 2.651-.736 3.486-.475.834-1.4 1.399-2.774 1.693.213.426.646.843 1.301 1.252.67.41 1.612.614 2.823.614 2.078 0 3.469-1.252 4.173-3.756 0 .066.13-.384.392-1.35.262-.965.54-2.184.835-3.657.294-1.473.556-3.158.785-5.056.131-1.293.197-2.7.197-4.222 0-2.799-.369-5.36-1.105-7.683-.736-2.34-1.955-4.468-3.657-6.382Zm-2.774 47.435-6.873-3.608h12.15c-1.75 5.924-2.945 10.882-3.583 14.875-.622 3.976-.933 7.576-.933 10.8 0 2.095.196 3.977.59 5.646.408 1.652 1.104 2.97 2.085 3.951.999.982 2.316 1.473 3.952 1.473 1.031 0 2.005-.27 2.921-.81.917-.54 1.923-1.399 3.02-2.577a93.837 93.837 0 0 1-1.915-4.541c-.67-1.718-1.285-3.657-1.84-5.817-.541-2.16-.811-4.132-.811-5.916 0-2.16.188-4.41.565-6.75.376-2.34.94-4.468 1.693-6.382.77-1.915 1.694-3.232 2.774-3.952.998.556 1.915 1.522 2.75 2.896.85 1.375 1.587 2.962 2.208 4.762a35.802 35.802 0 0 1 1.4 5.155c.31 1.636.466 3.06.466 4.27 0 1.555-.123 3.012-.368 4.37-.23 1.342-.59 2.782-1.08 4.32-.491 1.522-1.383 4.001-2.676 7.438.442.425.851.826 1.227 1.202.393.36.827.688 1.301.982.491.279 1.015.491 1.571.639.573.147 1.318.245 2.234.294 1.93 0 3.428-.974 4.492-2.921 1.063-1.947 1.595-4.688 1.595-8.223 0-2.978-.474-6.464-1.423-10.456-.933-3.993-2.684-8.903-5.253-14.728h12.2l-5.77 3.46a288.486 288.486 0 0 1 3.413 7.66c.867 2.045 1.677 4.344 2.43 6.897.753 2.536 1.129 4.753 1.129 6.652 0 1.8-.213 3.559-.638 5.277a14.025 14.025 0 0 1-2.087 4.64c-.965 1.39-2.274 2.511-3.927 3.362-1.636.835-3.641 1.252-6.014 1.252-.949 0-1.824-.156-2.626-.466a13.097 13.097 0 0 1-2.332-1.277c-.753-.54-1.76-1.317-3.02-2.332-1.194 1.277-2.52 2.275-3.976 2.995-1.456.72-2.83 1.08-4.123 1.08-3.011 0-5.523-.737-7.536-2.21-1.997-1.488-3.461-3.354-4.394-5.596-.933-2.258-1.399-4.5-1.399-6.725 0-1.473.295-3.322.884-5.548.589-2.242 1.26-4.41 2.012-6.504.753-2.095 1.53-4.116 2.332-6.063.802-1.948 1.203-2.93 1.203-2.946Z"/></mask><path fill="#FAC46D" d="M15.697 5.74a18.176 18.176 0 0 1 2.725 3.486c.785 1.276 1.366 3.02 1.742 5.228.328 1.702.491 3.625.491 5.769 0 1.08-.065 2.47-.196 4.173a77.72 77.72 0 0 1-.736 5.449c-.295 1.8-.63 3.322-1.007 4.565.655.868 1.481 1.71 2.48 2.529 1.014.818 2.061 1.227 3.141 1.227.753 0 1.416-.14 1.989-.417.589-.279 1.17-.712 1.742-1.301.59-.606 1.408-1.571 2.455-2.897-1.44-8.722-3.297-15.407-5.572-20.054-2.291-4.696-5.376-7.282-9.254-7.756Zm-2.258.32c-.344.147-.671.278-.982.392-.311.099-.59.197-.835.295-.229.098-.343.164-.343.196.622.426 1.113.941 1.473 1.547.376.605.564 1.382.564 2.332 0 1.325-.237 2.397-.712 3.215-.458.818-1.047 1.391-1.767 1.718a5.233 5.233 0 0 1-2.234.491c-1.603 0-2.929-.532-3.976-1.595-1.031-1.08-1.547-2.34-1.547-3.78 0-3.208.941-5.499 2.823-6.873 1.898-1.375 4.672-2.062 8.321-2.062 2.259 0 4.337.352 6.235 1.055a16.454 16.454 0 0 1 5.18 3.118c.9.736 1.865 1.775 2.896 3.117 1.047 1.326 2.029 3.15 2.945 5.474l3.314 9.5c.31.932.58 1.75.81 2.454.245.704.565 1.538.957 2.503.41.966.851 1.899 1.326 2.799.474.9 1.072 1.832 1.792 2.798.998 1.375 2.037 2.332 3.117 2.872.294.164.565.294.81.393.245.098.564.18.957.245.393.066.843.098 1.35.098.77 0 1.604-.065 2.504-.196-.442.605-1.538 1.244-3.29 1.915-1.75.67-2.912 1.006-3.485 1.006-1.653 0-3.387-.434-5.204-1.301-1.8-.867-3.37-2.144-4.712-3.83a10.935 10.935 0 0 1-2.406 2.824c-.916.769-1.84 1.35-2.774 1.742-.932.377-1.701.565-2.307.565-1.047 0-2.005-.237-2.872-.712-.85-.474-2.143-1.546-3.878-3.215-.458 1.03-1.285 1.947-2.48 2.749-1.194.785-2.527 1.178-4 1.178-3.911 0-6.66-1.293-8.248-3.878-.769-1.228-1.153-2.651-1.153-4.271 0-2.013.343-3.51 1.03-4.492.688-.982 1.94-1.473 3.756-1.473 1.522 0 2.7.36 3.535 1.08.85.704 1.276 1.726 1.276 3.068 0 1.49-.245 2.651-.736 3.486-.475.834-1.4 1.399-2.774 1.693.213.426.646.843 1.301 1.252.67.41 1.612.614 2.823.614 2.078 0 3.469-1.252 4.173-3.756 0 .066.13-.384.392-1.35.262-.965.54-2.184.835-3.657.294-1.473.556-3.158.785-5.056.131-1.293.197-2.7.197-4.222 0-2.799-.369-5.36-1.105-7.683-.736-2.34-1.955-4.468-3.657-6.382Zm-2.774 47.435-6.873-3.608h12.15c-1.75 5.924-2.945 10.882-3.583 14.875-.622 3.976-.933 7.576-.933 10.8 0 2.095.196 3.977.59 5.646.408 1.652 1.104 2.97 2.085 3.951.999.982 2.316 1.473 3.952 1.473 1.031 0 2.005-.27 2.921-.81.917-.54 1.923-1.399 3.02-2.577a93.837 93.837 0 0 1-1.915-4.541c-.67-1.718-1.285-3.657-1.84-5.817-.541-2.16-.811-4.132-.811-5.916 0-2.16.188-4.41.565-6.75.376-2.34.94-4.468 1.693-6.382.77-1.915 1.694-3.232 2.774-3.952.998.556 1.915 1.522 2.75 2.896.85 1.375 1.587 2.962 2.208 4.762a35.802 35.802 0 0 1 1.4 5.155c.31 1.636.466 3.06.466 4.27 0 1.555-.123 3.012-.368 4.37-.23 1.342-.59 2.782-1.08 4.32-.491 1.522-1.383 4.001-2.676 7.438.442.425.851.826 1.227 1.202.393.36.827.688 1.301.982.491.279 1.015.491 1.571.639.573.147 1.318.245 2.234.294 1.93 0 3.428-.974 4.492-2.921 1.063-1.947 1.595-4.688 1.595-8.223 0-2.978-.474-6.464-1.423-10.456-.933-3.993-2.684-8.903-5.253-14.728h12.2l-5.77 3.46a288.486 288.486 0 0 1 3.413 7.66c.867 2.045 1.677 4.344 2.43 6.897.753 2.536 1.129 4.753 1.129 6.652 0 1.8-.213 3.559-.638 5.277a14.025 14.025 0 0 1-2.087 4.64c-.965 1.39-2.274 2.511-3.927 3.362-1.636.835-3.641 1.252-6.014 1.252-.949 0-1.824-.156-2.626-.466a13.097 13.097 0 0 1-2.332-1.277c-.753-.54-1.76-1.317-3.02-2.332-1.194 1.277-2.52 2.275-3.976 2.995-1.456.72-2.83 1.08-4.123 1.08-3.011 0-5.523-.737-7.536-2.21-1.997-1.488-3.461-3.354-4.394-5.596-.933-2.258-1.399-4.5-1.399-6.725 0-1.473.295-3.322.884-5.548.589-2.242 1.26-4.41 2.012-6.504.753-2.095 1.53-4.116 2.332-6.063.802-1.948 1.203-2.93 1.203-2.946Z"/><path fill="#89662D" d="m15.697 5.74.122-.992-2.881-.353 2.052 2.053.707-.707Zm2.725 3.486-.857.516.005.008.852-.524Zm1.742 5.228-.985.168.001.01.002.011.982-.189Zm.295 9.942.995.098.001-.01.001-.012-.997-.076Zm-.736 5.449-.986-.169-.001.007.987.162Zm-1.007 4.565-.957-.29-.147.487.306.406.798-.603Zm2.48 2.529-.635.773.007.005.627-.778Zm5.13.81-.428-.905-.01.005.438.9Zm1.742-1.301-.716-.698.716.698Zm2.455-2.897.785.62.273-.347-.072-.436-.986.163ZM24.95 13.497l-.899.438v.002l.899-.44ZM13.439 6.06l.747-.665-.479-.538-.662.284.394.919Zm-.982.392.301.954.023-.007.022-.008-.346-.939Zm-.835.295-.371-.929-.011.005-.011.005.393.919Zm-.343.196h-1v.528l.435.298.565-.826Zm1.473 1.547-.86.51.005.01.005.008.85-.528Zm-.148 5.547-.865-.502-.004.007-.003.007.872.488Zm-1.767 1.718-.414-.91-.008.004.422.906Zm-6.21-1.104-.724.69.006.006.005.005.713-.701ZM5.903 3.998l-.586-.81-.004.002.59.808ZM20.46 2.99l.354-.935-.006-.002-.348.937Zm5.18 3.118-.666.746.016.014.016.014.633-.774Zm2.896 3.117-.793.61.008.01.785-.62ZM31.48 14.7l.944-.33-.006-.018-.008-.019-.93.367Zm3.314 9.5.949-.317-.005-.013-.944.33Zm.81 2.454-.951.31.003.01.004.01.944-.33Zm.957 2.503-.926.377.003.007.003.007.92-.39Zm3.118 5.597.809-.588-.008-.01-.801.598Zm3.117 2.872.486-.874-.02-.01-.019-.01-.447.894Zm5.621.54.808.59 1.402-1.922-2.354.342.144.99Zm-3.29 1.915-.357-.934.358.934Zm-8.689-.295-.434.9.004.002.43-.902Zm-4.712-3.83.782-.622-.896-1.126-.743 1.232.857.517ZM29.32 38.78l-.636-.772-.007.006.643.766Zm-2.774 1.742.375.928.007-.003.006-.003-.388-.922Zm-5.179-.147-.487.873.007.004.48-.877ZM17.49 37.16l.693-.721-1.028-.99-.579 1.304.914.407Zm-2.48 2.749.55.835.008-.005-.557-.83Zm-12.248-2.7.852-.524-.004-.007-.848.53Zm7.168-9.156-.654.757.008.007.008.007.638-.771Zm.54 6.554-.862-.507-.004.006-.004.006.87.495ZM7.695 36.3l-.21-.977-1.262.27.578 1.155.894-.448Zm1.301 1.252-.53.848.01.006.52-.854Zm6.996-3.142h1l-1.963-.27.963.27Zm2.012-10.063.993.12.001-.01.001-.01-.995-.1Zm-.908-11.905-.954.3v.002l.954-.302ZM15.697 5.74l-.707.707c.99.99 1.848 2.087 2.575 3.294l.857-.516.856-.516a19.177 19.177 0 0 0-2.874-3.677l-.707.708Zm2.725 3.485-.852.524c.694 1.127 1.244 2.733 1.609 4.872l.985-.168.986-.168c-.388-2.278-1-4.159-1.877-5.584l-.851.524Zm1.742 5.228-.982.19c.313 1.626.473 3.484.473 5.579h2c0-2.193-.167-4.18-.509-5.957l-.982.188Zm.491 5.769h-1c0 1.044-.063 2.407-.193 4.096l.997.077.997.076c.132-1.714.2-3.133.2-4.25h-1Zm-.196 4.173-.995-.099a76.666 76.666 0 0 1-.727 5.38l.986.168.985.169c.315-1.84.564-3.68.746-5.52l-.995-.098Zm-.736 5.449-.987-.162c-.29 1.773-.617 3.249-.977 4.438l.957.29.957.289c.393-1.299.737-2.866 1.037-4.694l-.987-.161Zm-1.007 4.565-.798.603c.71.94 1.595 1.84 2.643 2.699l.634-.773.634-.774c-.948-.777-1.716-1.564-2.315-2.357l-.798.602Zm2.48 2.529-.628.778c1.154.93 2.416 1.449 3.77 1.449v-2c-.808 0-1.64-.3-2.515-1.006l-.628.779Zm3.141 1.227v1c.877 0 1.694-.162 2.425-.518l-.436-.9-.437-.899c-.414.201-.923.317-1.552.317v1Zm1.989-.417.427.904c.721-.34 1.397-.855 2.032-1.508l-.717-.697-.717-.697c-.51.524-.996.878-1.453 1.093l.428.905Zm1.742-1.301.717.697c.626-.644 1.47-1.642 2.523-2.974l-.785-.62-.785-.62c-1.042 1.32-1.835 2.252-2.386 2.82l.716.697Zm2.455-2.897.986-.163c-1.446-8.76-3.323-15.555-5.66-20.33l-.898.44-.898.439c2.212 4.52 4.05 11.094 5.483 19.777l.987-.163ZM24.95 13.497l.899-.438c-2.384-4.887-5.708-7.782-10.032-8.311l-.121.993-.121.992c3.432.42 6.278 2.696 8.476 7.202l.899-.438ZM13.439 6.06l-.394-.92c-.33.142-.641.266-.934.374l.346.938.346.939c.329-.122.672-.259 1.03-.412l-.394-.92Zm-.982.392-.301-.953c-.33.104-.632.21-.905.32l.371.928.372.928c.218-.087.472-.177.764-.269l-.301-.954Zm-.835.295-.393-.92a3.62 3.62 0 0 0-.36.174c-.05.029-.134.08-.22.152a1.024 1.024 0 0 0-.37.79h2a.975.975 0 0 1-.328.729.737.737 0 0 1-.07.053l-.02.013s.012-.007.041-.02c.028-.014.066-.031.114-.052l-.394-.92Zm-.343.196-.565.826c.51.349.897.76 1.178 1.232l.86-.511.859-.511a5.9 5.9 0 0 0-1.768-1.861l-.564.825Zm1.473 1.547-.85.528c.25.402.414.98.414 1.804h2c0-1.076-.213-2.052-.715-2.86l-.85.528Zm.564 2.332h-1c0 1.216-.22 2.097-.577 2.713l.865.502.865.502c.592-1.02.847-2.283.847-3.717h-1Zm-.712 3.215-.872-.489c-.374.668-.817 1.073-1.309 1.297l.414.91.414.91c.948-.43 1.683-1.17 2.226-2.14l-.873-.488Zm-1.767 1.718-.422-.906c-.57.265-1.17.397-1.812.397v2c.93 0 1.818-.194 2.656-.584l-.422-.907Zm-2.234.491v-1c-1.358 0-2.42-.44-3.264-1.297l-.712.702-.713.701c1.25 1.27 2.84 1.894 4.69 1.894v-1Zm-3.976-1.595.723-.69c-.86-.902-1.27-1.918-1.27-3.09h-2c0 1.707.622 3.212 1.823 4.47l.724-.69ZM3.08 10.87h1c0-3.018.878-4.945 2.413-6.066l-.59-.807-.59-.808C3.085 4.818 2.08 7.473 2.08 10.87h1Zm2.823-6.873.587.81c1.656-1.2 4.186-1.872 7.734-1.872v-2c-3.75 0-6.767.702-8.907 2.252l.586.81Zm8.321-2.062v1c2.154 0 4.113.335 5.887.993l.348-.938.348-.937c-2.022-.75-4.22-1.118-6.583-1.118v1ZM20.46 2.99l-.354.936a15.454 15.454 0 0 1 4.868 2.928l.665-.746.666-.747a17.454 17.454 0 0 0-5.491-3.306l-.354.935Zm5.18 3.118-.634.774c.82.671 1.733 1.646 2.737 2.952l.793-.609.793-.61c-1.059-1.377-2.077-2.48-3.057-3.281l-.633.774Zm2.896 3.117-.785.62c.965 1.222 1.904 2.949 2.8 5.22l.93-.366.93-.367c-.936-2.376-1.961-4.297-3.09-5.727l-.785.62ZM31.48 14.7l-.944.33 3.314 9.499.944-.33.944-.33-3.314-9.498-.944.329Zm3.314 9.5-.949.315c.31.932.58 1.747.808 2.448l.95-.31.952-.309c-.23-.706-.501-1.527-.812-2.461l-.95.316Zm.81 2.454-.944.33c.252.724.578 1.575.975 2.55l.926-.377.926-.376a52.922 52.922 0 0 1-.939-2.457l-.944.33Zm.957 2.503-.92.39c.42.991.873 1.95 1.361 2.875l.885-.466.884-.467a35.64 35.64 0 0 1-1.289-2.722l-.92.39Zm1.326 2.799-.885.466c.503.954 1.13 1.93 1.875 2.93l.802-.598.801-.598a20.46 20.46 0 0 1-1.709-2.667l-.884.467Zm1.792 2.798-.81.588c1.057 1.454 2.21 2.543 3.48 3.178l.447-.894.447-.895c-.89-.445-1.815-1.27-2.755-2.565l-.81.588Zm3.117 2.872-.486.874c.322.179.631.33.924.447l.372-.928.371-.929a6.214 6.214 0 0 1-.695-.338l-.486.874Zm.81.393-.372.928c.337.135.733.231 1.165.303l.164-.986.165-.986a3.78 3.78 0 0 1-.75-.188l-.372.929Zm.957.245-.164.986c.46.077.966.112 1.514.112v-2c-.466 0-.86-.03-1.185-.084l-.165.986Zm1.35.098v1c.825 0 1.709-.07 2.648-.206l-.144-.99-.144-.99c-.86.125-1.647.186-2.36.186v1Zm2.504-.196-.808-.59c-.102.14-.349.367-.849.658-.485.283-1.143.588-1.99.913l.358.934.358.933c.904-.346 1.67-.695 2.28-1.051.596-.347 1.119-.742 1.459-1.208l-.808-.59Zm-3.29 1.915-.357-.934c-.862.33-1.56.57-2.104.728-.568.163-.887.212-1.024.212v2c.436 0 .984-.12 1.579-.29a29.166 29.166 0 0 0 2.265-.783l-.358-.934Zm-3.485 1.006v-1c-1.475 0-3.062-.387-4.773-1.203l-.43.902-.431.902c1.922.918 3.803 1.399 5.634 1.399v-1Zm-5.204-1.301.434-.9c-1.654-.798-3.108-1.975-4.364-3.552l-.782.623-.783.623c1.428 1.793 3.115 3.17 5.061 4.107l.434-.901Zm-4.712-3.83-.857-.516a9.936 9.936 0 0 1-2.185 2.568l.636.772.636.771a11.935 11.935 0 0 0 2.626-3.078l-.856-.516ZM29.32 38.78l-.643-.766c-.853.716-1.693 1.24-2.519 1.587l.388.921.389.922c1.04-.438 2.049-1.076 3.028-1.898l-.643-.766Zm-2.774 1.742-.374-.927c-.882.356-1.513.492-1.933.492v2c.791 0 1.698-.24 2.682-.637l-.375-.928Zm-2.307.565v-1c-.89 0-1.68-.2-2.392-.59l-.48.878-.48.877c1.023.56 2.147.835 3.352.835v-1Zm-2.872-.712.487-.873c-.725-.405-1.935-1.392-3.672-3.063l-.693.72-.694.721c1.733 1.667 3.108 2.824 4.085 3.368l.487-.873ZM17.49 37.16l-.914-.407c-.363.818-1.042 1.6-2.123 2.325l.558.83.557.831c1.308-.878 2.282-1.929 2.836-3.173l-.914-.407Zm-2.48 2.749-.549-.836c-1.026.675-2.168 1.014-3.451 1.014v2c1.662 0 3.187-.447 4.55-1.343l-.55-.835Zm-4 1.178v-1c-3.678 0-6.043-1.198-7.396-3.402l-.852.524-.852.523c1.822 2.968 4.956 4.355 9.1 4.355v-1ZM2.76 37.209l.848-.531c-.658-1.05-1.001-2.285-1.001-3.74h-2c0 1.784.426 3.397 1.306 4.802l.847-.531Zm-1.153-4.271h1c0-1.934.336-3.185.85-3.919l-.82-.573-.819-.574C.96 29.102.608 30.845.608 32.938h1Zm1.03-4.492.82.573c.418-.597 1.27-1.046 2.936-1.046v-2c-1.967 0-3.618.533-4.575 1.9l.82.573Zm3.756-1.473v1c1.373 0 2.287.325 2.881.837l.654-.757.653-.757c-1.075-.928-2.517-1.323-4.188-1.323v1Zm3.535 1.08-.638.77c.572.473.914 1.184.914 2.298h2c0-1.57-.509-2.904-1.639-3.839l-.637.77Zm1.276 3.068h-1c0 1.4-.234 2.36-.598 2.979l.862.507.862.507c.617-1.05.874-2.413.874-3.993h-1Zm-.736 3.486-.87-.495c-.278.49-.886.948-2.114 1.21l.21.978.21.978c1.521-.326 2.763-.998 3.433-2.177l-.87-.494ZM7.695 36.3l-.894.448c.331.663.942 1.2 1.665 1.652l.53-.848.53-.848c-.586-.366-.843-.663-.937-.85l-.894.446Zm1.301 1.252-.52.854c.89.543 2.04.76 3.343.76v-2c-1.119 0-1.851-.192-2.302-.467l-.521.853Zm2.823.614v1c1.256 0 2.37-.386 3.27-1.196.881-.792 1.481-1.923 1.865-3.29l-.962-.27-.963-.27c-.32 1.138-.767 1.885-1.277 2.344-.491.442-1.112.682-1.933.682v1Zm4.173-3.756h-1c0 .024 0 .123.029.244a1.004 1.004 0 0 0 .91.76 1.002 1.002 0 0 0 .955-.545c.044-.084.072-.169.077-.184.024-.071.054-.17.087-.284.068-.234.168-.595.3-1.079l-.966-.262-.965-.261c-.13.482-.227.828-.29 1.044a5.85 5.85 0 0 1-.06.198c-.01.033.005-.02.04-.089.01-.017.042-.082.1-.155a.992.992 0 0 1 .846-.378 1 1 0 0 1 .908.757c.03.119.029.215.029.234h-1Zm.392-1.35.965.262c.27-.995.553-2.238.85-3.723l-.98-.196-.98-.196a56.437 56.437 0 0 1-.82 3.592l.965.261Zm.835-3.657.98.196c.301-1.504.567-3.215.798-5.133l-.993-.12-.992-.12a65.926 65.926 0 0 1-.774 4.98l.98.197Zm.785-5.056.995.1c.135-1.331.202-2.773.202-4.322h-2c0 1.493-.064 2.866-.192 4.12l.995.101Zm.197-4.222h1c0-2.886-.38-5.55-1.152-7.986l-.953.303-.953.302c.701 2.213 1.058 4.67 1.058 7.38h1Zm-1.105-7.683.954-.3c-.78-2.481-2.072-4.731-3.864-6.747l-.747.665-.748.664c1.613 1.814 2.76 3.818 3.451 6.018l.954-.3Zm-6.43 41.053h1v-.604l-.536-.281-.465.885Zm-6.874-3.608v-1l-.465 1.885.465-.885Zm12.15 0 .96.283.379-1.283h-1.338v1ZM12.36 64.762l-.988-.158v.003l.988.155Zm-.344 16.446-.973.229.002.01.971-.24Zm2.086 3.951-.707.708.006.005.701-.713Zm9.893-1.914.732.681.455-.489-.278-.608-.91.416Zm-1.915-4.541-.931.364v.003l.931-.367Zm-1.84-5.817-.971.242.002.007.968-.25Zm1.447-19.048-.928-.373-.002.007.93.366Zm2.774-3.952.487-.874-.534-.297-.508.339.555.832Zm2.75 2.896-.856.52.005.007.85-.527Zm2.208 4.762-.945.327.001.002.944-.329Zm1.4 5.155-.983.185v.002l.982-.187Zm.098 8.64-.985-.178-.001.01.986.168Zm-1.08 4.32.951.307.001-.003-.952-.304Zm-2.676 7.438-.936-.352-.232.616.474.456.694-.72Zm1.227 1.202-.707.707.016.016.016.015.675-.738Zm1.301.982-.527.85.017.01.017.01.493-.87Zm1.571.639-.256.966.007.002.25-.968Zm2.234.294-.053.999.026.001h.027v-1Zm4.664-21.6-.974.227v.004l.974-.231Zm-5.253-14.728v-1H31.37l.619 1.403.915-.403Zm12.2 0 .514.857 3.096-1.857h-3.61v1Zm-5.77 3.46-.514-.857-.768.461.374.815.909-.418Zm5.843 14.557-.96.282.001.002.959-.284Zm.49 11.929.971.243v-.003l-.97-.24Zm-6.013 8.002.454.89h.004l-.458-.89Zm-8.64.786-.385.923.012.004.011.005.362-.932Zm-2.332-1.277-.583.813.01.007.01.007.563-.827Zm-3.02-2.332.628-.779-.723-.582-.634.678.73.683Zm-15.635 1.866-.598.801.007.006.59-.807ZM5.633 81.28l-.924.382v.002l.924-.384Zm-.515-12.273.966.256v-.002l-.966-.254Zm2.012-6.504-.94-.339.94.339Zm3.535-9.009.465-.885L4.257 49l-.465.886-.465.885L10.2 54.38l.465-.885Zm-6.873-3.608v1h12.15v-2H3.793v1Zm12.15 0-.959-.284c-1.757 5.946-2.964 10.95-3.612 15l.988.159.987.158c.63-3.935 1.811-8.848 3.555-14.75l-.958-.283ZM12.36 64.762l-.988-.155c-.628 4.016-.945 7.669-.945 10.955h2c0-3.161.305-6.708.92-10.646l-.987-.154Zm-.933 10.8h-1c0 2.155.202 4.116.616 5.875l.973-.23.973-.228c-.371-1.58-.562-3.383-.562-5.417h-1Zm.59 5.646-.972.24c.443 1.79 1.214 3.282 2.35 4.419l.707-.708.708-.707c-.827-.826-1.448-1.969-1.823-3.485l-.97.24Zm2.085 3.951-.7.713c1.216 1.197 2.801 1.76 4.652 1.76v-2c-1.421 0-2.47-.418-3.25-1.185l-.702.712Zm3.952 1.473v1a6.66 6.66 0 0 0 3.43-.948l-.509-.862-.507-.861a4.662 4.662 0 0 1-2.413.671v1Zm2.921-.81.508.862c1.03-.607 2.112-1.541 3.244-2.758l-.732-.681-.732-.681c-1.061 1.14-1.993 1.924-2.795 2.397l.507.861Zm3.02-2.577.91-.416a92.954 92.954 0 0 1-1.895-4.492l-.93.367-.93.367a94.948 94.948 0 0 0 1.935 4.59l.91-.416Zm-1.915-4.541.931-.364c-.653-1.674-1.255-3.574-1.804-5.703l-.968.25-.968.249c.564 2.191 1.19 4.17 1.878 5.932l.931-.364Zm-1.84-5.817.97-.243c-.526-2.1-.781-3.988-.781-5.673h-2c0 1.883.285 3.937.84 6.158l.97-.243Zm-.811-5.916h1c0-2.102.183-4.299.552-6.592l-.987-.158-.988-.16a43.523 43.523 0 0 0-.577 6.91h1Zm.565-6.75.987.159c.367-2.28.914-4.337 1.637-6.175l-.93-.366-.931-.366c-.783 1.99-1.365 4.188-1.75 6.589l.987.159Zm1.693-6.382.928.373c.735-1.83 1.561-2.933 2.4-3.493l-.554-.832-.555-.832c-1.32.88-2.343 2.41-3.147 4.411l.928.373Zm2.774-3.952-.487.873c.798.445 1.602 1.259 2.381 2.542l.855-.519.855-.519c-.89-1.465-1.918-2.583-3.117-3.25l-.487.873Zm2.75 2.896-.851.527c.806 1.301 1.512 2.82 2.114 4.562l.945-.327.945-.326c-.641-1.858-1.408-3.515-2.304-4.962l-.85.526Zm2.208 4.762-.944.33a34.806 34.806 0 0 1 1.36 5.01l.983-.185.983-.185a36.81 36.81 0 0 0-1.437-5.299l-.945.33Zm1.4 5.155-.983.186c.303 1.596.449 2.955.449 4.085h2c0-1.292-.166-2.781-.484-4.458l-.983.187Zm.466 4.27h-1c0 1.503-.119 2.9-.352 4.192l.984.178.984.178a25.57 25.57 0 0 0 .384-4.547h-1Zm-.368 4.37-.986-.168c-.22 1.288-.568 2.682-1.047 4.184l.953.304.952.304c.503-1.575.875-3.06 1.113-4.456l-.985-.168Zm-1.08 4.32-.952-.307c-.483 1.497-1.367 3.957-2.66 7.393l.936.352.936.352c1.293-3.438 2.192-5.936 2.691-7.483l-.951-.307Zm-2.676 7.438-.694.72c.438.422.843.818 1.214 1.19l.707-.708.707-.707a93.078 93.078 0 0 0-1.24-1.216l-.694.72Zm1.227 1.202-.675.738c.44.404.924.768 1.449 1.094l.527-.85.528-.85a7.733 7.733 0 0 1-1.153-.869l-.676.737Zm1.301.982-.493.87c.567.322 1.17.566 1.808.735l.256-.966.256-.967a5.597 5.597 0 0 1-1.334-.542l-.493.87Zm1.571.639-.249.968c.662.17 1.479.274 2.43.325l.053-.999.053-.999c-.882-.047-1.554-.14-2.038-.264l-.249.969Zm2.234.294v1c2.358 0 4.162-1.231 5.37-3.442l-.878-.479-.878-.48c-.92 1.685-2.11 2.401-3.614 2.401v1Zm4.492-2.921.877.48c1.178-2.157 1.718-5.09 1.718-8.703h-2c0 3.457-.523 6.006-1.473 7.744l.878.479Zm1.595-8.223h1c0-3.08-.49-6.645-1.45-10.688l-.973.232-.973.23c.937 3.944 1.396 7.349 1.396 10.226h1Zm-1.423-10.456.974-.228c-.953-4.077-2.73-9.049-5.312-14.904l-.915.404-.915.403c2.556 5.797 4.28 10.643 5.194 14.552l.974-.227Zm-5.253-14.728v1h12.2v-2h-12.2v1Zm12.2 0-.515-.858-5.769 3.461.515.858.514.857 5.769-3.46-.515-.858Zm-5.77 3.46-.908.419a287.686 287.686 0 0 1 3.4 7.63l.92-.39.921-.39a289.53 289.53 0 0 0-3.424-7.686l-.908.418Zm3.413 7.66-.92.39c.849 2.004 1.647 4.266 2.39 6.79l.96-.283.96-.283c-.762-2.583-1.585-4.918-2.47-7.005l-.92.39Zm2.43 6.897-.959.284c.735 2.478 1.088 4.595 1.088 6.368h2c0-2.025-.4-4.341-1.17-6.937l-.96.285Zm1.129 6.652h-1c0 1.72-.203 3.398-.609 5.037l.97.24.971.24c.446-1.798.668-3.638.668-5.517h-1Zm-.638 5.277-.97-.242a13.027 13.027 0 0 1-1.938 4.311l.821.57.822.57a15.028 15.028 0 0 0 2.235-4.966l-.97-.243Zm-2.087 4.64-.821-.571c-.863 1.244-2.042 2.26-3.564 3.044l.458.89.458.888c1.783-.918 3.223-2.143 4.29-3.681l-.82-.57Zm-3.927 3.362-.454-.89c-1.461.744-3.3 1.142-5.56 1.142v2c2.486 0 4.656-.437 6.468-1.361l-.454-.89Zm-6.014 1.252v-1c-.838 0-1.59-.137-2.265-.399l-.361.933-.362.932c.929.36 1.928.534 2.988.534v-1Zm-2.626-.466.384-.923a12.108 12.108 0 0 1-2.153-1.18l-.563.826-.563.827c.82.558 1.657 1.017 2.51 1.373l.385-.923Zm-2.332-1.277.583-.812c-.73-.525-1.72-1.288-2.975-2.299l-.627.78-.627.778c1.265 1.02 2.288 1.81 3.063 2.366l.583-.813Zm-3.02-2.332-.73-.683c-1.118 1.195-2.348 2.119-3.689 2.782l.443.896.444.896c1.572-.777 2.992-1.85 4.263-3.207l-.73-.684Zm-3.976 2.995-.443-.897c-1.353.67-2.576.977-3.68.977v2c1.48 0 3.007-.413 4.567-1.184l-.444-.896Zm-4.123 1.08v-1c-2.844 0-5.137-.693-6.946-2.016l-.59.807-.59.807c2.217 1.622 4.947 2.402 8.126 2.402v-1Zm-7.536-2.21.598-.8c-1.857-1.385-3.207-3.108-4.069-5.18l-.923.384-.923.384c1.003 2.412 2.582 4.42 4.719 6.014l.598-.801Zm-4.394-5.596.924-.382c-.887-2.149-1.323-4.261-1.323-6.343h-2c0 2.368.497 4.74 1.475 7.107l.924-.382Zm-1.399-6.725h1c0-1.353.272-3.109.85-5.292l-.966-.256-.967-.256c-.6 2.268-.917 4.21-.917 5.804h1Zm.884-5.548.967.254a76.352 76.352 0 0 1 1.987-6.42l-.942-.338-.94-.339a78.351 78.351 0 0 0-2.04 6.59l.968.253Zm2.012-6.504.942.338c.747-2.081 1.52-4.088 2.315-6.02l-.925-.381-.924-.381a143.48 143.48 0 0 0-2.349 6.105l.941.339Zm2.332-6.063.925.38a882.824 882.824 0 0 0 1.13-2.76 16.848 16.848 0 0 0 .098-.251c.002-.009.009-.028.015-.053a.985.985 0 0 0 .016-.066c.003-.016.02-.094.02-.196h-2a.979.979 0 0 1 .048-.306l.005-.017a.311.311 0 0 1 .002-.006l-.007.018-.052.132-.223.55c-.2.49-.5 1.22-.901 2.194l.924.38Z" mask="url(#a)"/></svg>