<svg width="73" height="76" viewBox="0 0 73 76" fill="none" xmlns="http://www.w3.org/2000/svg">
<mask id="path-1-inside-1_201_8144" fill="white">
<path d="M72.9713 59.3932L64.9384 1.85562C64.8884 1.49874 64.7112 1.17192 64.4394 0.935308C64.1676 0.698693 63.8195 0.568208 63.4592 0.567871C63.4302 0.567871 63.4013 0.567871 63.3717 0.567871C63.2643 0.574069 52.452 1.18764 36.7132 1.18764C20.9745 1.18764 10.1615 0.576823 10.0541 0.567871C10.0251 0.567871 9.99622 0.567871 9.9673 0.567871C9.6069 0.568064 9.25871 0.698498 8.98689 0.935139C8.71507 1.17178 8.53793 1.49868 8.4881 1.85562L0.455166 59.3932C0.435192 59.5328 0.435192 59.6744 0.455166 59.814L1.94951 70.1511C2.00163 70.5064 2.17995 70.831 2.45184 71.0656C2.72372 71.3002 3.07098 71.429 3.43007 71.4285H9.54378C9.50318 72.7673 9.39031 74.1029 9.20566 75.4295C10.1389 74.8963 11.0361 74.3024 11.8913 73.6514C11.8913 73.6514 12.2143 74.3304 14.2189 75.4295C14.2189 75.4295 14.3326 73.5013 14.3849 71.4285H69.9929C70.2171 71.4286 70.4384 71.3783 70.6404 71.2813C70.8425 71.1842 71.0201 71.043 71.1602 70.868C71.3002 70.693 71.3991 70.4888 71.4496 70.2704C71.5 70.052 71.5006 69.8251 71.4515 69.6064L70.4103 64.9733L71.039 61.236L71.8261 61.0528C72.1158 60.9851 72.3784 60.8315 72.5795 60.6121H72.5932V60.597C72.7404 60.4358 72.8503 60.2443 72.9152 60.0359C72.9801 59.8275 72.9983 59.6074 72.9685 59.3912M14.3994 68.6878C14.3918 68.3572 14.3808 68.0473 14.3635 67.7705L15.6258 67.7987L20.186 67.88L25.2757 67.955L36.3365 68.0776L41.9558 68.1141C43.8089 68.1375 45.6331 68.1265 47.396 68.1362L52.4864 68.1403L57.048 68.1279L63.8772 68.059C64.7035 68.0535 65.3495 68.0308 65.7909 68.0232L66.4685 68.0081L65.7923 67.9633C65.3515 67.9365 64.7049 67.8848 63.882 67.8435C62.2355 67.7608 59.8838 67.6032 57.0597 67.4923C54.2363 67.3642 50.9411 67.2526 47.4098 67.1604C45.6441 67.1225 43.8193 67.0681 41.9648 67.044L36.3427 66.9703L30.7235 66.9524C28.869 66.949 27.0434 66.9682 25.2771 66.9827C21.745 67.0137 18.4478 67.0832 15.6224 67.1666C12.7969 67.2499 10.4431 67.3656 8.79593 67.4331C7.96956 67.4675 7.325 67.5123 6.88427 67.537L6.20803 67.5777L8.79868 67.6465L9.53345 67.6631C9.54172 67.838 9.5548 68.1823 9.56444 68.6526L4.30189 68.6148L3.156 60.7313C8.07286 60.9613 20.4325 61.4495 36.7132 61.4495C52.306 61.4495 64.3007 61.0012 69.6073 60.7609L69.2361 62.9645L66.9877 63.1022L69.1914 63.2344L68.8911 65.018L68.7534 65.7824L62.7175 65.9518L68.6914 66.1191L68.1467 69.0803L14.3994 68.6878ZM36.7112 59.9552C18.8583 59.9552 5.72667 59.3664 1.9922 59.1784L9.96798 2.06221C9.96798 2.06221 20.741 2.68198 36.7132 2.68198C52.6855 2.68198 63.4585 2.06221 63.4585 2.06221L71.4322 59.1784C67.6977 59.3664 54.5668 59.9552 36.7132 59.9552"/>
</mask>
<path d="M72.9713 59.3932L64.9384 1.85562C64.8884 1.49874 64.7112 1.17192 64.4394 0.935308C64.1676 0.698693 63.8195 0.568208 63.4592 0.567871C63.4302 0.567871 63.4013 0.567871 63.3717 0.567871C63.2643 0.574069 52.452 1.18764 36.7132 1.18764C20.9745 1.18764 10.1615 0.576823 10.0541 0.567871C10.0251 0.567871 9.99622 0.567871 9.9673 0.567871C9.6069 0.568064 9.25871 0.698498 8.98689 0.935139C8.71507 1.17178 8.53793 1.49868 8.4881 1.85562L0.455166 59.3932C0.435192 59.5328 0.435192 59.6744 0.455166 59.814L1.94951 70.1511C2.00163 70.5064 2.17995 70.831 2.45184 71.0656C2.72372 71.3002 3.07098 71.429 3.43007 71.4285H9.54378C9.50318 72.7673 9.39031 74.1029 9.20566 75.4295C10.1389 74.8963 11.0361 74.3024 11.8913 73.6514C11.8913 73.6514 12.2143 74.3304 14.2189 75.4295C14.2189 75.4295 14.3326 73.5013 14.3849 71.4285H69.9929C70.2171 71.4286 70.4384 71.3783 70.6404 71.2813C70.8425 71.1842 71.0201 71.043 71.1602 70.868C71.3002 70.693 71.3991 70.4888 71.4496 70.2704C71.5 70.052 71.5006 69.8251 71.4515 69.6064L70.4103 64.9733L71.039 61.236L71.8261 61.0528C72.1158 60.9851 72.3784 60.8315 72.5795 60.6121H72.5932V60.597C72.7404 60.4358 72.8503 60.2443 72.9152 60.0359C72.9801 59.8275 72.9983 59.6074 72.9685 59.3912M14.3994 68.6878C14.3918 68.3572 14.3808 68.0473 14.3635 67.7705L15.6258 67.7987L20.186 67.88L25.2757 67.955L36.3365 68.0776L41.9558 68.1141C43.8089 68.1375 45.6331 68.1265 47.396 68.1362L52.4864 68.1403L57.048 68.1279L63.8772 68.059C64.7035 68.0535 65.3495 68.0308 65.7909 68.0232L66.4685 68.0081L65.7923 67.9633C65.3515 67.9365 64.7049 67.8848 63.882 67.8435C62.2355 67.7608 59.8838 67.6032 57.0597 67.4923C54.2363 67.3642 50.9411 67.2526 47.4098 67.1604C45.6441 67.1225 43.8193 67.0681 41.9648 67.044L36.3427 66.9703L30.7235 66.9524C28.869 66.949 27.0434 66.9682 25.2771 66.9827C21.745 67.0137 18.4478 67.0832 15.6224 67.1666C12.7969 67.2499 10.4431 67.3656 8.79593 67.4331C7.96956 67.4675 7.325 67.5123 6.88427 67.537L6.20803 67.5777L8.79868 67.6465L9.53345 67.6631C9.54172 67.838 9.5548 68.1823 9.56444 68.6526L4.30189 68.6148L3.156 60.7313C8.07286 60.9613 20.4325 61.4495 36.7132 61.4495C52.306 61.4495 64.3007 61.0012 69.6073 60.7609L69.2361 62.9645L66.9877 63.1022L69.1914 63.2344L68.8911 65.018L68.7534 65.7824L62.7175 65.9518L68.6914 66.1191L68.1467 69.0803L14.3994 68.6878ZM36.7112 59.9552C18.8583 59.9552 5.72667 59.3664 1.9922 59.1784L9.96798 2.06221C9.96798 2.06221 20.741 2.68198 36.7132 2.68198C52.6855 2.68198 63.4585 2.06221 63.4585 2.06221L71.4322 59.1784C67.6977 59.3664 54.5668 59.9552 36.7132 59.9552" fill="#FAC46D"/>
<path d="M64.9384 1.85562L65.3345 1.80031L65.3345 1.80016L64.9384 1.85562ZM63.4592 0.567871L63.4595 0.167871H63.4592V0.567871ZM63.3717 0.567871V0.167871H63.3602L63.3487 0.168535L63.3717 0.567871ZM10.0541 0.567871L10.0873 0.169253L10.0707 0.167871H10.0541V0.567871ZM9.9673 0.567871V0.167871L9.96708 0.167871L9.9673 0.567871ZM8.4881 1.85562L8.88426 1.91093L8.88426 1.91092L8.4881 1.85562ZM0.455166 59.3932L0.851133 59.4499L0.851324 59.4485L0.455166 59.3932ZM0.455166 59.814L0.0592018 59.8707L0.0592813 59.8712L0.455166 59.814ZM1.94951 70.1511L1.55362 70.2083L1.55374 70.2092L1.94951 70.1511ZM3.43007 71.4285V71.0285H3.42952L3.43007 71.4285ZM9.54378 71.4285L9.9436 71.4407L9.9561 71.0285H9.54378V71.4285ZM9.20566 75.4295L8.80948 75.3744L8.69726 76.1806L9.40409 75.7768L9.20566 75.4295ZM11.8913 73.6514L12.2526 73.4796L12.041 73.0349L11.6491 73.3331L11.8913 73.6514ZM14.2189 75.4295L14.0266 75.7802L14.581 76.0842L14.6182 75.453L14.2189 75.4295ZM14.3849 71.4285V71.0285H13.9949L13.985 71.4184L14.3849 71.4285ZM69.9929 71.4285L69.9931 71.0285H69.9929V71.4285ZM71.4515 69.6064L71.0612 69.6941L71.0612 69.6941L71.4515 69.6064ZM70.4103 64.9733L70.0158 64.9069L70.0028 64.9843L70.02 65.061L70.4103 64.9733ZM71.039 61.236L70.9483 60.8464L70.6887 60.9068L70.6445 61.1697L71.039 61.236ZM71.8261 61.0528L71.9168 61.4424L71.9172 61.4423L71.8261 61.0528ZM72.5795 60.6121V60.2121H72.4035L72.2846 60.3418L72.5795 60.6121ZM72.5932 60.6121V61.0121H72.9932V60.6121H72.5932ZM72.5932 60.597L72.2979 60.3272L72.1932 60.4418V60.597H72.5932ZM14.3994 68.6878L13.9995 68.6969L14.0084 69.0849L14.3964 69.0877L14.3994 68.6878ZM14.3635 67.7705L14.3725 67.3706L13.9373 67.3609L13.9643 67.7953L14.3635 67.7705ZM15.6258 67.7987L15.6169 68.1986L15.6187 68.1987L15.6258 67.7987ZM20.186 67.88L20.1788 68.2799L20.1801 68.2799L20.186 67.88ZM25.2757 67.955L25.2698 68.355L25.2712 68.355L25.2757 67.955ZM36.3365 68.0776L36.3321 68.4776L36.3339 68.4776L36.3365 68.0776ZM41.9558 68.1141L41.9609 67.7141L41.9584 67.7141L41.9558 68.1141ZM47.396 68.1362L47.3939 68.5362H47.3957L47.396 68.1362ZM52.4864 68.1403L52.4861 68.5403H52.4875L52.4864 68.1403ZM57.048 68.1279L57.0491 68.5279L57.052 68.5279L57.048 68.1279ZM63.8772 68.059L63.8745 67.659L63.8731 67.6591L63.8772 68.059ZM65.7909 68.0232L65.7978 68.4232L65.7998 68.4231L65.7909 68.0232ZM66.4685 68.0081L66.4774 68.408L66.4949 67.6089L66.4685 68.0081ZM65.7923 67.9633L65.8187 67.5642L65.8166 67.564L65.7923 67.9633ZM63.882 67.8435L63.902 67.444H63.902L63.882 67.8435ZM57.0597 67.4923L57.0415 67.8919L57.044 67.892L57.0597 67.4923ZM47.4098 67.1604L47.4203 66.7605L47.4184 66.7605L47.4098 67.1604ZM41.9648 67.044L41.9595 67.4439H41.9596L41.9648 67.044ZM36.3427 66.9703L36.348 66.5703L36.344 66.5703L36.3427 66.9703ZM30.7235 66.9524L30.7247 66.5524H30.7242L30.7235 66.9524ZM25.2771 66.9827L25.2738 66.5827H25.2735L25.2771 66.9827ZM8.79593 67.4331L8.77955 67.0334L8.77927 67.0334L8.79593 67.4331ZM6.88427 67.537L6.86181 67.1377L6.86028 67.1378L6.88427 67.537ZM6.20803 67.5777L6.18404 67.1784L6.1974 67.9775L6.20803 67.5777ZM8.79868 67.6465L8.78805 68.0464L8.78968 68.0464L8.79868 67.6465ZM9.53345 67.6631L9.93301 67.6442L9.91541 67.2716L9.54245 67.2632L9.53345 67.6631ZM9.56444 68.6526L9.56156 69.0526L9.97279 69.0556L9.96436 68.6444L9.56444 68.6526ZM4.30189 68.6148L3.90605 68.6723L3.95546 69.0123L4.29901 69.0148L4.30189 68.6148ZM3.156 60.7313L3.17469 60.3317L2.69042 60.309L2.76016 60.7888L3.156 60.7313ZM69.6073 60.7609L70.0018 60.8273L70.084 60.3389L69.5892 60.3613L69.6073 60.7609ZM69.2361 62.9645L69.2606 63.3638L69.5778 63.3443L69.6306 63.0309L69.2361 62.9645ZM66.9877 63.1022L66.9633 62.703L66.9638 63.5015L66.9877 63.1022ZM69.1914 63.2344L69.5858 63.3008L69.6597 62.8618L69.2153 62.8352L69.1914 63.2344ZM68.8911 65.018L69.2848 65.089L69.2856 65.0844L68.8911 65.018ZM68.7534 65.7824L68.7646 66.1822L69.0894 66.1731L69.1471 65.8533L68.7534 65.7824ZM62.7175 65.9518L62.7063 65.552L62.7063 66.3516L62.7175 65.9518ZM68.6914 66.1191L69.0848 66.1915L69.1693 65.7324L68.7026 65.7193L68.6914 66.1191ZM68.1467 69.0803L68.1438 69.4803L68.4794 69.4827L68.5401 69.1526L68.1467 69.0803ZM1.9922 59.1784L1.59605 59.1231L1.5356 59.5559L1.97209 59.5779L1.9922 59.1784ZM9.96798 2.06221L9.99096 1.66287L9.62282 1.64169L9.57183 2.00689L9.96798 2.06221ZM63.4585 2.06221L63.8546 2.00691L63.8036 1.64169L63.4355 1.66287L63.4585 2.06221ZM71.4322 59.1784L71.4523 59.5779L71.8888 59.5559L71.8283 59.1231L71.4322 59.1784ZM72.9713 59.3932L73.3674 59.3379L65.3345 1.80031L64.9384 1.85562L64.5422 1.91093L72.5751 59.4485L72.9713 59.3932ZM64.9384 1.85562L65.3345 1.80016C65.2712 1.3478 65.0466 0.933539 64.7021 0.633617L64.4394 0.935308L64.1768 1.237C64.3759 1.41031 64.5056 1.64969 64.5422 1.91108L64.9384 1.85562ZM64.4394 0.935308L64.7021 0.633617C64.3576 0.333694 63.9163 0.168299 63.4595 0.167871L63.4592 0.567871L63.4588 0.967871C63.7227 0.968118 63.9777 1.06369 64.1768 1.237L64.4394 0.935308ZM63.4592 0.567871V0.167871C63.4591 0.167871 63.4158 0.167871 63.4157 0.167871C63.4157 0.167871 63.3939 0.167871 63.3938 0.167871C63.3938 0.167871 63.3924 0.167871 63.3924 0.167871H63.3921C63.3921 0.167871 63.3917 0.167871 63.3917 0.167871H63.391H63.3897C63.3897 0.167871 63.3883 0.167871 63.3883 0.167871C63.3883 0.167871 63.3828 0.167871 63.3828 0.167871H63.38C63.38 0.167871 63.3773 0.167871 63.3773 0.167871C63.3773 0.167871 63.3759 0.167871 63.3759 0.167871C63.3759 0.167871 63.3745 0.167871 63.3745 0.167871H63.3731H63.3724H63.3721C63.372 0.167871 63.3719 0.167871 63.3719 0.167871C63.3718 0.167871 63.3718 0.167871 63.3717 0.167871V0.567871V0.967871C63.3718 0.967871 63.3718 0.967871 63.3719 0.967871C63.3719 0.967871 63.372 0.967871 63.3721 0.967871H63.3724H63.3731H63.3745C63.3745 0.967871 63.3759 0.967871 63.3759 0.967871C63.3759 0.967871 63.3773 0.967871 63.3773 0.967871C63.3773 0.967871 63.38 0.967871 63.38 0.967871H63.3828C63.3828 0.967871 63.3883 0.967871 63.3883 0.967871C63.3883 0.967871 63.3897 0.967871 63.3897 0.967871H63.391H63.3917C63.3917 0.967871 63.3921 0.967871 63.3921 0.967871H63.3924C63.3924 0.967871 63.3938 0.967871 63.3938 0.967871C63.3939 0.967871 63.4157 0.967871 63.4157 0.967871C63.4158 0.967871 63.4591 0.967871 63.4592 0.967871V0.567871ZM63.3717 0.567871L63.3487 0.168535C63.2466 0.174425 52.4423 0.787644 36.7132 0.787644V1.18764V1.58764C52.4617 1.58764 63.282 0.973713 63.3947 0.967207L63.3717 0.567871ZM36.7132 1.18764V0.787644C28.8489 0.787644 22.2154 0.635035 17.535 0.48133C15.1949 0.404478 13.3431 0.327357 12.07 0.268908C11.4334 0.239684 10.9416 0.21513 10.6057 0.197615C10.4378 0.188857 10.3089 0.181863 10.2205 0.176929C10.1274 0.171727 10.0869 0.169221 10.0873 0.169253L10.0541 0.567871L10.0208 0.966489C10.1435 0.976709 20.9685 1.58764 36.7132 1.58764V1.18764ZM10.0541 0.567871V0.167871C10.054 0.167871 10.054 0.167871 10.0539 0.167871C10.0538 0.167871 10.0538 0.167871 10.0537 0.167871C10.0537 0.167871 10.0536 0.167871 10.0536 0.167871C10.0535 0.167871 10.0534 0.167871 10.0534 0.167871C10.0533 0.167871 10.0533 0.167871 10.0532 0.167871C10.0532 0.167871 10.0531 0.167871 10.053 0.167871C10.053 0.167871 10.0529 0.167871 10.0529 0.167871C10.0528 0.167871 10.0528 0.167871 10.0527 0.167871C10.0527 0.167871 10.0526 0.167871 10.0525 0.167871C10.0525 0.167871 10.0524 0.167871 10.0524 0.167871C10.0523 0.167871 10.0523 0.167871 10.0522 0.167871C10.0521 0.167871 10.0521 0.167871 10.052 0.167871C10.052 0.167871 10.0519 0.167871 10.0519 0.167871C10.0518 0.167871 10.0517 0.167871 10.0517 0.167871C10.0516 0.167871 10.0516 0.167871 10.0515 0.167871C10.0515 0.167871 10.0514 0.167871 10.0514 0.167871C10.0513 0.167871 10.0512 0.167871 10.0512 0.167871C10.0511 0.167871 10.0511 0.167871 10.051 0.167871C10.051 0.167871 10.0509 0.167871 10.0508 0.167871C10.0508 0.167871 10.0507 0.167871 10.0507 0.167871C10.0506 0.167871 10.0506 0.167871 10.0505 0.167871C10.0504 0.167871 10.0504 0.167871 10.0503 0.167871C10.0503 0.167871 10.0502 0.167871 10.0502 0.167871C10.0501 0.167871 10.0501 0.167871 10.05 0.167871C10.0499 0.167871 10.0499 0.167871 10.0498 0.167871C10.0498 0.167871 10.0497 0.167871 10.0497 0.167871C10.0496 0.167871 10.0495 0.167871 10.0495 0.167871C10.0494 0.167871 10.0494 0.167871 10.0493 0.167871C10.0493 0.167871 10.0492 0.167871 10.0491 0.167871C10.0491 0.167871 10.049 0.167871 10.049 0.167871C10.0489 0.167871 10.0489 0.167871 10.0488 0.167871C10.0488 0.167871 10.0487 0.167871 10.0486 0.167871C10.0486 0.167871 10.0485 0.167871 10.0485 0.167871C10.0484 0.167871 10.0484 0.167871 10.0483 0.167871C10.0482 0.167871 10.0482 0.167871 10.0481 0.167871C10.0481 0.167871 10.048 0.167871 10.048 0.167871C10.0479 0.167871 10.0478 0.167871 10.0478 0.167871C10.0477 0.167871 10.0477 0.167871 10.0476 0.167871C10.0476 0.167871 10.0475 0.167871 10.0475 0.167871C10.0474 0.167871 10.0473 0.167871 10.0473 0.167871C10.0472 0.167871 10.0472 0.167871 10.0471 0.167871C10.0471 0.167871 10.047 0.167871 10.0469 0.167871C10.0469 0.167871 10.0468 0.167871 10.0468 0.167871C10.0467 0.167871 10.0467 0.167871 10.0466 0.167871C10.0466 0.167871 10.0465 0.167871 10.0464 0.167871C10.0464 0.167871 10.0463 0.167871 10.0463 0.167871C10.0462 0.167871 10.0462 0.167871 10.0461 0.167871C10.046 0.167871 10.046 0.167871 10.0459 0.167871C10.0459 0.167871 10.0458 0.167871 10.0458 0.167871C10.0457 0.167871 10.0456 0.167871 10.0456 0.167871C10.0455 0.167871 10.0455 0.167871 10.0454 0.167871C10.0454 0.167871 10.0453 0.167871 10.0453 0.167871C10.0452 0.167871 10.0451 0.167871 10.0451 0.167871C10.045 0.167871 10.045 0.167871 10.0449 0.167871C10.0449 0.167871 10.0448 0.167871 10.0447 0.167871C10.0447 0.167871 10.0446 0.167871 10.0446 0.167871C10.0445 0.167871 10.0445 0.167871 10.0444 0.167871C10.0443 0.167871 10.0443 0.167871 10.0442 0.167871C10.0442 0.167871 10.0441 0.167871 10.0441 0.167871C10.044 0.167871 10.044 0.167871 10.0439 0.167871C10.0438 0.167871 10.0438 0.167871 10.0437 0.167871C10.0437 0.167871 10.0436 0.167871 10.0436 0.167871C10.0435 0.167871 10.0434 0.167871 10.0434 0.167871C10.0433 0.167871 10.0433 0.167871 10.0432 0.167871C10.0432 0.167871 10.0431 0.167871 10.043 0.167871C10.043 0.167871 10.0429 0.167871 10.0429 0.167871C10.0428 0.167871 10.0428 0.167871 10.0427 0.167871C10.0427 0.167871 10.0426 0.167871 10.0425 0.167871C10.0425 0.167871 10.0424 0.167871 10.0424 0.167871C10.0423 0.167871 10.0423 0.167871 10.0422 0.167871C10.0421 0.167871 10.0421 0.167871 10.042 0.167871C10.042 0.167871 10.0419 0.167871 10.0419 0.167871C10.0418 0.167871 10.0417 0.167871 10.0417 0.167871C10.0416 0.167871 10.0416 0.167871 10.0415 0.167871C10.0415 0.167871 10.0414 0.167871 10.0414 0.167871C10.0413 0.167871 10.0412 0.167871 10.0412 0.167871C10.0411 0.167871 10.0411 0.167871 10.041 0.167871C10.041 0.167871 10.0409 0.167871 10.0408 0.167871C10.0408 0.167871 10.0407 0.167871 10.0407 0.167871C10.0406 0.167871 10.0406 0.167871 10.0405 0.167871C10.0405 0.167871 10.0404 0.167871 10.0403 0.167871C10.0403 0.167871 10.0402 0.167871 10.0402 0.167871C10.0401 0.167871 10.0401 0.167871 10.04 0.167871C10.0399 0.167871 10.0399 0.167871 10.0398 0.167871C10.0398 0.167871 10.0397 0.167871 10.0397 0.167871C10.0396 0.167871 10.0395 0.167871 10.0395 0.167871C10.0394 0.167871 10.0394 0.167871 10.0393 0.167871C10.0393 0.167871 10.0392 0.167871 10.0392 0.167871C10.0391 0.167871 10.039 0.167871 10.039 0.167871C10.0389 0.167871 10.0389 0.167871 10.0388 0.167871C10.0388 0.167871 10.0387 0.167871 10.0386 0.167871C10.0386 0.167871 10.0385 0.167871 10.0385 0.167871C10.0384 0.167871 10.0384 0.167871 10.0383 0.167871C10.0382 0.167871 10.0382 0.167871 10.0381 0.167871C10.0381 0.167871 10.038 0.167871 10.038 0.167871C10.0379 0.167871 10.0379 0.167871 10.0378 0.167871C10.0377 0.167871 10.0377 0.167871 10.0376 0.167871C10.0376 0.167871 10.0375 0.167871 10.0375 0.167871C10.0374 0.167871 10.0373 0.167871 10.0373 0.167871C10.0372 0.167871 10.0372 0.167871 10.0371 0.167871C10.0371 0.167871 10.037 0.167871 10.0369 0.167871C10.0369 0.167871 10.0368 0.167871 10.0368 0.167871C10.0367 0.167871 10.0367 0.167871 10.0366 0.167871C10.0366 0.167871 10.0365 0.167871 10.0364 0.167871C10.0364 0.167871 10.0363 0.167871 10.0363 0.167871C10.0362 0.167871 10.0362 0.167871 10.0361 0.167871C10.036 0.167871 10.036 0.167871 10.0359 0.167871C10.0359 0.167871 10.0358 0.167871 10.0358 0.167871C10.0357 0.167871 10.0356 0.167871 10.0356 0.167871C10.0355 0.167871 10.0355 0.167871 10.0354 0.167871C10.0354 0.167871 10.0353 0.167871 10.0353 0.167871C10.0352 0.167871 10.0351 0.167871 10.0351 0.167871C10.035 0.167871 10.035 0.167871 10.0349 0.167871C10.0349 0.167871 10.0348 0.167871 10.0347 0.167871C10.0347 0.167871 10.0346 0.167871 10.0346 0.167871C10.0345 0.167871 10.0345 0.167871 10.0344 0.167871C10.0343 0.167871 10.0343 0.167871 10.0342 0.167871C10.0342 0.167871 10.0341 0.167871 10.0341 0.167871C10.034 0.167871 10.034 0.167871 10.0339 0.167871C10.0338 0.167871 10.0338 0.167871 10.0337 0.167871C10.0337 0.167871 10.0336 0.167871 10.0336 0.167871C10.0335 0.167871 10.0334 0.167871 10.0334 0.167871C10.0333 0.167871 10.0333 0.167871 10.0332 0.167871C10.0332 0.167871 10.0331 0.167871 10.033 0.167871C10.033 0.167871 10.0329 0.167871 10.0329 0.167871C10.0328 0.167871 10.0328 0.167871 10.0327 0.167871C10.0327 0.167871 10.0326 0.167871 10.0325 0.167871C10.0325 0.167871 10.0324 0.167871 10.0324 0.167871C10.0323 0.167871 10.0323 0.167871 10.0322 0.167871C10.0321 0.167871 10.0321 0.167871 10.032 0.167871C10.032 0.167871 10.0319 0.167871 10.0319 0.167871C10.0318 0.167871 10.0318 0.167871 10.0317 0.167871C10.0316 0.167871 10.0316 0.167871 10.0315 0.167871C10.0315 0.167871 10.0314 0.167871 10.0314 0.167871C10.0313 0.167871 10.0312 0.167871 10.0312 0.167871C10.0311 0.167871 10.0311 0.167871 10.031 0.167871C10.031 0.167871 10.0309 0.167871 10.0308 0.167871C10.0308 0.167871 10.0307 0.167871 10.0307 0.167871C10.0306 0.167871 10.0306 0.167871 10.0305 0.167871C10.0305 0.167871 10.0304 0.167871 10.0303 0.167871C10.0303 0.167871 10.0302 0.167871 10.0302 0.167871C10.0301 0.167871 10.0301 0.167871 10.03 0.167871C10.0299 0.167871 10.0299 0.167871 10.0298 0.167871C10.0298 0.167871 10.0297 0.167871 10.0297 0.167871C10.0296 0.167871 10.0295 0.167871 10.0295 0.167871C10.0294 0.167871 10.0294 0.167871 10.0293 0.167871C10.0293 0.167871 10.0292 0.167871 10.0292 0.167871C10.0291 0.167871 10.029 0.167871 10.029 0.167871C10.0289 0.167871 10.0289 0.167871 10.0288 0.167871C10.0288 0.167871 10.0287 0.167871 10.0286 0.167871C10.0286 0.167871 10.0285 0.167871 10.0285 0.167871C10.0284 0.167871 10.0284 0.167871 10.0283 0.167871C10.0282 0.167871 10.0282 0.167871 10.0281 0.167871C10.0281 0.167871 10.028 0.167871 10.028 0.167871C10.0279 0.167871 10.0279 0.167871 10.0278 0.167871C10.0277 0.167871 10.0277 0.167871 10.0276 0.167871C10.0276 0.167871 10.0275 0.167871 10.0275 0.167871C10.0274 0.167871 10.0273 0.167871 10.0273 0.167871C10.0272 0.167871 10.0272 0.167871 10.0271 0.167871C10.0271 0.167871 10.027 0.167871 10.0269 0.167871C10.0269 0.167871 10.0268 0.167871 10.0268 0.167871C10.0267 0.167871 10.0267 0.167871 10.0266 0.167871C10.0266 0.167871 10.0265 0.167871 10.0264 0.167871C10.0264 0.167871 10.0263 0.167871 10.0263 0.167871C10.0262 0.167871 10.0262 0.167871 10.0261 0.167871C10.026 0.167871 10.026 0.167871 10.0259 0.167871C10.0259 0.167871 10.0258 0.167871 10.0258 0.167871C10.0257 0.167871 10.0256 0.167871 10.0256 0.167871C10.0255 0.167871 10.0255 0.167871 10.0254 0.167871C10.0254 0.167871 10.0253 0.167871 10.0253 0.167871C10.0252 0.167871 10.0251 0.167871 10.0251 0.167871C10.025 0.167871 10.025 0.167871 10.0249 0.167871C10.0249 0.167871 10.0248 0.167871 10.0247 0.167871C10.0247 0.167871 10.0246 0.167871 10.0246 0.167871C10.0245 0.167871 10.0245 0.167871 10.0244 0.167871C10.0244 0.167871 10.0243 0.167871 10.0242 0.167871C10.0242 0.167871 10.0241 0.167871 10.0241 0.167871C10.024 0.167871 10.024 0.167871 10.0239 0.167871C10.0238 0.167871 10.0238 0.167871 10.0237 0.167871C10.0237 0.167871 10.0236 0.167871 10.0236 0.167871C10.0235 0.167871 10.0234 0.167871 10.0234 0.167871C10.0233 0.167871 10.0233 0.167871 10.0232 0.167871C10.0232 0.167871 10.0231 0.167871 10.0231 0.167871C10.023 0.167871 10.0229 0.167871 10.0229 0.167871C10.0228 0.167871 10.0228 0.167871 10.0227 0.167871C10.0227 0.167871 10.0226 0.167871 10.0225 0.167871C10.0225 0.167871 10.0224 0.167871 10.0224 0.167871C10.0223 0.167871 10.0223 0.167871 10.0222 0.167871C10.0221 0.167871 10.0221 0.167871 10.022 0.167871C10.022 0.167871 10.0219 0.167871 10.0219 0.167871C10.0218 0.167871 10.0218 0.167871 10.0217 0.167871C10.0216 0.167871 10.0216 0.167871 10.0215 0.167871C10.0215 0.167871 10.0214 0.167871 10.0214 0.167871C10.0213 0.167871 10.0212 0.167871 10.0212 0.167871C10.0211 0.167871 10.0211 0.167871 10.021 0.167871C10.021 0.167871 10.0209 0.167871 10.0208 0.167871C10.0208 0.167871 10.0207 0.167871 10.0207 0.167871C10.0206 0.167871 10.0206 0.167871 10.0205 0.167871C10.0205 0.167871 10.0204 0.167871 10.0203 0.167871C10.0203 0.167871 10.0202 0.167871 10.0202 0.167871C10.0201 0.167871 10.0201 0.167871 10.02 0.167871C10.0199 0.167871 10.0199 0.167871 10.0198 0.167871C10.0198 0.167871 10.0197 0.167871 10.0197 0.167871C10.0196 0.167871 10.0195 0.167871 10.0195 0.167871C10.0194 0.167871 10.0194 0.167871 10.0193 0.167871C10.0193 0.167871 10.0192 0.167871 10.0192 0.167871C10.0191 0.167871 10.019 0.167871 10.019 0.167871C10.0189 0.167871 10.0189 0.167871 10.0188 0.167871C10.0188 0.167871 10.0187 0.167871 10.0186 0.167871C10.0186 0.167871 10.0185 0.167871 10.0185 0.167871C10.0184 0.167871 10.0184 0.167871 10.0183 0.167871C10.0182 0.167871 10.0182 0.167871 10.0181 0.167871C10.0181 0.167871 10.018 0.167871 10.018 0.167871C10.0179 0.167871 10.0179 0.167871 10.0178 0.167871C10.0177 0.167871 10.0177 0.167871 10.0176 0.167871C10.0176 0.167871 10.0175 0.167871 10.0175 0.167871C10.0174 0.167871 10.0173 0.167871 10.0173 0.167871C10.0172 0.167871 10.0172 0.167871 10.0171 0.167871C10.0171 0.167871 10.017 0.167871 10.0169 0.167871C10.0169 0.167871 10.0168 0.167871 10.0168 0.167871C10.0167 0.167871 10.0167 0.167871 10.0166 0.167871C10.0166 0.167871 10.0165 0.167871 10.0164 0.167871C10.0164 0.167871 10.0163 0.167871 10.0163 0.167871C10.0162 0.167871 10.0162 0.167871 10.0161 0.167871C10.016 0.167871 10.016 0.167871 10.0159 0.167871C10.0159 0.167871 10.0158 0.167871 10.0158 0.167871C10.0157 0.167871 10.0157 0.167871 10.0156 0.167871C10.0155 0.167871 10.0155 0.167871 10.0154 0.167871C10.0154 0.167871 10.0153 0.167871 10.0153 0.167871C10.0152 0.167871 10.0151 0.167871 10.0151 0.167871C10.015 0.167871 10.015 0.167871 10.0149 0.167871C10.0149 0.167871 10.0148 0.167871 10.0147 0.167871C10.0147 0.167871 10.0146 0.167871 10.0146 0.167871C10.0145 0.167871 10.0145 0.167871 10.0144 0.167871C10.0144 0.167871 10.0143 0.167871 10.0142 0.167871C10.0142 0.167871 10.0141 0.167871 10.0141 0.167871C10.014 0.167871 10.014 0.167871 10.0139 0.167871C10.0138 0.167871 10.0138 0.167871 10.0137 0.167871C10.0137 0.167871 10.0136 0.167871 10.0136 0.167871C10.0135 0.167871 10.0134 0.167871 10.0134 0.167871C10.0133 0.167871 10.0133 0.167871 10.0132 0.167871C10.0132 0.167871 10.0131 0.167871 10.0131 0.167871C10.013 0.167871 10.0129 0.167871 10.0129 0.167871C10.0128 0.167871 10.0128 0.167871 10.0127 0.167871C10.0127 0.167871 10.0126 0.167871 10.0125 0.167871C10.0125 0.167871 10.0124 0.167871 10.0124 0.167871C10.0123 0.167871 10.0123 0.167871 10.0122 0.167871C10.0121 0.167871 10.0121 0.167871 10.012 0.167871C10.012 0.167871 10.0119 0.167871 10.0119 0.167871C10.0118 0.167871 10.0118 0.167871 10.0117 0.167871C10.0116 0.167871 10.0116 0.167871 10.0115 0.167871C10.0115 0.167871 10.0114 0.167871 10.0114 0.167871C10.0113 0.167871 10.0112 0.167871 10.0112 0.167871C10.0111 0.167871 10.0111 0.167871 10.011 0.167871C10.011 0.167871 10.0109 0.167871 10.0108 0.167871C10.0108 0.167871 10.0107 0.167871 10.0107 0.167871C10.0106 0.167871 10.0106 0.167871 10.0105 0.167871C10.0105 0.167871 10.0104 0.167871 10.0103 0.167871C10.0103 0.167871 10.0102 0.167871 10.0102 0.167871C10.0101 0.167871 10.0101 0.167871 10.01 0.167871C10.0099 0.167871 10.0099 0.167871 10.0098 0.167871C10.0098 0.167871 10.0097 0.167871 10.0097 0.167871C10.0096 0.167871 10.0096 0.167871 10.0095 0.167871C10.0094 0.167871 10.0094 0.167871 10.0093 0.167871C10.0093 0.167871 10.0092 0.167871 10.0092 0.167871C10.0091 0.167871 10.009 0.167871 10.009 0.167871C10.0089 0.167871 10.0089 0.167871 10.0088 0.167871C10.0088 0.167871 10.0087 0.167871 10.0086 0.167871C10.0086 0.167871 10.0085 0.167871 10.0085 0.167871C10.0084 0.167871 10.0084 0.167871 10.0083 0.167871C10.0083 0.167871 10.0082 0.167871 10.0081 0.167871C10.0081 0.167871 10.008 0.167871 10.008 0.167871C10.0079 0.167871 10.0079 0.167871 10.0078 0.167871C10.0077 0.167871 10.0077 0.167871 10.0076 0.167871C10.0076 0.167871 10.0075 0.167871 10.0075 0.167871C10.0074 0.167871 10.0073 0.167871 10.0073 0.167871C10.0072 0.167871 10.0072 0.167871 10.0071 0.167871C10.0071 0.167871 10.007 0.167871 10.007 0.167871C10.0069 0.167871 10.0068 0.167871 10.0068 0.167871C10.0067 0.167871 10.0067 0.167871 10.0066 0.167871C10.0066 0.167871 10.0065 0.167871 10.0064 0.167871C10.0064 0.167871 10.0063 0.167871 10.0063 0.167871C10.0062 0.167871 10.0062 0.167871 10.0061 0.167871C10.006 0.167871 10.006 0.167871 10.0059 0.167871C10.0059 0.167871 10.0058 0.167871 10.0058 0.167871C10.0057 0.167871 10.0057 0.167871 10.0056 0.167871C10.0055 0.167871 10.0055 0.167871 10.0054 0.167871C10.0054 0.167871 10.0053 0.167871 10.0053 0.167871C10.0052 0.167871 10.0051 0.167871 10.0051 0.167871C10.005 0.167871 10.005 0.167871 10.0049 0.167871C10.0049 0.167871 10.0048 0.167871 10.0047 0.167871C10.0047 0.167871 10.0046 0.167871 10.0046 0.167871C10.0045 0.167871 10.0045 0.167871 10.0044 0.167871C10.0044 0.167871 10.0043 0.167871 10.0042 0.167871C10.0042 0.167871 10.0041 0.167871 10.0041 0.167871C10.004 0.167871 10.004 0.167871 10.0039 0.167871C10.0038 0.167871 10.0038 0.167871 10.0037 0.167871C10.0037 0.167871 10.0036 0.167871 10.0036 0.167871C10.0035 0.167871 10.0034 0.167871 10.0034 0.167871C10.0033 0.167871 10.0033 0.167871 10.0032 0.167871C10.0032 0.167871 10.0031 0.167871 10.0031 0.167871C10.003 0.167871 10.0029 0.167871 10.0029 0.167871C10.0028 0.167871 10.0028 0.167871 10.0027 0.167871C10.0027 0.167871 10.0026 0.167871 10.0025 0.167871C10.0025 0.167871 10.0024 0.167871 10.0024 0.167871C10.0023 0.167871 10.0023 0.167871 10.0022 0.167871C10.0021 0.167871 10.0021 0.167871 10.002 0.167871C10.002 0.167871 10.0019 0.167871 10.0019 0.167871C10.0018 0.167871 10.0018 0.167871 10.0017 0.167871C10.0016 0.167871 10.0016 0.167871 10.0015 0.167871C10.0015 0.167871 10.0014 0.167871 10.0014 0.167871C10.0013 0.167871 10.0012 0.167871 10.0012 0.167871C10.0011 0.167871 10.0011 0.167871 10.001 0.167871C10.001 0.167871 10.0009 0.167871 10.0009 0.167871C10.0008 0.167871 10.0007 0.167871 10.0007 0.167871C10.0006 0.167871 10.0006 0.167871 10.0005 0.167871C10.0005 0.167871 10.0004 0.167871 10.0003 0.167871C10.0003 0.167871 10.0002 0.167871 10.0002 0.167871C10.0001 0.167871 10.0001 0.167871 10 0.167871C9.99995 0.167871 9.99989 0.167871 9.99983 0.167871C9.99978 0.167871 9.99972 0.167871 9.99966 0.167871C9.99961 0.167871 9.99955 0.167871 9.99949 0.167871C9.99944 0.167871 9.99938 0.167871 9.99932 0.167871C9.99927 0.167871 9.99921 0.167871 9.99916 0.167871C9.9991 0.167871 9.99904 0.167871 9.99899 0.167871C9.99893 0.167871 9.99887 0.167871 9.99882 0.167871C9.99876 0.167871 9.9987 0.167871 9.99865 0.167871C9.99859 0.167871 9.99853 0.167871 9.99848 0.167871C9.99842 0.167871 9.99836 0.167871 9.99831 0.167871C9.99825 0.167871 9.9982 0.167871 9.99814 0.167871C9.99808 0.167871 9.99803 0.167871 9.99797 0.167871C9.99791 0.167871 9.99786 0.167871 9.9978 0.167871C9.99774 0.167871 9.99769 0.167871 9.99763 0.167871C9.99757 0.167871 9.99752 0.167871 9.99746 0.167871C9.9974 0.167871 9.99735 0.167871 9.99729 0.167871C9.99724 0.167871 9.99718 0.167871 9.99712 0.167871C9.99707 0.167871 9.99701 0.167871 9.99695 0.167871C9.9969 0.167871 9.99684 0.167871 9.99678 0.167871C9.99673 0.167871 9.99667 0.167871 9.99661 0.167871C9.99656 0.167871 9.9965 0.167871 9.99644 0.167871C9.99639 0.167871 9.99633 0.167871 9.99627 0.167871C9.99622 0.167871 9.99616 0.167871 9.99611 0.167871C9.99605 0.167871 9.99599 0.167871 9.99594 0.167871C9.99588 0.167871 9.99582 0.167871 9.99577 0.167871C9.99571 0.167871 9.99565 0.167871 9.9956 0.167871C9.99554 0.167871 9.99548 0.167871 9.99543 0.167871C9.99537 0.167871 9.99531 0.167871 9.99526 0.167871C9.9952 0.167871 9.99514 0.167871 9.99509 0.167871C9.99503 0.167871 9.99498 0.167871 9.99492 0.167871C9.99486 0.167871 9.99481 0.167871 9.99475 0.167871C9.99469 0.167871 9.99464 0.167871 9.99458 0.167871C9.99452 0.167871 9.99447 0.167871 9.99441 0.167871C9.99435 0.167871 9.9943 0.167871 9.99424 0.167871C9.99418 0.167871 9.99413 0.167871 9.99407 0.167871C9.99401 0.167871 9.99396 0.167871 9.9939 0.167871C9.99385 0.167871 9.99379 0.167871 9.99373 0.167871C9.99368 0.167871 9.99362 0.167871 9.99356 0.167871C9.99351 0.167871 9.99345 0.167871 9.99339 0.167871C9.99334 0.167871 9.99328 0.167871 9.99322 0.167871C9.99317 0.167871 9.99311 0.167871 9.99305 0.167871C9.993 0.167871 9.99294 0.167871 9.99289 0.167871C9.99283 0.167871 9.99277 0.167871 9.99272 0.167871C9.99266 0.167871 9.9926 0.167871 9.99255 0.167871C9.99249 0.167871 9.99243 0.167871 9.99238 0.167871C9.99232 0.167871 9.99226 0.167871 9.99221 0.167871C9.99215 0.167871 9.99209 0.167871 9.99204 0.167871C9.99198 0.167871 9.99193 0.167871 9.99187 0.167871C9.99181 0.167871 9.99176 0.167871 9.9917 0.167871C9.99164 0.167871 9.99159 0.167871 9.99153 0.167871C9.99147 0.167871 9.99142 0.167871 9.99136 0.167871C9.9913 0.167871 9.99125 0.167871 9.99119 0.167871C9.99113 0.167871 9.99108 0.167871 9.99102 0.167871C9.99096 0.167871 9.99091 0.167871 9.99085 0.167871C9.9908 0.167871 9.99074 0.167871 9.99068 0.167871C9.99063 0.167871 9.99057 0.167871 9.99051 0.167871C9.99046 0.167871 9.9904 0.167871 9.99034 0.167871C9.99029 0.167871 9.99023 0.167871 9.99017 0.167871C9.99012 0.167871 9.99006 0.167871 9.99 0.167871C9.98995 0.167871 9.98989 0.167871 9.98983 0.167871C9.98978 0.167871 9.98972 0.167871 9.98967 0.167871C9.98961 0.167871 9.98955 0.167871 9.9895 0.167871C9.98944 0.167871 9.98938 0.167871 9.98933 0.167871C9.98927 0.167871 9.98921 0.167871 9.98916 0.167871C9.9891 0.167871 9.98904 0.167871 9.98899 0.167871C9.98893 0.167871 9.98887 0.167871 9.98882 0.167871C9.98876 0.167871 9.9887 0.167871 9.98865 0.167871C9.98859 0.167871 9.98854 0.167871 9.98848 0.167871C9.98842 0.167871 9.98837 0.167871 9.98831 0.167871C9.98825 0.167871 9.9882 0.167871 9.98814 0.167871C9.98808 0.167871 9.98803 0.167871 9.98797 0.167871C9.98791 0.167871 9.98786 0.167871 9.9878 0.167871C9.98774 0.167871 9.98769 0.167871 9.98763 0.167871C9.98758 0.167871 9.98752 0.167871 9.98746 0.167871C9.98741 0.167871 9.98735 0.167871 9.98729 0.167871C9.98724 0.167871 9.98718 0.167871 9.98712 0.167871C9.98707 0.167871 9.98701 0.167871 9.98695 0.167871C9.9869 0.167871 9.98684 0.167871 9.98678 0.167871C9.98673 0.167871 9.98667 0.167871 9.98662 0.167871C9.98656 0.167871 9.9865 0.167871 9.98645 0.167871C9.98639 0.167871 9.98633 0.167871 9.98628 0.167871C9.98622 0.167871 9.98616 0.167871 9.98611 0.167871C9.98605 0.167871 9.98599 0.167871 9.98594 0.167871C9.98588 0.167871 9.98582 0.167871 9.98577 0.167871C9.98571 0.167871 9.98565 0.167871 9.9856 0.167871C9.98554 0.167871 9.98549 0.167871 9.98543 0.167871C9.98537 0.167871 9.98532 0.167871 9.98526 0.167871C9.9852 0.167871 9.98515 0.167871 9.98509 0.167871C9.98503 0.167871 9.98498 0.167871 9.98492 0.167871C9.98486 0.167871 9.98481 0.167871 9.98475 0.167871C9.98469 0.167871 9.98464 0.167871 9.98458 0.167871C9.98452 0.167871 9.98447 0.167871 9.98441 0.167871C9.98435 0.167871 9.9843 0.167871 9.98424 0.167871C9.98419 0.167871 9.98413 0.167871 9.98407 0.167871C9.98402 0.167871 9.98396 0.167871 9.9839 0.167871C9.98385 0.167871 9.98379 0.167871 9.98373 0.167871C9.98368 0.167871 9.98362 0.167871 9.98356 0.167871C9.98351 0.167871 9.98345 0.167871 9.98339 0.167871C9.98334 0.167871 9.98328 0.167871 9.98323 0.167871C9.98317 0.167871 9.98311 0.167871 9.98306 0.167871C9.983 0.167871 9.98294 0.167871 9.98289 0.167871C9.98283 0.167871 9.98277 0.167871 9.98272 0.167871C9.98266 0.167871 9.9826 0.167871 9.98255 0.167871C9.98249 0.167871 9.98243 0.167871 9.98238 0.167871C9.98232 0.167871 9.98227 0.167871 9.98221 0.167871C9.98215 0.167871 9.9821 0.167871 9.98204 0.167871C9.98198 0.167871 9.98193 0.167871 9.98187 0.167871C9.98181 0.167871 9.98176 0.167871 9.9817 0.167871C9.98164 0.167871 9.98159 0.167871 9.98153 0.167871C9.98147 0.167871 9.98142 0.167871 9.98136 0.167871C9.98131 0.167871 9.98125 0.167871 9.98119 0.167871C9.98114 0.167871 9.98108 0.167871 9.98102 0.167871C9.98097 0.167871 9.98091 0.167871 9.98085 0.167871C9.9808 0.167871 9.98074 0.167871 9.98068 0.167871C9.98063 0.167871 9.98057 0.167871 9.98051 0.167871C9.98046 0.167871 9.9804 0.167871 9.98034 0.167871C9.98029 0.167871 9.98023 0.167871 9.98018 0.167871C9.98012 0.167871 9.98006 0.167871 9.98001 0.167871C9.97995 0.167871 9.97989 0.167871 9.97984 0.167871C9.97978 0.167871 9.97972 0.167871 9.97967 0.167871C9.97961 0.167871 9.97955 0.167871 9.9795 0.167871C9.97944 0.167871 9.97938 0.167871 9.97933 0.167871C9.97927 0.167871 9.97921 0.167871 9.97916 0.167871C9.9791 0.167871 9.97904 0.167871 9.97899 0.167871C9.97893 0.167871 9.97888 0.167871 9.97882 0.167871C9.97876 0.167871 9.97871 0.167871 9.97865 0.167871C9.97859 0.167871 9.97854 0.167871 9.97848 0.167871C9.97842 0.167871 9.97837 0.167871 9.97831 0.167871C9.97825 0.167871 9.9782 0.167871 9.97814 0.167871C9.97808 0.167871 9.97803 0.167871 9.97797 0.167871C9.97792 0.167871 9.97786 0.167871 9.9778 0.167871C9.97775 0.167871 9.97769 0.167871 9.97763 0.167871C9.97758 0.167871 9.97752 0.167871 9.97746 0.167871C9.97741 0.167871 9.97735 0.167871 9.97729 0.167871C9.97724 0.167871 9.97718 0.167871 9.97712 0.167871C9.97707 0.167871 9.97701 0.167871 9.97696 0.167871C9.9769 0.167871 9.97684 0.167871 9.97679 0.167871C9.97673 0.167871 9.97667 0.167871 9.97662 0.167871C9.97656 0.167871 9.9765 0.167871 9.97645 0.167871C9.97639 0.167871 9.97633 0.167871 9.97628 0.167871C9.97622 0.167871 9.97616 0.167871 9.97611 0.167871C9.97605 0.167871 9.976 0.167871 9.97594 0.167871C9.97588 0.167871 9.97583 0.167871 9.97577 0.167871C9.97571 0.167871 9.97566 0.167871 9.9756 0.167871C9.97554 0.167871 9.97549 0.167871 9.97543 0.167871C9.97537 0.167871 9.97532 0.167871 9.97526 0.167871C9.9752 0.167871 9.97515 0.167871 9.97509 0.167871C9.97503 0.167871 9.97498 0.167871 9.97492 0.167871C9.97486 0.167871 9.97481 0.167871 9.97475 0.167871C9.9747 0.167871 9.97464 0.167871 9.97458 0.167871C9.97453 0.167871 9.97447 0.167871 9.97441 0.167871C9.97436 0.167871 9.9743 0.167871 9.97424 0.167871C9.97419 0.167871 9.97413 0.167871 9.97407 0.167871C9.97402 0.167871 9.97396 0.167871 9.9739 0.167871C9.97385 0.167871 9.97379 0.167871 9.97373 0.167871C9.97368 0.167871 9.97362 0.167871 9.97357 0.167871C9.97351 0.167871 9.97345 0.167871 9.9734 0.167871C9.97334 0.167871 9.97328 0.167871 9.97323 0.167871C9.97317 0.167871 9.97311 0.167871 9.97306 0.167871C9.973 0.167871 9.97294 0.167871 9.97289 0.167871C9.97283 0.167871 9.97277 0.167871 9.97272 0.167871C9.97266 0.167871 9.97261 0.167871 9.97255 0.167871C9.97249 0.167871 9.97244 0.167871 9.97238 0.167871C9.97232 0.167871 9.97227 0.167871 9.97221 0.167871C9.97215 0.167871 9.9721 0.167871 9.97204 0.167871C9.97198 0.167871 9.97193 0.167871 9.97187 0.167871C9.97181 0.167871 9.97176 0.167871 9.9717 0.167871C9.97165 0.167871 9.97159 0.167871 9.97153 0.167871C9.97148 0.167871 9.97142 0.167871 9.97136 0.167871C9.97131 0.167871 9.97125 0.167871 9.97119 0.167871C9.97114 0.167871 9.97108 0.167871 9.97102 0.167871C9.97097 0.167871 9.97091 0.167871 9.97085 0.167871C9.9708 0.167871 9.97074 0.167871 9.97069 0.167871C9.97063 0.167871 9.97057 0.167871 9.97052 0.167871C9.97046 0.167871 9.9704 0.167871 9.97035 0.167871C9.97029 0.167871 9.97023 0.167871 9.97018 0.167871C9.97012 0.167871 9.97006 0.167871 9.97001 0.167871C9.96995 0.167871 9.96989 0.167871 9.96984 0.167871C9.96978 0.167871 9.96972 0.167871 9.96967 0.167871C9.96961 0.167871 9.96955 0.167871 9.9695 0.167871C9.96944 0.167871 9.96939 0.167871 9.96933 0.167871C9.96927 0.167871 9.96922 0.167871 9.96916 0.167871C9.9691 0.167871 9.96905 0.167871 9.96899 0.167871C9.96893 0.167871 9.96888 0.167871 9.96882 0.167871C9.96876 0.167871 9.96871 0.167871 9.96865 0.167871C9.96859 0.167871 9.96854 0.167871 9.96848 0.167871C9.96842 0.167871 9.96837 0.167871 9.96831 0.167871C9.96826 0.167871 9.9682 0.167871 9.96814 0.167871C9.96809 0.167871 9.96803 0.167871 9.96797 0.167871C9.96792 0.167871 9.96786 0.167871 9.9678 0.167871C9.96775 0.167871 9.96769 0.167871 9.96763 0.167871C9.96758 0.167871 9.96752 0.167871 9.96746 0.167871C9.96741 0.167871 9.96735 0.167871 9.9673 0.167871V0.567871V0.967871C9.96735 0.967871 9.96741 0.967871 9.96746 0.967871C9.96752 0.967871 9.96758 0.967871 9.96763 0.967871C9.96769 0.967871 9.96775 0.967871 9.9678 0.967871C9.96786 0.967871 9.96792 0.967871 9.96797 0.967871C9.96803 0.967871 9.96809 0.967871 9.96814 0.967871C9.9682 0.967871 9.96826 0.967871 9.96831 0.967871C9.96837 0.967871 9.96842 0.967871 9.96848 0.967871C9.96854 0.967871 9.96859 0.967871 9.96865 0.967871C9.96871 0.967871 9.96876 0.967871 9.96882 0.967871C9.96888 0.967871 9.96893 0.967871 9.96899 0.967871C9.96905 0.967871 9.9691 0.967871 9.96916 0.967871C9.96922 0.967871 9.96927 0.967871 9.96933 0.967871C9.96939 0.967871 9.96944 0.967871 9.9695 0.967871C9.96955 0.967871 9.96961 0.967871 9.96967 0.967871C9.96972 0.967871 9.96978 0.967871 9.96984 0.967871C9.96989 0.967871 9.96995 0.967871 9.97001 0.967871C9.97006 0.967871 9.97012 0.967871 9.97018 0.967871C9.97023 0.967871 9.97029 0.967871 9.97035 0.967871C9.9704 0.967871 9.97046 0.967871 9.97052 0.967871C9.97057 0.967871 9.97063 0.967871 9.97069 0.967871C9.97074 0.967871 9.9708 0.967871 9.97085 0.967871C9.97091 0.967871 9.97097 0.967871 9.97102 0.967871C9.97108 0.967871 9.97114 0.967871 9.97119 0.967871C9.97125 0.967871 9.97131 0.967871 9.97136 0.967871C9.97142 0.967871 9.97148 0.967871 9.97153 0.967871C9.97159 0.967871 9.97165 0.967871 9.9717 0.967871C9.97176 0.967871 9.97181 0.967871 9.97187 0.967871C9.97193 0.967871 9.97198 0.967871 9.97204 0.967871C9.9721 0.967871 9.97215 0.967871 9.97221 0.967871C9.97227 0.967871 9.97232 0.967871 9.97238 0.967871C9.97244 0.967871 9.97249 0.967871 9.97255 0.967871C9.97261 0.967871 9.97266 0.967871 9.97272 0.967871C9.97277 0.967871 9.97283 0.967871 9.97289 0.967871C9.97294 0.967871 9.973 0.967871 9.97306 0.967871C9.97311 0.967871 9.97317 0.967871 9.97323 0.967871C9.97328 0.967871 9.97334 0.967871 9.9734 0.967871C9.97345 0.967871 9.97351 0.967871 9.97357 0.967871C9.97362 0.967871 9.97368 0.967871 9.97373 0.967871C9.97379 0.967871 9.97385 0.967871 9.9739 0.967871C9.97396 0.967871 9.97402 0.967871 9.97407 0.967871C9.97413 0.967871 9.97419 0.967871 9.97424 0.967871C9.9743 0.967871 9.97436 0.967871 9.97441 0.967871C9.97447 0.967871 9.97453 0.967871 9.97458 0.967871C9.97464 0.967871 9.9747 0.967871 9.97475 0.967871C9.97481 0.967871 9.97486 0.967871 9.97492 0.967871C9.97498 0.967871 9.97503 0.967871 9.97509 0.967871C9.97515 0.967871 9.9752 0.967871 9.97526 0.967871C9.97532 0.967871 9.97537 0.967871 9.97543 0.967871C9.97549 0.967871 9.97554 0.967871 9.9756 0.967871C9.97566 0.967871 9.97571 0.967871 9.97577 0.967871C9.97583 0.967871 9.97588 0.967871 9.97594 0.967871C9.976 0.967871 9.97605 0.967871 9.97611 0.967871C9.97616 0.967871 9.97622 0.967871 9.97628 0.967871C9.97633 0.967871 9.97639 0.967871 9.97645 0.967871C9.9765 0.967871 9.97656 0.967871 9.97662 0.967871C9.97667 0.967871 9.97673 0.967871 9.97679 0.967871C9.97684 0.967871 9.9769 0.967871 9.97696 0.967871C9.97701 0.967871 9.97707 0.967871 9.97712 0.967871C9.97718 0.967871 9.97724 0.967871 9.97729 0.967871C9.97735 0.967871 9.97741 0.967871 9.97746 0.967871C9.97752 0.967871 9.97758 0.967871 9.97763 0.967871C9.97769 0.967871 9.97775 0.967871 9.9778 0.967871C9.97786 0.967871 9.97792 0.967871 9.97797 0.967871C9.97803 0.967871 9.97808 0.967871 9.97814 0.967871C9.9782 0.967871 9.97825 0.967871 9.97831 0.967871C9.97837 0.967871 9.97842 0.967871 9.97848 0.967871C9.97854 0.967871 9.97859 0.967871 9.97865 0.967871C9.97871 0.967871 9.97876 0.967871 9.97882 0.967871C9.97888 0.967871 9.97893 0.967871 9.97899 0.967871C9.97904 0.967871 9.9791 0.967871 9.97916 0.967871C9.97921 0.967871 9.97927 0.967871 9.97933 0.967871C9.97938 0.967871 9.97944 0.967871 9.9795 0.967871C9.97955 0.967871 9.97961 0.967871 9.97967 0.967871C9.97972 0.967871 9.97978 0.967871 9.97984 0.967871C9.97989 0.967871 9.97995 0.967871 9.98001 0.967871C9.98006 0.967871 9.98012 0.967871 9.98018 0.967871C9.98023 0.967871 9.98029 0.967871 9.98034 0.967871C9.9804 0.967871 9.98046 0.967871 9.98051 0.967871C9.98057 0.967871 9.98063 0.967871 9.98068 0.967871C9.98074 0.967871 9.9808 0.967871 9.98085 0.967871C9.98091 0.967871 9.98097 0.967871 9.98102 0.967871C9.98108 0.967871 9.98114 0.967871 9.98119 0.967871C9.98125 0.967871 9.98131 0.967871 9.98136 0.967871C9.98142 0.967871 9.98147 0.967871 9.98153 0.967871C9.98159 0.967871 9.98164 0.967871 9.9817 0.967871C9.98176 0.967871 9.98181 0.967871 9.98187 0.967871C9.98193 0.967871 9.98198 0.967871 9.98204 0.967871C9.9821 0.967871 9.98215 0.967871 9.98221 0.967871C9.98227 0.967871 9.98232 0.967871 9.98238 0.967871C9.98243 0.967871 9.98249 0.967871 9.98255 0.967871C9.9826 0.967871 9.98266 0.967871 9.98272 0.967871C9.98277 0.967871 9.98283 0.967871 9.98289 0.967871C9.98294 0.967871 9.983 0.967871 9.98306 0.967871C9.98311 0.967871 9.98317 0.967871 9.98323 0.967871C9.98328 0.967871 9.98334 0.967871 9.98339 0.967871C9.98345 0.967871 9.98351 0.967871 9.98356 0.967871C9.98362 0.967871 9.98368 0.967871 9.98373 0.967871C9.98379 0.967871 9.98385 0.967871 9.9839 0.967871C9.98396 0.967871 9.98402 0.967871 9.98407 0.967871C9.98413 0.967871 9.98419 0.967871 9.98424 0.967871C9.9843 0.967871 9.98435 0.967871 9.98441 0.967871C9.98447 0.967871 9.98452 0.967871 9.98458 0.967871C9.98464 0.967871 9.98469 0.967871 9.98475 0.967871C9.98481 0.967871 9.98486 0.967871 9.98492 0.967871C9.98498 0.967871 9.98503 0.967871 9.98509 0.967871C9.98515 0.967871 9.9852 0.967871 9.98526 0.967871C9.98532 0.967871 9.98537 0.967871 9.98543 0.967871C9.98549 0.967871 9.98554 0.967871 9.9856 0.967871C9.98565 0.967871 9.98571 0.967871 9.98577 0.967871C9.98582 0.967871 9.98588 0.967871 9.98594 0.967871C9.98599 0.967871 9.98605 0.967871 9.98611 0.967871C9.98616 0.967871 9.98622 0.967871 9.98628 0.967871C9.98633 0.967871 9.98639 0.967871 9.98645 0.967871C9.9865 0.967871 9.98656 0.967871 9.98662 0.967871C9.98667 0.967871 9.98673 0.967871 9.98678 0.967871C9.98684 0.967871 9.9869 0.967871 9.98695 0.967871C9.98701 0.967871 9.98707 0.967871 9.98712 0.967871C9.98718 0.967871 9.98724 0.967871 9.98729 0.967871C9.98735 0.967871 9.98741 0.967871 9.98746 0.967871C9.98752 0.967871 9.98758 0.967871 9.98763 0.967871C9.98769 0.967871 9.98774 0.967871 9.9878 0.967871C9.98786 0.967871 9.98791 0.967871 9.98797 0.967871C9.98803 0.967871 9.98808 0.967871 9.98814 0.967871C9.9882 0.967871 9.98825 0.967871 9.98831 0.967871C9.98837 0.967871 9.98842 0.967871 9.98848 0.967871C9.98854 0.967871 9.98859 0.967871 9.98865 0.967871C9.9887 0.967871 9.98876 0.967871 9.98882 0.967871C9.98887 0.967871 9.98893 0.967871 9.98899 0.967871C9.98904 0.967871 9.9891 0.967871 9.98916 0.967871C9.98921 0.967871 9.98927 0.967871 9.98933 0.967871C9.98938 0.967871 9.98944 0.967871 9.9895 0.967871C9.98955 0.967871 9.98961 0.967871 9.98967 0.967871C9.98972 0.967871 9.98978 0.967871 9.98983 0.967871C9.98989 0.967871 9.98995 0.967871 9.99 0.967871C9.99006 0.967871 9.99012 0.967871 9.99017 0.967871C9.99023 0.967871 9.99029 0.967871 9.99034 0.967871C9.9904 0.967871 9.99046 0.967871 9.99051 0.967871C9.99057 0.967871 9.99063 0.967871 9.99068 0.967871C9.99074 0.967871 9.9908 0.967871 9.99085 0.967871C9.99091 0.967871 9.99096 0.967871 9.99102 0.967871C9.99108 0.967871 9.99113 0.967871 9.99119 0.967871C9.99125 0.967871 9.9913 0.967871 9.99136 0.967871C9.99142 0.967871 9.99147 0.967871 9.99153 0.967871C9.99159 0.967871 9.99164 0.967871 9.9917 0.967871C9.99176 0.967871 9.99181 0.967871 9.99187 0.967871C9.99193 0.967871 9.99198 0.967871 9.99204 0.967871C9.99209 0.967871 9.99215 0.967871 9.99221 0.967871C9.99226 0.967871 9.99232 0.967871 9.99238 0.967871C9.99243 0.967871 9.99249 0.967871 9.99255 0.967871C9.9926 0.967871 9.99266 0.967871 9.99272 0.967871C9.99277 0.967871 9.99283 0.967871 9.99289 0.967871C9.99294 0.967871 9.993 0.967871 9.99305 0.967871C9.99311 0.967871 9.99317 0.967871 9.99322 0.967871C9.99328 0.967871 9.99334 0.967871 9.99339 0.967871C9.99345 0.967871 9.99351 0.967871 9.99356 0.967871C9.99362 0.967871 9.99368 0.967871 9.99373 0.967871C9.99379 0.967871 9.99385 0.967871 9.9939 0.967871C9.99396 0.967871 9.99401 0.967871 9.99407 0.967871C9.99413 0.967871 9.99418 0.967871 9.99424 0.967871C9.9943 0.967871 9.99435 0.967871 9.99441 0.967871C9.99447 0.967871 9.99452 0.967871 9.99458 0.967871C9.99464 0.967871 9.99469 0.967871 9.99475 0.967871C9.99481 0.967871 9.99486 0.967871 9.99492 0.967871C9.99498 0.967871 9.99503 0.967871 9.99509 0.967871C9.99514 0.967871 9.9952 0.967871 9.99526 0.967871C9.99531 0.967871 9.99537 0.967871 9.99543 0.967871C9.99548 0.967871 9.99554 0.967871 9.9956 0.967871C9.99565 0.967871 9.99571 0.967871 9.99577 0.967871C9.99582 0.967871 9.99588 0.967871 9.99594 0.967871C9.99599 0.967871 9.99605 0.967871 9.99611 0.967871C9.99616 0.967871 9.99622 0.967871 9.99627 0.967871C9.99633 0.967871 9.99639 0.967871 9.99644 0.967871C9.9965 0.967871 9.99656 0.967871 9.99661 0.967871C9.99667 0.967871 9.99673 0.967871 9.99678 0.967871C9.99684 0.967871 9.9969 0.967871 9.99695 0.967871C9.99701 0.967871 9.99707 0.967871 9.99712 0.967871C9.99718 0.967871 9.99724 0.967871 9.99729 0.967871C9.99735 0.967871 9.9974 0.967871 9.99746 0.967871C9.99752 0.967871 9.99757 0.967871 9.99763 0.967871C9.99769 0.967871 9.99774 0.967871 9.9978 0.967871C9.99786 0.967871 9.99791 0.967871 9.99797 0.967871C9.99803 0.967871 9.99808 0.967871 9.99814 0.967871C9.9982 0.967871 9.99825 0.967871 9.99831 0.967871C9.99836 0.967871 9.99842 0.967871 9.99848 0.967871C9.99853 0.967871 9.99859 0.967871 9.99865 0.967871C9.9987 0.967871 9.99876 0.967871 9.99882 0.967871C9.99887 0.967871 9.99893 0.967871 9.99899 0.967871C9.99904 0.967871 9.9991 0.967871 9.99916 0.967871C9.99921 0.967871 9.99927 0.967871 9.99932 0.967871C9.99938 0.967871 9.99944 0.967871 9.99949 0.967871C9.99955 0.967871 9.99961 0.967871 9.99966 0.967871C9.99972 0.967871 9.99978 0.967871 9.99983 0.967871C9.99989 0.967871 9.99995 0.967871 10 0.967871C10.0001 0.967871 10.0001 0.967871 10.0002 0.967871C10.0002 0.967871 10.0003 0.967871 10.0003 0.967871C10.0004 0.967871 10.0005 0.967871 10.0005 0.967871C10.0006 0.967871 10.0006 0.967871 10.0007 0.967871C10.0007 0.967871 10.0008 0.967871 10.0009 0.967871C10.0009 0.967871 10.001 0.967871 10.001 0.967871C10.0011 0.967871 10.0011 0.967871 10.0012 0.967871C10.0012 0.967871 10.0013 0.967871 10.0014 0.967871C10.0014 0.967871 10.0015 0.967871 10.0015 0.967871C10.0016 0.967871 10.0016 0.967871 10.0017 0.967871C10.0018 0.967871 10.0018 0.967871 10.0019 0.967871C10.0019 0.967871 10.002 0.967871 10.002 0.967871C10.0021 0.967871 10.0021 0.967871 10.0022 0.967871C10.0023 0.967871 10.0023 0.967871 10.0024 0.967871C10.0024 0.967871 10.0025 0.967871 10.0025 0.967871C10.0026 0.967871 10.0027 0.967871 10.0027 0.967871C10.0028 0.967871 10.0028 0.967871 10.0029 0.967871C10.0029 0.967871 10.003 0.967871 10.0031 0.967871C10.0031 0.967871 10.0032 0.967871 10.0032 0.967871C10.0033 0.967871 10.0033 0.967871 10.0034 0.967871C10.0034 0.967871 10.0035 0.967871 10.0036 0.967871C10.0036 0.967871 10.0037 0.967871 10.0037 0.967871C10.0038 0.967871 10.0038 0.967871 10.0039 0.967871C10.004 0.967871 10.004 0.967871 10.0041 0.967871C10.0041 0.967871 10.0042 0.967871 10.0042 0.967871C10.0043 0.967871 10.0044 0.967871 10.0044 0.967871C10.0045 0.967871 10.0045 0.967871 10.0046 0.967871C10.0046 0.967871 10.0047 0.967871 10.0047 0.967871C10.0048 0.967871 10.0049 0.967871 10.0049 0.967871C10.005 0.967871 10.005 0.967871 10.0051 0.967871C10.0051 0.967871 10.0052 0.967871 10.0053 0.967871C10.0053 0.967871 10.0054 0.967871 10.0054 0.967871C10.0055 0.967871 10.0055 0.967871 10.0056 0.967871C10.0057 0.967871 10.0057 0.967871 10.0058 0.967871C10.0058 0.967871 10.0059 0.967871 10.0059 0.967871C10.006 0.967871 10.006 0.967871 10.0061 0.967871C10.0062 0.967871 10.0062 0.967871 10.0063 0.967871C10.0063 0.967871 10.0064 0.967871 10.0064 0.967871C10.0065 0.967871 10.0066 0.967871 10.0066 0.967871C10.0067 0.967871 10.0067 0.967871 10.0068 0.967871C10.0068 0.967871 10.0069 0.967871 10.007 0.967871C10.007 0.967871 10.0071 0.967871 10.0071 0.967871C10.0072 0.967871 10.0072 0.967871 10.0073 0.967871C10.0073 0.967871 10.0074 0.967871 10.0075 0.967871C10.0075 0.967871 10.0076 0.967871 10.0076 0.967871C10.0077 0.967871 10.0077 0.967871 10.0078 0.967871C10.0079 0.967871 10.0079 0.967871 10.008 0.967871C10.008 0.967871 10.0081 0.967871 10.0081 0.967871C10.0082 0.967871 10.0083 0.967871 10.0083 0.967871C10.0084 0.967871 10.0084 0.967871 10.0085 0.967871C10.0085 0.967871 10.0086 0.967871 10.0086 0.967871C10.0087 0.967871 10.0088 0.967871 10.0088 0.967871C10.0089 0.967871 10.0089 0.967871 10.009 0.967871C10.009 0.967871 10.0091 0.967871 10.0092 0.967871C10.0092 0.967871 10.0093 0.967871 10.0093 0.967871C10.0094 0.967871 10.0094 0.967871 10.0095 0.967871C10.0096 0.967871 10.0096 0.967871 10.0097 0.967871C10.0097 0.967871 10.0098 0.967871 10.0098 0.967871C10.0099 0.967871 10.0099 0.967871 10.01 0.967871C10.0101 0.967871 10.0101 0.967871 10.0102 0.967871C10.0102 0.967871 10.0103 0.967871 10.0103 0.967871C10.0104 0.967871 10.0105 0.967871 10.0105 0.967871C10.0106 0.967871 10.0106 0.967871 10.0107 0.967871C10.0107 0.967871 10.0108 0.967871 10.0108 0.967871C10.0109 0.967871 10.011 0.967871 10.011 0.967871C10.0111 0.967871 10.0111 0.967871 10.0112 0.967871C10.0112 0.967871 10.0113 0.967871 10.0114 0.967871C10.0114 0.967871 10.0115 0.967871 10.0115 0.967871C10.0116 0.967871 10.0116 0.967871 10.0117 0.967871C10.0118 0.967871 10.0118 0.967871 10.0119 0.967871C10.0119 0.967871 10.012 0.967871 10.012 0.967871C10.0121 0.967871 10.0121 0.967871 10.0122 0.967871C10.0123 0.967871 10.0123 0.967871 10.0124 0.967871C10.0124 0.967871 10.0125 0.967871 10.0125 0.967871C10.0126 0.967871 10.0127 0.967871 10.0127 0.967871C10.0128 0.967871 10.0128 0.967871 10.0129 0.967871C10.0129 0.967871 10.013 0.967871 10.0131 0.967871C10.0131 0.967871 10.0132 0.967871 10.0132 0.967871C10.0133 0.967871 10.0133 0.967871 10.0134 0.967871C10.0134 0.967871 10.0135 0.967871 10.0136 0.967871C10.0136 0.967871 10.0137 0.967871 10.0137 0.967871C10.0138 0.967871 10.0138 0.967871 10.0139 0.967871C10.014 0.967871 10.014 0.967871 10.0141 0.967871C10.0141 0.967871 10.0142 0.967871 10.0142 0.967871C10.0143 0.967871 10.0144 0.967871 10.0144 0.967871C10.0145 0.967871 10.0145 0.967871 10.0146 0.967871C10.0146 0.967871 10.0147 0.967871 10.0147 0.967871C10.0148 0.967871 10.0149 0.967871 10.0149 0.967871C10.015 0.967871 10.015 0.967871 10.0151 0.967871C10.0151 0.967871 10.0152 0.967871 10.0153 0.967871C10.0153 0.967871 10.0154 0.967871 10.0154 0.967871C10.0155 0.967871 10.0155 0.967871 10.0156 0.967871C10.0157 0.967871 10.0157 0.967871 10.0158 0.967871C10.0158 0.967871 10.0159 0.967871 10.0159 0.967871C10.016 0.967871 10.016 0.967871 10.0161 0.967871C10.0162 0.967871 10.0162 0.967871 10.0163 0.967871C10.0163 0.967871 10.0164 0.967871 10.0164 0.967871C10.0165 0.967871 10.0166 0.967871 10.0166 0.967871C10.0167 0.967871 10.0167 0.967871 10.0168 0.967871C10.0168 0.967871 10.0169 0.967871 10.0169 0.967871C10.017 0.967871 10.0171 0.967871 10.0171 0.967871C10.0172 0.967871 10.0172 0.967871 10.0173 0.967871C10.0173 0.967871 10.0174 0.967871 10.0175 0.967871C10.0175 0.967871 10.0176 0.967871 10.0176 0.967871C10.0177 0.967871 10.0177 0.967871 10.0178 0.967871C10.0179 0.967871 10.0179 0.967871 10.018 0.967871C10.018 0.967871 10.0181 0.967871 10.0181 0.967871C10.0182 0.967871 10.0182 0.967871 10.0183 0.967871C10.0184 0.967871 10.0184 0.967871 10.0185 0.967871C10.0185 0.967871 10.0186 0.967871 10.0186 0.967871C10.0187 0.967871 10.0188 0.967871 10.0188 0.967871C10.0189 0.967871 10.0189 0.967871 10.019 0.967871C10.019 0.967871 10.0191 0.967871 10.0192 0.967871C10.0192 0.967871 10.0193 0.967871 10.0193 0.967871C10.0194 0.967871 10.0194 0.967871 10.0195 0.967871C10.0195 0.967871 10.0196 0.967871 10.0197 0.967871C10.0197 0.967871 10.0198 0.967871 10.0198 0.967871C10.0199 0.967871 10.0199 0.967871 10.02 0.967871C10.0201 0.967871 10.0201 0.967871 10.0202 0.967871C10.0202 0.967871 10.0203 0.967871 10.0203 0.967871C10.0204 0.967871 10.0205 0.967871 10.0205 0.967871C10.0206 0.967871 10.0206 0.967871 10.0207 0.967871C10.0207 0.967871 10.0208 0.967871 10.0208 0.967871C10.0209 0.967871 10.021 0.967871 10.021 0.967871C10.0211 0.967871 10.0211 0.967871 10.0212 0.967871C10.0212 0.967871 10.0213 0.967871 10.0214 0.967871C10.0214 0.967871 10.0215 0.967871 10.0215 0.967871C10.0216 0.967871 10.0216 0.967871 10.0217 0.967871C10.0218 0.967871 10.0218 0.967871 10.0219 0.967871C10.0219 0.967871 10.022 0.967871 10.022 0.967871C10.0221 0.967871 10.0221 0.967871 10.0222 0.967871C10.0223 0.967871 10.0223 0.967871 10.0224 0.967871C10.0224 0.967871 10.0225 0.967871 10.0225 0.967871C10.0226 0.967871 10.0227 0.967871 10.0227 0.967871C10.0228 0.967871 10.0228 0.967871 10.0229 0.967871C10.0229 0.967871 10.023 0.967871 10.0231 0.967871C10.0231 0.967871 10.0232 0.967871 10.0232 0.967871C10.0233 0.967871 10.0233 0.967871 10.0234 0.967871C10.0234 0.967871 10.0235 0.967871 10.0236 0.967871C10.0236 0.967871 10.0237 0.967871 10.0237 0.967871C10.0238 0.967871 10.0238 0.967871 10.0239 0.967871C10.024 0.967871 10.024 0.967871 10.0241 0.967871C10.0241 0.967871 10.0242 0.967871 10.0242 0.967871C10.0243 0.967871 10.0244 0.967871 10.0244 0.967871C10.0245 0.967871 10.0245 0.967871 10.0246 0.967871C10.0246 0.967871 10.0247 0.967871 10.0247 0.967871C10.0248 0.967871 10.0249 0.967871 10.0249 0.967871C10.025 0.967871 10.025 0.967871 10.0251 0.967871C10.0251 0.967871 10.0252 0.967871 10.0253 0.967871C10.0253 0.967871 10.0254 0.967871 10.0254 0.967871C10.0255 0.967871 10.0255 0.967871 10.0256 0.967871C10.0256 0.967871 10.0257 0.967871 10.0258 0.967871C10.0258 0.967871 10.0259 0.967871 10.0259 0.967871C10.026 0.967871 10.026 0.967871 10.0261 0.967871C10.0262 0.967871 10.0262 0.967871 10.0263 0.967871C10.0263 0.967871 10.0264 0.967871 10.0264 0.967871C10.0265 0.967871 10.0266 0.967871 10.0266 0.967871C10.0267 0.967871 10.0267 0.967871 10.0268 0.967871C10.0268 0.967871 10.0269 0.967871 10.0269 0.967871C10.027 0.967871 10.0271 0.967871 10.0271 0.967871C10.0272 0.967871 10.0272 0.967871 10.0273 0.967871C10.0273 0.967871 10.0274 0.967871 10.0275 0.967871C10.0275 0.967871 10.0276 0.967871 10.0276 0.967871C10.0277 0.967871 10.0277 0.967871 10.0278 0.967871C10.0279 0.967871 10.0279 0.967871 10.028 0.967871C10.028 0.967871 10.0281 0.967871 10.0281 0.967871C10.0282 0.967871 10.0282 0.967871 10.0283 0.967871C10.0284 0.967871 10.0284 0.967871 10.0285 0.967871C10.0285 0.967871 10.0286 0.967871 10.0286 0.967871C10.0287 0.967871 10.0288 0.967871 10.0288 0.967871C10.0289 0.967871 10.0289 0.967871 10.029 0.967871C10.029 0.967871 10.0291 0.967871 10.0292 0.967871C10.0292 0.967871 10.0293 0.967871 10.0293 0.967871C10.0294 0.967871 10.0294 0.967871 10.0295 0.967871C10.0295 0.967871 10.0296 0.967871 10.0297 0.967871C10.0297 0.967871 10.0298 0.967871 10.0298 0.967871C10.0299 0.967871 10.0299 0.967871 10.03 0.967871C10.0301 0.967871 10.0301 0.967871 10.0302 0.967871C10.0302 0.967871 10.0303 0.967871 10.0303 0.967871C10.0304 0.967871 10.0305 0.967871 10.0305 0.967871C10.0306 0.967871 10.0306 0.967871 10.0307 0.967871C10.0307 0.967871 10.0308 0.967871 10.0308 0.967871C10.0309 0.967871 10.031 0.967871 10.031 0.967871C10.0311 0.967871 10.0311 0.967871 10.0312 0.967871C10.0312 0.967871 10.0313 0.967871 10.0314 0.967871C10.0314 0.967871 10.0315 0.967871 10.0315 0.967871C10.0316 0.967871 10.0316 0.967871 10.0317 0.967871C10.0318 0.967871 10.0318 0.967871 10.0319 0.967871C10.0319 0.967871 10.032 0.967871 10.032 0.967871C10.0321 0.967871 10.0321 0.967871 10.0322 0.967871C10.0323 0.967871 10.0323 0.967871 10.0324 0.967871C10.0324 0.967871 10.0325 0.967871 10.0325 0.967871C10.0326 0.967871 10.0327 0.967871 10.0327 0.967871C10.0328 0.967871 10.0328 0.967871 10.0329 0.967871C10.0329 0.967871 10.033 0.967871 10.033 0.967871C10.0331 0.967871 10.0332 0.967871 10.0332 0.967871C10.0333 0.967871 10.0333 0.967871 10.0334 0.967871C10.0334 0.967871 10.0335 0.967871 10.0336 0.967871C10.0336 0.967871 10.0337 0.967871 10.0337 0.967871C10.0338 0.967871 10.0338 0.967871 10.0339 0.967871C10.034 0.967871 10.034 0.967871 10.0341 0.967871C10.0341 0.967871 10.0342 0.967871 10.0342 0.967871C10.0343 0.967871 10.0343 0.967871 10.0344 0.967871C10.0345 0.967871 10.0345 0.967871 10.0346 0.967871C10.0346 0.967871 10.0347 0.967871 10.0347 0.967871C10.0348 0.967871 10.0349 0.967871 10.0349 0.967871C10.035 0.967871 10.035 0.967871 10.0351 0.967871C10.0351 0.967871 10.0352 0.967871 10.0353 0.967871C10.0353 0.967871 10.0354 0.967871 10.0354 0.967871C10.0355 0.967871 10.0355 0.967871 10.0356 0.967871C10.0356 0.967871 10.0357 0.967871 10.0358 0.967871C10.0358 0.967871 10.0359 0.967871 10.0359 0.967871C10.036 0.967871 10.036 0.967871 10.0361 0.967871C10.0362 0.967871 10.0362 0.967871 10.0363 0.967871C10.0363 0.967871 10.0364 0.967871 10.0364 0.967871C10.0365 0.967871 10.0366 0.967871 10.0366 0.967871C10.0367 0.967871 10.0367 0.967871 10.0368 0.967871C10.0368 0.967871 10.0369 0.967871 10.0369 0.967871C10.037 0.967871 10.0371 0.967871 10.0371 0.967871C10.0372 0.967871 10.0372 0.967871 10.0373 0.967871C10.0373 0.967871 10.0374 0.967871 10.0375 0.967871C10.0375 0.967871 10.0376 0.967871 10.0376 0.967871C10.0377 0.967871 10.0377 0.967871 10.0378 0.967871C10.0379 0.967871 10.0379 0.967871 10.038 0.967871C10.038 0.967871 10.0381 0.967871 10.0381 0.967871C10.0382 0.967871 10.0382 0.967871 10.0383 0.967871C10.0384 0.967871 10.0384 0.967871 10.0385 0.967871C10.0385 0.967871 10.0386 0.967871 10.0386 0.967871C10.0387 0.967871 10.0388 0.967871 10.0388 0.967871C10.0389 0.967871 10.0389 0.967871 10.039 0.967871C10.039 0.967871 10.0391 0.967871 10.0392 0.967871C10.0392 0.967871 10.0393 0.967871 10.0393 0.967871C10.0394 0.967871 10.0394 0.967871 10.0395 0.967871C10.0395 0.967871 10.0396 0.967871 10.0397 0.967871C10.0397 0.967871 10.0398 0.967871 10.0398 0.967871C10.0399 0.967871 10.0399 0.967871 10.04 0.967871C10.0401 0.967871 10.0401 0.967871 10.0402 0.967871C10.0402 0.967871 10.0403 0.967871 10.0403 0.967871C10.0404 0.967871 10.0405 0.967871 10.0405 0.967871C10.0406 0.967871 10.0406 0.967871 10.0407 0.967871C10.0407 0.967871 10.0408 0.967871 10.0408 0.967871C10.0409 0.967871 10.041 0.967871 10.041 0.967871C10.0411 0.967871 10.0411 0.967871 10.0412 0.967871C10.0412 0.967871 10.0413 0.967871 10.0414 0.967871C10.0414 0.967871 10.0415 0.967871 10.0415 0.967871C10.0416 0.967871 10.0416 0.967871 10.0417 0.967871C10.0417 0.967871 10.0418 0.967871 10.0419 0.967871C10.0419 0.967871 10.042 0.967871 10.042 0.967871C10.0421 0.967871 10.0421 0.967871 10.0422 0.967871C10.0423 0.967871 10.0423 0.967871 10.0424 0.967871C10.0424 0.967871 10.0425 0.967871 10.0425 0.967871C10.0426 0.967871 10.0427 0.967871 10.0427 0.967871C10.0428 0.967871 10.0428 0.967871 10.0429 0.967871C10.0429 0.967871 10.043 0.967871 10.043 0.967871C10.0431 0.967871 10.0432 0.967871 10.0432 0.967871C10.0433 0.967871 10.0433 0.967871 10.0434 0.967871C10.0434 0.967871 10.0435 0.967871 10.0436 0.967871C10.0436 0.967871 10.0437 0.967871 10.0437 0.967871C10.0438 0.967871 10.0438 0.967871 10.0439 0.967871C10.044 0.967871 10.044 0.967871 10.0441 0.967871C10.0441 0.967871 10.0442 0.967871 10.0442 0.967871C10.0443 0.967871 10.0443 0.967871 10.0444 0.967871C10.0445 0.967871 10.0445 0.967871 10.0446 0.967871C10.0446 0.967871 10.0447 0.967871 10.0447 0.967871C10.0448 0.967871 10.0449 0.967871 10.0449 0.967871C10.045 0.967871 10.045 0.967871 10.0451 0.967871C10.0451 0.967871 10.0452 0.967871 10.0453 0.967871C10.0453 0.967871 10.0454 0.967871 10.0454 0.967871C10.0455 0.967871 10.0455 0.967871 10.0456 0.967871C10.0456 0.967871 10.0457 0.967871 10.0458 0.967871C10.0458 0.967871 10.0459 0.967871 10.0459 0.967871C10.046 0.967871 10.046 0.967871 10.0461 0.967871C10.0462 0.967871 10.0462 0.967871 10.0463 0.967871C10.0463 0.967871 10.0464 0.967871 10.0464 0.967871C10.0465 0.967871 10.0466 0.967871 10.0466 0.967871C10.0467 0.967871 10.0467 0.967871 10.0468 0.967871C10.0468 0.967871 10.0469 0.967871 10.0469 0.967871C10.047 0.967871 10.0471 0.967871 10.0471 0.967871C10.0472 0.967871 10.0472 0.967871 10.0473 0.967871C10.0473 0.967871 10.0474 0.967871 10.0475 0.967871C10.0475 0.967871 10.0476 0.967871 10.0476 0.967871C10.0477 0.967871 10.0477 0.967871 10.0478 0.967871C10.0478 0.967871 10.0479 0.967871 10.048 0.967871C10.048 0.967871 10.0481 0.967871 10.0481 0.967871C10.0482 0.967871 10.0482 0.967871 10.0483 0.967871C10.0484 0.967871 10.0484 0.967871 10.0485 0.967871C10.0485 0.967871 10.0486 0.967871 10.0486 0.967871C10.0487 0.967871 10.0488 0.967871 10.0488 0.967871C10.0489 0.967871 10.0489 0.967871 10.049 0.967871C10.049 0.967871 10.0491 0.967871 10.0491 0.967871C10.0492 0.967871 10.0493 0.967871 10.0493 0.967871C10.0494 0.967871 10.0494 0.967871 10.0495 0.967871C10.0495 0.967871 10.0496 0.967871 10.0497 0.967871C10.0497 0.967871 10.0498 0.967871 10.0498 0.967871C10.0499 0.967871 10.0499 0.967871 10.05 0.967871C10.0501 0.967871 10.0501 0.967871 10.0502 0.967871C10.0502 0.967871 10.0503 0.967871 10.0503 0.967871C10.0504 0.967871 10.0504 0.967871 10.0505 0.967871C10.0506 0.967871 10.0506 0.967871 10.0507 0.967871C10.0507 0.967871 10.0508 0.967871 10.0508 0.967871C10.0509 0.967871 10.051 0.967871 10.051 0.967871C10.0511 0.967871 10.0511 0.967871 10.0512 0.967871C10.0512 0.967871 10.0513 0.967871 10.0514 0.967871C10.0514 0.967871 10.0515 0.967871 10.0515 0.967871C10.0516 0.967871 10.0516 0.967871 10.0517 0.967871C10.0517 0.967871 10.0518 0.967871 10.0519 0.967871C10.0519 0.967871 10.052 0.967871 10.052 0.967871C10.0521 0.967871 10.0521 0.967871 10.0522 0.967871C10.0523 0.967871 10.0523 0.967871 10.0524 0.967871C10.0524 0.967871 10.0525 0.967871 10.0525 0.967871C10.0526 0.967871 10.0527 0.967871 10.0527 0.967871C10.0528 0.967871 10.0528 0.967871 10.0529 0.967871C10.0529 0.967871 10.053 0.967871 10.053 0.967871C10.0531 0.967871 10.0532 0.967871 10.0532 0.967871C10.0533 0.967871 10.0533 0.967871 10.0534 0.967871C10.0534 0.967871 10.0535 0.967871 10.0536 0.967871C10.0536 0.967871 10.0537 0.967871 10.0537 0.967871C10.0538 0.967871 10.0538 0.967871 10.0539 0.967871C10.054 0.967871 10.054 0.967871 10.0541 0.967871V0.567871ZM9.9673 0.567871L9.96708 0.167871C9.51021 0.168116 9.06883 0.333463 8.72425 0.633448L8.98689 0.935139L9.24954 1.23683C9.4486 1.06353 9.70358 0.968012 9.96751 0.967871L9.9673 0.567871ZM8.98689 0.935139L8.72425 0.633448C8.37967 0.933432 8.15511 1.34784 8.09195 1.80032L8.4881 1.85562L8.88426 1.91092C8.92075 1.64953 9.05048 1.41013 9.24954 1.23683L8.98689 0.935139ZM8.4881 1.85562L8.09195 1.80031L0.0590084 59.3379L0.455166 59.3932L0.851324 59.4485L8.88426 1.91093L8.4881 1.85562ZM0.455166 59.3932L0.0592022 59.3366C0.0338467 59.5137 0.0338467 59.6935 0.0592022 59.8707L0.455166 59.814L0.85113 59.7573C0.836537 59.6554 0.836537 59.5519 0.85113 59.4499L0.455166 59.3932ZM0.455166 59.814L0.0592813 59.8712L1.55362 70.2083L1.94951 70.1511L2.34539 70.0939L0.851051 59.7568L0.455166 59.814ZM1.94951 70.1511L1.55374 70.2092C1.61982 70.6596 1.84588 71.0711 2.19054 71.3685L2.45184 71.0656L2.71314 70.7628C2.51403 70.591 2.38344 70.3532 2.34527 70.093L1.94951 70.1511ZM2.45184 71.0656L2.19054 71.3685C2.53519 71.6658 2.97541 71.8292 3.43062 71.8285L3.43007 71.4285L3.42952 71.0285C3.16655 71.0289 2.91225 70.9345 2.71314 70.7628L2.45184 71.0656ZM3.43007 71.4285V71.8285H9.54378V71.4285V71.0285H3.43007V71.4285ZM9.54378 71.4285L9.14397 71.4164C9.1038 72.7408 8.99215 74.062 8.80948 75.3744L9.20566 75.4295L9.60184 75.4846C9.78848 74.1438 9.90256 72.7938 9.9436 71.4407L9.54378 71.4285ZM9.20566 75.4295L9.40409 75.7768C10.3526 75.235 11.2644 74.6313 12.1336 73.9697L11.8913 73.6514L11.6491 73.3331C10.8078 73.9734 9.92525 74.5577 9.00724 75.0822L9.20566 75.4295ZM11.8913 73.6514C11.5301 73.8233 11.5303 73.8236 11.5304 73.8239C11.5305 73.824 11.5306 73.8243 11.5307 73.8245C11.5309 73.825 11.5312 73.8254 11.5314 73.8259C11.5318 73.8268 11.5323 73.8278 11.5328 73.8287C11.5338 73.8307 11.5348 73.8329 11.536 73.8351C11.5383 73.8397 11.541 73.8449 11.5442 73.8507C11.5505 73.8622 11.5585 73.8762 11.5685 73.8924C11.5885 73.9249 11.6165 73.9667 11.655 74.0172C11.7319 74.1181 11.8508 74.2542 12.0315 74.4217C12.3922 74.7561 13.0027 75.2189 14.0266 75.7802L14.2189 75.4295L14.4112 75.0788C13.4305 74.5411 12.8772 74.1148 12.5753 73.835C12.4247 73.6953 12.3375 73.5929 12.2913 73.5322C12.2682 73.5019 12.2553 73.482 12.2498 73.4731C12.2471 73.4687 12.2462 73.4669 12.2467 73.468C12.247 73.4685 12.2477 73.4698 12.2487 73.4717C12.2492 73.4727 12.2497 73.4738 12.2504 73.4751C12.2507 73.4758 12.2511 73.4765 12.2514 73.4772C12.2516 73.4776 12.2518 73.478 12.252 73.4784C12.2521 73.4786 12.2522 73.4789 12.2523 73.479C12.2524 73.4793 12.2526 73.4796 11.8913 73.6514ZM14.2189 75.4295C14.6182 75.453 14.6182 75.453 14.6182 75.453C14.6182 75.453 14.6182 75.4529 14.6182 75.4529C14.6183 75.4529 14.6183 75.4528 14.6183 75.4526C14.6183 75.4524 14.6183 75.452 14.6183 75.4515C14.6184 75.4505 14.6185 75.4491 14.6186 75.4472C14.6188 75.4434 14.6191 75.4378 14.6196 75.4304C14.6204 75.4156 14.6217 75.3937 14.6233 75.3652C14.6265 75.3081 14.6312 75.2243 14.6369 75.1173C14.6484 74.9034 14.6643 74.5967 14.6818 74.2252C14.7169 73.4822 14.7585 72.4789 14.7848 71.4386L14.3849 71.4285L13.985 71.4184C13.959 72.451 13.9176 73.4481 13.8827 74.1875C13.8653 74.557 13.8495 74.8619 13.8381 75.0743C13.8324 75.1805 13.8277 75.2636 13.8246 75.32C13.823 75.3482 13.8217 75.3698 13.8209 75.3843C13.8205 75.3915 13.8202 75.397 13.8199 75.4006C13.8198 75.4024 13.8198 75.4038 13.8197 75.4047C13.8197 75.4051 13.8197 75.4055 13.8196 75.4057C13.8196 75.4058 13.8196 75.4059 13.8196 75.4059C13.8196 75.4059 13.8196 75.406 13.8196 75.406C13.8196 75.406 13.8196 75.406 14.2189 75.4295ZM14.3849 71.4285V71.8285H69.9929V71.4285V71.0285H14.3849V71.4285ZM69.9929 71.4285L69.9928 71.8285C70.2769 71.8286 70.5574 71.7648 70.8136 71.6418L70.6404 71.2813L70.4673 70.9207C70.3193 70.9917 70.1572 71.0286 69.9931 71.0285L69.9929 71.4285ZM70.6404 71.2813L70.8136 71.6418C71.0697 71.5188 71.2949 71.3398 71.4724 71.118L71.1602 70.868L70.8479 70.6181C70.7453 70.7462 70.6152 70.8496 70.4673 70.9207L70.6404 71.2813ZM71.1602 70.868L71.4724 71.118C71.65 70.8962 71.7754 70.6372 71.8393 70.3604L71.4496 70.2704L71.0598 70.1804C71.0229 70.3403 70.9504 70.4899 70.8479 70.6181L71.1602 70.868ZM71.4496 70.2704L71.8393 70.3604C71.9032 70.0835 71.9041 69.7959 71.8417 69.5187L71.4515 69.6064L71.0612 69.6941C71.0972 69.8543 71.0967 70.0205 71.0598 70.1804L71.4496 70.2704ZM71.4515 69.6064L71.8417 69.5187L70.8005 64.8856L70.4103 64.9733L70.02 65.061L71.0612 69.6941L71.4515 69.6064ZM70.4103 64.9733L70.8047 65.0396L71.4334 61.3024L71.039 61.236L70.6445 61.1697L70.0158 64.9069L70.4103 64.9733ZM71.039 61.236L71.1296 61.6256L71.9168 61.4424L71.8261 61.0528L71.7354 60.6633L70.9483 60.8464L71.039 61.236ZM71.8261 61.0528L71.9172 61.4423C72.2853 61.3562 72.6189 61.1611 72.8743 60.8824L72.5795 60.6121L72.2846 60.3418C72.1379 60.5019 71.9464 60.6139 71.735 60.6634L71.8261 61.0528ZM72.5795 60.6121V61.0121H72.5932V60.6121V60.2121H72.5795V60.6121ZM72.5932 60.6121H72.9932V60.597H72.5932H72.1932V60.6121H72.5932ZM72.5932 60.597L72.8886 60.8667C73.0753 60.6623 73.2148 60.4192 73.2971 60.1548L72.9152 60.0359L72.5333 59.917C72.4859 60.0693 72.4055 60.2094 72.2979 60.3272L72.5932 60.597ZM72.9152 60.0359L73.2971 60.1548C73.3794 59.8903 73.4025 59.611 73.3648 59.3367L72.9685 59.3912L72.5723 59.4457C72.594 59.6037 72.5807 59.7647 72.5333 59.917L72.9152 60.0359ZM14.3994 68.6878L14.7993 68.6786C14.7916 68.3454 14.7804 68.0298 14.7628 67.7457L14.3635 67.7705L13.9643 67.7953C13.9811 68.0649 13.9919 68.369 13.9995 68.6969L14.3994 68.6878ZM14.3635 67.7705L14.3546 68.1704L15.6169 68.1986L15.6258 67.7987L15.6348 67.3988L14.3725 67.3706L14.3635 67.7705ZM15.6258 67.7987L15.6187 68.1987L20.1788 68.2799L20.186 67.88L20.1931 67.48L15.6329 67.3988L15.6258 67.7987ZM20.186 67.88L20.1801 68.2799L25.2698 68.355L25.2757 67.955L25.2816 67.5551L20.1919 67.48L20.186 67.88ZM25.2757 67.955L25.2712 68.355L36.3321 68.4776L36.3365 68.0776L36.341 67.6777L25.2801 67.5551L25.2757 67.955ZM36.3365 68.0776L36.3339 68.4776L41.9532 68.5141L41.9558 68.1141L41.9584 67.7141L36.3391 67.6776L36.3365 68.0776ZM41.9558 68.1141L41.9508 68.5141C43.8046 68.5375 45.6382 68.5266 47.3939 68.5362L47.396 68.1362L47.3982 67.7362C45.628 67.7265 43.8132 67.7376 41.9609 67.7141L41.9558 68.1141ZM47.396 68.1362L47.3957 68.5362L52.4861 68.5403L52.4864 68.1403L52.4868 67.7403L47.3964 67.7362L47.396 68.1362ZM52.4864 68.1403L52.4875 68.5403L57.0491 68.5279L57.048 68.1279L57.0469 67.7279L52.4854 67.7403L52.4864 68.1403ZM57.048 68.1279L57.052 68.5279L63.8812 68.459L63.8772 68.059L63.8731 67.6591L57.0439 67.7279L57.048 68.1279ZM63.8772 68.059L63.8798 68.459C64.7073 68.4535 65.3669 68.4306 65.7978 68.4232L65.7909 68.0232L65.784 67.6233C65.3321 67.631 64.6997 67.6535 63.8745 67.659L63.8772 68.059ZM65.7909 68.0232L65.7998 68.4231L66.4774 68.408L66.4685 68.0081L66.4596 67.6082L65.7819 67.6233L65.7909 68.0232ZM66.4685 68.0081L66.4949 67.6089L65.8187 67.5642L65.7923 67.9633L65.7658 68.3624L66.4421 68.4072L66.4685 68.0081ZM65.7923 67.9633L65.8166 67.564C65.3871 67.5379 64.726 67.4854 63.902 67.444L63.882 67.8435L63.8619 68.243C64.6839 68.2843 65.316 68.335 65.7679 68.3626L65.7923 67.9633ZM63.882 67.8435L63.902 67.444C62.2654 67.3619 59.901 67.2035 57.0754 67.0926L57.0597 67.4923L57.044 67.892C59.8665 68.0028 62.2055 68.1599 63.8619 68.243L63.882 67.8435ZM57.0597 67.4923L57.0778 67.0927C54.2511 66.9645 50.9533 66.8528 47.4203 66.7605L47.4098 67.1604L47.3994 67.5602C50.929 67.6525 54.2214 67.7639 57.0415 67.8919L57.0597 67.4923ZM47.4098 67.1604L47.4184 66.7605C45.6574 66.7227 43.8265 66.6681 41.97 66.644L41.9648 67.044L41.9596 67.4439C43.8121 67.468 45.6309 67.5223 47.4012 67.5603L47.4098 67.1604ZM41.9648 67.044L41.97 66.644L36.348 66.5703L36.3427 66.9703L36.3375 67.3703L41.9595 67.4439L41.9648 67.044ZM36.3427 66.9703L36.344 66.5703L30.7247 66.5524L30.7235 66.9524L30.7222 67.3524L36.3415 67.3703L36.3427 66.9703ZM30.7235 66.9524L30.7242 66.5524C28.8671 66.549 27.0388 66.5683 25.2738 66.5827L25.2771 66.9827L25.2803 67.3827C27.048 67.3682 28.8708 67.349 30.7227 67.3524L30.7235 66.9524ZM25.2771 66.9827L25.2735 66.5827C21.7385 66.6137 18.4386 66.6833 15.6106 66.7667L15.6224 67.1666L15.6342 67.5664C18.4571 67.4831 21.7515 67.4136 25.2806 67.3827L25.2771 66.9827ZM15.6224 67.1666L15.6106 66.7667C12.7821 66.8501 10.423 66.9661 8.77955 67.0334L8.79593 67.4331L8.8123 67.8327C10.4633 67.7651 12.8117 67.6496 15.6342 67.5664L15.6224 67.1666ZM8.79593 67.4331L8.77927 67.0334C7.94917 67.068 7.29646 67.1132 6.86181 67.1377L6.88427 67.537L6.90674 67.9364C7.35353 67.9113 7.98995 67.867 8.81258 67.8327L8.79593 67.4331ZM6.88427 67.537L6.86028 67.1378L6.18404 67.1784L6.20803 67.5777L6.23202 67.977L6.90826 67.9363L6.88427 67.537ZM6.20803 67.5777L6.1974 67.9775L8.78805 68.0464L8.79868 67.6465L8.80931 67.2467L6.21866 67.1778L6.20803 67.5777ZM8.79868 67.6465L8.78968 68.0464L9.52446 68.063L9.53345 67.6631L9.54245 67.2632L8.80768 67.2466L8.79868 67.6465ZM9.53345 67.6631L9.1339 67.6819C9.14198 67.8529 9.15495 68.1936 9.16453 68.6608L9.56444 68.6526L9.96436 68.6444C9.95465 68.171 9.94146 67.8231 9.93301 67.6442L9.53345 67.6631ZM9.56444 68.6526L9.56732 68.2526L4.30477 68.2148L4.30189 68.6148L4.29901 69.0148L9.56156 69.0526L9.56444 68.6526ZM4.30189 68.6148L4.69773 68.5572L3.55184 60.6737L3.156 60.7313L2.76016 60.7888L3.90605 68.6723L4.30189 68.6148ZM3.156 60.7313L3.13731 61.1308C8.05875 61.361 20.4248 61.8495 36.7132 61.8495V61.4495V61.0495C20.4402 61.0495 8.08696 60.5615 3.17469 60.3317L3.156 60.7313ZM36.7132 61.4495V61.8495C52.3134 61.8495 64.3143 61.401 69.6254 61.1605L69.6073 60.7609L69.5892 60.3613C64.2871 60.6014 52.2986 61.0495 36.7132 61.0495V61.4495ZM69.6073 60.7609L69.2129 60.6944L68.8417 62.8981L69.2361 62.9645L69.6306 63.0309L70.0018 60.8273L69.6073 60.7609ZM69.2361 62.9645L69.2117 62.5653L66.9633 62.703L66.9877 63.1022L67.0122 63.5015L69.2606 63.3638L69.2361 62.9645ZM66.9877 63.1022L66.9638 63.5015L69.1674 63.6337L69.1914 63.2344L69.2153 62.8352L67.0117 62.7029L66.9877 63.1022ZM69.1914 63.2344L68.7969 63.168L68.4967 64.9516L68.8911 65.018L69.2856 65.0844L69.5858 63.3008L69.1914 63.2344ZM68.8911 65.018L68.4975 64.9471L68.3597 65.7115L68.7534 65.7824L69.1471 65.8533L69.2848 65.089L68.8911 65.018ZM68.7534 65.7824L68.7422 65.3826L62.7063 65.552L62.7175 65.9518L62.7287 66.3516L68.7646 66.1822L68.7534 65.7824ZM62.7175 65.9518L62.7063 66.3516L68.6802 66.519L68.6914 66.1191L68.7026 65.7193L62.7287 65.552L62.7175 65.9518ZM68.6914 66.1191L68.298 66.0468L67.7533 69.0079L68.1467 69.0803L68.5401 69.1526L69.0848 66.1915L68.6914 66.1191ZM68.1467 69.0803L68.1496 68.6803L14.4023 68.2878L14.3994 68.6878L14.3964 69.0877L68.1438 69.4803L68.1467 69.0803ZM36.7112 59.9552V59.5552C18.8667 59.5552 5.74201 58.9666 2.01231 58.7789L1.9922 59.1784L1.97209 59.5779C5.71134 59.7661 18.8499 60.3552 36.7112 60.3552V59.9552ZM1.9922 59.1784L2.38836 59.2337L10.3641 2.11753L9.96798 2.06221L9.57183 2.00689L1.59605 59.1231L1.9922 59.1784ZM9.96798 2.06221C9.94501 2.46155 9.94507 2.46155 9.94517 2.46156C9.94525 2.46157 9.94539 2.46157 9.94557 2.46158C9.94592 2.4616 9.94643 2.46163 9.94711 2.46167C9.94847 2.46175 9.95048 2.46186 9.95315 2.46202C9.95847 2.46232 9.96641 2.46277 9.97694 2.46336C9.99799 2.46454 10.0294 2.46629 10.071 2.46857C10.1541 2.47313 10.278 2.47981 10.4413 2.4883C10.7678 2.50529 11.2518 2.52954 11.8824 2.55863C13.1436 2.6168 14.9911 2.69435 17.3378 2.77188C22.0313 2.92694 28.722 3.08198 36.7132 3.08198V2.68198V2.28198C28.7322 2.28198 22.0504 2.12714 17.3642 1.97232C15.0212 1.89491 13.1772 1.81751 11.9193 1.75948C11.2903 1.73046 10.8079 1.70629 10.4829 1.68938C10.3204 1.68093 10.1972 1.67429 10.1148 1.66977C10.0735 1.66751 10.0425 1.66578 10.0218 1.66462C10.0115 1.66404 10.0037 1.6636 9.99856 1.66331C9.99599 1.66316 9.99406 1.66305 9.99279 1.66298C9.99216 1.66294 9.99169 1.66291 9.99138 1.6629C9.99123 1.66289 9.99113 1.66288 9.99105 1.66288C9.99098 1.66287 9.99096 1.66287 9.96798 2.06221ZM36.7132 2.68198V3.08198C44.7044 3.08198 51.3952 2.92694 56.0886 2.77188C58.4354 2.69435 60.2829 2.6168 61.5441 2.55863C62.1746 2.52954 62.6586 2.50529 62.9852 2.4883C63.1484 2.47981 63.2723 2.47313 63.3555 2.46857C63.3971 2.46629 63.4285 2.46454 63.4495 2.46336C63.46 2.46277 63.468 2.46232 63.4733 2.46202C63.476 2.46186 63.478 2.46175 63.4793 2.46167C63.48 2.46163 63.4805 2.4616 63.4809 2.46158C63.4811 2.46157 63.4812 2.46157 63.4813 2.46156C63.4814 2.46155 63.4814 2.46155 63.4585 2.06221C63.4355 1.66287 63.4355 1.66287 63.4354 1.66288C63.4353 1.66288 63.4352 1.66289 63.4351 1.6629C63.4348 1.66291 63.4343 1.66294 63.4337 1.66298C63.4324 1.66305 63.4305 1.66316 63.4279 1.66331C63.4227 1.6636 63.415 1.66404 63.4046 1.66462C63.384 1.66578 63.3529 1.66751 63.3117 1.66977C63.2293 1.67429 63.1061 1.68093 62.9436 1.68938C62.6186 1.70629 62.1362 1.73046 61.5072 1.75948C60.2493 1.81751 58.4053 1.89491 56.0622 1.97232C51.3761 2.12714 44.6943 2.28198 36.7132 2.28198V2.68198ZM63.4585 2.06221L63.0623 2.11752L71.036 59.2337L71.4322 59.1784L71.8283 59.1231L63.8546 2.00691L63.4585 2.06221ZM71.4322 59.1784L71.4121 58.7789C67.6824 58.9666 54.5584 59.5552 36.7132 59.5552V59.9552V60.3552C54.5752 60.3552 67.7131 59.7661 71.4523 59.5779L71.4322 59.1784Z" fill="#89662D" mask="url(#path-1-inside-1_201_8144)"/>
<path d="M14.2927 62.4904C15.7939 62.5827 17.4205 62.675 19.1428 62.7507C20.8651 62.8265 22.6796 62.9112 24.5596 62.9525C26.4389 63.0076 28.3808 63.062 30.3545 63.0813C32.3288 63.1157 34.3341 63.1102 36.3394 63.124C38.3447 63.124 40.35 63.0854 42.3236 63.0675C44.2973 63.0496 46.2392 62.969 48.1185 62.9249C49.9978 62.8809 51.813 62.7803 53.5346 62.708C55.2562 62.6357 56.8821 62.5317 58.3833 62.4415C59.8845 62.3513 61.2598 62.2659 62.478 62.1599L65.6319 61.9016C66.5058 61.8328 67.1917 61.7639 67.6599 61.7212L68.3775 61.6523L67.6565 61.6585C67.1868 61.6647 66.4968 61.6585 65.6202 61.682L62.4587 61.7412L58.3585 61.7963L53.5092 61.8693L48.0979 61.9381L42.3133 61.9856L36.3401 62.0035C34.3382 62.0035 32.3364 62.0214 30.3662 62.0035L24.5816 61.9719L19.1703 61.9209L14.3209 61.852C11.3178 61.8011 8.81185 61.7715 7.05996 61.7226L4.30542 61.6537C4.30542 61.6537 5.30119 61.7749 7.04826 61.9361C8.7967 62.0814 11.2944 62.3121 14.2968 62.487" fill="#FAC46D"/>
<path d="M49.4193 66.1026C47.1193 66.0083 44.435 65.9256 41.5592 65.8561L37.1244 65.7686L32.5457 65.7128C29.4771 65.697 26.4078 65.6853 23.5307 65.7128C20.6536 65.7404 17.9686 65.7817 15.6672 65.8389C13.3658 65.896 11.4486 65.9766 10.1071 66.0262C8.76568 66.0758 7.99854 66.1295 7.99854 66.1295L15.6693 66.2672L23.53 66.3705L32.5395 66.4607L41.5496 66.5179L49.411 66.5351L54.9732 66.5082L57.0838 66.4814L54.9766 66.3622C53.6351 66.3023 51.7194 66.188 49.4193 66.1061" fill="#FAC46D"/>
<path d="M66.1979 64.1131L64.3544 64.0821L59.4968 64.0422L52.6318 64.0332L44.7634 64.0477L30.0308 64.1289L23.3303 64.1937C23.3303 64.1937 23.999 64.2487 25.1704 64.3183C26.3417 64.3878 28.0151 64.4815 30.0246 64.5559C32.034 64.6302 34.3788 64.7026 36.8916 64.7411C39.4045 64.7797 42.0853 64.7955 44.7655 64.7976L48.7658 64.7625L52.6394 64.6936C55.1515 64.6344 57.4956 64.5621 59.5044 64.4732C61.5138 64.3982 63.1865 64.2873 64.3579 64.2295L66.1979 64.1151" fill="#FAC46D"/>
<path d="M11.4072 64.3316C12.2412 64.3316 13.0751 64.3378 13.8567 64.3205C14.6383 64.3033 15.3683 64.2847 15.9915 64.2517C16.6147 64.2186 17.1388 64.1828 17.5065 64.1594C17.8742 64.136 18.0801 64.1098 18.0801 64.1098C18.0801 64.1098 17.8735 64.0837 17.5072 64.0506C17.1408 64.0175 16.6216 63.9673 15.9963 63.9301C15.371 63.8929 14.6418 63.8516 13.8615 63.8247C13.0813 63.7979 12.246 63.782 11.4121 63.7689C10.5781 63.7689 9.74419 63.7634 8.96258 63.78C8.18098 63.7965 7.44758 63.8158 6.82781 63.8488C6.20804 63.8819 5.68054 63.9177 5.31281 63.9411C4.94508 63.9645 4.73987 63.99 4.73987 63.99C4.73987 63.99 4.94646 64.0169 5.31281 64.0499C5.67917 64.083 6.1984 64.1319 6.82368 64.1697C7.44896 64.2076 8.17823 64.2482 8.95845 64.2751C9.73868 64.302 10.5733 64.3178 11.4072 64.3316Z" fill="#FAC46D"/>
<path d="M49.4226 23.3717C49.5279 23.2535 49.6069 23.1143 49.6544 22.9633C49.7019 22.8123 49.7168 22.6529 49.6981 22.4957L49.2767 18.9052C49.2447 18.6323 49.1137 18.3807 48.9084 18.1981C48.7031 18.0155 48.4379 17.9148 48.1631 17.9149H41.3759C41.4717 17.7379 41.5179 17.5383 41.5095 17.3372L41.3814 14.2025C41.3695 13.9135 41.2464 13.6402 41.0377 13.4399C40.829 13.2396 40.551 13.1276 40.2617 13.1275H39.4175V12.8252C39.4115 12.532 39.2908 12.2529 39.0814 12.0476C38.8719 11.8424 38.5903 11.7275 38.297 11.7275H34.3849C34.0917 11.7275 33.8101 11.8424 33.6006 12.0476C33.3911 12.2529 33.2704 12.532 33.2645 12.8252L33.2583 13.1275H32.4168C32.1275 13.1276 31.8495 13.2396 31.6408 13.4399C31.4321 13.6402 31.309 13.9135 31.2971 14.2025L31.169 17.3365C31.1607 17.5375 31.2066 17.737 31.3019 17.9142H24.5147C24.2401 17.9142 23.975 18.0151 23.7699 18.1977C23.5647 18.3802 23.4337 18.6317 23.4018 18.9045L22.9804 22.4951C22.9618 22.6522 22.9768 22.8115 23.0242 22.9625C23.0716 23.1135 23.1505 23.2527 23.2557 23.3709C23.3608 23.4892 23.4898 23.5839 23.6342 23.6487C23.7785 23.7135 23.935 23.747 24.0932 23.747H33.0386L32.9519 27.9477L31.9513 27.363C31.7847 27.2656 31.5958 27.2128 31.4028 27.2098C31.2098 27.2068 31.0193 27.2537 30.8498 27.346C30.6803 27.4383 30.5375 27.5728 30.4352 27.7365C30.333 27.9002 30.2748 28.0875 30.2662 28.2803L30.0596 32.8528C30.0505 33.0534 30.0955 33.2528 30.1899 33.43C30.2843 33.6072 30.4245 33.7559 30.596 33.8603L32.7997 35.2045L32.4967 49.8497C32.4937 49.9988 32.5206 50.147 32.5756 50.2856C32.6306 50.4243 32.7127 50.5505 32.8171 50.657C32.9215 50.7635 33.0461 50.8481 33.1835 50.9059C33.321 50.9637 33.4686 50.9935 33.6178 50.9936H39.058C39.2071 50.9935 39.3547 50.9637 39.4922 50.9059C39.6297 50.8481 39.7543 50.7635 39.8587 50.657C39.963 50.5505 40.0452 50.4243 40.1002 50.2856C40.1552 50.147 40.182 49.9988 40.1791 49.8497L39.9684 39.5712L41.2899 40.3769C41.4635 40.4826 41.6626 40.5391 41.8659 40.5404C42.0692 40.5416 42.2691 40.4876 42.444 40.384C42.619 40.2805 42.7625 40.1313 42.8591 39.9524C42.9558 39.7736 43.002 39.5718 42.9929 39.3687L42.7601 34.2728C42.7515 34.0859 42.6963 33.9041 42.5995 33.744C42.5026 33.5839 42.3673 33.4506 42.2057 33.3562L39.81 31.9555L39.6399 23.7477H48.5853C48.7435 23.7476 48.8998 23.714 49.0441 23.6492C49.1885 23.5844 49.3174 23.4898 49.4226 23.3717ZM38.702 32.6063L41.639 34.3231L41.8718 39.419L38.8039 37.5473L39.0587 49.869H33.6185L33.9345 34.5813L31.18 32.901L31.3866 28.3285L34.0337 29.8759L34.1838 22.6266H24.0932L24.5147 19.036H34.2568L34.2913 17.3833H32.2887L32.4168 14.2493H34.356L34.3849 12.8486H38.2936L38.3225 14.2493H40.2617L40.3898 17.3833H38.3845L38.4189 19.036H48.1631L48.5846 22.6266H38.4954L38.702 32.6063Z" fill="#FAC46D"/>
<path d="M8.61826 15.7922C8.40134 17.268 8.17271 18.8222 7.93582 20.4336C7.71064 22.0451 7.46204 23.7081 7.23823 25.4015C7.01443 27.0948 6.7796 28.8143 6.5496 30.5339C6.3313 32.2555 6.11231 33.9771 5.89746 35.6718C5.6826 37.3665 5.49185 39.0372 5.2949 40.652C4.91271 43.8831 4.57872 46.9021 4.31359 49.4927C3.77026 54.6719 3.5072 58.1379 3.5072 58.1379C3.5072 58.1379 4.14419 54.7208 4.95334 49.576C5.36239 47.004 5.81482 43.9981 6.27552 40.7794C6.50001 39.168 6.75068 37.5056 6.97242 35.8123C7.19416 34.1189 7.43036 32.3987 7.66105 30.6792L8.3125 25.5413C8.53149 23.8472 8.71811 22.1766 8.91437 20.561C9.09893 18.9448 9.27728 17.3823 9.44669 15.9004C9.61609 14.4184 9.76139 13.0157 9.89568 11.7203C10.4363 6.5411 10.7014 3.0752 10.7014 3.0752C10.7014 3.0752 10.0644 6.49014 9.25525 11.6377C9.04866 12.9234 8.83243 14.3165 8.6155 15.7922" fill="#FAC46D"/>
<path d="M56.9337 54.7178L53.7522 54.7398L45.7923 54.7825L41.3038 54.7887C39.775 54.799 38.2228 54.7887 36.6699 54.7798C35.1171 54.7901 33.5642 54.7715 32.0354 54.7674L27.5455 54.7446L19.5849 54.6944L13.9484 54.6758H11.8081C11.8081 54.6758 12.5814 54.7674 13.9374 54.8948C15.2933 55.0222 17.2325 55.1868 19.5621 55.3321C21.8911 55.4898 24.6119 55.6199 27.5276 55.7239C28.9854 55.7631 30.4922 55.823 32.0237 55.8423C33.5552 55.8616 35.1115 55.8919 36.6679 55.8947C38.2242 55.8974 39.7805 55.8885 41.3127 55.8657C42.8442 55.8575 44.3517 55.8086 45.8102 55.7638C47.2687 55.7191 48.6784 55.6667 50.0143 55.5958C51.3503 55.5249 52.6132 55.4677 53.7777 55.3775L56.9551 55.1406L59.4011 54.9044L61.529 54.6758L59.388 54.6875L56.9337 54.7178Z" fill="#FAC46D"/>
<path d="M22.7705 7.45834C24.6628 7.5761 26.8727 7.67251 29.2436 7.75102C30.4281 7.78132 31.6539 7.82539 32.8934 7.84123C34.133 7.85707 35.4014 7.8791 36.6658 7.88048C39.1937 7.88048 41.7224 7.86189 44.092 7.78407C45.2771 7.75721 46.4217 7.71176 47.5076 7.65805C48.5936 7.60434 49.619 7.56302 50.5652 7.49484C52.4582 7.38328 54.0325 7.24005 55.1343 7.13951L56.8655 6.97217L55.1274 6.99489L53.1345 7.03621C52.3646 7.04103 51.4969 7.04723 50.55 7.06651L47.4932 7.10025L44.0824 7.12642L40.4326 7.13813C39.1931 7.14777 37.9287 7.13813 36.6671 7.13331C35.4049 7.14088 34.1433 7.12505 32.901 7.12022L29.2512 7.09543L22.7822 7.03139L16.4688 6.97217C16.4688 6.97217 17.0975 7.04103 18.2 7.13193C19.3025 7.22283 20.8774 7.35161 22.7705 7.45834Z" fill="#FAC46D"/>
<path d="M30.2235 19.4089L28.0764 19.4014L25.9299 19.4179L24.9052 19.4351C24.8901 19.4351 24.8687 19.4351 24.8584 19.4392L24.8529 19.4888L24.8425 19.5825L24.8302 19.6968C24.8219 19.7725 24.8143 19.8476 24.8067 19.9206C24.7911 20.068 24.776 20.2098 24.7613 20.3462C24.6607 21.4377 24.5933 22.1656 24.5933 22.1656L24.8653 20.3586L24.9231 19.9351C24.9337 19.8621 24.944 19.7877 24.9541 19.7119L24.9693 19.5976C24.9761 19.5797 24.9693 19.5639 24.983 19.5666L25.9333 19.5797L28.0784 19.588L30.2235 19.5708L32.0953 19.5384L33.9222 19.4826L32.0959 19.4365L30.2235 19.4117" fill="#FAC46D"/>
<path d="M33.334 14.4747L32.6888 14.4995L32.6674 14.8618C32.6585 15.1496 32.6495 15.4381 32.6413 15.7081C32.633 15.978 32.6371 16.2315 32.6357 16.4477C32.6406 16.8808 32.655 17.1701 32.655 17.1701C32.655 17.1701 32.695 16.8829 32.7404 16.4525C32.7583 16.237 32.7797 15.9849 32.8024 15.7157C32.8251 15.4464 32.8368 15.1579 32.854 14.87L32.8582 14.7323V14.6758L33.3402 14.6428L34.0764 14.5739C34.5075 14.5271 34.7939 14.4851 34.7939 14.4851C34.7939 14.4851 34.504 14.472 34.0716 14.4692L33.332 14.4782" fill="#FAC46D"/>
<path d="M36.495 13.0975L35.7375 13.061L34.98 13.0493H34.5303L34.5482 13.3936C34.5785 13.78 34.6095 14.0368 34.6095 14.0368C34.6095 14.0368 34.6329 13.7786 34.6529 13.3916C34.6529 13.3041 34.6611 13.1802 34.6611 13.1802L34.6907 13.185L34.7844 13.1919L34.9751 13.2063L35.7326 13.2435L36.4901 13.2552L37.1512 13.2483C37.5389 13.2352 37.7972 13.216 37.7972 13.216C37.7972 13.216 37.5403 13.1808 37.1547 13.143L36.495 13.0934" fill="#FAC46D"/>
<path d="M39.1241 14.6847L39.3995 14.6923L39.6708 14.6758L39.907 14.6434C40.0448 14.6158 40.1371 14.5869 40.1371 14.5869C40.1371 14.5869 40.0441 14.5614 39.9057 14.5387L39.6681 14.5139L39.3926 14.5063L39.1213 14.5229L38.8851 14.5552C38.7474 14.5828 38.6544 14.6117 38.6544 14.6117C38.6544 14.6117 38.7474 14.6372 38.8865 14.6599L39.1241 14.6847Z" fill="#FAC46D"/>
<path d="M44.9886 19.2985L43.3792 19.2861L41.7706 19.2985L40.3664 19.3275C39.5449 19.3522 38.9974 19.3798 38.9974 19.3798C38.9974 19.3798 39.5449 19.4066 40.3664 19.4321L41.7706 19.4604L43.3792 19.4728L44.9886 19.4604L46.392 19.4321C47.2142 19.4073 47.7617 19.3798 47.7617 19.3798C47.7617 19.3798 47.2108 19.3522 46.392 19.3268L44.9886 19.2985Z" fill="#FAC46D"/>
<path d="M32.0698 29.0496L31.8157 28.8968L31.7007 28.8279L31.6429 28.7928L31.6133 28.7756L31.5988 28.7666C31.598 28.7719 31.598 28.7772 31.5988 28.7824L31.5843 29.0579C31.5733 29.2493 31.5623 29.4442 31.5506 29.6391C31.5361 30.0275 31.5224 30.4159 31.5086 30.7795C31.4948 31.1431 31.4955 31.484 31.49 31.7753C31.4934 32.3592 31.4955 32.7483 31.4955 32.7483C31.4955 32.7483 31.5354 32.3613 31.5947 31.7842C31.6167 31.4936 31.6422 31.1548 31.6704 30.7919L31.7393 29.6529C31.7462 29.4594 31.753 29.2665 31.7599 29.0765C31.7599 29.0662 31.7599 29.0586 31.7703 29.0675L31.9941 29.1963L32.8652 29.6784L33.7281 30.126L32.9175 29.5868L32.074 29.0565" fill="#FAC46D"/>
<path d="M39.7322 33.7253L40.1708 33.9876L40.6212 34.2294L41.0227 34.4242C41.2616 34.531 41.4269 34.593 41.4269 34.593C41.4269 34.593 41.2892 34.4828 41.0743 34.3326L40.7011 34.0882L40.2624 33.8258L39.8121 33.5848L39.4099 33.3899C39.1709 33.2832 39.0063 33.2212 39.0063 33.2212C39.0063 33.2212 39.1441 33.33 39.3582 33.4808L39.7322 33.7253Z" fill="#FAC46D"/>
<path d="M34.1625 37.73C34.1425 38.3704 34.1184 39.1183 34.0936 39.9192C34.0689 40.72 34.0544 41.5719 34.0344 42.4285C34.0145 43.2852 34.011 44.1377 34 44.9393C33.989 45.7409 33.9917 46.4881 33.9883 47.1292C33.9883 48.4114 34.0014 49.264 34.0014 49.264C34.0014 49.264 34.0447 48.41 34.0936 47.1292C34.1136 46.4887 34.137 45.7409 34.1625 44.94C34.188 44.1391 34.2011 43.2873 34.221 42.4306C34.241 41.574 34.2445 40.7214 34.2555 39.9198C34.2665 39.1183 34.2637 38.3711 34.2672 37.73C34.2672 36.4477 34.2541 35.5952 34.2541 35.5952C34.2541 35.5952 34.2114 36.4491 34.1625 37.73Z" fill="#FAC46D"/>
<path d="M62.3174 7.71827C62.0709 6.30863 61.9304 5.50293 61.9304 5.50293C61.9304 5.50293 62.0193 6.31621 62.1742 7.73824C62.3422 9.15959 62.5819 11.189 62.8697 13.6247C63.1803 16.0577 63.5432 18.8955 63.9316 21.9359C64.3448 24.9727 64.7876 28.2121 65.2297 31.4514C65.7048 34.688 66.18 37.9246 66.6255 40.9546C67.0966 43.9846 67.5366 46.808 67.9133 49.2341C68.3134 51.6539 68.6474 53.6703 68.8774 55.082C69.1239 56.4916 69.2644 57.2966 69.2644 57.2966C69.2644 57.2966 69.1762 56.484 69.0213 55.0613C68.8533 53.6407 68.6136 51.6106 68.3265 49.1749C68.0152 46.7426 67.6523 43.9047 67.2639 40.8637L65.9686 31.3495L64.5727 21.8463C64.101 18.8163 63.6617 15.9929 63.2843 13.5675L62.3202 7.71965" fill="#FAC46D"/>
</svg>
