<svg xmlns="http://www.w3.org/2000/svg" width="73" height="76" fill="none"><mask id="a" fill="#fff"><path d="M72.971 59.393 64.938 1.856A1.495 1.495 0 0 0 63.46.568h-.087c-.108.006-10.92.62-26.659.62-15.739 0-26.552-.611-26.659-.62h-.087a1.494 1.494 0 0 0-1.479 1.288L.455 59.393c-.02.14-.02.281 0 .421L1.95 70.151a1.494 1.494 0 0 0 1.48 1.278h6.114a37.201 37.201 0 0 1-.338 4 24.5 24.5 0 0 0 2.685-1.778s.323.68 2.328 1.779c0 0 .114-1.929.166-4.002h55.608a1.494 1.494 0 0 0 1.459-1.822l-1.042-4.633.629-3.737.787-.183c.29-.068.552-.221.754-.44h.013v-.016a1.488 1.488 0 0 0 .376-1.206m-58.57 9.297a23.77 23.77 0 0 0-.035-.918l1.262.029 4.56.081 5.09.075 11.06.123 5.62.036c1.853.023 3.677.012 5.44.022l5.09.004 4.562-.012 6.83-.069c.826-.005 1.472-.028 1.913-.036l.678-.015-.677-.045c-.44-.026-1.087-.078-1.91-.12-1.646-.082-3.998-.24-6.822-.35-2.824-.129-6.119-.24-9.65-.333-1.766-.037-3.59-.092-5.445-.116l-5.622-.074-5.62-.018c-1.854-.003-3.68.016-5.446.03-3.532.032-6.83.101-9.655.185-2.825.083-5.179.199-6.826.266-.826.034-1.471.08-1.912.104l-.676.04 2.59.07.735.016c.009.175.022.52.031.99l-5.262-.038-1.146-7.884c4.917.23 17.277.718 33.557.718 15.593 0 27.588-.448 32.894-.688l-.37 2.203-2.25.138 2.204.132-.3 1.784-.138.764-6.035.17 5.973.167-.544 2.961-53.748-.392Zm22.312-8.733c-17.853 0-30.984-.589-34.719-.777L9.968 2.062s10.773.62 26.745.62c15.972 0 26.745-.62 26.745-.62l7.974 57.116c-3.734.188-16.865.777-34.719.777"/></mask><path fill="#FAC46D" d="M72.971 59.393 64.938 1.856A1.495 1.495 0 0 0 63.46.568h-.087c-.108.006-10.92.62-26.659.62-15.739 0-26.552-.611-26.659-.62h-.087a1.494 1.494 0 0 0-1.479 1.288L.455 59.393c-.02.14-.02.281 0 .421L1.95 70.151a1.494 1.494 0 0 0 1.48 1.278h6.114a37.201 37.201 0 0 1-.338 4 24.5 24.5 0 0 0 2.685-1.778s.323.68 2.328 1.779c0 0 .114-1.929.166-4.002h55.608a1.494 1.494 0 0 0 1.459-1.822l-1.042-4.633.629-3.737.787-.183c.29-.068.552-.221.754-.44h.013v-.016a1.488 1.488 0 0 0 .376-1.206m-58.57 9.297a23.77 23.77 0 0 0-.035-.918l1.262.029 4.56.081 5.09.075 11.06.123 5.62.036c1.853.023 3.677.012 5.44.022l5.09.004 4.562-.012 6.83-.069c.826-.005 1.472-.028 1.913-.036l.678-.015-.677-.045c-.44-.026-1.087-.078-1.91-.12-1.646-.082-3.998-.24-6.822-.35-2.824-.129-6.119-.24-9.65-.333-1.766-.037-3.59-.092-5.445-.116l-5.622-.074-5.62-.018c-1.854-.003-3.68.016-5.446.03-3.532.032-6.83.101-9.655.185-2.825.083-5.179.199-6.826.266-.826.034-1.471.08-1.912.104l-.676.04 2.59.07.735.016c.009.175.022.52.031.99l-5.262-.038-1.146-7.884c4.917.23 17.277.718 33.557.718 15.593 0 27.588-.448 32.894-.688l-.37 2.203-2.25.138 2.204.132-.3 1.784-.138.764-6.035.17 5.973.167-.544 2.961-53.748-.392Zm22.312-8.733c-17.853 0-30.984-.589-34.719-.777L9.968 2.062s10.773.62 26.745.62c15.972 0 26.745-.62 26.745-.62l7.974 57.116c-3.734.188-16.865.777-34.719.777"/><path fill="#89662D" d="m64.938 1.856.397-.056-.397.056ZM63.46.568v-.4.4Zm-.087 0v-.4h-.023l.023.4Zm-53.318 0 .033-.399-.016-.001h-.017v.4Zm-.087 0v-.4.4ZM8.488 1.856l.396.055-.396-.055ZM.455 59.393l.396.057v-.002l-.396-.055Zm0 .421-.396.057.396-.057ZM1.95 70.151l-.396.057v.001l.396-.058Zm1.48 1.278v-.4.4Zm6.114 0 .4.012.012-.413h-.412v.4Zm-.338 4-.397-.055-.112.807.707-.404-.198-.347Zm2.685-1.778.362-.171-.212-.445-.392.298.242.318Zm2.328 1.779-.192.35.554.304.037-.631-.4-.023Zm.166-4.002v-.4h-.39l-.01.39.4.01Zm55.608 0v-.4.4Zm1.459-1.822-.39.088.39-.088Zm-1.042-4.633-.394-.066-.013.077.017.077.39-.088Zm.629-3.737-.09-.39-.26.06-.044.264.394.066Zm.787-.183.09.39h.001l-.09-.39Zm.754-.44v-.4h-.177l-.118.129.294.27Zm.013 0v.4h.4v-.4h-.4Zm0-.016-.295-.27-.105.115v.155h.4ZM14.4 68.687l-.4.01.01.388.387.003.003-.4Zm-.035-.916.008-.4-.435-.01.027.434.4-.025Zm1.262.028-.01.4h.003l.007-.4Zm4.56.081-.007.4h.001l.006-.4Zm5.09.075-.006.4h.001l.005-.4Zm11.06.123-.004.4h.002l.002-.4Zm5.62.036.005-.4h-.003l-.002.4Zm5.44.022-.002.4h.002v-.4Zm5.09.004v.4h.002l-.002-.4Zm4.562-.012.001.4h.003l-.004-.4Zm6.83-.069-.004-.4.003.4Zm1.913-.036.007.4h.002l-.01-.4Zm.678-.015.008.4.018-.8-.026.4Zm-.677-.045.027-.399h-.002l-.025.4Zm-1.91-.12.02-.399-.02.4Zm-6.822-.35-.019.399h.003l.016-.4Zm-9.65-.333.01-.4h-.002l-.008.4Zm-5.445-.116-.006.4.006-.4Zm-5.622-.074.005-.4h-.004l-.001.4Zm-5.62-.018.002-.4-.002.4Zm-5.446.03-.003-.4.003.4Zm-16.481.451-.016-.4.016.4Zm-1.912.104-.022-.4H6.86l.024.4Zm-.676.04-.024-.399.013.8.011-.4Zm2.59.07-.01.4h.002l.009-.4Zm.735.016.4-.019-.018-.372-.373-.009-.009.4Zm.031.99-.002.4.41.003-.008-.412-.4.009Zm-5.262-.038-.396.057.05.34.343.003.003-.4ZM3.156 60.73l.019-.4-.485-.022.07.48.396-.058Zm66.451.03.395.066.082-.488-.495.022.018.4Zm-.37 2.203.024.4.317-.02.053-.313-.395-.066Zm-2.25.138-.024-.399v.798l.025-.399Zm2.204.132.395.067.074-.44-.445-.026-.024.4Zm-.3 1.784.394.071v-.005l-.394-.066Zm-.138.764.012.4.324-.009.058-.32-.394-.07Zm-6.035.17-.012-.4v.8l.011-.4Zm5.973.167.394.073.084-.46-.466-.013-.012.4Zm-.544 2.961-.003.4.335.003.061-.33-.393-.073ZM1.992 59.178l-.396-.055-.06.433.436.022.02-.4ZM9.968 2.062l.023-.4-.368-.02-.051.365.396.055Zm53.49 0 .397-.055-.051-.365-.369.02.023.4Zm7.974 57.116.02.4.437-.022-.06-.433-.397.055Zm1.54.215.395-.055L65.335 1.8l-.397.056-.396.055 8.033 57.538.396-.056ZM64.937 1.856l.397-.056a1.895 1.895 0 0 0-.633-1.166l-.263.301-.262.302c.199.173.329.413.365.674l.396-.055Zm-.499-.92.263-.302A1.895 1.895 0 0 0 63.46.168v.4l-.001.4c.264 0 .519.096.718.269l.262-.302Zm-.98-.368v-.4H63.372v.8h.087v-.4Zm-.087 0-.023-.4c-.102.006-10.907.62-26.636.62v.8c15.749 0 26.569-.614 26.682-.62l-.023-.4Zm-26.659.62v-.4C28.85.788 22.215.635 17.535.48a423.24 423.24 0 0 1-6.93-.283L10.22.177l-.133-.008-.033.399-.033.398c.122.01 10.947.622 26.692.622v-.4ZM10.054.568v-.4H9.967v.8H10.055v-.4Zm-.087 0v-.4c-.457 0-.898.165-1.243.465l.263.302.263.302c.199-.173.454-.269.718-.27v-.4Zm-.98.367L8.724.633c-.344.3-.569.715-.632 1.167l.396.056.396.055c.037-.261.166-.5.366-.674L8.987.935Zm-.499.92L8.092 1.8.059 59.338l.396.055.396.056L8.884 1.91l-.396-.055ZM.455 59.394l-.396-.056a1.885 1.885 0 0 0 0 .534l.396-.057.396-.057a1.085 1.085 0 0 1 0-.307l-.396-.057Zm0 .421-.396.057 1.495 10.337.396-.057.395-.057L.851 59.757l-.396.057ZM1.95 70.151l-.396.058c.066.45.292.862.637 1.16l.26-.303.262-.303c-.199-.172-.33-.41-.368-.67l-.395.058Zm.502.915-.261.302c.344.298.784.461 1.24.46v-.4l-.001-.4c-.263 0-.518-.094-.717-.265l-.261.303Zm.978.362v.4h6.114v-.8H3.43v.4Zm6.114 0-.4-.012a36.803 36.803 0 0 1-.335 3.958l.397.056.396.055c.186-1.341.3-2.691.342-4.044l-.4-.013Zm-.338 4.002.198.347a24.888 24.888 0 0 0 2.73-1.807l-.243-.319-.242-.318a24.117 24.117 0 0 1-2.642 1.75l.199.347Zm2.685-1.779-.36.173v.002l.002.003.003.006a.433.433 0 0 0 .033.057c.02.033.047.075.086.125.077.101.196.237.377.405.36.334.97.797 1.995 1.358l.192-.35.192-.351c-.98-.538-1.534-.964-1.836-1.244a2.462 2.462 0 0 1-.284-.303.758.758 0 0 1-.041-.059l-.003-.005.002.004.001.003.001.002.001.001v.001l-.36.172Zm2.328 1.779.4.023v-.023l.004-.065.014-.248a135.407 135.407 0 0 0 .148-3.678l-.4-.01-.4-.01a128.99 128.99 0 0 1-.147 3.655l-.013.246-.004.064-.001.017v.005l.399.023Zm.166-4.002v.4h55.608v-.8H14.385v.4Zm55.608 0v.4c.284 0 .564-.063.82-.186l-.173-.36-.173-.361c-.148.07-.31.108-.474.107v.4Zm.647-.147.174.36c.256-.122.48-.301.658-.523l-.312-.25-.312-.25a1.096 1.096 0 0 1-.38.303l.172.36Zm.52-.413.312.25c.178-.222.303-.48.367-.758l-.39-.09-.39-.09c-.036.16-.109.31-.211.438l.312.25Zm.29-.598.39.09c.063-.276.064-.564.002-.841l-.39.087-.39.088c.035.16.035.326-.002.486l.39.09Zm.001-.664.39-.087-1.04-4.633-.39.087-.391.088 1.041 4.633.39-.088Zm-1.04-4.633.394.067.628-3.738-.394-.066-.395-.066-.628 3.737.394.066Zm.628-3.737.09.39.788-.184-.09-.39-.092-.389-.787.183.091.39Zm.787-.183.091.39c.368-.087.702-.282.957-.56l-.294-.27-.295-.271c-.147.16-.339.272-.55.321l.091.39Zm.754-.44v.4h.013v-.8h-.014v.4Zm.013 0h.4v-.016h-.8v.015h.4Zm0-.016.296.27c.186-.205.326-.448.408-.712l-.382-.12-.382-.118a1.088 1.088 0 0 1-.235.41l.295.27Zm.322-.561.382.119c.082-.265.106-.544.068-.818l-.396.054-.397.055c.022.158.009.319-.039.471l.382.119ZM14.4 68.688l.4-.01a24.562 24.562 0 0 0-.036-.932l-.4.025-.399.024c.017.27.028.574.035.902l.4-.01Zm-.035-.918-.01.4 1.263.029.009-.4.009-.4-1.262-.028-.01.4Zm1.262.029-.007.4 4.56.08.007-.399.007-.4-4.56-.081-.007.4Zm4.56.081-.006.4 5.09.075.006-.4.006-.4-5.09-.075-.006.4Zm5.09.075-.005.4 11.061.123.005-.4.004-.4-11.06-.123-.005.4Zm11.06.123-.002.4 5.62.036.002-.4.002-.4-5.619-.036-.002.4Zm5.62.036-.005.4c1.854.023 3.687.013 5.443.022l.002-.4.002-.4c-1.77-.01-3.585.002-5.437-.022l-.005.4Zm5.44.022v.4l5.09.004v-.8l-5.09-.004v.4Zm5.09.004.002.4 4.561-.012-.001-.4-.001-.4-4.562.012.001.4Zm4.562-.012.004.4 6.83-.069-.005-.4-.004-.4-6.83.069.005.4Zm6.83-.069.002.4c.827-.005 1.487-.028 1.918-.036l-.007-.4-.007-.4c-.452.008-1.084.03-1.91.036l.003.4Zm1.913-.036.009.4.677-.015-.008-.4-.01-.4-.677.015.009.4Zm.678-.015.026-.4-.676-.044-.027.4-.026.398.676.045.027-.399Zm-.677-.045.025-.399c-.43-.026-1.091-.079-1.915-.12l-.02.4-.02.399c.822.041 1.454.092 1.906.12l.024-.4Zm-1.91-.12.02-.399c-1.637-.082-4.001-.24-6.827-.351l-.015.4-.016.399c2.823.11 5.162.268 6.818.351l.02-.4Zm-6.822-.35.018-.4a515.85 515.85 0 0 0-9.658-.333l-.01.4-.01.4c3.529.093 6.821.204 9.642.332l.018-.4Zm-9.65-.333.008-.4c-1.76-.037-3.591-.092-5.448-.116l-.005.4-.005.4c1.852.024 3.67.078 5.441.116l.009-.4Zm-5.445-.116.005-.4-5.622-.074-.005.4-.006.4 5.622.074.006-.4Zm-5.622-.074.001-.4-5.62-.018v.4l-.002.4 5.62.018v-.4Zm-5.62-.018.001-.4c-1.857-.003-3.685.016-5.45.03l.003.4.003.4c1.768-.014 3.59-.033 5.443-.03v-.4Zm-5.446.03-.004-.4c-3.535.032-6.834.101-9.662.185l.011.4.012.4a469.9 469.9 0 0 1 9.647-.184l-.004-.4Zm-9.655.185-.011-.4c-2.829.083-5.188.2-6.831.266l.016.4.016.4c1.651-.068 4-.183 6.822-.267l-.012-.4Zm-6.826.266-.017-.4c-.83.035-1.483.08-1.917.105l.022.399.023.4c.447-.026 1.083-.07 1.906-.104l-.017-.4Zm-1.912.104-.024-.4-.676.041.024.4.024.399.676-.04-.024-.4Zm-.676.04-.01.4 2.59.07.01-.4.011-.4-2.59-.07-.011.4Zm2.59.07-.008.4.734.016.01-.4.008-.4-.734-.016-.01.4Zm.735.016-.4.019c.009.17.022.512.032.979l.4-.008.4-.009a39.86 39.86 0 0 0-.032-1l-.4.02Zm.031.99.003-.4-5.262-.038-.003.4-.003.4 5.263.038.002-.4Zm-5.262-.038.396-.058-1.146-7.883-.396.057-.396.058 1.146 7.883.396-.057ZM3.156 60.73l-.019.4c4.922.23 17.288.718 33.576.718v-.8c-16.273 0-28.626-.487-33.538-.717l-.019.4Zm33.557.718v.4c15.6 0 27.601-.448 32.912-.688l-.018-.4-.018-.4c-5.302.24-17.29.689-32.876.689v.4Zm32.894-.688-.394-.067-.371 2.204.394.066.395.067.37-2.204-.394-.066Zm-.37 2.203-.025-.399-2.249.138.025.4.024.398 2.249-.137-.025-.4Zm-2.25.138-.023.4 2.203.132.024-.4.024-.399-2.203-.132-.024.4Zm2.204.132-.394-.066-.3 1.784.394.066.395.066.3-1.783-.395-.067Zm-.3 1.784-.394-.07-.137.764.393.07.394.071.138-.764-.394-.071Zm-.138.764-.01-.4-6.037.17.011.4.012.4 6.036-.17-.012-.4Zm-6.035.17-.012.4 5.974.167.011-.4.012-.4-5.974-.167-.011.4Zm5.973.167-.393-.072-.545 2.96.394.073.393.073.545-2.962-.394-.072Zm-.544 2.961.003-.4-53.748-.392-.003.4-.003.4 53.748.392.003-.4ZM36.71 59.955v-.4c-17.844 0-30.969-.588-34.699-.776l-.02.4-.02.399c3.74.188 16.878.777 34.74.777v-.4Zm-34.719-.777.396.056 7.976-57.116-.396-.056-.396-.055-7.976 57.116.396.055ZM9.968 2.062l-.023.4h.008l.024.001a75.34 75.34 0 0 0 .464.025 421.39 421.39 0 0 0 6.897.284c4.693.155 11.384.31 19.375.31v-.8c-7.98 0-14.663-.155-19.349-.31a420.387 420.387 0 0 1-6.881-.283 130.928 130.928 0 0 1-.49-.026H9.99l-.023.4Zm26.745.62v.4c7.991 0 14.682-.155 19.376-.31a421.346 421.346 0 0 0 6.896-.284 134.433 134.433 0 0 0 .488-.026h.008l-.023-.4-.023-.4-.001.001h-.006l-.023.002a66.94 66.94 0 0 1-.461.024 420.343 420.343 0 0 1-6.881.283c-4.687.155-11.369.31-19.35.31v.4Zm26.745-.62-.396.056 7.974 57.116.396-.056.396-.055-7.973-57.116-.396.055Zm7.974 57.116-.02-.4c-3.73.189-16.854.777-34.699.777v.8c17.862 0 31-.589 34.74-.777l-.02-.4Z" mask="url(#a)"/><path fill="#FAC46D" d="M14.293 62.49c1.5.093 3.128.185 4.85.26 1.722.077 3.537.161 5.417.203 1.879.055 3.82.109 5.795.128 1.974.035 3.98.03 5.984.043 2.006 0 4.011-.039 5.985-.056 1.973-.018 3.915-.099 5.794-.143 1.88-.044 3.695-.145 5.417-.217 1.721-.072 3.347-.176 4.848-.267 1.502-.09 2.877-.175 4.095-.281l3.154-.258c.874-.07 1.56-.138 2.028-.18l.718-.07-.722.006c-.47.007-1.16 0-2.036.024l-3.161.06-4.1.054-4.85.073-5.411.07-5.785.047-5.973.018c-2.002 0-4.004.017-5.974 0l-5.784-.032-5.412-.051-4.85-.069c-3.002-.05-5.508-.08-7.26-.13l-2.755-.068s.996.12 2.743.282c1.749.145 4.246.376 7.249.551M49.42 66.103c-2.3-.095-4.985-.177-7.86-.247l-4.436-.087-4.578-.056a625.486 625.486 0 0 0-9.015 0c-2.877.027-5.562.069-7.864.126-2.301.057-4.218.138-5.56.187-1.341.05-2.108.103-2.108.103l7.67.138 7.861.104 9.01.09 9.01.057 7.861.017 5.562-.027 2.11-.027-2.106-.119c-1.342-.06-3.258-.174-5.558-.256M66.198 64.113l-1.844-.03-4.857-.04-6.865-.01-7.869.015-14.732.08-6.7.066s.668.055 1.84.124c1.17.07 2.844.163 4.854.238 2.009.074 4.354.147 6.867.185 2.512.039 5.193.055 7.873.057l4-.035 3.874-.07a342.07 342.07 0 0 0 6.865-.22c2.01-.075 3.683-.186 4.854-.243l1.84-.115M11.407 64.332c.834 0 1.668.006 2.45-.011a72.562 72.562 0 0 0 2.135-.07c.623-.032 1.147-.068 1.514-.092.368-.023.574-.05.574-.05s-.206-.025-.573-.058c-.366-.034-.885-.084-1.51-.12a84.682 84.682 0 0 0-2.136-.106 134.08 134.08 0 0 0-2.449-.056c-.834 0-1.668-.006-2.45.011-.781.017-1.514.036-2.134.069-.62.033-1.147.069-1.515.092-.368.023-.573.049-.573.049s.206.027.573.06c.366.033.885.082 1.51.12.626.038 1.355.078 2.135.105.78.027 1.615.043 2.45.057ZM49.423 23.372a1.119 1.119 0 0 0 .275-.876l-.421-3.59a1.12 1.12 0 0 0-1.114-.991h-6.787c.096-.177.142-.377.134-.578l-.129-3.134a1.12 1.12 0 0 0-1.12-1.075h-.844v-.303a1.121 1.121 0 0 0-1.12-1.098h-3.912a1.12 1.12 0 0 0-1.12 1.098l-.007.303h-.841a1.121 1.121 0 0 0-1.12 1.075l-.128 3.134c-.008.2.038.4.133.577h-6.787a1.12 1.12 0 0 0-1.113.99l-.422 3.591a1.12 1.12 0 0 0 1.113 1.252h8.946l-.087 4.2-1-.584a1.121 1.121 0 0 0-1.686.917l-.206 4.573a1.12 1.12 0 0 0 .536 1.007l2.204 1.345-.303 14.645a1.12 1.12 0 0 0 1.12 1.144h5.441a1.122 1.122 0 0 0 1.121-1.144l-.21-10.279 1.32.806a1.121 1.121 0 0 0 1.704-1.008l-.233-5.096a1.122 1.122 0 0 0-.554-.917l-2.396-1.4-.17-8.208h8.945a1.122 1.122 0 0 0 .838-.376Zm-10.721 9.234 2.937 1.717.233 5.096-3.068-1.872.255 12.322h-5.44l.316-15.288-2.755-1.68.207-4.573 2.647 1.548.15-7.25h-10.09l.42-3.59h9.743l.034-1.653H32.29l.128-3.134h1.939l.029-1.4h3.909l.029 1.4h1.939l.128 3.134h-2.005l.034 1.653h9.744l.422 3.59h-10.09l.207 9.98ZM8.618 15.792l-.682 4.642c-.225 1.611-.474 3.274-.698 4.967-.224 1.694-.458 3.413-.688 5.133l-.653 5.138c-.214 1.695-.405 3.365-.602 4.98-.382 3.231-.716 6.25-.981 8.84-.544 5.18-.807 8.646-.807 8.646s.637-3.417 1.446-8.562c.41-2.572.862-5.578 1.323-8.797.224-1.611.475-3.273.696-4.967.222-1.693.458-3.413.689-5.133l.652-5.138c.218-1.694.405-3.364.601-4.98l.533-4.66c.17-1.483.314-2.885.449-4.18.54-5.18.805-8.646.805-8.646s-.637 3.415-1.446 8.563a314.642 314.642 0 0 0-.64 4.154M56.934 54.718l-3.182.022-7.96.042-4.488.007c-1.529.01-3.081 0-4.634-.01-1.553.011-3.106-.008-4.635-.012l-4.49-.022-7.96-.05-5.637-.02h-2.14s.773.092 2.13.22c1.355.127 3.295.292 5.624.437 2.33.158 5.05.288 7.966.392 1.457.04 2.964.099 4.496.118 1.531.02 3.087.05 4.644.053 1.556.002 3.113-.007 4.645-.03 1.531-.008 3.039-.056 4.497-.101 1.459-.045 2.868-.097 4.204-.168 1.336-.071 2.6-.128 3.764-.218l3.177-.237 2.446-.237 2.128-.228-2.141.011-2.454.03ZM22.77 7.458c1.893.118 4.103.215 6.474.293 1.184.03 2.41.074 3.65.09 1.239.016 2.507.038 3.772.04 2.528 0 5.056-.02 7.426-.097 1.185-.027 2.33-.072 3.416-.126 1.086-.054 2.111-.095 3.057-.163 1.893-.112 3.468-.255 4.57-.355l1.73-.168-1.738.023-1.992.041c-.77.005-1.638.011-2.585.03l-3.057.034-3.41.026-3.65.012c-1.24.01-2.504 0-3.766-.005-1.262.008-2.524-.008-3.766-.013l-3.65-.025-6.469-.064-6.313-.059s.628.069 1.731.16c1.102.09 2.677.22 4.57.326Z"/><path fill="#FAC46D" d="m30.224 19.409-2.148-.008-2.146.017-1.025.017c-.015 0-.036 0-.047.004l-.005.05-.01.093-.013.115-.023.224-.046.425-.168 1.82.272-1.807.058-.424.031-.223.015-.114c.007-.018 0-.034.014-.031l.95.013 2.145.008 2.146-.017 1.871-.033 1.827-.055-1.826-.047-1.872-.024M33.334 14.475l-.645.024-.022.363-.026.846c-.008.27-.004.524-.005.74.005.433.019.722.019.722s.04-.287.085-.718l.062-.736c.023-.27.035-.558.052-.846l.004-.138v-.056l.482-.033.736-.07c.431-.046.718-.088.718-.088s-.29-.013-.722-.016l-.74.01M36.495 13.098l-.758-.037-.757-.012h-.45l.018.345c.03.386.061.643.061.643s.024-.258.044-.645c0-.088.008-.212.008-.212l.03.005.093.007.191.014.758.037.757.012.661-.007c.388-.013.646-.032.646-.032s-.257-.035-.642-.073l-.66-.05M39.124 14.685l.276.007.27-.016.237-.033c.138-.027.23-.056.23-.056s-.093-.026-.231-.048l-.238-.025-.275-.008-.272.017-.236.032c-.138.028-.23.057-.23.057s.092.025.231.048l.238.025ZM44.989 19.299l-1.61-.013-1.608.012-1.405.03c-.821.024-1.369.052-1.369.052s.548.027 1.37.052l1.404.028 1.608.013 1.61-.013 1.403-.028c.822-.025 1.37-.052 1.37-.052s-.551-.028-1.37-.053l-1.403-.029ZM32.07 29.05l-.254-.153-.115-.07-.058-.034-.03-.017-.014-.01v.016l-.015.276-.033.581-.042 1.14c-.014.364-.014.705-.019.996l.006.973.099-.964.075-.992.07-1.14.02-.576c0-.01 0-.017.01-.009l.224.13.871.481.863.448-.81-.54-.844-.53M39.732 33.725l.439.263.45.241.402.195c.239.107.404.169.404.169s-.138-.11-.353-.26l-.373-.245-.439-.262-.45-.241-.402-.195a8.121 8.121 0 0 0-.404-.169s.138.109.352.26l.374.244ZM34.163 37.73l-.07 2.19c-.024.8-.039 1.652-.059 2.508-.02.857-.023 1.71-.034 2.511-.011.802-.008 1.55-.012 2.19 0 1.282.013 2.135.013 2.135s.044-.854.093-2.135l.069-2.189c.025-.8.038-1.653.058-2.51.02-.856.024-1.709.035-2.51.01-.802.008-1.549.011-2.19 0-1.282-.013-2.135-.013-2.135s-.043.854-.091 2.135ZM62.317 7.718l-.387-2.215s.09.813.244 2.235l.696 5.887 1.062 8.31c.413 3.038.856 6.277 1.298 9.516l1.395 9.504c.472 3.03.912 5.853 1.288 8.28.4 2.419.734 4.435.964 5.847l.387 2.215-.243-2.236-.695-5.886-1.062-8.311-1.295-9.514-1.396-9.504-1.289-8.278-.964-5.848"/></svg>