<svg xmlns="http://www.w3.org/2000/svg" width="51" height="76" fill="none"><mask id="a" fill="#fff"><path d="M50.495 2.084A1.516 1.516 0 0 0 48.978.568H1.688A1.517 1.517 0 0 0 .17 2.084c0 11.845 5.95 18.753 10.943 22.463a32.567 32.567 0 0 0 9.161 4.732 1.837 1.837 0 0 0-.18 1.507c-2.234.599-4.669 2.085-4.669 5.163 0 3.374 2.84 5.145 5.167 5.863v2.629a2.725 2.725 0 0 0-.872 2.07c.047.72.366 1.395.894 1.887a45.224 45.224 0 0 1-.84 9.83c-.876 3.946-5.603 6.302-12.642 6.302-2.429 0-4.277.784-5.495 2.33C-.62 69.722.397 74.085.442 74.27a1.518 1.518 0 0 0 1.474 1.162H48.75a1.518 1.518 0 0 0 1.475-1.162c.044-.184 1.062-4.547-1.194-7.41-1.218-1.545-3.066-2.33-5.495-2.33-7.04 0-11.768-2.356-12.643-6.302a45.224 45.224 0 0 1-.839-9.83 2.832 2.832 0 0 0 .894-1.887 2.725 2.725 0 0 0-.872-2.07v-2.63c2.327-.72 5.167-2.49 5.167-5.864 0-3.077-2.435-4.563-4.668-5.163a1.838 1.838 0 0 0-.181-1.507 32.569 32.569 0 0 0 9.162-4.732c4.992-3.71 10.942-10.616 10.942-22.462M33.88 35.003a4.064 4.064 0 0 1 .132.86c.01.155-.004.304-.005.462.003.158-.01.316-.038.472l-.09.477c-.037.158-.1.311-.15.467a2.554 2.554 0 0 1-.204.447 2.67 2.67 0 0 1-.247.419c-.178.26-.382.5-.61.717-.115.096-.225.198-.337.29-.113.09-.236.162-.349.24-.214.14-.44.261-.675.362a4.86 4.86 0 0 1-1.08.343c-.139.029-.28.047-.422.057 0 0 .145-.06.38-.18.12-.059.262-.138.422-.226a6.17 6.17 0 0 0 .518-.325 9.75 9.75 0 0 0 .569-.428c.093-.084.193-.165.286-.255.092-.09.182-.19.277-.285.179-.207.34-.427.485-.659.08-.115.147-.237.203-.365.069-.123.124-.252.166-.386.045-.134.103-.262.139-.398.035-.135.059-.276.088-.411.046-.274.07-.557.09-.82.006-.149-.002-.274-.002-.4s-.015-.256-.031-.379a4.452 4.452 0 0 0-.145-.68 3.796 3.796 0 0 0-.456-.962 3.869 3.869 0 0 0-.246-.341l.092.062a2.95 2.95 0 0 1 .96 1.096c.122.231.216.476.28.73M22.018 47.598c-.349-.239-1.51-1.179-.103-2.306a19.172 19.172 0 0 1 2.425-.257c.24-.021.49-.037.741-.043.737-.005 1.473.047 2.201.157.297.043.543.101.715.135.172.034.269.068.269.068s-.403.013-1 .022l-1.019.006h-.492c.242.435.375.923.386 1.421-.006.37-.114.73-.314 1.04a19.196 19.196 0 0 1-3.808-.24m3.316-3.716a20.248 20.248 0 0 0-3.224.227v-2.168l3.223.068v1.873Zm7.127-16.93c-.407.156-.733.262-.954.334l-.338.11s.456-.202 1.237-.579a35.336 35.336 0 0 0 5.128-3.04c.691-.484 1.384-1.046 2.09-1.636.705-.59 1.38-1.257 2.054-1.946a27.108 27.108 0 0 0 1.894-2.22 25.172 25.172 0 0 0 1.628-2.418c.25-.41.466-.836.697-1.248.204-.425.43-.834.606-1.258.186-.42.367-.834.522-1.249l.238-.61a133.24 133.24 0 0 0 .403-1.2l.166-.583c.116-.38.219-.75.298-1.11.184-.716.305-1.383.427-1.974.096-.594.177-1.114.239-1.544.096-.861.159-1.357.159-1.357s0 .497-.013 1.37c-.023.434-.058.964-.105 1.57-.07.602-.134 1.288-.28 2.026-.06.37-.14.754-.233 1.148l-.14.602a388.555 388.555 0 0 1-.356 1.244l-.217.636c-.136.435-.318.86-.494 1.298-.176.439-.391.869-.589 1.312-.223.43-.44.874-.695 1.299a25.386 25.386 0 0 1-1.658 2.51 27.672 27.672 0 0 1-1.972 2.267 26.35 26.35 0 0 1-2.155 1.95 26.921 26.921 0 0 1-4.287 2.817 28.696 28.696 0 0 1-3.299 1.482m2.087-8.777c.14-.323.29-.656.434-.993.145-.337.3-.68.43-1.032.144-.346.289-.69.413-1.036.125-.346.27-.68.379-1.013.117-.331.237-.65.334-.956.096-.306.207-.593.281-.865.075-.272.159-.518.23-.737l.16-.576c.092-.32.153-.504.153-.504s.003.193-.004.527c-.005.167-.007.372-.022.605-.024.233-.052.495-.092.781a9.005 9.005 0 0 1-.16.917c-.063.341-.144.678-.242 1.01-.199.727-.442 1.44-.728 2.136-.142.357-.312.7-.464 1.046-.152.346-.338.668-.505.986a18.79 18.79 0 0 1-1.024 1.674 12.083 12.083 0 0 1-1.182 1.505l.805-1.72.386-.83c.138-.294.274-.604.42-.924M1.688 2.084l2.032-.073c1.294-.032 3.14-.102 5.357-.145 2.215-.043 4.803-.09 7.576-.115l4.272-.033 4.41-.012 4.41.013 4.272.032c2.772.027 5.357.067 7.576.117 2.22.05 4.064.11 5.357.145l2.032.073-2.032.073c-1.294.033-3.14.102-5.357.145-2.195.048-4.753.088-7.493.115a94.388 94.388 0 0 1-.052 2.404c2.172.017 4.198.061 5.958.083 1.947.025 3.57.081 4.706.104l1.785.055-1.785.055c-1.136.023-2.759.079-4.706.105-1.934.024-4.186.075-6.6.087l-28.457.646 29.013.662c-.01.17-.02.338-.032.507 2.214.015 4.283.06 6.075.082 1.947.026 3.57.082 4.706.104l1.785.056-1.785.055c-1.136.022-2.759.078-4.706.104-1.948.026-4.22.076-6.654.086l-1.684.01-26.718.609 28.836.658c-.464 4.763-1.538 9.39-3.875 13.624l-13.332.691 12.537.65a27.068 27.068 0 0 1-3.782 4.73 12.703 12.703 0 0 1-2.986-.295S1.687 23.794 1.687 2.084Zm23.645 28.791h-2.986s-1.849-.545 0-1.35h2.986v1.35Zm-8.39 5.072c0-2.307 1.976-3.281 3.538-3.687a11.068 11.068 0 0 1 1.134-.306c.249-.052.512-.108.786-.145.573-.09 1.15-.148 1.73-.172 1.08-.036 2.162.002 3.238.115.44.043.804.103 1.058.141a4.5 4.5 0 0 1 .399.074h-1.468l-1.5.009-.386.005c.373.44 1.38 1.721 1.38 4.426 0 3.313-1.513 4.417-1.517 4.42a33.654 33.654 0 0 1-3.224-.21s-5.166-.854-5.166-4.67m8.39 38.348-4.368-.013-4.23-.032a617.533 617.533 0 0 1-7.5-.117c-2.193-.049-4.025-.112-5.309-.145l-2.01-.074S.02 66.05 7.13 66.05c7.11 0 12.987-2.37 14.125-7.49.644-3.224.94-6.508.882-9.795.991.15 1.992.226 2.995.227.066 0 .133-.004.2-.004V59.23c0 4.266 3.755 5.7 5.405 7.86 1.05.013 2.036.034 2.915.045 1.237.018 2.268.055 2.989.07l1.133.037-1.133.037c-.724.014-1.752.051-2.989.07-1.237.017-2.68.047-4.226.057l-2.46.013-23.17.58 27.659.695c.025.154.038.31.04.467v4.402l2.435.018c2.744.026 5.308.067 7.5.117 2.196.042 4.025.112 5.309.145l2.012.073c.086-.52.131-1.046.136-1.573.016-.6-.026-1.2-.125-1.793a6.314 6.314 0 0 0-.268-1.058 4.965 4.965 0 0 0-.505-1.079 4.19 4.19 0 0 0-.827-.962 4.264 4.264 0 0 0-1.165-.683 5.4 5.4 0 0 0-1.402-.338 15.215 15.215 0 0 0-1.554-.06c-.27 0-.543-.005-.817-.008l-.842-.043c-.568-.018-1.131-.097-1.705-.156a22.485 22.485 0 0 1-3.42-.736 14.987 14.987 0 0 1-3.213-1.447 9.024 9.024 0 0 1-2.544-2.317 7.61 7.61 0 0 1-1.335-2.928c-.195-.919-.34-1.848-.434-2.782a41.265 41.265 0 0 1-.224-4.188c-.007-.505.009-.902.013-1.172.005-.27.013-.415.013-.415l.122 1.58c.077 1.006.234 2.438.508 4.136.145.85.31 1.76.555 2.71a7.373 7.373 0 0 0 1.318 2.654 8.715 8.715 0 0 0 2.396 2.095c.962.567 1.987 1.02 3.054 1.348 1.077.329 2.178.574 3.293.734a30.23 30.23 0 0 0 3.281.266c.543.004 1.085.04 1.623.11.53.075 1.046.22 1.537.434a4.343 4.343 0 0 1 2.148 1.946c.383.718.613 1.508.675 2.32a9.611 9.611 0 0 1-.007 1.838c-.037.391-.099.78-.184 1.162a8.098 8.098 0 0 1-.097.403l-2.012.074c-1.28.032-3.11.102-5.308.145-2.195.048-4.757.09-7.5.117l-4.23.031-4.369.013"/></mask><path fill="#FAC46D" d="M50.495 2.084A1.516 1.516 0 0 0 48.978.568H1.688A1.517 1.517 0 0 0 .17 2.084c0 11.845 5.95 18.753 10.943 22.463a32.567 32.567 0 0 0 9.161 4.732 1.837 1.837 0 0 0-.18 1.507c-2.234.599-4.669 2.085-4.669 5.163 0 3.374 2.84 5.145 5.167 5.863v2.629a2.725 2.725 0 0 0-.872 2.07c.047.72.366 1.395.894 1.887a45.224 45.224 0 0 1-.84 9.83c-.876 3.946-5.603 6.302-12.642 6.302-2.429 0-4.277.784-5.495 2.33C-.62 69.722.397 74.085.442 74.27a1.518 1.518 0 0 0 1.474 1.162H48.75a1.518 1.518 0 0 0 1.475-1.162c.044-.184 1.062-4.547-1.194-7.41-1.218-1.545-3.066-2.33-5.495-2.33-7.04 0-11.768-2.356-12.643-6.302a45.224 45.224 0 0 1-.839-9.83 2.832 2.832 0 0 0 .894-1.887 2.725 2.725 0 0 0-.872-2.07v-2.63c2.327-.72 5.167-2.49 5.167-5.864 0-3.077-2.435-4.563-4.668-5.163a1.838 1.838 0 0 0-.181-1.507 32.569 32.569 0 0 0 9.162-4.732c4.992-3.71 10.942-10.616 10.942-22.462M33.88 35.003a4.064 4.064 0 0 1 .132.86c.01.155-.004.304-.005.462.003.158-.01.316-.038.472l-.09.477c-.037.158-.1.311-.15.467a2.554 2.554 0 0 1-.204.447 2.67 2.67 0 0 1-.247.419c-.178.26-.382.5-.61.717-.115.096-.225.198-.337.29-.113.09-.236.162-.349.24-.214.14-.44.261-.675.362a4.86 4.86 0 0 1-1.08.343c-.139.029-.28.047-.422.057 0 0 .145-.06.38-.18.12-.059.262-.138.422-.226a6.17 6.17 0 0 0 .518-.325 9.75 9.75 0 0 0 .569-.428c.093-.084.193-.165.286-.255.092-.09.182-.19.277-.285.179-.207.34-.427.485-.659.08-.115.147-.237.203-.365.069-.123.124-.252.166-.386.045-.134.103-.262.139-.398.035-.135.059-.276.088-.411.046-.274.07-.557.09-.82.006-.149-.002-.274-.002-.4s-.015-.256-.031-.379a4.452 4.452 0 0 0-.145-.68 3.796 3.796 0 0 0-.456-.962 3.869 3.869 0 0 0-.246-.341l.092.062a2.95 2.95 0 0 1 .96 1.096c.122.231.216.476.28.73M22.018 47.598c-.349-.239-1.51-1.179-.103-2.306a19.172 19.172 0 0 1 2.425-.257c.24-.021.49-.037.741-.043.737-.005 1.473.047 2.201.157.297.043.543.101.715.135.172.034.269.068.269.068s-.403.013-1 .022l-1.019.006h-.492c.242.435.375.923.386 1.421-.006.37-.114.73-.314 1.04a19.196 19.196 0 0 1-3.808-.24m3.316-3.716a20.248 20.248 0 0 0-3.224.227v-2.168l3.223.068v1.873Zm7.127-16.93c-.407.156-.733.262-.954.334l-.338.11s.456-.202 1.237-.579a35.336 35.336 0 0 0 5.128-3.04c.691-.484 1.384-1.046 2.09-1.636.705-.59 1.38-1.257 2.054-1.946a27.108 27.108 0 0 0 1.894-2.22 25.172 25.172 0 0 0 1.628-2.418c.25-.41.466-.836.697-1.248.204-.425.43-.834.606-1.258.186-.42.367-.834.522-1.249l.238-.61a133.24 133.24 0 0 0 .403-1.2l.166-.583c.116-.38.219-.75.298-1.11.184-.716.305-1.383.427-1.974.096-.594.177-1.114.239-1.544.096-.861.159-1.357.159-1.357s0 .497-.013 1.37c-.023.434-.058.964-.105 1.57-.07.602-.134 1.288-.28 2.026-.06.37-.14.754-.233 1.148l-.14.602a388.555 388.555 0 0 1-.356 1.244l-.217.636c-.136.435-.318.86-.494 1.298-.176.439-.391.869-.589 1.312-.223.43-.44.874-.695 1.299a25.386 25.386 0 0 1-1.658 2.51 27.672 27.672 0 0 1-1.972 2.267 26.35 26.35 0 0 1-2.155 1.95 26.921 26.921 0 0 1-4.287 2.817 28.696 28.696 0 0 1-3.299 1.482m2.087-8.777c.14-.323.29-.656.434-.993.145-.337.3-.68.43-1.032.144-.346.289-.69.413-1.036.125-.346.27-.68.379-1.013.117-.331.237-.65.334-.956.096-.306.207-.593.281-.865.075-.272.159-.518.23-.737l.16-.576c.092-.32.153-.504.153-.504s.003.193-.004.527c-.005.167-.007.372-.022.605-.024.233-.052.495-.092.781a9.005 9.005 0 0 1-.16.917c-.063.341-.144.678-.242 1.01-.199.727-.442 1.44-.728 2.136-.142.357-.312.7-.464 1.046-.152.346-.338.668-.505.986a18.79 18.79 0 0 1-1.024 1.674 12.083 12.083 0 0 1-1.182 1.505l.805-1.72.386-.83c.138-.294.274-.604.42-.924M1.688 2.084l2.032-.073c1.294-.032 3.14-.102 5.357-.145 2.215-.043 4.803-.09 7.576-.115l4.272-.033 4.41-.012 4.41.013 4.272.032c2.772.027 5.357.067 7.576.117 2.22.05 4.064.11 5.357.145l2.032.073-2.032.073c-1.294.033-3.14.102-5.357.145-2.195.048-4.753.088-7.493.115a94.388 94.388 0 0 1-.052 2.404c2.172.017 4.198.061 5.958.083 1.947.025 3.57.081 4.706.104l1.785.055-1.785.055c-1.136.023-2.759.079-4.706.105-1.934.024-4.186.075-6.6.087l-28.457.646 29.013.662c-.01.17-.02.338-.032.507 2.214.015 4.283.06 6.075.082 1.947.026 3.57.082 4.706.104l1.785.056-1.785.055c-1.136.022-2.759.078-4.706.104-1.948.026-4.22.076-6.654.086l-1.684.01-26.718.609 28.836.658c-.464 4.763-1.538 9.39-3.875 13.624l-13.332.691 12.537.65a27.068 27.068 0 0 1-3.782 4.73 12.703 12.703 0 0 1-2.986-.295S1.687 23.794 1.687 2.084Zm23.645 28.791h-2.986s-1.849-.545 0-1.35h2.986v1.35Zm-8.39 5.072c0-2.307 1.976-3.281 3.538-3.687a11.068 11.068 0 0 1 1.134-.306c.249-.052.512-.108.786-.145.573-.09 1.15-.148 1.73-.172 1.08-.036 2.162.002 3.238.115.44.043.804.103 1.058.141a4.5 4.5 0 0 1 .399.074h-1.468l-1.5.009-.386.005c.373.44 1.38 1.721 1.38 4.426 0 3.313-1.513 4.417-1.517 4.42a33.654 33.654 0 0 1-3.224-.21s-5.166-.854-5.166-4.67m8.39 38.348-4.368-.013-4.23-.032a617.533 617.533 0 0 1-7.5-.117c-2.193-.049-4.025-.112-5.309-.145l-2.01-.074S.02 66.05 7.13 66.05c7.11 0 12.987-2.37 14.125-7.49.644-3.224.94-6.508.882-9.795.991.15 1.992.226 2.995.227.066 0 .133-.004.2-.004V59.23c0 4.266 3.755 5.7 5.405 7.86 1.05.013 2.036.034 2.915.045 1.237.018 2.268.055 2.989.07l1.133.037-1.133.037c-.724.014-1.752.051-2.989.07-1.237.017-2.68.047-4.226.057l-2.46.013-23.17.58 27.659.695c.025.154.038.31.04.467v4.402l2.435.018c2.744.026 5.308.067 7.5.117 2.196.042 4.025.112 5.309.145l2.012.073c.086-.52.131-1.046.136-1.573.016-.6-.026-1.2-.125-1.793a6.314 6.314 0 0 0-.268-1.058 4.965 4.965 0 0 0-.505-1.079 4.19 4.19 0 0 0-.827-.962 4.264 4.264 0 0 0-1.165-.683 5.4 5.4 0 0 0-1.402-.338 15.215 15.215 0 0 0-1.554-.06c-.27 0-.543-.005-.817-.008l-.842-.043c-.568-.018-1.131-.097-1.705-.156a22.485 22.485 0 0 1-3.42-.736 14.987 14.987 0 0 1-3.213-1.447 9.024 9.024 0 0 1-2.544-2.317 7.61 7.61 0 0 1-1.335-2.928c-.195-.919-.34-1.848-.434-2.782a41.265 41.265 0 0 1-.224-4.188c-.007-.505.009-.902.013-1.172.005-.27.013-.415.013-.415l.122 1.58c.077 1.006.234 2.438.508 4.136.145.85.31 1.76.555 2.71a7.373 7.373 0 0 0 1.318 2.654 8.715 8.715 0 0 0 2.396 2.095c.962.567 1.987 1.02 3.054 1.348 1.077.329 2.178.574 3.293.734a30.23 30.23 0 0 0 3.281.266c.543.004 1.085.04 1.623.11.53.075 1.046.22 1.537.434a4.343 4.343 0 0 1 2.148 1.946c.383.718.613 1.508.675 2.32a9.611 9.611 0 0 1-.007 1.838c-.037.391-.099.78-.184 1.162a8.098 8.098 0 0 1-.097.403l-2.012.074c-1.28.032-3.11.102-5.308.145-2.195.048-4.757.09-7.5.117l-4.23.031-4.369.013"/><path fill="#89662D" d="M1.687.568v-.5.5ZM.17 2.084h-.5.5Zm10.943 22.463-.299.401.002.001.296-.402Zm9.161 4.732.428.26.326-.538-.598-.197-.156.475Zm-.18 1.507.129.482.504-.135-.157-.498-.477.15Zm.498 11.026h.5v-.369l-.352-.109-.148.478Zm0 2.629.34.366.16-.148v-.218h-.5Zm-.872 2.07-.5.013v.01l.001.009.5-.032Zm.894 1.887.5-.012-.006-.21-.153-.144-.341.366Zm-.84 9.83.489.109.002-.012-.49-.097ZM1.638 66.86l.393.31-.393-.31ZM.442 74.27l-.487.117.487-.117Zm1.474 1.162v.5-.5Zm46.833 0v.5-.5Zm1.475-1.162.486.118v-.002l-.486-.116Zm-1.194-7.41.392-.31-.392.31Zm-18.138-8.632-.49.097.002.011.488-.108Zm-.839-9.83-.34-.366-.155.144-.005.21.5.012Zm.894-1.887.499.032v-.02l-.5-.012Zm-.872-2.07h-.5v.218l.16.148.34-.367Zm0-2.63-.148-.478-.352.108v.37h.5Zm.499-11.027-.477-.15-.157.497.504.136.13-.483Zm-.181-1.507-.156-.475-.598.197.326.537.428-.259Zm9.162-4.732.297.403.001-.001-.298-.402Zm-5.543 11.317-.5.028.001.005.499-.033Zm-.005.463-.5-.004v.015l.5-.01Zm-.038.472.492.094v-.005l-.492-.089Zm-.09.477.487.115.003-.011.002-.012-.492-.092Zm-.15.467.473.164.003-.01-.476-.154Zm-.204.447-.433-.251-.01.018-.01.02.453.213Zm-.247.419-.406-.293-.008.011.414.282Zm-.61.717.322.383.012-.01.011-.011-.344-.362Zm-.686.53.274.42.011-.008-.285-.411Zm-.675.362-.197-.46-.01.004.207.456Zm-1.08.343-.094-.49h-.003l.098.49Zm-.422.057-.192-.462.226.96-.034-.498Zm.38-.18-.22-.449-.005.003.226.446Zm1.509-.979.314.39.011-.01.01-.01-.335-.37Zm.564-.54.354.353.013-.013.011-.013-.379-.327Zm.484-.659-.411-.284-.007.01-.006.01.424.264Zm.203-.365-.436-.244-.012.022-.01.022.458.2Zm.166-.386-.474-.16-.004.012.478.148Zm.227-.81.489.107.003-.012.002-.013-.494-.081Zm.09-.82.5.04V35.896l-.5-.019Zm-.033-.778-.496.066.496-.066Zm-.145-.68.48-.142-.002-.007-.478.15Zm-.456-.962-.419.273.001.002.418-.276Zm-.246-.341.278-.416-.66.738.382-.322Zm.092.062-.278.415.004.003.274-.418Zm.252.193-.333.373.007.006.326-.38Zm.708.902-.446.227.003.005.443-.232Zm-11.685 11.02-.084-.494-.128.022-.101.081.313.39Zm2.425-.258.02.5h.012l.012-.002-.044-.498Zm.741-.043-.003-.5h-.01l.013.5Zm2.201.157-.074.494h.002l.072-.494Zm.984.203.016.5.151-.971-.167.471Zm-1 .022.002.5h.006l-.008-.5Zm-1.019.006v.5h.003l-.003-.5Zm-.492 0v-.5h-.85l.413.743.437-.243Zm.386 1.421.5.007v-.019l-.5.012Zm-.314 1.04.018.5.262-.01.14-.22-.42-.27Zm-.493-3.956-.004.5.505.004v-.504h-.5Zm-3.223.227h-.5v.581l.575-.087-.075-.494Zm0-2.168.01-.5-.51-.01v.51h.5Zm3.223.068h.5v-.49l-.489-.01-.01.5Zm6.174-14.723-.155-.475.155.475Zm-.338.11-.203-.457.358.933-.155-.475Zm1.237-.579.217.45-.217-.45Zm3.14-1.722-.26-.428-.002.002.262.426Zm6.132-4.9.358.35.005-.005-.363-.345Zm1.894-2.22.397.304h.001l-.398-.303Zm1.628-2.418-.428-.259-.003.005.43.254Zm.697-1.248.436.245.008-.014.008-.015-.452-.216Zm.606-1.258-.457-.203-.005.012.462.19Zm.522-1.249-.466-.181-.003.006.469.175Zm.238-.61.467.18.004-.01.003-.01-.474-.16Zm.403-1.2.474.158.004-.01.003-.01-.481-.138Zm.166-.583-.478-.145-.003.009.481.136Zm.298-1.11-.484-.124-.002.008-.002.008.488.109Zm.427-1.974.49.101.002-.01.001-.01-.493-.081Zm.239-1.544.495.07v-.007l.002-.007-.497-.056Zm.159-1.357h.5l-.996-.062.496.062Zm-.013 1.37.5.026v-.02l-.5-.007Zm-.105 1.57.497.057v-.01l.002-.009-.499-.039Zm-.28 2.026-.49-.098-.002.01-.002.01.494.078Zm-.233 1.148-.487-.116v.004l.487.112Zm-.14.602.48.137.004-.012.003-.012-.487-.113Zm-.356 1.244.473.16.004-.01.003-.01-.48-.14Zm-.217.636-.474-.157-.003.008.477.15Zm-1.083 2.61.444.23.007-.013.006-.013-.457-.204Zm-.695 1.299-.429-.258-.004.008.433.25Zm-1.658 2.51.394.306.006-.007-.4-.3Zm-1.972 2.267.355.352.004-.004-.359-.348Zm-2.155 1.95.313.389.001-.001-.314-.389Zm-4.287 2.817.233.442-.233-.442Zm-.349-9.32-.46-.193-.005.01-.004.01.47.173Zm.793-2.05-.472-.167-.004.013.476.155Zm.845-2.557.476.156.003-.011.003-.011-.482-.134Zm.16-.576-.48-.139-.002.006.482.133Zm.153-.504.5-.008-.975-.148.475.156Zm-.004.527.5.015v-.005l-.5-.01Zm-.022.605.497.052.001-.01v-.009l-.498-.033Zm-.092.781-.495-.068v.008l.495.06Zm-.16.917-.488-.111-.002.01-.002.01.492.091Zm-.242 1.01-.48-.14-.002.008.482.133Zm-.728 2.136-.463-.19-.002.006.465.184Zm-.97 2.032.44.239.003-.006-.442-.233Zm-1.023 1.674-.412-.283-.005.006.417.277Zm-1.182 1.505-.453-.211.82.55-.367-.339Zm.805-1.72.453.212v-.002l-.453-.21ZM1.687 2.084l-.018-.5-.482.018v.482h.5Zm2.032-.073-.012-.5h-.006l.018.5Zm12.933-.26-.004-.5h-.001l.005.5Zm4.272-.033-.002-.5h-.002l.004.5Zm4.41-.012.001-.5h-.002l.001.5Zm4.41.013.004-.5h-.002l-.002.5Zm4.272.032.005-.5-.005.5Zm12.933.262.018-.5h-.005l-.014.5Zm2.032.073.018.5v-1l-.018.5Zm-2.032.073.012.5h.006l-.018-.5Zm-5.357.145-.01-.5.01.5ZM34.1 2.42l-.005-.5-.49.005-.005.491.5.004Zm-.052 2.404-.5-.017-.017.513.513.004.004-.5Zm5.958.083.006-.5-.006.5Zm4.706.104.015-.5h-.005l-.01.5Zm1.785.055.016.5v-1l-.016.5Zm-1.785.055.01.5h.005l-.015-.5Zm-4.706.105.006.5-.006-.5Zm-6.6.087-.003-.5h-.009l.011.5Zm-28.457.646-.012-.5v1l.012-.5Zm29.013.662.499.03.031-.518-.519-.012-.011.5Zm-.032.507-.5-.035-.036.53.532.005.004-.5Zm6.075.082.006-.5-.006.5Zm4.706.104.015-.5h-.005l-.01.5Zm1.785.056.015.5v-1l-.015.5Zm-1.785.055.01.5h.006l-.016-.5Zm-11.36.19-.003-.5.002.5Zm-1.684.01-.002-.501h-.009l.011.5Zm-26.718.609-.012-.5v1l.012-.5Zm28.836.658.497.048.053-.536-.539-.012-.011.5Zm-3.875 13.624.026.5.278-.015.134-.244-.438-.241Zm-13.332.691-.026-.499v.999l.026-.5Zm12.537.65.423.267.455-.721-.852-.045-.026.5Zm-3.782 4.73.01.5.201-.005.142-.141-.353-.354Zm-2.986-.295.107-.488h-.001l-.106.488Zm2.986 2.584v.5h.5v-.5h-.5Zm-2.986 0-.141.48.069.02h.072v-.5Zm0-1.35v-.5h-.104l-.096.04.2.46Zm2.986 0h.5v-.5h-.5v.5ZM20.48 32.26l.126.484.017-.005.016-.005-.159-.474Zm.438-.135.133.482-.133-.482Zm1.482-.316.067.495.01-.002-.077-.493Zm1.73-.172-.017-.5h-.004l.02.5Zm3.238.115-.052.497h.003l.049-.497Zm1.457.215v.5l.123-.984-.123.484Zm-1.468 0v-.5h-.003l.003.5Zm-1.5.009-.002-.5h-.004l.007.5Zm-.386.005-.006-.5-1.062.013.687.81.381-.323Zm-.137 8.846-.005.5.17.002.135-.102-.3-.4Zm-3.224-.21-.081.493.013.002.014.001.054-.497Zm-1.144 33.665-.004.5h.003l.001-.5Zm-4.23-.032-.005.5.005-.5Zm-12.809-.262-.018.5h.006l.012-.5Zm-2.01-.074-.487.117.089.369.379.014.018-.5ZM21.255 58.56l.488.109.002-.01-.49-.099Zm.882-9.795.074-.494-.585-.089.01.592.5-.009Zm2.995.227-.001.5v-.5Zm.2-.004h.5v-.508l-.507.008.007.5Zm5.405 18.103-.398.303.148.194.243.003.006-.5Zm2.915.045.007-.5-.007.5Zm2.989.07.016-.5h-.005l-.011.5Zm1.133.037.017.5v-1l-.017.5Zm-1.133.037.01.5h.006l-.016-.5Zm-7.215.127.003.5-.003-.5Zm-2.46.013-.003-.5h-.01l.012.5Zm-23.17.58-.013-.5v1l.013-.5Zm27.659.695.494-.08-.067-.41-.415-.01-.012.5Zm.04.467h.5v-.004l-.5.004Zm0 4.402h-.5v.496l.496.004.004-.5Zm2.435.018.005-.5-.005.5Zm7.5.117-.01.5h.001l.01-.5Zm5.309.145.018-.5h-.006l-.013.5Zm2.012.073-.019.5.44.016.072-.434-.493-.082Zm.136-1.573-.5-.014v.009l.5.005Zm-.125-1.793-.493.08v.003l.493-.083Zm-.268-1.058-.475.156.003.008.472-.164Zm-.505-1.079.424-.264-.424.264Zm-.827-.962.325-.38-.007-.006-.318.386Zm-1.165-.683.182-.466-.182.466Zm-1.402-.338.051-.497h-.006l-.045.497Zm-1.554-.06v.5h.006l-.006-.5Zm-.817-.008-.026.5H42.22l.005-.5Zm-.842-.043.026-.5h-.01l-.016.5Zm-1.705-.156-.066.495.007.001.008.001.051-.497Zm-3.42-.736-.15.477.007.002.143-.479Zm-3.213-1.447-.26.427.002.001.258-.428Zm-2.544-2.317.401-.298-.401.298Zm-1.335-2.928-.489.104v.003l.49-.107Zm-.434-2.782.498-.05V55.9l-.498.051Zm-.224-4.188h.5v-.006l-.5.007Zm.026-1.587.498-.039-.997.01.499.029Zm.63 5.716-.494.08.001.004.493-.084Zm.555 2.71-.484.124v.003l.484-.127Zm1.318 2.654-.394.307.001.003.393-.31Zm2.396 2.095-.255.43.001.001.254-.43Zm3.054 1.348-.147.478h.001l.146-.478Zm3.293.734-.07.495h.002l.068-.496Zm3.281.266-.013.5h.01l.003-.5Zm1.623.11.071-.496h-.007l-.064.495Zm1.537.434-.2.458.007.003.193-.461Zm2.148 1.946.44-.236v-.001l-.44.237Zm.675 2.32-.498.038v.008l.498-.046Zm-.007 1.838-.497-.05v.003l.497.047Zm-.184 1.162-.488-.109v.002l.488.107Zm-.097.403.019.5.364-.014.099-.352-.482-.134Zm-2.012.074.013.5h.005l-.018-.5Zm-5.308.145-.01-.5h-.001l.01.5Zm-7.5.117.004.5-.004-.5Zm-4.23.031v.5h.003l-.004-.5Zm20.79-72.197h.5c0-.534-.213-1.047-.592-1.425l-.353.353-.354.354c.191.19.298.449.298.718h.5Zm-.445-1.072.353-.353a2.017 2.017 0 0 0-1.426-.591v1c.27 0 .529.107.72.298l.353-.354ZM48.978.568v-.5H1.688v1h47.291v-.5Zm-47.291 0v-.5C1.152.068.639.28.261.658l.354.354.353.354c.19-.191.45-.298.719-.298v-.5Zm-1.072.444L.26.66c-.378.378-.59.89-.59 1.425h1c0-.27.107-.528.297-.718l-.353-.354ZM.17 2.084h-.5c0 12.043 6.06 19.086 11.144 22.864l.299-.401.298-.402C6.51 20.505.67 13.732.67 2.085h-.5Zm10.943 22.463-.297.402a33.068 33.068 0 0 0 9.302 4.805l.156-.475.156-.475a32.068 32.068 0 0 1-9.02-4.66l-.297.403Zm9.161 4.732-.428-.26a2.337 2.337 0 0 0-.322.934l.497.06.496.06c.023-.19.086-.372.185-.535l-.428-.259Zm-.253.734-.497-.06c-.04.33-.008.666.092.983l.477-.15.477-.151a1.338 1.338 0 0 1-.053-.563l-.496-.06Zm.072.773-.13-.483c-2.305.618-5.038 2.219-5.038 5.646h1c0-2.73 2.136-4.1 4.298-4.68l-.13-.483Zm-4.668 5.163h-.5c0 3.72 3.136 5.605 5.52 6.34l.147-.477.148-.478c-2.27-.7-4.814-2.356-4.814-5.385h-.5Zm5.167 5.863h-.5v2.629h1v-2.629h-.5Zm0 2.629-.34-.367a3.223 3.223 0 0 0-.78 1.113l.46.195.462.194c.122-.292.306-.554.538-.769l-.34-.367Zm-.66.94-.46-.194a3.225 3.225 0 0 0-.252 1.337l.5-.013.5-.014c-.008-.316.05-.63.174-.921l-.461-.194Zm-.212 1.13-.499.032c.055.847.431 1.641 1.052 2.22l.34-.365.342-.366a2.331 2.331 0 0 1-.736-1.554l-.499.033Zm.894 1.887-.5.012c.079 3.261-.2 6.521-.83 9.722l.49.096.491.097c.645-3.272.93-6.605.849-9.94l-.5.013Zm-.84 9.83-.488-.108c-.397 1.79-1.671 3.258-3.745 4.291-2.08 1.037-4.939 1.619-8.409 1.619v1c3.569 0 6.593-.596 8.855-1.724 2.269-1.13 3.796-2.813 4.276-4.97l-.488-.108ZM7.133 64.53v-.5c-2.542 0-4.553.826-5.887 2.52l.392.31.393.309c1.1-1.397 2.787-2.14 5.102-2.14v-.5Zm-5.495 2.33-.392-.31C.019 68.105-.3 70.04-.323 71.562c-.024 1.53.251 2.712.278 2.825l.487-.117.486-.116a11.318 11.318 0 0 1-.252-2.577c.022-1.421.323-3.1 1.354-4.408l-.393-.31ZM.442 74.27l-.486.118c.106.44.357.831.712 1.111l.31-.392.31-.393a1.017 1.017 0 0 1-.36-.56l-.486.116Zm.536.837-.31.392c.356.28.795.433 1.248.433v-1c-.228 0-.45-.077-.629-.218l-.31.393Zm.938.325v.5H48.75v-1H1.916v.5Zm46.833 0v.5c.453 0 .893-.152 1.248-.433l-.31-.392-.309-.393c-.179.141-.4.218-.629.218v.5Zm.939-.325.31.392c.355-.28.606-.671.712-1.111l-.486-.118-.486-.117c-.054.222-.18.42-.36.56l.31.394Zm.536-.837.486.117c.027-.113.302-1.295.28-2.825-.024-1.522-.342-3.457-1.568-5.012l-.392.31-.393.309c1.03 1.308 1.331 2.987 1.352 4.408a11.321 11.321 0 0 1-.251 2.577l.486.116Zm-1.194-7.41.392-.31c-1.334-1.692-3.344-2.52-5.887-2.52v1c2.315 0 4.001.743 5.102 2.139l.393-.31Zm-5.495-2.33v-.5c-3.471 0-6.33-.582-8.41-1.619-2.074-1.033-3.348-2.502-3.744-4.291l-.489.108-.488.108c.478 2.157 2.006 3.84 4.274 4.97 2.263 1.128 5.288 1.724 8.857 1.724v-.5Zm-12.643-6.302.491-.096c-.63-3.201-.909-6.46-.83-9.722l-.5-.012-.5-.012c-.08 3.334.204 6.667.849 9.939l.49-.097Zm-.839-9.83.341.365c.621-.579.997-1.373 1.052-2.22l-.5-.032-.498-.033a2.332 2.332 0 0 1-.736 1.554l.341.366Zm.894-1.887.5.013a3.227 3.227 0 0 0-.252-1.337l-.461.195-.46.194c.122.291.181.605.173.922l.5.013Zm-.213-1.13.46-.194a3.226 3.226 0 0 0-.78-1.113l-.339.367-.34.366c.232.215.416.477.538.769l.461-.194Zm-.659-.94h.5v-2.63h-1v2.63h.5Zm0-2.63.148.477c2.383-.736 5.519-2.621 5.519-6.341h-1c0 3.029-2.544 4.684-4.815 5.386l.148.477Zm5.167-5.864h.5c0-3.426-2.734-5.026-5.038-5.646l-.13.483-.13.483c2.162.581 4.298 1.952 4.298 4.68h.5Zm-4.668-5.163.477.15c.1-.317.131-.652.092-.983l-.497.06-.496.06c.022.189.005.38-.053.562l.477.15Zm.072-.773.497-.06c-.04-.33-.15-.648-.323-.933l-.427.26-.428.258c.1.163.162.345.185.534l.496-.06Zm-.253-.734.156.475a33.066 33.066 0 0 0 9.303-4.804l-.297-.403-.297-.402a32.067 32.067 0 0 1-9.021 4.66l.156.474Zm9.162-4.732.298.402c5.084-3.778 11.144-10.82 11.144-22.864h-1c0 11.649-5.84 18.42-10.74 22.061l.298.401ZM33.88 35.002l-.483.129c.03.116.056.24.079.374l.493-.084.492-.083a5.196 5.196 0 0 0-.098-.464l-.483.128Zm.089.42-.493.083c.02.115.03.25.037.385l.499-.028.5-.028a4.543 4.543 0 0 0-.05-.496l-.493.083Zm.043.44-.499.033c.009.136-.004.209-.006.426l.5.004.5.005c0-.099.015-.324.004-.5l-.499.032Zm-.005.463-.5.01c.002.126-.007.25-.03.373l.492.09.493.088c.033-.189.049-.38.045-.571l-.5.01Zm-.038.472-.49-.094-.091.48.491.09.492.093.09-.475-.492-.094Zm-.09.477-.486-.116c-.032.136-.073.223-.14.43l.476.153.476.153c.034-.104.118-.324.16-.505l-.486-.115Zm-.15.467-.472-.163a2.063 2.063 0 0 1-.165.359l.433.25.432.252c.099-.17.18-.349.245-.534l-.473-.164Zm-.204.447-.452-.214c-.057.12-.124.233-.201.34l.406.293.405.292a3.16 3.16 0 0 0 .294-.498l-.452-.213Zm-.247.419-.414-.282c-.157.23-.338.444-.54.636l.345.363.344.362c.254-.241.48-.509.678-.798l-.413-.281Zm-.61.717-.32-.384c-.157.131-.208.184-.332.285l.315.388.315.389c.1-.082.27-.233.343-.295l-.32-.383Zm-.337.29-.315-.39c-.095.078-.16.11-.318.22l.284.41.285.412c.068-.048.25-.16.379-.264l-.315-.389Zm-.349.24-.273-.418c-.19.124-.39.23-.599.32l.197.46.197.46c.261-.113.513-.247.751-.403l-.273-.419Zm-.675.362-.206-.456a4.36 4.36 0 0 1-.968.309l.095.49.095.491c.41-.08.81-.206 1.19-.379l-.206-.455Zm-1.08.343-.098-.49c-.118.024-.237.04-.358.048l.034.499.034.499a3.77 3.77 0 0 0 .487-.065l-.098-.49Zm-.422.057c.192.462.193.461.193.461l.003-.001.007-.003.023-.01a5.86 5.86 0 0 0 .381-.181l-.226-.446-.226-.446a7.344 7.344 0 0 1-.348.165l.193.46Zm.38-.18.222.449c.133-.066.287-.152.442-.238l-.242-.437-.242-.438c-.166.092-.294.163-.4.215l.22.449Zm.422-.226.242.437c.178-.098.366-.216.56-.35l-.284-.412-.284-.41a5.69 5.69 0 0 1-.476.297l.242.438Zm.518-.325.285.412c.195-.135.396-.288.598-.45l-.314-.39-.314-.389a9.239 9.239 0 0 1-.539.406l.284.411Zm.569-.428.336.37c.061-.055.201-.173.298-.267l-.349-.358-.348-.359c-.089.086-.149.131-.273.244l.336.37Zm.286-.255.348.358c.088-.086.217-.222.284-.29l-.355-.353-.354-.352c-.123.123-.175.184-.272.278l.349.359Zm.277-.285.38.327c.194-.227.372-.468.53-.722l-.425-.264-.424-.264c-.131.21-.278.41-.44.597l.38.326Zm.485-.659.411.284a2.66 2.66 0 0 0 .25-.45l-.458-.2-.458-.199a1.658 1.658 0 0 1-.156.281l.411.284Zm.203-.365.437.244c.085-.153.154-.315.206-.482l-.477-.148-.478-.148c-.031.1-.073.198-.124.29l.436.244Zm.166-.386.474.159c.018-.055.038-.105.067-.181.026-.07.057-.156.081-.25l-.483-.126-.484-.125a1.5 1.5 0 0 1-.05.149c-.02.055-.053.137-.08.215l.475.159Zm.139-.398.483.126c.039-.146.071-.327.094-.431l-.489-.106-.488-.106c-.036.166-.052.267-.084.392l.484.125Zm.088-.411.494.081c.049-.297.074-.6.095-.862l-.498-.04-.499-.039c-.02.264-.043.527-.085.778l.493.082Zm.09-.82.5.017c.006-.152-.002-.34-.002-.417h-1c0 .174.008.237.003.381l.5.018Zm-.002-.4h.5c0-.16-.019-.318-.036-.445l-.495.066-.496.067c.016.118.027.22.027.312h.5Zm-.031-.379.495-.065a4.95 4.95 0 0 0-.16-.757l-.48.142-.48.142c.06.198.102.4.13.604l.495-.066Zm-.145-.68.477-.149a4.299 4.299 0 0 0-.516-1.09l-.417.276-.418.276c.171.259.305.54.397.836l.477-.149Zm-.456-.962.418-.275a5.242 5.242 0 0 0-.273-.378l-.005-.007-.002-.002h-.001v-.001l-.383.322-.382.322h-.001v-.001l.001.002a4.3 4.3 0 0 1 .21.292l.418-.274Zm-.246-.341-.278.415.092.062.278-.416.279-.415-.093-.062-.278.416Zm.092.062-.274.418c.068.044.133.094.194.148l.332-.373.332-.374a2.64 2.64 0 0 0-.31-.238l-.274.419Zm.252.193-.326.379c.243.209.443.464.588.75l.446-.227.446-.226a3.45 3.45 0 0 0-.828-1.056l-.326.38Zm.708.902-.443.232c.104.198.184.406.239.622l.484-.123.485-.123a3.859 3.859 0 0 0-.322-.84l-.443.232ZM22.018 47.598l.283-.413c-.16-.109-.427-.331-.527-.588a.482.482 0 0 1-.011-.344c.044-.133.163-.329.464-.57l-.312-.39-.313-.39c-.402.321-.665.666-.788 1.033-.125.377-.087.728.028 1.024.216.555.705.922.894 1.051l.282-.413Zm-.103-2.306.084.493c.78-.133 1.57-.217 2.361-.25l-.02-.5-.021-.499c-.834.035-1.666.123-2.488.263l.084.493Zm2.425-.257.044.498c.232-.02.471-.035.71-.041l-.013-.5-.012-.5c-.263.007-.524.023-.774.046l.044.498Zm.741-.043.004.5c.71-.005 1.42.046 2.123.151l.074-.494.074-.495a14.617 14.617 0 0 0-2.278-.162l.003.5Zm2.201.157-.072.495c.281.04.496.093.69.13l.097-.49.096-.49c-.15-.03-.426-.094-.739-.14l-.072.495Zm.715.135-.096.49c.072.015.126.029.16.038l.035.01.006.002h-.003l.167-.472.167-.471h-.002l-.003-.002-.007-.002a.824.824 0 0 0-.09-.028 3.113 3.113 0 0 0-.238-.056l-.096.491Zm.269.068-.016-.5h-.017l-.053.002a82.882 82.882 0 0 1-.922.02l.008.5.008.5c.3-.005.551-.01.728-.015l.206-.005.054-.002H28.281l-.015-.5Zm-1 .022-.003-.5-1.018.006.002.5.003.5 1.018-.006-.002-.5Zm-1.019.006v-.5H25.755v1H26.248v-.5Zm-.492 0-.437.243c.203.364.313.773.323 1.19l.5-.012.5-.011a3.568 3.568 0 0 0-.45-1.654l-.436.244Zm.386 1.421-.5-.007a1.479 1.479 0 0 1-.234.777l.42.27.42.27c.25-.389.387-.84.394-1.303l-.5-.007Zm-.314 1.04-.018-.5a18.696 18.696 0 0 1-3.709-.234l-.08.493-.082.494c1.291.212 2.6.295 3.907.247l-.018-.5Zm-.493-3.956.005-.5c-1.105-.01-2.21.067-3.303.233l.075.494.075.494a19.754 19.754 0 0 1 3.144-.221l.005-.5Zm-3.223.227h.5v-2.168h-1v2.168h.5Zm0-2.168-.01.5 3.223.068.01-.5.011-.5-3.224-.068-.01.5Zm3.223.068h-.5v1.873h1v-1.873h-.5Zm7.128-15.057-.18-.467c-.393.151-.71.254-.93.326l.156.475.154.476c.223-.073.56-.182.979-.343l-.18-.467Zm-.954.334-.156-.475-.338.11.156.476.155.475.338-.11-.155-.476Zm-.338.11.202.458h.001l.001-.001.005-.002.016-.008a21.93 21.93 0 0 0 .31-.14c.214-.1.526-.245.919-.435l-.217-.45-.218-.45a58.077 58.077 0 0 1-1.202.563l-.015.006-.004.002.202.458Zm1.237-.579.218.45a35.827 35.827 0 0 0 3.184-1.747l-.262-.425-.262-.426a34.831 34.831 0 0 1-3.096 1.698l.218.45Zm3.14-1.722.259.428c.647-.392 1.321-.85 2.016-1.336l-.287-.41-.287-.409a35.97 35.97 0 0 1-1.96 1.3l.259.427Zm1.988-1.317.287.409c.71-.497 1.416-1.07 2.123-1.662l-.32-.384-.321-.383c-.704.588-1.383 1.138-2.056 1.61l.287.41Zm2.09-1.637.32.384c.726-.607 1.416-1.29 2.091-1.98l-.357-.35-.357-.35c-.672.687-1.333 1.34-2.018 1.913l.32.383Zm2.054-1.946.362.345a27.65 27.65 0 0 0 1.93-2.26l-.398-.305-.397-.303c-.58.759-1.2 1.486-1.86 2.179l.363.344Zm1.894-2.22.398.303a25.67 25.67 0 0 0 1.66-2.466l-.43-.255-.43-.254a24.654 24.654 0 0 1-1.596 2.37l.398.303Zm1.628-2.418.427.26c.254-.419.49-.877.706-1.263l-.436-.245-.436-.245c-.245.437-.444.83-.689 1.234l.428.26Zm.697-1.248.452.216c.183-.385.436-.847.616-1.284l-.462-.19-.462-.191c-.17.411-.372.767-.595 1.234l.451.215Zm.606-1.258.457.202c.186-.42.372-.845.533-1.276l-.468-.175-.469-.175c-.149.4-.324.8-.51 1.221l.457.203Zm.522-1.249.466.182.239-.612-.467-.18-.466-.181c-.078.203-.156.4-.238.61l.466.181Zm.238-.61.474.16c.07-.205.138-.408.205-.61l-.474-.158-.474-.158-.204.605.474.16Zm.205-.608.474.159.198-.593-.474-.158-.474-.158-.198.592.474.158Zm.198-.592.48.138.167-.584-.481-.137-.481-.136-.166.581.481.138Zm.166-.583.478.146c.118-.387.225-.771.308-1.147l-.488-.108-.488-.109c-.076.342-.175.7-.288 1.073l.478.145Zm.298-1.11.484.125c.188-.732.313-1.422.432-1.998l-.49-.101-.489-.101c-.125.606-.241 1.25-.421 1.951l.484.125Zm.427-1.974.493.08c.097-.595.179-1.12.24-1.554l-.494-.07-.495-.07c-.061.425-.142.942-.238 1.534l.494.08Zm.239-1.544.497.056a130.666 130.666 0 0 1 .157-1.344V3.49l-.495-.064-.496-.062v.001l-.001.005-.002.017-.009.069-.032.266a130.4 130.4 0 0 0-.116 1.005l.497.056Zm.159-1.357h-.5v.09c0 .06 0 .148-.002.264-.001.232-.004.573-.01 1.008l.5.007.5.008a135.57 135.57 0 0 0 .012-1.284V3.428h-.5Zm-.013 1.37-.499-.027c-.023.43-.057.956-.104 1.557l.498.04.499.038c.047-.608.082-1.143.106-1.582l-.5-.027Zm-.105 1.57-.496-.059c-.073.618-.133 1.275-.275 1.987l.49.098.491.097c.152-.762.218-1.477.287-2.066l-.497-.058Zm-.28 2.026-.494-.079c-.056.355-.134.725-.226 1.11l.487.117.486.116c.096-.402.18-.8.24-1.186l-.493-.078Zm-.233 1.148-.488-.112c-.045.198-.091.395-.14.602l.488.112.487.113c.047-.201.095-.405.14-.604l-.487-.111Zm-.14.602-.481-.136-.175.612.481.138.48.137.176-.614-.481-.137Zm-.175.614-.48-.138-.182.629.48.139.48.14c.063-.214.123-.425.183-.633l-.48-.137Zm-.181.63-.474-.16c-.068.202-.146.424-.217.639l.474.157.475.158c.071-.215.142-.416.215-.634l-.473-.16Zm-.217.636-.477-.15c-.128.41-.299.809-.481 1.262l.464.186.464.187c.17-.423.364-.876.508-1.335l-.478-.15Zm-.494 1.298-.464-.186c-.172.428-.37.823-.581 1.293l.456.204.457.205c.185-.415.416-.881.596-1.33l-.464-.186Zm-.589 1.312-.444-.23c-.23.445-.435.864-.68 1.271l.429.258.428.258c.267-.443.495-.911.711-1.327l-.444-.23Zm-.695 1.299-.433-.25a24.883 24.883 0 0 1-1.625 2.46l.4.3.4.3a25.865 25.865 0 0 0 1.69-2.56l-.432-.25Zm-1.658 2.51-.395-.308c-.604.777-1.25 1.52-1.936 2.227l.36.348.358.348c.71-.732 1.38-1.503 2.007-2.309l-.394-.307Zm-1.972 2.267-.355-.352a25.821 25.821 0 0 1-2.115 1.912l.315.39.314.388a26.825 26.825 0 0 0 2.196-1.986l-.355-.352Zm-2.155 1.95-.314-.39a26.429 26.429 0 0 1-4.207 2.765l.234.442.233.442a27.432 27.432 0 0 0 4.367-2.87l-.313-.39Zm-4.287 2.817-.233-.443a28.171 28.171 0 0 1-3.242 1.456l.176.469.176.468a29.19 29.19 0 0 0 3.356-1.508l-.233-.442ZM34.55 18.18l.458.2c.14-.319.29-.656.435-.996l-.46-.197-.459-.197c-.143.335-.29.663-.432.989l.458.2Zm.434-.993.46.197c.139-.324.304-.689.439-1.057l-.47-.172-.47-.172c-.122.335-.268.656-.419 1.007l.46.197Zm.43-1.032.46.193c.144-.343.294-.7.424-1.06l-.47-.17-.471-.168c-.12.331-.259.664-.405 1.012l.461.193Zm.413-1.036.47.17c.106-.292.277-.699.384-1.029l-.475-.154-.476-.155c-.11.337-.23.598-.373.999l.47.169Zm.379-1.013.47.167c.113-.317.241-.655.34-.973l-.476-.15-.478-.15c-.092.295-.205.594-.328.938l.472.168Zm.334-.956.477.15c.079-.253.212-.61.286-.882l-.482-.133-.482-.133c-.075.272-.164.488-.277.849l.478.15Zm.281-.865.482.133c.071-.257.15-.49.224-.714l-.476-.156-.474-.156c-.07.213-.159.474-.238.76l.482.133Zm.23-.737.482.134.16-.578-.482-.132-.482-.133-.16.575.482.134Zm.16-.576.48.139a20.154 20.154 0 0 1 .146-.48l.001-.006v-.001l-.474-.156-.475-.156-.001.003a.385.385 0 0 0-.003.007l-.008.027-.033.103-.114.381.48.139Zm.153-.504-.5.007v.13c0 .087 0 .216-.004.38l.5.01.5.01a21.325 21.325 0 0 0 .004-.534v-.01l-.5.007Zm-.004.527-.5-.016c-.006.182-.007.366-.021.588l.499.033.499.033c.016-.244.018-.47.023-.623l-.5-.015Zm-.022.605-.498-.051c-.024.232-.05.487-.089.764l.495.068.496.069c.04-.296.069-.566.093-.798l-.497-.052Zm-.092.781-.496-.06c-.035.29-.086.58-.152.866l.488.111.487.112c.073-.32.13-.643.17-.968l-.497-.06Zm-.16.917-.492-.09c-.06.323-.136.644-.23.96l.48.14.48.142c.103-.35.188-.703.254-1.061l-.492-.09Zm-.242 1.01-.482-.132c-.194.707-.43 1.4-.709 2.078l.463.19.462.19a19.01 19.01 0 0 0 .749-2.193l-.483-.132Zm-.728 2.136-.465-.184c-.138.349-.29.651-.457 1.029l.458.201.457.201c.138-.313.327-.698.472-1.063l-.465-.184Zm-.464 1.046-.458-.201c-.143.324-.311.615-.49.954l.443.233.442.233c.156-.296.359-.65.52-1.018l-.457-.2Zm-.505.986-.44-.238c-.304.56-.636 1.104-.996 1.63l.412.282.412.283c.38-.554.731-1.128 1.051-1.718l-.44-.239Zm-1.024 1.674-.416-.277c-.34.51-.718.993-1.133 1.444l.367.338.368.34c.45-.49.862-1.014 1.23-1.569l-.416-.276Zm-1.182 1.505.453.212.805-1.72-.453-.212-.453-.212-.805 1.72.453.212Zm.805-1.72.454.21c.119-.257.247-.534.385-.827l-.453-.212-.453-.213-.387.832.454.21Zm.386-.83.453.213c.139-.296.28-.619.422-.93l-.454-.207-.455-.207c-.151.33-.281.627-.419.92l.453.212ZM1.687 2.085l.018.5 2.033-.073-.018-.5-.019-.5-2.032.074.018.5Zm2.032-.073.013.5c1.304-.033 3.137-.102 5.353-.145l-.01-.5-.009-.5c-2.215.043-4.077.113-5.359.145l.013.5Zm5.357-.145.01.5c2.215-.043 4.8-.09 7.57-.115l-.004-.5-.005-.5a751.99 751.99 0 0 0-7.581.115l.01.5Zm7.576-.115.003.5 4.272-.033-.003-.5-.004-.5-4.272.033.004.5Zm4.272-.033.001.5 4.41-.012-.001-.5-.001-.5-4.41.012v.5Zm4.41-.012-.001.5 4.41.013.001-.5.002-.5c-1.455-.005-2.933-.01-4.41-.013l-.002.5Zm4.41.013-.003.5 4.272.032.003-.5.004-.5-4.272-.032-.004.5Zm4.272.032-.005.5c2.77.027 5.353.067 7.57.117l.011-.5.011-.5c-2.222-.05-4.809-.09-7.582-.117l-.005.5Zm7.576.117-.01.5c2.218.05 4.056.11 5.353.144l.014-.5.013-.5c-1.288-.033-3.138-.094-5.359-.144l-.01.5Zm5.357.145-.019.5 2.033.073.018-.5.018-.5-2.032-.073-.018.5Zm2.032.073-.018-.5-2.033.074.019.5.018.499 2.032-.073-.018-.5Zm-2.032.073-.013-.5c-1.304.033-3.137.102-5.353.145l.01.5.01.5c2.214-.043 4.075-.113 5.358-.145l-.012-.5Zm-5.357.145-.01-.5c-2.194.048-4.75.088-7.488.115l.005.5.005.5c2.742-.027 5.301-.067 7.5-.115l-.012-.5ZM34.1 2.42l-.5-.004c-.007.8-.024 1.597-.051 2.391l.5.017.499.018c.027-.803.045-1.609.052-2.417l-.5-.005Zm-.052 2.404-.004.5c2.172.017 4.188.061 5.956.083l.006-.5.006-.5c-1.752-.022-3.789-.066-5.96-.083l-.004.5Zm5.958.083-.007.5c1.947.025 3.556.08 4.703.104l.01-.5.01-.5c-1.124-.023-2.762-.078-4.71-.104l-.006.5Zm4.706.104-.015.5 1.785.055.015-.5.016-.5-1.786-.055-.015.5Zm1.785.055-.015-.5-1.785.055.015.5.015.5 1.786-.055-.016-.5Zm-1.785.055-.01-.5c-1.147.024-2.755.079-4.703.105l.007.5.006.5c1.948-.026 3.586-.082 4.71-.105l-.01-.5Zm-4.706.105-.006-.5c-1.942.024-4.184.075-6.597.087l.002.5.003.5c2.415-.012 4.679-.064 6.604-.087l-.006-.5Zm-6.6.087-.012-.5-28.457.646.012.5.01.5 28.458-.646-.011-.5Zm-28.457.646-.012.5 29.014.662.01-.5.012-.5L4.96 5.458l-.011.5Zm29.013.662-.5-.03-.031.502.498.035.5.034.032-.511-.5-.03Zm-.032.507-.004.5c2.215.015 4.272.06 6.073.082l.006-.5.006-.5c-1.784-.021-3.863-.067-6.078-.082l-.004.5Zm6.075.082-.007.5c1.95.026 3.554.082 4.703.104l.01-.5.01-.5c-1.122-.022-2.764-.078-4.71-.104l-.006.5Zm4.706.104-.016.5 1.786.056.015-.5.016-.5-1.786-.055-.015.5Zm1.785.056-.014-.5h-.031c-.02.002-.05.002-.089.004a911.393 911.393 0 0 0-1.667.051l.016.5.016.5a1531.71 1531.71 0 0 1 1.665-.052l.09-.003H46.51l-.015-.5Zm-1.785.055-.01-.5c-1.149.022-2.754.079-4.703.104l.007.5.006.5c1.946-.026 3.588-.082 4.71-.104l-.01-.5Zm-4.706.104-.007-.5c-1.953.026-4.218.076-6.65.086l.002.5.003.5c2.436-.01 4.717-.06 6.658-.086l-.006-.5Zm-6.654.086-.003-.5-1.683.01.002.5.003.5 1.683-.01-.002-.5Zm-1.684.01-.011-.5-26.719.609.012.5.011.5 26.719-.61-.012-.5Zm-26.718.609-.012.5 28.836.658.012-.5.011-.5L4.96 7.733l-.011.5Zm28.836.658-.498-.049c-.46 4.722-1.522 9.277-3.814 13.431l.437.242.438.241c2.38-4.312 3.466-9.012 3.934-13.817l-.497-.048Zm-3.875 13.624-.025-.5-13.333.692.026.5.026.499 13.332-.692-.026-.5Zm-13.332.691-.026.5 12.537.65.026-.5.026-.499-12.537-.65-.026.5Zm12.537.65-.423-.266a26.566 26.566 0 0 1-3.712 4.642l.353.354.353.354a27.57 27.57 0 0 0 3.852-4.817l-.423-.266Zm-3.782 4.73-.01-.5c-.964.02-1.927-.076-2.869-.283l-.107.488-.108.489c1.02.224 2.061.327 3.104.306l-.01-.5Zm-2.986-.295.106-.488h-.002a.994.994 0 0 1-.01-.003l-.04-.009a17.854 17.854 0 0 1-.802-.215 27.387 27.387 0 0 1-2.297-.792c-1.907-.75-4.448-1.97-6.986-3.856C7.25 19.164 2.187 12.75 2.187 2.084h-1c0 11.044 5.266 17.734 10.531 21.646 2.627 1.952 5.25 3.212 7.217 3.985.984.386 1.805.651 2.382.82a18.858 18.858 0 0 0 .855.23l.048.01.014.004a.09.09 0 0 0 .003 0h.002l.107-.488Zm2.986 2.584v-.5h-2.986v1h2.986v-.5Zm-2.986 0 .142-.48v.001a.433.433 0 0 1-.052-.017 2.109 2.109 0 0 1-.148-.059.978.978 0 0 1-.277-.167c-.02-.02-.003-.012.007.03a.189.189 0 0 1-.01.125c-.004.009.012-.025.102-.09.087-.064.226-.144.436-.235l-.2-.459-.2-.458c-.476.207-.85.45-1.022.776a.814.814 0 0 0-.075.587c.047.184.15.324.246.422.184.19.43.314.59.384a3.085 3.085 0 0 0 .288.11l.021.007.007.002h.003l.142-.479Zm0-1.35v.5h2.986v-1h-2.986v.5Zm2.986 0-.5-.001v1.351h1v-1.35h-.5Zm-8.39 6.422h.5c0-.987.414-1.674 1.006-2.175.609-.514 1.412-.835 2.158-1.028l-.126-.484-.126-.484c-.816.212-1.781.582-2.551 1.233-.786.664-1.36 1.618-1.36 2.938h.5Zm3.538-3.687.16.474c.13-.044.264-.087.411-.127l-.133-.482-.133-.482c-.17.047-.324.096-.464.143l.16.474Zm.438-.135.133.482c.209-.058.43-.116.664-.164l-.101-.49-.102-.49c-.264.055-.509.12-.727.18l.133.482Zm.696-.172.101.49c.254-.053.498-.105.752-.139l-.067-.495-.067-.496c-.295.04-.577.1-.82.15l.1.49Zm.786-.144.078.494a14.65 14.65 0 0 1 1.672-.166l-.02-.5-.021-.5c-.599.026-1.195.085-1.787.178l.078.494Zm1.73-.172.016.5a23.025 23.025 0 0 1 3.17.112l.052-.497.052-.498a24.028 24.028 0 0 0-3.307-.116l.017.5Zm3.238.115-.05.497c.425.042.773.1 1.035.139l.073-.495.074-.495c-.246-.036-.628-.099-1.083-.144l-.05.498Zm1.058.141-.073.495a5.064 5.064 0 0 1 .333.06l.015.004h.002-.001l.123-.485.122-.484h-.001l-.003-.001-.008-.002-.025-.006a6.13 6.13 0 0 0-.41-.075l-.074.494Zm.399.074v-.5h-1.468v1h1.468v-.5Zm-1.468 0-.003-.5-1.5.009.004.5.002.5 1.5-.009-.003-.5Zm-1.5.009-.006-.5-.386.005.006.5.007.5.386-.005-.006-.5Zm-.386.005-.38.323c.317.375 1.26 1.546 1.26 4.103h1c0-2.852-1.07-4.245-1.498-4.75l-.382.324Zm1.38 4.426h-.5c0 1.577-.36 2.598-.695 3.21a3.326 3.326 0 0 1-.452.647 1.819 1.819 0 0 1-.135.134l-.03.025-.005.004.3.4.3.4.008-.006a1.436 1.436 0 0 0 .09-.074 2.81 2.81 0 0 0 .21-.208c.167-.183.38-.458.59-.84.422-.768.82-1.956.82-3.692h-.5Zm-1.517 4.42.005-.5a33.168 33.168 0 0 1-3.174-.208l-.055.497-.054.497c1.62.178 2.788.21 3.273.214l.005-.5Zm-3.224-.21.082-.494h-.001c-.002 0-.005 0-.008-.002-.008 0-.02-.003-.038-.006a8.713 8.713 0 0 1-.704-.172 8.777 8.777 0 0 1-1.679-.671c-1.224-.654-2.318-1.689-2.318-3.325h-1c0 2.18 1.488 3.48 2.847 4.207a9.77 9.77 0 0 0 1.873.75 9.714 9.714 0 0 0 .844.202l.014.003h.006l.082-.493Zm3.224 33.678.002-.5-4.368-.013-.002.5-.002.5 4.369.013.001-.5Zm-4.368-.013.004-.5-4.23-.032-.004.5-.004.5 4.23.032.004-.5Zm-4.23-.032.005-.5a616.225 616.225 0 0 1-7.494-.117l-.012.5-.01.5c2.194.048 4.76.09 7.506.117l.005-.5Zm-7.5-.117.01-.5c-2.192-.049-4.015-.111-5.306-.145l-.013.5-.012.5c1.275.033 3.118.096 5.31.145l.01-.5Zm-5.309-.145.019-.5-2.011-.073-.019.5-.018.499 2.011.074.018-.5Zm-2.01-.074.485-.117a.257.257 0 0 0-.003-.016 10.236 10.236 0 0 1-.17-1.141c-.064-.709-.076-1.638.117-2.555.194-.917.585-1.79 1.304-2.435.712-.639 1.8-1.101 3.48-1.101v-1c-1.873 0-3.216.52-4.148 1.356-.925.83-1.393 1.923-1.614 2.973-.221 1.05-.204 2.086-.135 2.852a11.231 11.231 0 0 0 .19 1.272l.005.02.001.006v.002h.001l.486-.116ZM7.13 66.05v.5c3.603 0 6.932-.6 9.523-1.877 2.6-1.281 4.48-3.261 5.09-6.004l-.488-.109-.488-.108c-.528 2.376-2.156 4.141-4.556 5.324-2.41 1.188-5.574 1.774-9.081 1.774v.5Zm14.125-7.49.49.098c.651-3.259.95-6.579.892-9.902l-.5.01-.5.008c.057 3.251-.235 6.5-.872 9.688l.49.098Zm.882-9.795-.075.494a20.81 20.81 0 0 0 3.069.233v-.5l.002-.5a19.813 19.813 0 0 1-2.922-.221l-.074.494Zm2.995.227v.5c.056 0 .184-.004.207-.005l-.007-.5-.007-.5c-.112.002-.116.005-.193.005v.5Zm.2-.004h-.5V59.23h1V48.987h-.5Zm0 10.243h-.5c0 2.31 1.028 3.853 2.228 5.07.59.6 1.237 1.134 1.81 1.628.583.505 1.091.97 1.469 1.465l.398-.303.397-.303c-.447-.586-1.027-1.11-1.61-1.615-.596-.515-1.198-1.011-1.752-1.574-1.09-1.105-1.94-2.411-1.94-4.368h-.5Zm5.405 7.86-.007.5 1.52.023 1.396.022.006-.5.006-.5-1.391-.022a338.65 338.65 0 0 0-1.524-.023l-.006.5Zm2.915.045-.007.5c1.237.018 2.252.055 2.985.07l.01-.5.012-.5c-.71-.015-1.756-.052-2.993-.07l-.007.5Zm2.989.07-.016.5 1.133.036.016-.5.016-.5-1.133-.035-.016.5Zm1.133.037-.016-.5-1.133.037.016.5.016.5 1.134-.038-.017-.5Zm-1.133.037-.01-.5c-.74.015-1.746.051-2.986.07l.007.5.007.5c1.234-.019 2.284-.056 2.992-.07l-.01-.5Zm-2.989.07-.007-.5c-1.241.017-2.679.047-4.222.057l.003.5.003.5c1.549-.01 2.998-.04 4.23-.058l-.007-.5Zm-4.226.057-.002-.5-2.461.013.002.5.003.5 2.46-.013-.002-.5Zm-2.46.013-.013-.5-23.17.58.013.5.012.5 23.17-.58-.013-.5Zm-23.17.58-.013.5 27.66.694.012-.5.012-.5L3.81 67.5l-.012.5Zm27.659.695-.494.08c.021.13.032.26.034.391l.5-.004.5-.004a3.563 3.563 0 0 0-.046-.544l-.494.08Zm.04.467h-.5v4.402h1V69.16h-.5Zm0 4.402-.004.5 2.436.018.003-.5.004-.5-2.436-.018-.003.5Zm2.435.018-.004.5c2.742.026 5.303.067 7.493.117l.012-.5.01-.5c-2.194-.05-4.76-.09-7.506-.117l-.005.5Zm7.5.117-.009.5c2.195.041 4.012.111 5.305.145l.013-.5.012-.5c-1.273-.033-3.115-.103-5.311-.145l-.01.5Zm5.309.145-.019.5 2.013.073.018-.5.018-.5-2.012-.073-.019.5Zm2.012.073.493.082c.09-.546.138-1.098.143-1.65l-.5-.005-.5-.005a9.736 9.736 0 0 1-.13 1.497l.494.081Zm.136-1.573.5.013a9.857 9.857 0 0 0-.131-1.888l-.494.082-.493.083c.094.56.133 1.128.118 1.696l.5.014Zm-.125-1.793.494-.08a6.81 6.81 0 0 0-.29-1.142l-.472.164-.472.164c.11.317.193.644.247.975l.493-.08Zm-.268-1.058.475-.156a5.466 5.466 0 0 0-.556-1.188l-.424.265-.424.265c.19.304.342.63.454.97l.475-.156Zm-.505-1.079.424-.264a4.689 4.689 0 0 0-.926-1.078l-.325.38-.326.38c.285.243.53.529.73.847l.423-.265Zm-.827-.962.318-.386a4.762 4.762 0 0 0-1.301-.763l-.182.466-.181.466c.372.145.72.348 1.028.603l.318-.386Zm-1.165-.683.181-.466a5.897 5.897 0 0 0-1.532-.369l-.05.497-.052.498c.436.045.864.148 1.272.306l.181-.466Zm-1.402-.338.045-.498a15.67 15.67 0 0 0-1.605-.062l.006.5.006.5c.502-.006 1.003.013 1.503.058l.045-.498Zm-1.554-.06v-.5c-.267 0-.532-.005-.811-.008l-.006.5-.005.5c.27.003.549.008.822.008v-.5Zm-.817-.008.026-.499-.842-.044-.026.5-.026.499.842.044.026-.5Zm-.842-.043.016-.5c-.544-.017-1.072-.092-1.669-.154l-.051.498-.052.497c.55.057 1.149.14 1.74.158l.016-.5Zm-1.705-.156.067-.496a21.98 21.98 0 0 1-3.344-.719l-.143.48-.143.478a22.99 22.99 0 0 0 3.497.752l.066-.495Zm-3.42-.736.15-.477a14.499 14.499 0 0 1-3.105-1.399l-.258.429-.258.428a15.495 15.495 0 0 0 3.32 1.496l.15-.477Zm-3.213-1.447.26-.427a8.523 8.523 0 0 1-2.403-2.188l-.401.298-.4.3c.729.979 1.64 1.809 2.684 2.444l.26-.427Zm-2.544-2.317.4-.298a7.109 7.109 0 0 1-1.246-2.736l-.489.106-.488.107a8.111 8.111 0 0 0 1.422 3.12l.401-.299Zm-1.335-2.928.49-.103a25.483 25.483 0 0 1-.426-2.73l-.498.05-.497.05c.096.953.243 1.9.442 2.837l.49-.104Zm-.434-2.782.497-.053a40.762 40.762 0 0 1-.22-4.136l-.5.002h-.5c.003 1.416.078 2.83.226 4.239l.497-.053Zm-.224-4.188.5-.006c-.006-.496.009-.875.013-1.158l-.5-.008-.5-.008c-.004.258-.02.672-.013 1.187l.5-.006Zm.013-1.172.5.008c.002-.132.005-.232.008-.298l.003-.075v-.021c0-.001 0-.001 0 0l-.498-.029-.5-.028V50.16l-.001.022a10.623 10.623 0 0 0-.012.404l.5.008Zm.013-.415-.499.039v.007l.002.02.006.078.024.308.09 1.167.499-.039.498-.038-.09-1.168-.024-.307-.006-.08-.001-.02v-.006l-.5.039Zm.122 1.58-.499.039c.079 1.02.237 2.465.513 4.176l.494-.08.493-.079a50.826 50.826 0 0 1-.503-4.094l-.498.038Zm.508 4.136-.493.084c.145.852.314 1.78.564 2.75l.484-.124.484-.125a32.244 32.244 0 0 1-.546-2.67l-.493.085Zm.555 2.71-.483.127a7.873 7.873 0 0 0 1.407 2.834l.394-.307.394-.308a6.873 6.873 0 0 1-1.228-2.474l-.484.128Zm1.318 2.654-.393.31a9.214 9.214 0 0 0 2.534 2.215l.255-.43.255-.43a8.217 8.217 0 0 1-2.259-1.975l-.392.31Zm2.396 2.095-.254.431a14.786 14.786 0 0 0 3.161 1.395l.147-.478.147-.478a13.779 13.779 0 0 1-2.947-1.3l-.254.43Zm3.054 1.348-.146.478c1.102.337 2.228.588 3.368.75l.07-.495.071-.495a21.282 21.282 0 0 1-3.216-.717l-.147.479Zm3.293.734-.068.495c1.106.15 2.22.241 3.336.27l.013-.5.013-.499a29.735 29.735 0 0 1-3.227-.262l-.067.496Zm3.281.266-.003.5c.522.003 1.044.039 1.563.105l.063-.496.064-.496a13.9 13.9 0 0 0-1.683-.113l-.004.5Zm1.623.11-.07.494c.485.07.958.203 1.408.398l.199-.458.199-.459a6.482 6.482 0 0 0-1.665-.47l-.07.494Zm1.537.434-.193.461c.812.34 1.483.947 1.9 1.722l.44-.237.44-.237a4.843 4.843 0 0 0-2.394-2.17l-.193.46Zm2.148 1.946-.441.235c.35.657.56 1.38.618 2.123l.498-.038.499-.038a6.382 6.382 0 0 0-.733-2.518l-.441.236Zm.675 2.32-.498.046c.054.58.052 1.163-.006 1.743l.497.05.498.049c.064-.643.066-1.29.007-1.934l-.498.046Zm-.007 1.838-.497-.047a8.95 8.95 0 0 1-.175 1.1l.488.11.487.108c.09-.403.156-.812.195-1.223l-.498-.048Zm-.184 1.162-.489-.107a9.673 9.673 0 0 1-.084.356l-.005.016v.003l.481.135.482.134v-.003l.002-.006.006-.023.022-.083c.018-.072.043-.178.073-.315l-.488-.107Zm-.097.403-.018-.5-2.013.074.019.5.018.5 2.013-.075-.019-.5Zm-2.012.074-.013-.5c-1.291.033-3.106.102-5.305.145l.01.5.01.5c2.197-.043 4.04-.113 5.31-.145l-.012-.5Zm-5.308.145-.011-.5c-2.192.048-4.752.09-7.494.117l.005.5.005.5a627.71 627.71 0 0 0 7.506-.117l-.011-.5Zm-7.5.117-.004-.5-4.23.031.003.5.004.5 4.23-.032-.003-.5Zm-4.23.031-.002-.5-4.368.013.001.5.002.5 4.368-.013-.002-.5Z" mask="url(#a)"/><path fill="#FAC46D" d="M13.364 66.144c.766-.077 1.525-.21 2.271-.4a10.862 10.862 0 0 0 3.051-1.26 8 8 0 0 0 2.702-2.72c.33-.565.599-1.164.802-1.785.188-.596.329-1.206.423-1.823.164-1.078.253-2.165.265-3.254.02-.95 0-1.74-.018-2.294-.019-.553-.033-.868-.033-.868s-.048.312-.117.862c-.07.55-.155 1.331-.265 2.272-.116.934-.25 2.026-.488 3.162-.118.58-.271 1.15-.46 1.711a8.515 8.515 0 0 1-.759 1.631 8.026 8.026 0 0 1-2.412 2.548 12.77 12.77 0 0 1-2.817 1.4c-.88.316-1.637.528-2.171.668l-.842.213.227-.014c.148-.009.366-.022.641-.051M17.725 21.656s-.068-.184-.193-.496c-.125-.313-.3-.756-.52-1.278l-.746-1.777-.42-.994c-.132-.342-.292-.678-.422-1.026-.141-.344-.285-.687-.415-1.029a18.86 18.86 0 0 0-.204-.504c-.07-.166-.125-.333-.186-.496-.128-.325-.251-.64-.357-.942-.105-.303-.23-.584-.316-.851-.085-.268-.181-.51-.264-.727-.07-.218-.138-.41-.194-.568a9.142 9.142 0 0 0-.19-.499s-.02.193-.033.531c-.005.17-.017.377-.011.613.006.237.026.503.056.791.026.313.068.623.126.931.057.345.13.686.221 1.023.084.355.193.714.316 1.074.111.365.258.724.4 1.083a16.859 16.859 0 0 0 2.074 3.688c.276.376.575.736.895 1.076.121.132.249.258.383.377ZM24.896 32.521a.394.394 0 0 1-.053-.073c.02.115.045.229.076.341.049.213.108.515.159.876.05.36.086.783.11 1.236.025.454.034.937.036 1.422 0 .23 0 .5-.004.73-.004.227-.006.467-.017.695-.01.227-.027.444-.04.651a8.943 8.943 0 0 1-.06.584 7.509 7.509 0 0 1-.156.872 2.548 2.548 0 0 1-.104.329 1.49 1.49 0 0 0 .241-.264 3.55 3.55 0 0 0 .443-.827c.16-.412.275-.84.342-1.276.032-.237.075-.482.087-.74.024-.26.024-.489.029-.758-.007-.255-.011-.51-.036-.76-.017-.253-.06-.498-.097-.736a6.154 6.154 0 0 0-.353-1.271 3.972 3.972 0 0 0-.441-.825c-.063-.094-.123-.16-.16-.206"/></svg>