<svg xmlns="http://www.w3.org/2000/svg" width="97" height="96" fill="none"><path fill="#FAC46D" stroke="#89662D" d="M44.025 11.068c.908.281 1.796.621 2.659 1.02 3.5 1.913 4.296 7.153 1.535 10.086h-.001c-.463.492-.965.884-1.581 1.45l-.303.28.215.35c.774 1.265 1.574 2.586 2.384 3.898l18.75 30.363.01.016a3.494 3.494 0 0 1-.596 4.566 3.345 3.345 0 0 1-4.213.158l-.236-.196a6.86 6.86 0 0 1-1.208-1.59l-.007-.011-.007-.011-8.84-14.235-8.83-14.243c-.1-.163-.237-.336-.34-.481l-.45-.63-.39.67-20.674 35.545-.438.752h1.769c7.24 0 14.48-.003 21.72-.009h.02a2 2 0 0 1 1.55.64l.008.008a236.042 236.042 0 0 0 4.693 4.71l.025.025.03.02a.882.882 0 0 1 .302 1.021.932.932 0 0 1-.391.404.93.93 0 0 1-.573.099l-.035-.005h-.037c-11.27-.012-22.54-.016-33.811-.013h-.026l-.025.002a5.87 5.87 0 0 1-2.74-.375 3.281 3.281 0 0 1-1.675-1.824 3.297 3.297 0 0 1 .072-2.478c1.142-2.247 2.451-4.403 3.733-6.613 2.236-3.854 4.474-7.708 6.712-11.56l6.722-11.555c3.336-5.74 6.67-11.48 10-17.22l.01-.016.008-.018c.037-.077.07-.155.096-.236l.118-.353-.303-.215a6.849 6.849 0 0 1-2.555-3.454h.001a6.752 6.752 0 0 1 .636-5.442 6.698 6.698 0 0 1 4.457-3.164l.01-.002.008-.002c.15-.036.298-.081.444-.132h1.588Zm-.42 1.577a5.034 5.034 0 0 0-3.718 1.263 5.058 5.058 0 0 0-1.69 3.552 5.082 5.082 0 0 0 2.974 4.891 5.05 5.05 0 0 0 1.963.447h.009a5.106 5.106 0 0 0 3.443-1.31 5.132 5.132 0 0 0 1.673-3.29v-.001a5.07 5.07 0 0 0-2.724-5.01 5.039 5.039 0 0 0-1.93-.542Z"/><path fill="#FAC46D" stroke="#89662D" d="M36.186 53.13c.11.018.214.058.306.12v.002c.144.102.28.214.407.335l.124.125.008.01c9.772 9.796 19.538 19.597 29.297 29.405v.001c.306.319.514.72.599 1.154h.001a.348.348 0 0 1-.11.344c-.11.11-.282.207-.51.306h-.304c-.41-.331-.766-.59-1.098-.923-9.691-9.709-19.38-19.42-29.064-29.136-.262-.262-.438-.467-.526-.67-.073-.166-.094-.35.03-.617l.003-.005a.781.781 0 0 1 .837-.452Z"/><mask id="a" fill="#fff"><path d="M60.657 68.268c1.209.06 2.423.067 3.623.193.974.17 1.846.71 2.436 1.506.589.797.85 1.79.73 2.775a4.062 4.062 0 0 1-1.2 2.371 4.041 4.041 0 0 1-2.407 1.117 2.949 2.949 0 0 1-2.635-1.017c-1.393-1.526-2.893-2.95-4.361-4.403a1.41 1.41 0 0 1-.497-1.62 1.452 1.452 0 0 1 1.537-.865c.923-.008 1.845 0 2.768 0v-.057"/></mask><path fill="#FAC46D" d="M60.657 68.268c1.209.06 2.423.067 3.623.193.974.17 1.846.71 2.436 1.506.589.797.85 1.79.73 2.775a4.062 4.062 0 0 1-1.2 2.371 4.041 4.041 0 0 1-2.407 1.117 2.949 2.949 0 0 1-2.635-1.017c-1.393-1.526-2.893-2.95-4.361-4.403a1.41 1.41 0 0 1-.497-1.62 1.452 1.452 0 0 1 1.537-.865c.923-.008 1.845 0 2.768 0v-.057"/><path fill="#89662D" d="m64.28 68.46.172-.984-.034-.006-.034-.004-.104.995Zm3.166 4.282.99.135.002-.013-.992-.122Zm-3.607 3.488-.1-.995-.015.002-.015.002.13.991Zm-2.635-1.017.763-.648-.012-.013-.012-.014-.739.675Zm-4.361-4.403.703-.71-.053-.053-.062-.045-.588.808Zm-.497-1.62-.919-.394-.011.027-.01.028.94.339Zm1.537-.865-.142.99.075.01h.076l-.009-1Zm2.768 0v1h1v-1h-1Zm.005-.057-.05.998c1.27.064 2.405.067 3.57.19l.104-.995.104-.995c-1.234-.129-2.529-.14-3.678-.197l-.05.999Zm3.624.193-.172.985a2.854 2.854 0 0 1 1.804 1.116l.804-.595.804-.595a4.854 4.854 0 0 0-3.068-1.896l-.172.985Zm2.436 1.506-.804.595c.436.59.63 1.328.541 2.058l.993.122.992.122a4.875 4.875 0 0 0-.918-3.492l-.804.595Zm.73 2.775-.991-.135a3.062 3.062 0 0 1-.905 1.787l.696.72.695.718a5.062 5.062 0 0 0 1.495-2.955l-.99-.135Zm-1.2 2.371-.696-.719a3.041 3.041 0 0 1-1.81.841l.1.995.099.995a5.04 5.04 0 0 0 3.002-1.393l-.695-.719Zm-2.407 1.117-.13-.991a1.95 1.95 0 0 1-.956-.115l-.36.933-.36.933a3.949 3.949 0 0 0 1.936.232l-.13-.992Zm-1.446-.173.36-.933a1.957 1.957 0 0 1-.786-.559l-.763.648-.762.647c.428.504.975.892 1.59 1.13l.36-.933Zm-1.189-.844.739-.674c-1.416-1.551-2.949-3.006-4.397-4.44l-.703.711-.704.711c1.489 1.474 2.956 2.865 4.327 4.366l.738-.674Zm-4.361-4.403.588-.808a.41.41 0 0 1-.15-.212l-.956.293-.957.293c.153.5.464.935.886 1.243l.589-.809Zm-.518-.727.956-.293a.415.415 0 0 1 .006-.261l-.94-.34-.941-.338a2.415 2.415 0 0 0-.038 1.525l.957-.293Zm.021-.893.92.394a.452.452 0 0 1 .193-.216l-.49-.872-.49-.871c-.47.264-.84.676-1.052 1.17l.92.395Zm.623-.694.49.872a.446.446 0 0 1 .282-.053l.142-.99.142-.99a2.446 2.446 0 0 0-1.547.29l.49.871Zm.914-.171.009 1c.917-.008 1.824 0 2.759 0v-2c-.91 0-1.849-.008-2.776 0l.008 1Zm2.768 0h1v-.057h-2v.057h1Z" mask="url(#a)"/><path fill="#FAC46D" stroke="#89662D" d="M14.491 31.11c2.03-.435 3.757.555 4.05 1.942.294 1.389-.883 2.998-2.913 3.432-2.03.434-3.755-.553-4.05-1.943-.294-1.39.883-2.998 2.913-3.432Zm13.612-6.233c2.027-.433 3.753.554 4.047 1.945.294 1.389-.883 2.998-2.913 3.432-2.03.434-3.755-.553-4.05-1.943-.294-1.39.888-3 2.916-3.434Z"/><path fill="#FAC46D" stroke="#89662D" d="m15.273 17.643 3.155 14.92-.609.13-3.155-14.92.61-.13Zm13.951-4.645 2.82 13.33-.61.13-2.82-13.33.61-.13Z"/><path fill="#FAC46D" stroke="#89662D" d="M27.707 11.838a1.124 1.124 0 0 1 1.44.836l.206.976-14.573 4.674-.253-1.198a1.125 1.125 0 0 1 .659-1.269l.097-.035 12.424-3.984ZM80.276 48.047c.365.034 2.116.178 3.948.612.916.218 1.835.503 2.601.874.758.367 1.31.792 1.597 1.263l.022.039c.916 1.577.528 3.17-.178 4.464-.65 1.19-1.515 2.028-1.739 2.25a.237.237 0 0 1-.37-.204.243.243 0 0 1 .069-.164l-.001-.001a9.23 9.23 0 0 0 1.29-1.563l.015-.024.014-.027c.025-.049.184-.367.22-.763.037-.418-.064-.981-.635-1.359l-.01-.006-.009-.005-.37-.21a8.735 8.735 0 0 0-2.783-.932h.001a32.748 32.748 0 0 0-2.867-.481l-.56-.067v13.635c.09 1.978-1.552 4.167-4.13 4.999h-.004a6.53 6.53 0 0 1-2.044.331h-.005a5.016 5.016 0 0 1-2.426-.595h-.002l-.154-.088a3.44 3.44 0 0 1-1.562-2.056c-.545-2.131 1.15-4.74 4.037-5.674l.007-.002.007-.003a5.638 5.638 0 0 1 4.417.273c.183.104.358.223.522.356l.816.661V48.03l.266.017Z"/></svg>