<svg width="164" height="198" viewBox="0 0 164 198" fill="none" xmlns="http://www.w3.org/2000/svg">
<g clip-path="url(#clip0_6_2565)">
<path d="M66.3 22.22L38.36 9.53L30.17 91.18L80.64 108.28L134 91.18L125.43 9.18L99.85 20.76C99.85 20.76 100.33 1.53 82.85 1.53C65.37 1.53 64.74 18.68 66.3 22.22Z" fill="url(#paint0_radial_6_2565)"/>
<path d="M127.28 18.5L140.9 15.36L143.48 98.82L97.66 105.58L133.96 91.18L127.28 18.5Z" fill="#711621"/>
<path d="M36.85 18.5L22.98 15.36L19.7 98.82L61.5 103.99L30.67 92.5L36.85 18.5Z" fill="#711621"/>
<path d="M100 46.22C100 46.22 99.85 44.89 97.51 39.52C95.89 35.81 94.42 34.23 93.66 33.61C92.9478 32.5138 92.0473 31.5523 91 30.77C92.63 27.61 93.09 18.82 93.11 17.91C93.13 17 91.41 8.62 82.82 8.62C74.23 8.62 72.6 16.87 72.6 20.06C72.6 23.25 74.76 30.92 74.76 30.92C72.31 32.74 70.47 35.21 67.66 40.92C64.85 46.63 63.74 55.06 63.74 55.06L73.37 48.67C73.49 44.55 73.77 43.58 73.91 43.11C74.0397 42.7414 74.2401 42.4017 74.5 42.11C74.6178 41.7052 74.815 41.3279 75.08 41C75.08 41 78.65 37.1 79 36.79C79.35 36.48 79.38 36.59 79.68 36.65C79.98 36.71 80.4 37.38 79.79 38.18C79.18 38.98 77.79 40.39 77.79 40.39C80.54 40.46 80.84 41.09 80.79 41.53C80.7777 41.6466 80.741 41.7594 80.6825 41.861C80.6239 41.9626 80.5447 42.0508 80.45 42.12C80.45 42.12 79.45 47.34 79.14 49.05C78.7313 50.3029 77.992 51.4223 77 52.29L77.15 54C77.47 54.12 81.56 59 81.56 59C82.1164 57.801 82.5584 56.5521 82.88 55.27L84 58.58L85.4 55.86L85.3 49.34H83.12C82.9361 48.4792 82.8956 47.594 83 46.72C83.24 45.78 83.54 45.81 83.54 45.81C84.3031 46.0606 85.091 46.2282 85.89 46.31C86.0089 46.0649 86.2109 45.87 86.46 45.76C86.9219 45.9988 87.4418 46.1028 87.96 46.06C87.7217 45.5873 87.6546 45.0466 87.77 44.53C87.86 44.18 88.38 44.07 88.94 44.6C89.188 44.8678 89.4829 45.0881 89.81 45.25C89.9435 45.1223 90.1042 45.0265 90.28 44.97C90.4581 44.8855 90.6528 44.8417 90.85 44.8417C91.0472 44.8417 91.2419 44.8855 91.42 44.97C91.5912 44.7999 91.8154 44.6933 92.0554 44.6678C92.2954 44.6423 92.5369 44.6996 92.74 44.83C92.9613 44.6938 93.2239 44.6411 93.4806 44.6814C93.7373 44.7218 93.9712 44.8525 94.14 45.05C95.81 45.18 96.05 45.98 96.05 45.98C96.05 45.98 98.05 45.81 98.4 45.86C98.4427 45.8641 98.4839 45.8784 98.52 45.9016C98.5561 45.9248 98.5861 45.9563 98.6077 45.9935C98.6292 46.0306 98.6415 46.0724 98.6437 46.1152C98.6458 46.1581 98.6377 46.2009 98.62 46.24L100 46.22Z" fill="url(#paint1_radial_6_2565)"/>
<path d="M82.88 24.76C82.3224 25.0045 81.8009 25.3241 81.33 25.71C81.3995 26.0032 81.5321 26.2777 81.7186 26.5143C81.9052 26.751 82.1411 26.944 82.41 27.08C82.6997 27.0147 83.0003 27.0147 83.29 27.08C83.29 27.08 84.06 26.93 84.38 25.69L82.88 24.76Z" fill="#FFD17B"/>
<path d="M82.06 15.24H83.6L88.78 19.81C88.78 19.81 88.15 23.88 86.3 25.65C86.3 25.65 84.21 23.55 83.3 23.58C83.2448 23.6464 83.1762 23.7004 83.0986 23.7383C83.0211 23.7762 82.9363 23.7973 82.85 23.8C82.6182 23.7847 82.399 23.6893 82.23 23.53C81.1591 24.116 80.1762 24.8498 79.31 25.71C77.8999 24.0264 77.0443 21.9483 76.86 19.76L82.06 15.24Z" fill="#FFD17B"/>
<path d="M85.62 18.74C85.1714 18.7726 84.7413 18.9321 84.38 19.2C84.463 19.4639 84.628 19.6944 84.851 19.8581C85.074 20.0217 85.3434 20.11 85.62 20.11C85.9106 20.1015 86.1937 20.0155 86.4399 19.8607C86.686 19.706 86.8863 19.4882 87.02 19.23C86.6233 18.911 86.1291 18.738 85.62 18.74Z" fill="white"/>
<path d="M79.42 18.85L78.67 19.23C78.8013 19.4951 79.0035 19.7187 79.2542 19.8758C79.5048 20.0329 79.7942 20.1174 80.09 20.12C80.3574 20.0952 80.6127 19.9971 80.828 19.8365C81.0432 19.676 81.21 19.4592 81.31 19.21C80.9083 18.971 80.4629 18.8146 80 18.75C79.52 18.75 79.42 18.85 79.42 18.85Z" fill="white"/>
<path d="M85.65 18.74C85.09 18.74 84.98 18.92 84.98 18.92C84.98 18.92 84.88 19.74 85.6 19.74C86.32 19.74 86.26 18.89 86.26 18.89L85.65 18.74Z" fill="url(#paint2_radial_6_2565)"/>
<path d="M80.1 18.74C79.55 18.74 79.43 18.92 79.43 18.92C79.43 18.92 79.33 19.74 80.06 19.74C80.79 19.74 80.71 18.89 80.71 18.89L80.1 18.74Z" fill="url(#paint3_radial_6_2565)"/>
<path d="M98.62 22.4L98.11 24.78L124.59 11.27L132.04 90.26L132.25 90.19L124.95 10.53L98.62 22.4Z" fill="url(#paint4_linear_6_2565)"/>
<path d="M65.45 22.39L65.95 24.77L39.47 11.27L32.03 90.26L31.81 90.19L39.11 10.53L65.45 22.39Z" fill="url(#paint5_linear_6_2565)"/>
<path d="M145.55 97.24L142.48 17.37L142.31 13L138 14.06L128.59 16.48L128.09 10.97L127.61 5.78L123 8.11L102 18.62V18.49C101.936 13.4509 99.8735 8.64345 96.2653 5.12527C92.6571 1.60709 87.7991 -0.333649 82.76 -0.269997C77.7209 -0.206345 72.9134 1.85648 69.3953 5.46468C65.8771 9.07288 63.9363 13.9309 64 18.97C64 19.18 64 19.39 64 19.6C64 19.6 64 19.66 64 19.69L40.71 8.11L36 5.78L35.56 11L35.06 16.52L25.65 14.06L21.37 13L21.19 17.42L18.12 97.24L18 100.41L21.14 100.9L78.31 109.67L81.05 110.1L81.84 110.22L82.64 110.1L86.01 109.58L142.53 100.9L145.67 100.41L145.55 97.24ZM82.88 3.31C86.1806 3.31591 89.3965 4.35464 92.077 6.28055C94.7574 8.20646 96.7679 10.923 97.8265 14.0492C98.8851 17.1754 98.9387 20.5545 97.9799 23.7127C97.0211 26.871 95.0979 29.65 92.48 31.66C92.1291 31.323 91.7512 31.0153 91.35 30.74C92.8365 26.7493 93.5722 22.5182 93.52 18.26C93.4045 15.7564 92.3303 13.3932 90.52 11.66C88.6742 9.72265 86.1856 8.52454 83.52 8.29H82.16C79.4931 8.5272 77.0042 9.72897 75.16 11.67C73.3486 13.3983 72.274 15.7589 72.16 18.26C72.107 22.515 72.8427 26.743 74.33 30.73C73.949 30.9966 73.588 31.2907 73.25 31.61C70.6376 29.5981 68.7206 26.8189 67.768 23.6622C66.8153 20.5055 66.8747 17.1298 67.9379 14.0086C69.0011 10.8875 71.0147 8.17741 73.6962 6.25869C76.3778 4.33997 79.5927 3.30886 82.89 3.31H82.88ZM98.79 46.22C98.7912 46.1665 98.7801 46.1134 98.7575 46.0649C98.735 46.0164 98.7016 45.9736 98.66 45.94C98.34 45.66 97.46 45.77 96.53 45.89H96.24C96.0201 45.6203 95.7466 45.3992 95.4367 45.2408C95.1268 45.0824 94.7874 44.9902 94.44 44.97C94.2166 44.7882 93.9492 44.6685 93.6648 44.6229C93.3805 44.5772 93.0891 44.6073 92.82 44.71C92.685 44.6322 92.5353 44.5831 92.3805 44.5659C92.2256 44.5487 92.0688 44.5637 91.92 44.61C91.7745 44.6538 91.6387 44.7251 91.52 44.82C91.1918 44.7375 90.8482 44.7375 90.52 44.82C90.52 44.34 90.68 42.94 90.71 41.05C90.71 41.05 90.79 39.4 90.61 35.96C91.695 35.4579 92.7213 34.8375 93.67 34.11C95.26 36.16 97.51 39.88 99.5 46.19L98.79 46.22ZM99.92 46.38C100.64 46.33 101.2 46.28 101.64 46.23C101.821 46.8027 101.916 47.3993 101.92 48C101.935 48.2435 101.902 48.4875 101.821 48.7177C101.74 48.9479 101.614 49.1595 101.45 49.34L97.78 49C97.78 48.89 97.78 48.79 97.78 48.7C97.7843 48.038 98.0255 47.3995 98.46 46.9C98.5718 46.781 98.6601 46.6419 98.72 46.49L99.92 46.38ZM87.81 45C87.81 44.42 88.02 44.34 88.25 44.34C88.48 44.34 88.69 44.54 88.92 44.76C89.1179 44.9766 89.3555 45.1531 89.62 45.28C89.3734 45.5258 89.1675 45.8094 89.01 46.12L88.15 46.02C87.9457 45.7174 87.8281 45.3647 87.81 45ZM90.19 45.16C90.5271 44.981 90.9159 44.9245 91.29 45C90.5723 45.7599 90.0656 46.694 89.82 47.71C89.7397 48.2306 89.5105 48.7168 89.16 49.11L89 49.2C88.8137 49.2735 88.6063 49.2735 88.42 49.2C88.3494 49.1621 88.2889 49.1078 88.2437 49.0417C88.1984 48.9756 88.1697 48.8995 88.16 48.82C88.16 48.63 88.16 48.5 88.37 48.23C88.5806 47.9234 88.7425 47.5861 88.85 47.23C89.0283 46.4047 89.5056 45.6745 90.19 45.18V45.16ZM90.06 47.77C90.44 46.28 91.41 44.97 91.98 44.84C92.1803 44.7674 92.3997 44.7674 92.6 44.84C91.9792 45.5654 91.5343 46.4244 91.3 47.35L91.22 47.6C90.67 49.33 90.47 49.82 89.6 49.67C89.527 49.6663 89.4555 49.6474 89.3901 49.6147C89.3247 49.582 89.2668 49.5362 89.22 49.48C89.208 49.4375 89.208 49.3925 89.22 49.35C89.37 49.33 89.74 49 90.06 47.79V47.77ZM90.69 49.56C91.0392 48.9872 91.2957 48.3628 91.45 47.71L91.53 47.46C91.7406 46.5231 92.2202 45.6681 92.91 45C93.0801 44.9184 93.2663 44.876 93.455 44.876C93.6437 44.876 93.8299 44.9184 94 45C93.18 45.25 92.89 46.45 92.7 47.2C92.6709 47.3386 92.6342 47.4755 92.59 47.61C92.59 47.73 92.51 47.89 92.46 48.06C92.28 48.77 92 49.84 91.46 49.93C91.3015 49.9608 91.1374 49.9429 90.9892 49.8786C90.8411 49.8143 90.7159 49.7068 90.63 49.57L90.69 49.56ZM92.69 48.12C92.69 47.94 92.78 47.79 92.82 47.67C92.86 47.55 92.89 47.42 92.93 47.25C93.12 46.48 93.43 45.2 94.31 45.2C94.901 45.2279 95.4575 45.4864 95.86 45.92H95.8C95.6741 45.9005 95.5459 45.9005 95.42 45.92C95.2634 45.9539 95.1206 46.034 95.01 46.15C94.5035 46.8304 94.1147 47.5909 93.86 48.4C93.8327 48.6675 93.7285 48.9214 93.5599 49.1308C93.3913 49.3402 93.1655 49.4963 92.91 49.58C92.804 49.6096 92.6922 49.6113 92.5853 49.585C92.4785 49.5587 92.3802 49.5053 92.3 49.43C92.4802 49.0132 92.6241 48.5816 92.73 48.14L92.69 48.12ZM90 24.81L89.48 24.08V20.43L90.3 21.12L90.37 21.05L89.48 20.25L83.6 15V9C88.79 9.39 92.79 14.24 92.79 18.22C92.8396 22.4899 92.0831 26.7307 90.56 30.72L90.45 31.03L90.73 31.18C91.2636 31.5115 91.754 31.9078 92.19 32.36C92.6015 32.767 92.9888 33.1978 93.35 33.65C92.4873 34.318 91.5553 34.8913 90.57 35.36C90.57 35.25 90.57 35.14 90.57 35.03C90.32 31.24 90.07 26.46 90.01 25.13L91.01 26.39L91.1 26.33L90 24.81ZM84.25 22.69C84.2 22.5533 84.1292 22.4251 84.04 22.31C84.04 22.45 84.13 22.58 84.16 22.72C84.2027 22.8492 84.2262 22.984 84.23 23.12C84.2411 23.2466 84.2016 23.3725 84.12 23.47C84.0598 23.5251 83.988 23.5661 83.91 23.59C83.8023 23.544 83.6921 23.504 83.58 23.47C83.6461 23.3595 83.6902 23.2373 83.71 23.11C83.7499 22.9187 83.7499 22.7213 83.71 22.53C83.6604 22.3519 83.5969 22.1781 83.52 22.01C83.5047 21.924 83.5047 21.836 83.52 21.75V19.8V18.69C83.52 18.59 83.52 18.51 83.52 18.42V18.15C83.5513 17.9729 83.5982 17.7989 83.66 17.63C83.6829 17.5492 83.7165 17.4719 83.76 17.4C83.7751 17.3616 83.7991 17.3273 83.83 17.3C83.8522 17.2746 83.8794 17.2542 83.91 17.24C84.0804 17.1907 84.2542 17.154 84.43 17.13C84.75 17.08 85.09 17.04 85.43 17.01L88.68 19.75C88.4536 21.8596 87.6509 23.8662 86.36 25.55C86.1008 25.2375 85.8201 24.9434 85.52 24.67C85.2101 24.3813 84.8755 24.1202 84.52 23.89C84.3643 23.7897 84.2004 23.7027 84.03 23.63C84.1017 23.6182 84.1699 23.5909 84.23 23.55C84.2919 23.4954 84.3399 23.4268 84.37 23.35C84.3788 23.2736 84.3788 23.1964 84.37 23.12C84.3453 22.9676 84.291 22.8215 84.21 22.69H84.25ZM82.08 26.8C81.962 26.7086 81.8576 26.6009 81.77 26.48C81.69 26.35 81.62 26.22 81.55 26.08C81.48 25.94 81.48 25.85 81.45 25.74C81.6614 25.8153 81.8788 25.8722 82.1 25.91C82.3544 25.9536 82.6119 25.977 82.87 25.98C83.1257 25.9753 83.3803 25.9452 83.63 25.89C83.8357 25.8511 84.0368 25.7908 84.23 25.71C84.2072 25.8338 84.1703 25.9546 84.12 26.07C84.0621 26.2061 83.9918 26.3367 83.91 26.46C83.8224 26.5838 83.7181 26.6949 83.6 26.79C83.481 26.8762 83.3494 26.9436 83.21 26.99C83.1002 26.9802 82.9898 26.9802 82.88 26.99C82.742 26.9995 82.6049 27.0195 82.47 27.05C82.3241 26.9945 82.1913 26.9094 82.08 26.8ZM82.87 25.74C82.4 25.74 81.93 25.74 81.44 25.74C81.6146 25.6042 81.7984 25.4805 81.99 25.37C82.2646 25.2 82.5561 25.0593 82.86 24.95C83.1647 25.0573 83.4565 25.1981 83.73 25.37C83.8973 25.4616 84.0577 25.5652 84.21 25.68C83.77 25.68 83.32 25.73 82.87 25.74ZM82.87 23.74C82.7574 23.7386 82.6483 23.6999 82.56 23.63C82.5123 23.5988 82.4686 23.5619 82.43 23.52L82.34 23.4C82.2804 23.2936 82.2366 23.179 82.21 23.06C82.18 22.8846 82.18 22.7054 82.21 22.53C82.2589 22.355 82.3225 22.1844 82.4 22.02C82.4045 21.9701 82.4045 21.9199 82.4 21.87V20.87V18.66C82.4 18.57 82.4 18.47 82.4 18.37V18.09C82.3709 17.9036 82.3275 17.7197 82.27 17.54C82.2367 17.4439 82.1966 17.3504 82.15 17.26C82.1232 17.2177 82.0931 17.1775 82.06 17.14C82.0188 17.0926 81.9676 17.055 81.91 17.03C81.7282 16.9678 81.5406 16.9242 81.35 16.9L80.55 16.8L82.29 15.33H83.44L85.18 16.8L84.38 16.9C84.1898 16.9264 84.0024 16.97 83.82 17.03C83.7653 17.0551 83.7173 17.0928 83.68 17.14C83.6438 17.1749 83.6134 17.2154 83.59 17.26C83.5404 17.3503 83.497 17.4438 83.46 17.54C83.401 17.7187 83.3608 17.903 83.34 18.09C83.34 18.19 83.34 18.28 83.34 18.37V21.7C83.3351 21.7499 83.3351 21.8001 83.34 21.85V22C83.4175 22.1644 83.4811 22.335 83.53 22.51C83.565 22.6849 83.565 22.8651 83.53 23.04C83.5062 23.163 83.4623 23.2813 83.4 23.39L83.31 23.5C83.2783 23.5384 83.2413 23.5721 83.2 23.6C83.1023 23.6923 82.9743 23.7457 82.84 23.75L82.87 23.74ZM81.49 22.68C81.4346 22.8173 81.4009 22.9624 81.39 23.11C81.3765 23.1861 81.3765 23.2639 81.39 23.34C81.41 23.4147 81.4523 23.4815 81.5112 23.5316C81.5702 23.5816 81.643 23.6125 81.72 23.62C81.5562 23.6892 81.3989 23.7729 81.25 23.87C80.8923 24.0971 80.5574 24.3584 80.25 24.65C79.9442 24.9207 79.66 25.215 79.4 25.53C78.0829 23.8612 77.2523 21.861 77 19.75L80.29 17C80.63 17 80.96 17.07 81.29 17.12C81.4627 17.1429 81.6332 17.1797 81.8 17.23C81.8336 17.244 81.8642 17.2643 81.89 17.29C81.9143 17.3205 81.9345 17.3542 81.95 17.39C81.9963 17.4617 82.0333 17.539 82.06 17.62C82.1188 17.7891 82.1623 17.9631 82.19 18.14C82.1949 18.2299 82.1949 18.3201 82.19 18.41C82.1952 18.4999 82.1952 18.5901 82.19 18.68V19.79V20.89V21.72C82.21 21.8055 82.21 21.8945 82.19 21.98C82.1175 22.1498 82.054 22.3234 82 22.5C81.9601 22.6913 81.9601 22.8887 82 23.08C82.0211 23.2053 82.0689 23.3247 82.14 23.43C82.0292 23.4578 81.9218 23.4981 81.82 23.55C81.74 23.5309 81.6671 23.4893 81.61 23.43C81.5676 23.383 81.5358 23.3274 81.5168 23.267C81.4978 23.2066 81.4921 23.1428 81.5 23.08C81.5052 22.9449 81.5254 22.8107 81.56 22.68L81.68 22.27C81.5835 22.3966 81.5091 22.5386 81.46 22.69L81.49 22.68ZM75.49 21.11L76.3 20.42V24.07L75.78 24.8L74.6 26.37L74.69 26.43L75.69 25.16C75.62 26.48 75.37 31.27 75.13 35.07C75.13 35.18 75.13 35.28 75.13 35.39C74.1411 34.9263 73.2056 34.3562 72.34 33.69C72.7158 33.2224 73.1199 32.7782 73.55 32.36C73.9677 31.9196 74.4418 31.5362 74.96 31.22L75.25 31.07L75.13 30.76C73.6147 26.7688 72.8617 22.5288 72.91 18.26C72.91 14.26 76.91 9.44 82.08 9.05V15.05L76.27 20.24L75.38 21.04L75.49 21.11ZM77.71 40.51L78.71 40.63C80 40.77 80.71 40.86 80.71 41.39C80.7195 41.4988 80.7027 41.6084 80.6609 41.7094C80.6191 41.8103 80.5537 41.8997 80.47 41.97C79.4956 42.0216 78.5186 41.9882 77.55 41.87C76.96 41.82 76.45 41.78 76.22 41.78C75.6712 41.7619 75.129 41.9044 74.66 42.19C74.7401 41.9469 74.851 41.715 74.99 41.5C75.732 40.8742 76.6694 40.5275 77.64 40.52L77.71 40.51ZM75.27 41C76.27 39.6 78.94 36.76 79.39 36.76C79.4894 36.7496 79.5895 36.7711 79.6758 36.8215C79.7621 36.8718 79.8301 36.9484 79.87 37.04C79.9331 37.2432 79.9432 37.4592 79.8995 37.6674C79.8557 37.8757 79.7595 38.0693 79.62 38.23C79.21 38.69 77.89 40.05 77.62 40.31C76.7829 40.2817 75.9589 40.5236 75.27 41ZM73.27 48.41H73.22C70.0249 50.2275 66.9757 52.2904 64.1 54.58C66.37 43.23 69.61 37.18 72.01 34.07C72.9531 34.803 73.9804 35.4207 75.07 35.91C74.91 39 75 40.63 75 41C74.6502 41.3976 74.4212 41.8867 74.34 42.41C74.1318 42.5929 73.9619 42.8152 73.8401 43.064C73.7182 43.3129 73.6468 43.5834 73.63 43.86C73.4619 44.4556 73.3744 45.0711 73.37 45.69C73.3 46.59 73.29 47.79 73.28 48.38L73.27 48.41ZM83.36 9.15V9.4H82.3V9.15H83.36ZM83.36 9.53V9.78H82.3V9.53H83.36ZM83.36 9.91V10.16H82.3V9.91H83.36ZM83.36 10.28V10.54H82.3V10.28H83.36ZM83.36 10.66V10.92H82.3V10.66H83.36ZM83.36 11.04V11.3H82.3V11L83.36 11.04ZM83.36 11.42V11.67H82.3V11.42H83.36ZM83.36 11.8V12.05H82.3V11.8H83.36ZM83.36 12.18V12.43H82.3V12.18H83.36ZM83.36 12.55V12.81H82.3V12.55H83.36ZM83.36 12.93V13.19H82.3V12.93H83.36ZM83.36 13.31V13.57H82.3V13.31H83.36ZM83.36 13.69V13.94H82.3V13.69H83.36ZM83.36 14.07V14.32H82.3V14.07H83.36ZM83.36 14.44V14.7H82.3V14.44H83.36ZM83.36 14.82V15H82.3V14.83L83.36 14.82ZM21.69 97.37L24.76 17.51L34.76 20.08L28.26 90.63L28 93.5L30.75 94.36L58.4 103L21.69 97.37ZM51.55 79C51.9196 78.9109 52.3005 78.8772 52.68 78.9L52 82.46L51.94 82.77C51.7086 82.8205 51.4935 82.9281 51.3143 83.083C51.1352 83.2379 50.9976 83.4351 50.9141 83.6568C50.8306 83.8784 50.8039 84.1174 50.8363 84.352C50.8688 84.5866 50.9594 84.8094 51.1 85C49.9775 85.0692 48.8999 85.4655 48 86.14C47.0845 85.4523 45.9837 85.0552 44.84 85C44.9832 84.8102 45.0761 84.5872 45.11 84.3518C45.1439 84.1164 45.1177 83.8763 45.0339 83.6537C44.9501 83.4312 44.8113 83.2335 44.6306 83.079C44.4498 82.9244 44.2329 82.8182 44 82.77L43.3 78.87C43.3 78.87 45.48 78.62 48 81C48.9725 80.0138 50.2026 79.3208 51.55 79ZM65.85 90.6L65.51 90.79C65.3015 90.9065 65.1011 91.0368 64.91 91.18C64.5179 90.8996 64.0993 90.6584 63.66 90.46C63.2127 90.2567 62.7374 90.1219 62.25 90.06C62.0937 90.0451 61.9363 90.0451 61.78 90.06C61.8792 89.8988 61.9534 89.7235 62 89.54C62.08 89.2744 62.0693 88.9897 61.9698 88.7309C61.8702 88.472 61.6873 88.2536 61.45 88.11C61.2784 88.0041 61.0977 87.9138 60.91 87.84L60.32 84.59L60.2 83.96H60.36C61.2627 83.9862 62.1451 84.2334 62.93 84.68C63.0784 84.7506 63.222 84.8308 63.36 84.92C63.5086 85.0086 63.6522 85.1054 63.79 85.21C64.1781 85.475 64.5428 85.7727 64.88 86.1C65.8219 85.1412 67.0025 84.4508 68.3 84.1C68.7176 83.9912 69.1488 83.9441 69.58 83.96L68.87 87.85C68.6475 87.8999 68.4404 88.003 68.2664 88.1505C68.0925 88.298 67.957 88.4855 67.8714 88.6969C67.7859 88.9083 67.7529 89.1374 67.7753 89.3643C67.7977 89.5913 67.8748 89.8094 68 90C67.3685 90.002 66.7447 90.1383 66.17 90.4L65.85 90.6ZM85 95C83.8616 95.0596 82.7676 95.4603 81.86 96.15C80.9512 95.4556 79.8524 95.0545 78.71 95C78.8483 94.8075 78.9362 94.5834 78.9657 94.3482C78.9952 94.1129 78.9654 93.8741 78.8789 93.6533C78.7924 93.4326 78.652 93.2371 78.4705 93.0845C78.2891 92.932 78.0723 92.8273 77.84 92.78L77.57 91.3L77.33 90L77.17 89.12V88.91H77.26C77.4331 88.8987 77.6068 88.8987 77.78 88.91H78.02C79.4743 89.1995 80.8044 89.9291 81.83 91C82.9177 89.8501 84.363 89.1028 85.93 88.88C86.1326 88.8559 86.3374 88.8559 86.54 88.88L86.35 90L85.84 92.8C85.6135 92.8527 85.4034 92.9601 85.2281 93.113C85.0529 93.2658 84.9179 93.4594 84.8349 93.6766C84.752 93.8938 84.7236 94.1281 84.7524 94.3589C84.7812 94.5896 84.8662 94.8098 85 95ZM101.9 90C100.766 90.0663 99.6771 90.4664 98.77 91.15C97.866 90.4678 96.7806 90.0677 95.65 90C95.7863 89.8112 95.8737 89.5915 95.9044 89.3607C95.9351 89.1298 95.9082 88.8949 95.826 88.677C95.7438 88.4592 95.6089 88.265 95.4333 88.112C95.2578 87.9589 95.0471 87.8517 94.82 87.8L94.11 83.9C94.5413 83.8806 94.9731 83.9278 95.39 84.04C96.6917 84.3878 97.8762 85.0785 98.82 86.04C99.4118 85.3843 100.131 84.8563 100.934 84.4883C101.737 84.1203 102.607 83.9201 103.49 83.9L102.79 87.78C102.555 87.8221 102.334 87.9235 102.148 88.0745C101.963 88.2255 101.819 88.4212 101.73 88.6433C101.641 88.8653 101.61 89.1063 101.639 89.3437C101.669 89.581 101.759 89.8069 101.9 90ZM102.13 100.23L103.37 91.23C103.913 91.2142 104.448 91.0879 104.94 90.8587C105.433 90.6296 105.874 90.3025 106.236 89.8973C106.598 89.4921 106.874 89.0173 107.047 88.502C107.219 87.9867 107.285 87.4416 107.24 86.9C107.241 86.4359 107.19 85.9731 107.09 85.52C106.993 85.0519 106.846 84.5959 106.65 84.16C106.471 83.7536 106.253 83.3652 106 83V82.86C105.438 82.0215 104.738 81.2843 103.93 80.68C103.559 80.3901 103.165 80.1325 102.75 79.91L102.51 79.78C102.109 79.5778 101.695 79.404 101.27 79.26C100.943 79.1505 100.609 79.0636 100.27 79H100H99.82C99.4623 78.9485 99.1014 78.9218 98.74 78.92C97.907 78.9283 97.0803 79.0666 96.29 79.33H96.21L95.95 79.42L95.71 79.51L95.29 79.7C95.05 79.81 94.8 79.95 94.57 80.08C93.6392 80.6306 92.8077 81.3337 92.11 82.16V82.23C90.9909 83.5436 90.3619 85.2046 90.33 86.93C90.33 87.15 90.33 87.34 90.33 87.54C90.3716 88.0805 90.5105 88.6089 90.74 89.1C90.8969 89.4374 91.1061 89.7479 91.36 90.02C91.48 90.1504 91.6104 90.2708 91.75 90.38C92.1792 90.7104 92.6682 90.9549 93.19 91.1C93.5152 91.1955 93.8512 91.2493 94.19 91.26L95.71 102.32L94.47 102.71L86.47 105.2L85.11 105.62L86.41 96.22C86.9532 96.2042 87.4875 96.0779 87.9803 95.8487C88.4731 95.6196 88.914 95.2925 89.2762 94.8873C89.6383 94.4821 89.9141 94.0073 90.0867 93.492C90.2593 92.9767 90.3251 92.4316 90.28 91.89C90.2774 91.4635 90.2338 91.0382 90.15 90.62C90.1383 90.5391 90.1216 90.4589 90.1 90.38C89.9975 89.9407 89.8535 89.5121 89.67 89.1C89.4943 88.7059 89.2904 88.3249 89.06 87.96C88.4407 87.0126 87.6506 86.1886 86.73 85.53C86.2838 85.209 85.8122 84.9247 85.32 84.68C84.97 84.52 84.61 84.38 84.25 84.25C82.6671 83.7165 80.9529 83.7165 79.37 84.25C79.06 84.36 78.76 84.47 78.46 84.61L78.31 84.69L77.87 84.91C77.5227 85.0933 77.1886 85.3004 76.87 85.53C76.4594 85.8306 76.0747 86.1651 75.72 86.53C75.5692 86.6726 75.4256 86.8228 75.29 86.98C75.1358 87.1511 74.9922 87.3314 74.86 87.52C74.75 87.66 74.65 87.81 74.55 87.96C74.3369 88.311 74.153 88.6789 74 89.06C73.8153 89.4707 73.6745 89.8997 73.58 90.34L73.52 90.59C73.4395 91.0051 73.3993 91.4271 73.4 91.85C73.3924 92.3393 73.453 92.8274 73.58 93.3C73.6161 93.4498 73.6629 93.5969 73.72 93.74C73.7654 93.8634 73.8188 93.9836 73.88 94.1C74.2756 94.8704 74.9309 95.4761 75.73 95.81C76.2179 96.0206 76.7393 96.1425 77.27 96.17L78.56 105.57L77.21 105.14L69.21 102.66L68 102.28L68.86 95.98L69.18 93.63V93.49L69.23 93.11L69.29 92.73L69.49 91.22C70.3701 91.1778 71.2169 90.8711 71.92 90.34C72.0562 90.2341 72.1833 90.1171 72.3 89.99C72.3917 89.8937 72.4753 89.79 72.55 89.68C72.6626 89.5409 72.7598 89.39 72.84 89.23C72.8726 89.1763 72.8994 89.1193 72.92 89.06C73.1551 88.5639 73.2943 88.0278 73.33 87.48C73.3407 87.2835 73.3407 87.0865 73.33 86.89C73.3304 86.3432 73.2598 85.7986 73.12 85.27C73.12 85.05 73 84.83 72.93 84.62C72.2223 82.6795 70.8611 81.046 69.08 80C68.6357 79.7419 68.1708 79.5212 67.69 79.34L67.35 79.22C66.5634 78.9554 65.7399 78.817 64.91 78.81C64.2341 78.8074 63.561 78.8982 62.91 79.08L62.55 79.18H62.44L62.19 79.27C61.849 79.3911 61.5152 79.5313 61.19 79.69C60.7427 79.9221 60.3146 80.1896 59.91 80.49L59.77 80.6L59.41 80.88C58.7554 81.4318 58.18 82.0711 57.7 82.78L57.62 82.91C57.376 83.3036 57.1685 83.7187 57 84.15C56.8086 84.5876 56.6612 85.0432 56.56 85.51C56.4684 85.9643 56.4215 86.4265 56.42 86.89C56.3749 87.4316 56.4407 87.9767 56.6133 88.492C56.7859 89.0073 57.0617 89.4821 57.4238 89.8873C57.786 90.2925 58.2269 90.6196 58.7197 90.8487C59.2125 91.0779 59.7468 91.2042 60.29 91.22L61.53 100.22L60.17 99.8L52.3 97.34L51.09 97L52.57 86.19C53.6422 86.1369 54.6556 85.6838 55.41 84.92C55.6182 84.6902 55.7963 84.4348 55.94 84.16C56.1462 83.7553 56.2847 83.3195 56.35 82.87C56.3604 82.7669 56.3604 82.6631 56.35 82.56C56.3658 82.3269 56.3658 82.0931 56.35 81.86C56.322 80.255 55.7707 78.703 54.78 77.44C54.0874 76.5096 53.2216 75.7218 52.23 75.12C51.7866 74.84 51.3179 74.6023 50.83 74.41L50.33 74.22C49.7899 74.0457 49.2338 73.9251 48.67 73.86C48.4069 73.8451 48.1431 73.8451 47.88 73.86C47.0511 73.8685 46.2283 74.0033 45.44 74.26C44.2251 74.6612 43.1083 75.3138 42.1624 76.1752C41.2165 77.0367 40.4627 78.0878 39.95 79.26C39.605 80.0872 39.425 80.9738 39.42 81.87C39.4141 82.6799 39.6136 83.4781 40 84.19C40.3446 84.7765 40.8311 85.267 41.4147 85.6164C41.9983 85.9659 42.6603 86.1631 43.34 86.19L44.57 95L43.22 94.57L31.81 91L38.23 21L38.39 19.21L38.55 17.41L39.11 11.32L64.61 24C65.4736 27.0906 67.0961 29.9162 69.33 32.22C67.01 35.31 64.05 40.81 61.78 50.28C62.4243 51.2866 62.771 52.4549 62.78 53.65C62.7883 54.5035 62.6145 55.349 62.27 56.13C62.0626 56.6344 61.783 57.106 61.44 57.53C61.1108 57.961 60.7238 58.3446 60.29 58.67C60.8588 58.9136 61.4043 59.2081 61.92 59.55C61.8815 58.5319 62.2117 57.5341 62.85 56.74C63.15 56.44 63.48 56.13 63.85 55.81C66.8105 53.3243 69.9902 51.1119 73.35 49.2C73.35 49.97 73.42 51.59 73.47 53.61H73.72C73.72 51.45 73.62 49.75 73.6 49.05V49C73.6 48.86 73.6 48.79 73.6 48.78C73.6 48.77 73.6 46.97 73.66 45.69C73.6657 45.0923 73.7463 44.4977 73.9 43.92C73.9122 43.6647 73.9771 43.4148 74.0907 43.1859C74.2043 42.957 74.3641 42.7541 74.56 42.59H74.63C75.0576 42.2374 75.5867 42.0307 76.14 42C76.36 42 76.87 42 77.45 42.08C78.03 42.16 78.71 42.18 79.2 42.2C79.3284 42.2491 79.4453 42.3242 79.5434 42.4206C79.6414 42.5169 79.7186 42.6325 79.77 42.76C79.7905 42.8929 79.7649 43.0288 79.6977 43.1451C79.6304 43.2615 79.5254 43.3514 79.4 43.4C79.1202 43.524 78.8158 43.5822 78.51 43.57H77.56L76.35 43.52C76.1233 43.52 75.8933 43.52 75.66 43.52H75.18H75.04H74.92C74.8397 43.5486 74.7626 43.5855 74.69 43.63C74.4126 43.8092 74.1575 44.0207 73.93 44.26L74.05 44.36C74.2662 44.136 74.5079 43.938 74.77 43.77C74.8978 43.6925 75.0413 43.6447 75.19 43.63C75.34 43.63 75.5 43.63 75.65 43.63C75.8 43.63 76.05 43.63 76.24 43.63C76.5177 43.7887 76.7704 43.9875 76.99 44.22C77.2244 44.4609 77.4786 44.6817 77.75 44.88L77.96 45.03L78.07 45.09H78.13C78.1828 45.1282 78.2243 45.1801 78.25 45.24C78.2772 45.3036 78.2941 45.3711 78.3 45.44C78.299 45.5065 78.2818 45.5717 78.25 45.63C78.2094 45.6831 78.1583 45.7274 78.1 45.76C77.9649 45.8194 77.8169 45.8435 77.67 45.83C77.356 45.7846 77.0632 45.6451 76.83 45.43C76.5683 45.2594 76.2903 45.1154 76 45C75.8318 44.9405 75.6482 44.9405 75.48 45C75.3115 45.044 75.1499 45.1113 75 45.2C74.7204 45.3879 74.4681 45.6133 74.25 45.87L74.33 45.93C74.5462 45.6895 74.7953 45.4808 75.07 45.31C75.1921 45.2166 75.3355 45.1549 75.4874 45.1304C75.6392 45.106 75.7947 45.1196 75.94 45.17C76.227 45.3248 76.4926 45.5165 76.73 45.74C76.8619 45.8479 77.0023 45.9449 77.15 46.03C77.2974 46.1034 77.4564 46.1507 77.62 46.17V46.23L77.53 46.39L77.32 46.7L76.9 47.34C76.6313 47.7707 76.3972 48.2222 76.2 48.69C76.1 48.92 76.02 49.17 75.94 49.41C75.86 49.65 75.83 49.91 75.78 50.15C75.66 50.64 75.52 51.15 75.36 51.61C75.5388 51.1351 75.6924 50.6511 75.82 50.16C75.88 49.92 75.93 49.67 76.01 49.43C76.0879 49.1922 76.178 48.9585 76.28 48.73C76.4842 48.2682 76.725 47.8235 77 47.4L77.43 46.78L77.65 46.47L77.76 46.31V46.22C77.888 46.2233 78.0148 46.1959 78.13 46.14C78.226 46.0995 78.3065 46.0294 78.36 45.94C78.4118 45.8558 78.4395 45.7589 78.44 45.66C78.4431 45.5621 78.423 45.4648 78.3813 45.3762C78.3396 45.2875 78.2775 45.21 78.2 45.15C78.3042 44.7553 78.3546 44.3482 78.35 43.94H78.57C78.9127 43.9563 79.2546 43.8948 79.57 43.76C79.7325 43.6816 79.8707 43.5606 79.97 43.41C80.0316 43.2821 80.0423 43.1355 80 43C80.0202 42.9044 80.0202 42.8056 80 42.71C79.9447 42.5365 79.8487 42.3788 79.72 42.25C79.9063 42.2659 80.0937 42.2659 80.28 42.25C80.22 42.45 80.15 42.76 80.07 43.19C79.99 43.62 79.9 44.19 79.79 44.81C79.44 46.81 78.97 49.63 78.48 50.4C77.975 51.2001 77.3396 51.9099 76.6 52.5L76.45 52.62C75.8644 53.0717 75.2264 53.4511 74.55 53.75L74.95 53.83C75.481 53.5752 75.9867 53.2705 76.46 52.92C76.46 53.11 76.46 53.35 76.46 53.64V54.44C76.7198 54.5788 76.9673 54.7394 77.2 54.92V54.31C77.98 55.16 79.44 56.77 80.06 57.47C80.5549 58.017 80.9968 58.6097 81.38 59.24L81.56 59.55L81.71 59.22C82.1911 58.1249 82.5889 56.995 82.9 55.84C83.19 56.84 83.67 58.47 83.73 58.99L83.79 59.52L84.03 59.13C84.0847 58.7565 84.1717 58.3885 84.29 58.03L84.01 58.47C83.75 57.33 83.07 55.1 83.01 54.99L82.74 54.11L82.65 55.03C82.409 56.3108 82.0197 57.5592 81.49 58.75C81.1358 58.2168 80.7448 57.7089 80.32 57.23C79.61 56.43 77.83 54.47 77.18 53.76V53.63C77.18 53.09 77.18 52.71 77.18 52.47C77.1742 52.4235 77.1742 52.3765 77.18 52.33C77.7585 51.801 78.266 51.1993 78.69 50.54C79.21 49.71 79.69 47.01 80.03 44.85C80.1411 43.9474 80.3216 43.0548 80.57 42.18C80.6822 42.0849 80.7705 41.9647 80.8278 41.8293C80.8851 41.6938 80.9099 41.5468 80.9 41.4C80.9 40.63 79.99 40.53 78.71 40.4L77.97 40.31C78.39 39.88 79.47 38.77 79.84 38.31C80.0131 38.116 80.1312 37.8793 80.1821 37.6244C80.2331 37.3695 80.2151 37.1056 80.13 36.86C80.0695 36.7274 79.9703 36.6162 79.8453 36.5412C79.7203 36.4662 79.5755 36.4309 79.43 36.44C79.0887 36.5439 78.7814 36.7373 78.54 37C78.11 37.37 77.6 37.9 77.09 38.44C76.34 39.26 75.61 40.13 75.24 40.61C75.24 39.88 75.24 38.07 75.4 35.05C75.69 30.63 75.98 24.85 75.98 24.79L76.48 24.16V20.24L76.83 19.94C76.9108 20.6005 77.0479 21.2529 77.24 21.89L77.06 22.2C77 22.33 76.94 22.47 76.89 22.61C76.84 22.75 76.78 22.89 76.74 23.04C76.7 23.19 76.67 23.33 76.64 23.48C76.64 23.33 76.72 23.19 76.77 23.05C76.82 22.91 76.88 22.77 76.94 22.64C76.9998 22.5016 77.07 22.3679 77.15 22.24C77.1897 22.1678 77.2331 22.0977 77.28 22.03C77.412 22.4686 77.569 22.8993 77.75 23.32C77.6598 23.4557 77.5828 23.5996 77.52 23.75C77.45 23.93 77.37 24.12 77.31 24.3C77.18 24.68 77.07 25.05 76.97 25.43C76.92 25.62 76.88 25.82 76.84 26.01L76.72 26.58L76.61 27.16L76.51 27.74L76.62 27.16L76.74 26.59L76.88 26.02L77.03 25.45C77.14 25.07 77.26 24.7 77.4 24.33C77.46 24.16 77.54 23.97 77.62 23.8C77.6773 23.6802 77.7407 23.5634 77.81 23.45C77.98 23.82 78.17 24.2 78.39 24.58C78.2607 24.748 78.1438 24.9252 78.04 25.11C77.9078 25.3249 77.7908 25.5487 77.69 25.78C77.4764 26.233 77.2959 26.7009 77.15 27.18L77.03 27.54L76.94 27.9C76.87 28.14 76.83 28.39 76.76 28.63C76.69 28.87 76.67 29.12 76.62 29.36L76.51 30.1L76.64 29.36L76.79 28.64C76.86 28.39 76.91 28.15 76.98 27.91L77.08 27.55L77.21 27.2C77.3629 26.727 77.5501 26.2658 77.77 25.82C77.88 25.6 78 25.38 78.13 25.17C78.2284 25.0023 78.3387 24.8419 78.46 24.69C78.6893 25.0384 78.9397 25.3724 79.21 25.69C78.9766 25.9741 78.7596 26.2712 78.56 26.58C78.0924 27.2953 77.678 28.044 77.32 28.82C76.9689 29.5953 76.6715 30.3939 76.43 31.21C76.9704 29.5991 77.7382 28.0737 78.71 26.68C79.1965 25.9912 79.7676 25.3663 80.41 24.82C80.7202 24.5524 81.0551 24.3147 81.41 24.11C81.584 24.0021 81.7682 23.9117 81.96 23.84L82.25 23.74H82.45C82.5254 23.7925 82.6103 23.8299 82.7 23.85V24.73C82.4111 24.8403 82.1332 24.9776 81.87 25.14C81.5874 25.3152 81.3168 25.5089 81.06 25.72C80.5451 26.1437 80.0789 26.6233 79.67 27.15C78.8752 28.213 78.2665 29.4033 77.87 30.67C77.4689 31.9304 77.2106 33.2319 77.1 34.55C76.9851 35.8502 76.965 37.1569 77.04 38.46C76.985 37.1555 77.0251 35.8487 77.16 34.55C77.2939 33.2456 77.5757 31.9607 78 30.72C78.4036 29.4719 79.023 28.3042 79.83 27.27C80.2325 26.7592 80.6922 26.2962 81.2 25.89C81.2295 25.9971 81.2697 26.1009 81.32 26.2C81.3837 26.3539 81.4678 26.4985 81.57 26.63C81.6892 26.7789 81.835 26.9044 82 27C82.0776 27.0562 82.1615 27.1032 82.25 27.14C81.9864 27.2393 81.7375 27.3739 81.51 27.54C81.3117 27.6931 81.1245 27.8602 80.95 28.04C80.7801 28.2223 80.6231 28.4161 80.48 28.62C79.9204 29.4358 79.4981 30.3377 79.23 31.29C79.1 31.77 78.98 32.29 78.89 32.73C78.8 33.17 78.73 33.73 78.68 34.19C78.5706 35.1227 78.5138 36.0609 78.51 37C78.5149 36.0407 78.575 35.0824 78.69 34.13C78.74 33.65 78.83 33.13 78.92 32.68C79.01 32.23 79.14 31.68 79.28 31.26C79.5535 30.3217 79.9828 29.436 80.55 28.64C80.6875 28.45 80.8379 28.2695 81 28.1C81.1692 27.9275 81.3533 27.7703 81.55 27.63C81.9306 27.3444 82.3854 27.1743 82.86 27.14C83.3315 27.1745 83.783 27.3447 84.16 27.63C84.3548 27.7764 84.5386 27.9368 84.71 28.11C84.874 28.2841 85.0276 28.4678 85.17 28.66C85.7283 29.4634 86.1538 30.3514 86.43 31.29C86.57 31.75 86.68 32.23 86.78 32.71C86.88 33.19 86.96 33.71 87.01 34.16C87.1251 35.1325 87.1852 36.1107 87.19 37.09C87.2033 36.1081 87.1565 35.1262 87.05 34.15C87.05 33.67 86.93 33.15 86.85 32.69C86.77 32.23 86.65 31.69 86.51 31.26C86.2507 30.3067 85.8387 29.4016 85.29 28.58C85.144 28.3755 84.9836 28.1816 84.81 28C84.6461 27.8161 84.4615 27.6517 84.26 27.51C84.0228 27.3287 83.7599 27.1837 83.48 27.08C83.5544 27.0482 83.6249 27.008 83.69 26.96C83.8299 26.8583 83.9545 26.7371 84.06 26.6C84.1586 26.4661 84.2425 26.322 84.31 26.17C84.3665 26.0517 84.4101 25.9277 84.44 25.8L84.55 25.89C85.0855 26.2919 85.5722 26.755 86 27.27C86.7995 28.309 87.4181 29.4754 87.83 30.72C88.2436 31.966 88.5186 33.2538 88.65 34.56C88.7816 35.869 88.8183 37.1857 88.76 38.5C88.855 37.1884 88.855 35.8716 88.76 34.56C88.6445 33.2426 88.3863 31.9417 87.99 30.68C87.5939 29.4112 86.9816 28.2203 86.18 27.16C85.7749 26.6333 85.312 26.1536 84.8 25.73C84.5415 25.5165 84.2674 25.3227 83.98 25.15C83.7203 24.9876 83.4457 24.8504 83.16 24.74V23.83L83.29 23.76C83.3698 23.7512 83.4502 23.7512 83.53 23.76L83.81 23.86C84.0018 23.9317 84.186 24.0221 84.36 24.13C84.7149 24.3347 85.0498 24.5724 85.36 24.84C85.9794 25.4067 86.5299 26.0444 87 26.74C87.4912 27.4287 87.9227 28.158 88.29 28.92C88.6786 29.6752 89.0128 30.4572 89.29 31.26C89.0451 30.4469 88.7444 29.6517 88.39 28.88C88.0376 28.1031 87.6264 27.3543 87.16 26.64C86.958 26.3272 86.7376 26.0267 86.5 25.74C86.7763 25.4248 87.0303 25.0906 87.26 24.74C87.3733 24.8867 87.4833 25.0467 87.59 25.22C87.72 25.43 87.83 25.65 87.94 25.87C88.1632 26.3156 88.3537 26.7768 88.51 27.25L88.63 27.6L88.73 27.96C88.8 28.2 88.85 28.44 88.92 28.69C88.99 28.94 89.02 29.17 89.07 29.41L89.2 30.15L89.09 29.41C89.09 29.17 89 28.92 88.95 28.68C88.9 28.44 88.84 28.19 88.77 27.95L88.68 27.59L88.57 27.23C88.4197 26.7524 88.2393 26.2848 88.03 25.83C87.92 25.61 87.81 25.38 87.68 25.16C87.5727 24.975 87.4524 24.7979 87.32 24.63C87.538 24.2649 87.735 23.8876 87.91 23.5L88.09 23.85C88.18 24.02 88.25 24.21 88.32 24.38C88.46 24.75 88.57 25.12 88.68 25.5C88.74 25.69 88.78 25.88 88.83 26.07L88.97 26.64L89.09 27.21L89.2 27.79L89.1 27.21L89 26.63L88.85 26C88.85 25.81 88.76 25.61 88.71 25.42C88.62 25.04 88.5 24.67 88.38 24.29C88.31 24.11 88.24 23.92 88.16 23.74C88.0951 23.5907 88.0182 23.4469 87.93 23.31C88.1148 22.8828 88.2751 22.4455 88.41 22L88.53 22.21C88.61 22.3379 88.6802 22.4716 88.74 22.61C88.8 22.74 88.86 22.88 88.91 23.02C88.96 23.16 89 23.3 89.04 23.45C89.04 23.3 88.98 23.15 88.94 23.01C88.9 22.87 88.85 22.73 88.8 22.58L88.62 22.17L88.45 21.87C88.6419 21.2164 88.7758 20.5471 88.85 19.87L89.21 20.17V24.09L89.71 24.73C89.71 25.01 90.01 30.64 90.29 34.98C90.4532 36.9822 90.5066 38.9919 90.45 41C90.45 43.06 90.29 44.54 90.25 44.87L90.08 44.95C89.9841 45.0006 89.8936 45.061 89.81 45.13C89.5314 45.017 89.2819 44.8427 89.08 44.62C88.9802 44.4859 88.8544 44.3734 88.71 44.2892C88.5657 44.205 88.4058 44.1509 88.24 44.13C87.79 44.13 87.55 44.43 87.55 45.03C87.5567 45.3831 87.6567 45.7281 87.84 46.03C87.3907 45.978 86.9503 45.867 86.53 45.7C86.2816 45.7894 86.075 45.9675 85.95 46.2C85.1665 46.1518 84.3946 45.9866 83.66 45.71H83.6C83.53 45.71 82.91 46.06 82.91 47.95C82.91 49.2 83.08 49.47 83.12 49.51C83.12 49.51 83.64 49.51 84.3 49.51C84.59 49.51 84.91 49.51 85.23 49.51C85.23 51.31 85.23 53.96 85.31 56.12C85.3814 56.0166 85.4618 55.9195 85.55 55.83C85.3997 53.1655 85.3997 50.4946 85.55 47.83C85.6162 47.3341 85.7685 46.8536 86 46.41C86.0945 46.2174 86.2442 46.0572 86.43 45.95C87.2165 46.1969 88.0283 46.3545 88.85 46.42C88.7368 46.6724 88.6432 46.9332 88.57 47.2C88.4691 47.5551 88.314 47.8924 88.11 48.2C88.0187 48.3047 87.9502 48.4272 87.9089 48.5597C87.8676 48.6923 87.8544 48.832 87.87 48.97C87.8876 49.087 87.9319 49.1984 87.9996 49.2956C88.0672 49.3927 88.1563 49.4729 88.26 49.53C88.4614 49.5957 88.6786 49.5957 88.88 49.53C88.8955 49.5975 88.9226 49.6618 88.96 49.72C89.0268 49.8044 89.1099 49.8745 89.2044 49.9261C89.2989 49.9776 89.4029 50.0096 89.51 50.02H89.81C89.9298 50.0276 90.0499 50.0112 90.1632 49.9717C90.2766 49.9322 90.3809 49.8704 90.47 49.79C90.5662 49.9235 90.6923 50.0328 90.8381 50.1092C90.9839 50.1855 91.1454 50.2269 91.31 50.23H91.51C91.6382 50.1968 91.7579 50.1368 91.8613 50.0541C91.9647 49.9714 92.0494 49.8678 92.11 49.75C92.2196 49.8338 92.3463 49.8925 92.4811 49.9219C92.6159 49.9513 92.7555 49.9506 92.89 49.92C93.195 49.828 93.4668 49.6497 93.6726 49.4066C93.8785 49.1635 94.0095 48.866 94.05 48.55C94.2967 47.783 94.6647 47.0605 95.14 46.41C95.2033 46.3443 95.2826 46.2961 95.37 46.27H95.9H96.34H96.49C97.25 46.18 98.2 46.06 98.43 46.27C98.4366 46.2858 98.44 46.3028 98.44 46.32C98.44 46.3372 98.4366 46.3542 98.43 46.37C98.4243 46.4659 98.3992 46.5597 98.3563 46.6456C98.3133 46.7316 98.2533 46.8079 98.18 46.87C97.7117 47.412 97.4527 48.1037 97.45 48.82C97.33 50.15 97.45 54.45 97.52 58.26C97.52 59.84 97.59 61.34 97.6 62.36C97.61 63.38 97.6 64.57 97.6 65.75C97.67 65.44 97.76 65.12 97.86 64.81C97.86 63.95 97.86 63.11 97.86 62.37C97.86 61.37 97.86 59.85 97.78 58.26C97.78 57.47 97.78 56.63 97.72 55.8C97.72 55.68 97.72 55.55 97.72 55.43C97.72 53.01 97.63 50.65 97.72 49.43L100.12 49.64C100.12 49.88 100.12 50.49 100.12 51.22C100.12 51.44 100.12 51.68 100.12 51.93C100.092 52.8896 100.357 53.835 100.88 54.64C100.745 54.3002 100.658 53.9436 100.62 53.58C100.54 53.0302 100.496 52.4756 100.49 51.92V51.83L101.15 51.88C101.178 51.8218 101.201 51.7616 101.22 51.7C101.516 50.8985 101.971 50.1648 102.557 49.5429C103.142 48.9209 103.848 48.4234 104.63 48.08C104.628 47.1246 104.459 46.1769 104.13 45.28V45.19L102.13 43.98C100.848 39.8927 98.9309 36.0323 96.45 32.54C98.9725 29.9113 100.705 26.6263 101.45 23.06H101.53L124.53 11.58L125.09 17.67L125.25 19.46L125.41 21.26L131.83 91.26L120.41 94.83L119.1 95L120.31 86.22C120.963 86.1944 121.6 86.012 122.167 85.6882C122.735 85.3645 123.216 84.9089 123.57 84.36C123.992 83.6068 124.199 82.7527 124.17 81.89C124.169 80.9345 123.964 79.9903 123.57 79.12C123.048 77.9806 122.297 76.9605 121.365 76.1229C120.433 75.2852 119.339 74.6478 118.15 74.25C116.564 73.7165 114.846 73.7165 113.26 74.25C113.09 74.31 112.91 74.37 112.75 74.44C112.265 74.6324 111.8 74.8701 111.36 75.15C110.472 75.6791 109.681 76.3554 109.02 77.15C107.906 78.4705 107.278 80.1327 107.24 81.86C107.24 82.11 107.24 82.35 107.24 82.57C107.234 82.6699 107.234 82.7701 107.24 82.87C107.313 83.319 107.455 83.7541 107.66 84.16C107.799 84.4351 107.974 84.6906 108.18 84.92C108.929 85.6921 109.945 86.1468 111.02 86.19L112.59 97L111.34 97.39L103.49 99.85L102.13 100.23ZM78.13 43.78C78.1342 44.1672 78.0905 44.5535 78 44.93L77.85 44.83C77.5945 44.6311 77.357 44.4103 77.14 44.17C76.9873 44.0187 76.8271 43.8752 76.66 43.74H77.56L78.13 43.78ZM85.75 46.36C85.5403 46.8099 85.3987 47.2884 85.33 47.78C85.2656 48.2608 85.2289 48.745 85.22 49.23C84.5545 49.2867 83.8855 49.2867 83.22 49.23C83.0743 48.8017 83 48.3524 83 47.9C83 46.44 83.39 46.01 83.52 45.9C84.2332 46.167 84.9806 46.332 85.74 46.39L85.75 46.36ZM118.83 85C117.696 85.0663 116.607 85.4664 115.7 86.15C114.797 85.4656 113.711 85.0653 112.58 85C112.718 84.8068 112.806 84.582 112.835 84.3461C112.864 84.1102 112.833 83.8709 112.746 83.6499C112.658 83.429 112.516 83.2336 112.334 83.0816C112.151 82.9296 111.933 82.8259 111.7 82.78L111.64 82.45L111 78.87C111.376 78.8473 111.754 78.881 112.12 78.97C113.477 79.2896 114.717 79.9824 115.7 80.97C118.17 78.58 120.41 78.83 120.41 78.83L119.71 82.73C119.468 82.7717 119.242 82.8753 119.052 83.0305C118.863 83.1858 118.716 83.3875 118.628 83.616C118.539 83.8445 118.511 84.0921 118.547 84.3346C118.582 84.5772 118.68 84.8064 118.83 85ZM105.28 103L132.93 94.35L135.68 93.49L135.42 90.62L129 20.08L139 17.51L142 97.37L105.28 103Z" fill="#350100"/>
<path d="M87.35 12.68H86.85V12.24H86.81V12.13H86.56V12.68H86.01V12.92H86.05V13.03H86.56V13.46H86.6V13.58H86.84V13.03H87.39V12.79H87.35V12.68Z" fill="#350100"/>
<path d="M85.7 14.07H85.19V13.64H85.15V13.53H84.91V14.07H84.36V14.32H84.4V14.43H84.91V14.87H84.95V14.98H85.19V14.44H85.74V14.19H85.7V14.07Z" fill="#350100"/>
<path d="M85.7 11.34H85.19V10.91H85.15V10.8H84.91V11.34H84.36V11.59H84.4V11.7H84.91V12.13H84.95V12.24H85.19V11.7H85.74V11.46H85.7V11.34Z" fill="#350100"/>
<path d="M79.92 11.7H80.42V12.13H80.46V12.24H80.71V11.7H81.25V11.46H81.21V11.34H80.71V10.91H80.67V10.8H80.42V11.34H79.88V11.59H79.92V11.7Z" fill="#350100"/>
<path d="M79.92 14.44H80.42V14.87H80.46V14.98H80.71V14.43H81.25V14.19H81.21V14.07H80.71V13.64H80.67V13.53H80.42V14.07H79.88V14.32H79.92V14.44Z" fill="#350100"/>
<path d="M78.27 13.03H78.77V13.46H78.81V13.58H79.06V13.03H79.6V12.79H79.56V12.68H79.06V12.24H79.02V12.13H78.77V12.68H78.23V12.92H78.27V13.03Z" fill="#350100"/>
<path d="M82 29.17C81.6181 29.6996 81.2835 30.2618 81 30.85C80.7309 31.432 80.507 32.0337 80.33 32.65C79.961 33.8823 79.7823 35.1637 79.8 36.45C79.8164 35.8091 79.8832 35.1704 80 34.54C80.0923 33.906 80.2361 33.2806 80.43 32.67C80.6206 32.0593 80.858 31.4642 81.14 30.89C81.4194 30.3091 81.7543 29.7565 82.14 29.24C82.1498 29.229 82.1553 29.2148 82.1553 29.2C82.1553 29.1852 82.1498 29.171 82.14 29.16C82.1387 29.1414 82.13 29.1242 82.116 29.112C82.1019 29.0998 82.0836 29.0937 82.065 29.095C82.0464 29.0963 82.0292 29.105 82.017 29.119C82.0048 29.1331 81.9987 29.1514 82 29.17Z" fill="#350100"/>
<path d="M80 18.45C79.4581 18.5011 78.9517 18.7419 78.57 19.13C78.4436 19.1991 78.3037 19.24 78.16 19.25C78.2267 19.2834 78.3004 19.3009 78.375 19.3009C78.4496 19.3009 78.5233 19.2834 78.59 19.25C78.728 19.5076 78.9305 19.725 79.1776 19.881C79.4247 20.037 79.7081 20.1262 80 20.14C80.2868 20.1317 80.5654 20.0428 80.8041 19.8837C81.0428 19.7246 81.232 19.5015 81.35 19.24H81.3C81.4021 19.2628 81.5079 19.2628 81.61 19.24C81.5336 19.2336 81.4591 19.2132 81.39 19.18C81.0316 18.7748 80.5371 18.515 80 18.45ZM79.46 18.94L79.79 18.89C79.7549 18.9214 79.7269 18.96 79.7079 19.0031C79.689 19.0462 79.6794 19.0929 79.68 19.14C79.6929 19.1195 79.7105 19.1025 79.7314 19.0903C79.7523 19.0781 79.7758 19.0711 79.8 19.07C79.8371 19.07 79.8727 19.0848 79.899 19.111C79.9253 19.1373 79.94 19.1729 79.94 19.21C79.94 19.2471 79.9253 19.2828 79.899 19.309C79.8727 19.3353 79.8371 19.35 79.8 19.35C79.8642 19.4129 79.9501 19.4487 80.04 19.45C80.0855 19.4514 80.1308 19.4435 80.1732 19.4271C80.2156 19.4106 80.2543 19.3857 80.2869 19.354C80.3195 19.3223 80.3455 19.2844 80.3632 19.2425C80.3809 19.2006 80.39 19.1555 80.39 19.11C80.3905 19.0653 80.3818 19.021 80.3646 18.9797C80.3474 18.9385 80.3221 18.9012 80.29 18.87C80.3986 18.8775 80.506 18.8976 80.61 18.93C80.6203 18.9761 80.6203 19.0239 80.61 19.07C80.6209 19.1533 80.6139 19.2379 80.5895 19.3182C80.5651 19.3985 80.5238 19.4727 80.4685 19.5358C80.4131 19.5989 80.3449 19.6495 80.2684 19.6841C80.1919 19.7187 80.109 19.7367 80.025 19.7367C79.9411 19.7367 79.8581 19.7187 79.7816 19.6841C79.7051 19.6495 79.6369 19.5989 79.5815 19.5358C79.5262 19.4727 79.4849 19.3985 79.4605 19.3182C79.4361 19.2379 79.4291 19.1533 79.44 19.07C79.4491 19.0241 79.466 18.9802 79.49 18.94H79.46ZM80 20.06C79.7333 20.0427 79.475 19.9597 79.2482 19.8184C79.0214 19.677 78.8331 19.4818 78.7 19.25C78.9024 19.1404 79.113 19.0468 79.33 18.97C79.325 19.0132 79.325 19.0568 79.33 19.1C79.3287 19.1928 79.3458 19.2849 79.3804 19.371C79.415 19.457 79.4663 19.5354 79.5315 19.6015C79.5966 19.6675 79.6742 19.72 79.7598 19.7558C79.8454 19.7916 79.9372 19.81 80.03 19.81C80.2192 19.81 80.4009 19.7355 80.5356 19.6027C80.6704 19.4698 80.7474 19.2892 80.75 19.1C80.75 19.1 80.75 19.03 80.75 18.99C80.8917 19.0383 81.0263 19.1056 81.15 19.19H81.25C81.1478 19.4402 80.9755 19.6555 80.7537 19.8099C80.5318 19.9642 80.2701 20.0511 80 20.06Z" fill="#350100"/>
<path d="M80.05 18C80.344 18.0312 80.6274 18.1272 80.8799 18.2811C81.1324 18.435 81.3476 18.643 81.51 18.89L81.61 18.82C81.4383 18.5553 81.2086 18.333 80.9384 18.1702C80.6681 18.0073 80.3643 17.9081 80.05 17.88C79.698 17.9353 79.3614 18.0635 79.0618 18.2564C78.7622 18.4492 78.5061 18.7025 78.31 19L78.41 19.07C78.41 19.07 79.17 18 80.05 18Z" fill="#350100"/>
<path d="M84.56 30.89C84.8355 31.4647 85.0662 32.0598 85.25 32.67C85.4472 33.2804 85.5943 33.9058 85.69 34.54C85.785 35.1723 85.8352 35.8106 85.84 36.45C85.8502 35.8079 85.8101 35.1659 85.72 34.53C85.6309 33.8947 85.4972 33.2665 85.32 32.65C85.1397 32.0335 84.9123 31.4317 84.64 30.85C84.3565 30.2618 84.0219 29.6996 83.64 29.17C83.6344 29.1636 83.6274 29.1585 83.6197 29.155C83.6119 29.1515 83.6035 29.1497 83.595 29.1497C83.5865 29.1497 83.5781 29.1515 83.5703 29.155C83.5626 29.1585 83.5556 29.1636 83.55 29.17C83.9389 29.711 84.277 30.2868 84.56 30.89Z" fill="#350100"/>
<path d="M85.64 20.18C85.9329 20.165 86.2172 20.0754 86.4657 19.9196C86.7143 19.7639 86.9188 19.5471 87.06 19.29C87.1267 19.3234 87.2004 19.3408 87.275 19.3408C87.3497 19.3408 87.4233 19.3234 87.49 19.29C87.3429 19.2814 87.1995 19.2405 87.07 19.17C86.6894 18.7861 86.1877 18.5458 85.65 18.49C85.108 18.5553 84.6092 18.8189 84.25 19.23C84.1842 19.2625 84.113 19.2828 84.04 19.29C84.142 19.3135 84.248 19.3135 84.35 19.29H84.29C84.4113 19.5482 84.6016 19.7679 84.8398 19.925C85.078 20.082 85.3549 20.1703 85.64 20.18ZM85.05 19C85.151 18.9695 85.2549 18.9494 85.36 18.94C85.3293 18.9716 85.3054 19.0093 85.2899 19.0506C85.2744 19.0919 85.2677 19.1359 85.27 19.18C85.27 19.2246 85.2788 19.2689 85.2959 19.3101C85.313 19.3514 85.338 19.3888 85.3696 19.4204C85.4012 19.452 85.4386 19.477 85.4799 19.4941C85.5211 19.5112 85.5654 19.52 85.61 19.52C85.7031 19.5202 85.7927 19.4844 85.86 19.42C85.8229 19.42 85.7873 19.4052 85.761 19.379C85.7348 19.3527 85.72 19.3171 85.72 19.28C85.72 19.2429 85.7348 19.2073 85.761 19.181C85.7873 19.1547 85.8229 19.14 85.86 19.14C85.8855 19.1411 85.9105 19.148 85.933 19.1601C85.9555 19.1723 85.975 19.1893 85.99 19.21C85.9906 19.1629 85.9811 19.1162 85.9621 19.0731C85.9431 19.03 85.9151 18.9914 85.88 18.96L86.21 19.01C86.2205 19.0628 86.2205 19.1172 86.21 19.17C86.21 19.3265 86.1478 19.4765 86.0372 19.5872C85.9266 19.6978 85.7765 19.76 85.62 19.76C85.4635 19.76 85.3135 19.6978 85.2028 19.5872C85.0922 19.4765 85.03 19.3265 85.03 19.17C85.0284 19.1127 85.0351 19.0554 85.05 19ZM84.52 19.23C84.6414 19.1417 84.7765 19.0741 84.92 19.03C84.9155 19.0665 84.9155 19.1035 84.92 19.14C84.92 19.3283 84.9948 19.5089 85.128 19.642C85.2611 19.7752 85.4417 19.85 85.63 19.85C85.8183 19.85 85.9989 19.7752 86.1321 19.642C86.2652 19.5089 86.34 19.3283 86.34 19.14C86.34 19.14 86.34 19.05 86.34 19.01C86.5531 19.0884 86.7603 19.182 86.96 19.29C86.8283 19.5229 86.6403 19.7192 86.4132 19.8607C86.1861 20.0022 85.9271 20.0845 85.66 20.1C85.3995 20.0894 85.1469 20.0073 84.9299 19.8627C84.7129 19.718 84.54 19.5164 84.43 19.28L84.52 19.23Z" fill="#350100"/>
<path d="M85.62 18C86.5 18 87.25 19 87.26 19.06L87.36 18.99C87.1615 18.6956 86.9047 18.4452 86.6053 18.2542C86.306 18.0632 85.9706 17.9359 85.62 17.88C85.3049 17.9102 85.0005 18.0102 84.7289 18.1728C84.4573 18.3354 84.2254 18.5565 84.05 18.82L84.16 18.89C84.3224 18.643 84.5376 18.435 84.7901 18.2811C85.0425 18.1272 85.326 18.0312 85.62 18Z" fill="#350100"/>
<path d="M54 58.23C54.7432 58.6433 55.5796 58.8602 56.43 58.8602C57.2804 58.8602 58.1168 58.6433 58.86 58.23C59.6583 57.7953 60.3247 57.1535 60.7893 56.3723C61.2538 55.591 61.4993 54.699 61.5 53.79C61.503 53.3582 61.4492 52.9278 61.34 52.51C61.1292 51.6963 60.7194 50.9478 60.1475 50.3318C59.5756 49.7158 58.8596 49.2516 58.0637 48.9811C57.2679 48.7106 56.4173 48.6422 55.5885 48.782C54.7596 48.9219 53.9786 49.2656 53.3155 49.7823C52.6525 50.299 52.1284 50.9724 51.7903 51.7419C51.4522 52.5115 51.3107 53.353 51.3786 54.1908C51.4464 55.0286 51.7216 55.8364 52.1792 56.5415C52.6368 57.2466 53.2625 57.8268 54 58.23Z" fill="#350100"/>
<path d="M60.21 77.65C60.0227 77.4413 59.849 77.2209 59.69 76.99L59.59 76.85C58.9279 75.8219 58.5803 74.6228 58.59 73.4C58.5871 72.3545 58.8412 71.3243 59.33 70.4C58.2911 70.5212 57.3036 70.9183 56.47 71.55C55.7343 71.0138 54.8919 70.6421 54 70.46C53.6247 71.5276 52.9683 72.4742 52.1 73.2C52.0244 73.2687 51.9443 73.3322 51.86 73.39L52.13 73.52C53.0656 73.9676 53.9259 74.5579 54.68 75.27C55.4027 75.9311 56.0228 76.6961 56.52 77.54C57.1306 78.5525 57.5287 79.6787 57.69 80.85C58.16 80.3468 58.6755 79.8882 59.23 79.48C59.42 79.35 59.61 79.21 59.81 79.1L60 79C60.3238 78.809 60.6577 78.6354 61 78.48C60.7139 78.2259 60.4496 77.9483 60.21 77.65Z" fill="#350100"/>
<path d="M107.23 58.86C107.914 58.8904 108.597 58.7819 109.238 58.5411C109.879 58.3003 110.465 57.9321 110.96 57.4588C111.454 56.9854 111.848 56.4168 112.117 55.7871C112.386 55.1574 112.525 54.4798 112.525 53.795C112.525 53.1103 112.386 52.4326 112.117 51.8029C111.848 51.1732 111.454 50.6046 110.96 50.1313C110.465 49.6579 109.879 49.2897 109.238 49.0489C108.597 48.8081 107.914 48.6996 107.23 48.73C106.237 48.7268 105.266 49.0192 104.44 49.57C103.524 50.1598 102.822 51.0296 102.44 52.05C102.323 52.374 102.239 52.7091 102.19 53.05C102.175 53.2798 102.175 53.5103 102.19 53.74C102.193 55.0821 102.726 56.3687 103.674 57.3186C104.622 58.2686 105.908 58.8047 107.25 58.81L107.23 58.86Z" fill="#350100"/>
<path d="M100.4 67.27H100.58C101.508 67.5457 102.36 68.0316 103.07 68.69C103.527 69.109 103.918 69.5944 104.23 70.13C104.43 69.68 104.66 68.69 103.23 68.13L103.1 67.42L102.52 64.23C102.726 64.2036 102.934 64.2036 103.14 64.23C104.698 64.4641 106.136 65.2057 107.23 66.34C108.189 65.3668 109.396 64.675 110.72 64.34C111.492 63.3601 112.535 62.6297 113.72 62.24C112.914 61.3054 111.923 60.5482 110.809 60.0163C109.695 59.4844 108.484 59.1894 107.25 59.15C105.811 59.169 104.401 59.5618 103.16 60.29C102.205 60.831 101.355 61.5389 100.65 62.38C100.584 62.4522 100.524 62.529 100.47 62.61C100.399 62.6835 100.335 62.7639 100.28 62.85C99.375 64.0249 98.8515 65.4487 98.78 66.93C99.2683 66.9305 99.7549 66.9875 100.23 67.1L100.4 67.27Z" fill="#350100"/>
<path d="M111.57 73.51L111.83 73.39L111.61 73.21C110.746 72.4826 110.093 71.5363 109.72 70.47C108.822 70.6543 107.976 71.0332 107.24 71.58C106.4 70.9525 105.411 70.556 104.37 70.43C104.859 71.3543 105.113 72.3845 105.11 73.43C105.115 75.0039 104.525 76.5216 103.46 77.68C103.246 77.929 103.008 78.1568 102.75 78.36L102.62 78.47L102.74 78.53C103.04 78.67 103.34 78.83 103.64 79C104.286 79.3883 104.89 79.8442 105.44 80.36C105.639 80.5305 105.826 80.7143 106 80.91C106.256 79.3165 106.898 77.8096 107.868 76.52C108.839 75.2305 110.11 74.1973 111.57 73.51Z" fill="#350100"/>
<path d="M85.48 61.55C85.551 61.7741 85.6414 61.9916 85.75 62.2C86.2596 63.243 87.1124 64.079 88.1653 64.5679C89.2181 65.0568 90.4071 65.1689 91.5327 64.8852C92.6584 64.6016 93.6523 63.9395 94.3477 63.01C95.0432 62.0806 95.3979 60.9403 95.3524 59.7803C95.3069 58.6204 94.864 57.5113 94.0979 56.6392C93.3318 55.767 92.2891 55.1848 91.1447 54.9902C90.0003 54.7956 88.8237 55.0004 87.8124 55.5702C86.8011 56.1401 86.0164 57.0403 85.59 58.12C85.5017 58.3484 85.4282 58.5822 85.37 58.82C85.2789 59.2066 85.2353 59.6029 85.24 60C85.2425 60.5257 85.3234 61.0481 85.48 61.55Z" fill="#350100"/>
<path d="M85.69 71.05V70.8L85.64 70.5C86.2542 70.4752 86.867 70.5773 87.44 70.8C87.6509 70.8635 87.8552 70.9472 88.05 71.05C88.8991 71.4444 89.6738 71.9823 90.34 72.64C91.0028 71.9827 91.7742 71.4448 92.62 71.05C92.7341 70.9843 92.8548 70.9306 92.98 70.89L93.23 70.8H93C93.6128 69.4567 94.6733 68.368 96 67.72C94.4519 66.2993 92.4406 65.489 90.34 65.44C88.6725 65.468 87.0508 65.9901 85.68 66.94C85.5895 66.9942 85.5026 67.0544 85.42 67.12C83.7246 68.2767 82.5087 70.0116 82 72C83.557 72.0329 85.0464 72.6422 86.18 73.71L85.69 71.05Z" fill="#350100"/>
<path d="M93.31 76.62C92.2223 76.7158 91.1831 77.1142 90.31 77.77C89.6194 77.2601 88.8341 76.8929 88 76.69C88.1533 77.2334 88.2307 77.7954 88.23 78.36C88.2274 78.6712 88.204 78.9819 88.16 79.29C88.1637 79.3533 88.1637 79.4167 88.16 79.48V79.66C87.9711 80.5503 87.5925 81.3893 87.05 82.12C86.8796 82.3502 86.6924 82.5674 86.49 82.77C86.2793 82.9972 86.0484 83.2048 85.8 83.39C86.0836 83.516 86.3606 83.6561 86.63 83.81C87.3509 84.2176 88.0221 84.7076 88.63 85.27C88.83 85.45 89.02 85.65 89.2 85.84C89.3993 84.5041 89.8947 83.2297 90.65 82.11C90.7109 82.0095 90.7777 81.9127 90.85 81.82C91.4394 80.9972 92.147 80.266 92.95 79.65L93.2 79.47L93.47 79.28C93.7 79.12 93.93 78.98 94.18 78.84C94.43 78.7 94.67 78.58 94.92 78.46H95.01L94.93 78.39C94.2823 77.9085 93.7324 77.3077 93.31 76.62Z" fill="#350100"/>
<path d="M73.37 65.05H73.71L74 65C74.8137 64.9021 75.5921 64.6106 76.27 64.15C76.5466 63.9618 76.8044 63.7475 77.04 63.51C77.9308 62.5929 78.4415 61.3727 78.4693 60.0945C78.4971 58.8163 78.0401 57.575 77.19 56.62C76.975 56.3683 76.7336 56.1403 76.47 55.94C75.6764 55.3418 74.7224 54.9936 73.73 54.94H73.41C72.068 54.94 70.781 55.4731 69.832 56.422C68.8831 57.371 68.35 58.658 68.35 60C68.35 61.342 68.8831 62.629 69.832 63.578C70.781 64.5269 72.068 65.06 73.41 65.06L73.37 65.05Z" fill="#350100"/>
<path d="M70.74 70.89C71.7195 71.3018 72.6119 71.8956 73.37 72.64C73.49 72.52 73.62 72.4 73.74 72.3L73.99 72.09C74.5938 71.5935 75.2678 71.1891 75.99 70.89C76.2567 70.79 76.5067 70.71 76.74 70.65C77.1752 70.5258 77.6281 70.4751 78.08 70.5L77.49 73.73C78.6216 72.6565 80.1107 72.0402 81.67 72C81.3421 70.758 80.7447 69.6035 79.9203 68.6184C79.0959 67.6332 78.0647 66.8417 76.9 66.3C76.6677 66.1768 76.4271 66.0698 76.18 65.98C75.4816 65.7061 74.7474 65.5343 74 65.47H73.75H73.4C71.302 65.5226 69.2929 66.3283 67.74 67.74C69.0741 68.4116 70.1342 69.5248 70.74 70.89Z" fill="#350100"/>
<path d="M76.19 81.26C76.0672 81.0275 75.9603 80.7869 75.87 80.54C75.7292 80.1685 75.6286 79.7829 75.57 79.39C75.5158 79.0593 75.4857 78.7251 75.48 78.39C75.4793 77.8254 75.5567 77.2634 75.71 76.72C74.9971 76.8792 74.3194 77.1673 73.71 77.57L73.45 77.73L73.37 77.8C72.498 77.1423 71.4582 76.7437 70.37 76.65C69.981 77.3201 69.4686 77.9105 68.86 78.39L68.76 78.47H68.86C69.8632 78.9322 70.7851 79.5536 71.59 80.31C72.1845 80.8486 72.7087 81.4601 73.15 82.13L73.37 82.48L73.6 82.88C74.1078 83.7881 74.4467 84.7809 74.6 85.81C74.78 85.62 74.97 85.43 75.16 85.25C75.35 85.07 75.42 85.01 75.56 84.9C75.7 84.79 75.82 84.68 75.96 84.58C76.3394 84.2837 76.7406 84.0163 77.16 83.78C77.4262 83.6295 77.6999 83.4926 77.98 83.37C77.7425 83.1791 77.5187 82.972 77.31 82.75C76.8625 82.3136 76.4848 81.8111 76.19 81.26Z" fill="#350100"/>
<path d="M86.14 81C86.6169 80.2344 86.88 79.3551 86.9021 78.4534C86.9241 77.5517 86.7043 76.6606 86.2654 75.8726C85.8265 75.0847 85.1846 74.4286 84.4063 73.9727C83.6281 73.5167 82.742 73.2776 81.84 73.28C81.1755 73.28 80.5175 73.4109 79.9036 73.6652C79.2897 73.9194 78.7319 74.2922 78.262 74.762C77.7922 75.2319 77.4195 75.7897 77.1652 76.4036C76.9109 77.0175 76.78 77.6755 76.78 78.34C76.7751 79.2795 77.0351 80.2014 77.53 81C77.8314 81.4846 78.2097 81.9169 78.65 82.28C79.2051 82.7417 79.8537 83.0778 80.551 83.265C81.2484 83.4522 81.978 83.4862 82.6897 83.3645C83.4015 83.2429 84.0784 82.9686 84.674 82.5604C85.2696 82.1522 85.7697 81.6199 86.14 81Z" fill="#350100"/>
<path d="M103.21 75.83C103.557 75.1937 103.763 74.4904 103.816 73.7675C103.868 73.0447 103.764 72.319 103.512 71.6395C103.26 70.96 102.865 70.3425 102.354 69.8285C101.843 69.3145 101.228 68.9161 100.55 68.66C100.49 68.6296 100.426 68.6093 100.36 68.6C100.303 68.5712 100.243 68.551 100.18 68.54C99.7515 68.4121 99.3072 68.3447 98.86 68.34H98.77C98.435 68.3387 98.1005 68.3655 97.77 68.42L97.52 68.48C97.2963 68.538 97.076 68.6081 96.86 68.69C95.9366 69.0574 95.1407 69.6865 94.57 70.5C94.5008 70.5962 94.4373 70.6964 94.38 70.8C94.3274 70.8799 94.2806 70.9634 94.24 71.05C93.8532 71.7725 93.6538 72.5805 93.66 73.4C93.6604 73.8107 93.7073 74.22 93.8 74.62C93.7956 74.6632 93.7956 74.7068 93.8 74.75C93.8308 74.8827 93.8709 75.013 93.92 75.14C93.92 75.27 94.02 75.4 94.08 75.52V75.62V75.71C94.08 75.81 94.19 75.91 94.25 76.01C94.2764 76.0589 94.3065 76.1057 94.34 76.15L94.45 76.31L94.55 76.46L94.67 76.6C94.67 76.67 94.78 76.73 94.83 76.79L95.05 77.02L95.23 77.17L95.4 77.33L95.59 77.47L95.78 77.6C96.6077 78.1562 97.5828 78.4522 98.58 78.45C98.9434 78.4508 99.3057 78.4105 99.66 78.33H99.85L100.04 78.27C101.068 77.9614 101.971 77.3347 102.62 76.48C102.839 76.2847 103.037 76.0668 103.21 75.83Z" fill="#350100"/>
<path d="M68.93 76.48L69.04 76.33C69.11 76.23 69.17 76.13 69.23 76.03C69.2942 75.9344 69.351 75.8342 69.4 75.73L69.52 75.49C69.5727 75.3758 69.6194 75.259 69.66 75.14C69.7091 75.013 69.7492 74.8827 69.78 74.75C69.783 74.7067 69.783 74.6633 69.78 74.62C69.9046 74.2243 69.9785 73.8143 70 73.4C69.996 72.3843 69.6882 71.3929 69.1161 70.5536C68.544 69.7142 67.7339 69.0652 66.79 68.69C66.6115 68.6134 66.4277 68.5499 66.24 68.5C65.8125 68.3869 65.3722 68.3298 64.93 68.33H64.84C63.9687 68.3471 63.1165 68.5884 62.3657 69.0307C61.6148 69.4731 60.9907 70.1015 60.5535 70.8553C60.1163 71.6092 59.8807 72.463 59.8696 73.3344C59.8585 74.2057 60.0722 75.0653 60.49 75.83C60.6158 76.0578 60.7596 76.2752 60.92 76.48C61.1168 76.7434 61.3415 76.9848 61.59 77.2C62.5133 78.0118 63.7006 78.4597 64.93 78.46C65.341 78.4564 65.7503 78.406 66.15 78.31C66.7133 78.1702 67.248 77.9333 67.73 77.61L67.89 77.5L68.16 77.28L68.42 77.05L68.64 76.82L68.7 76.76C68.84 76.59 68.88 76.53 68.93 76.48Z" fill="#350100"/>
<path d="M111.79 65.15C111.047 66.0547 110.64 67.1892 110.64 68.36V68.51C110.67 69.6522 111.09 70.7498 111.83 71.62C112.372 72.2614 113.065 72.7578 113.847 73.0645C114.628 73.3712 115.474 73.4785 116.308 73.3768C117.141 73.2751 117.936 72.9676 118.621 72.482C119.306 71.9964 119.86 71.348 120.232 70.5951C120.603 69.8423 120.782 69.0087 120.752 68.1696C120.721 67.3305 120.482 66.5122 120.056 65.7884C119.63 65.0647 119.031 64.4583 118.313 64.0238C117.594 63.5894 116.779 63.3407 115.94 63.3H115.7C114.951 63.296 114.211 63.4601 113.535 63.7803C112.858 64.1005 112.262 64.5686 111.79 65.15Z" fill="#350100"/>
<path d="M53 68.51C53.005 68.4601 53.005 68.4099 53 68.36C52.9975 67.2198 52.6115 66.1136 51.9041 65.2193C51.1967 64.3251 50.209 63.6949 49.1 63.43C48.7396 63.3432 48.3707 63.2962 48 63.29H47.71C46.3654 63.3285 45.0911 63.8995 44.1674 64.8775C43.2438 65.8555 42.7465 67.1604 42.785 68.505C42.8235 69.8497 43.3945 71.124 44.3725 72.0476C45.3505 72.9712 46.6554 73.4685 48 73.43H48.45C49.2142 73.3586 49.9525 73.1159 50.61 72.72C51.0893 72.4356 51.5156 72.0701 51.87 71.64C52.593 70.7563 52.9918 69.6518 53 68.51Z" fill="#350100"/>
<path d="M53 64.43C54.3217 64.7716 55.5271 65.4624 56.49 66.43C57.2824 65.6277 58.2418 65.0097 59.3 64.62C59.9037 64.3799 60.5507 64.2675 61.2 64.29L60.49 68.19C60.0599 68.3233 59.7003 68.6218 59.49 69.02C59.4177 69.1926 59.3804 69.3779 59.3804 69.565C59.3804 69.7522 59.4177 69.9374 59.49 70.11C59.4933 70.1332 59.4933 70.1568 59.49 70.18C60.0594 69.219 60.8693 68.4228 61.84 67.87L62.2 67.67L62.57 67.51C63.3287 67.1999 64.1404 67.0402 64.96 67.04C64.8782 65.9391 64.5695 64.867 64.0532 63.8912C63.5369 62.9153 62.8242 62.057 61.96 61.37C61.84 61.26 61.7 61.15 61.57 61.05C61.4465 60.951 61.3161 60.8608 61.18 60.78C60.4425 60.2644 59.6295 59.8663 58.77 59.6C58.027 59.3589 57.2512 59.2341 56.47 59.23C55.2349 59.2664 54.0211 59.5611 52.9068 60.095C51.7925 60.6289 50.8023 61.3903 50 62.33C51.1859 62.7175 52.23 63.4484 53 64.43Z" fill="#350100"/>
<path d="M85.82 19.39C85.9028 19.39 85.97 19.3228 85.97 19.24C85.97 19.1572 85.9028 19.09 85.82 19.09C85.7372 19.09 85.67 19.1572 85.67 19.24C85.67 19.3228 85.7372 19.39 85.82 19.39Z" fill="white"/>
<path d="M79.84 19.39C79.9228 19.39 79.99 19.3228 79.99 19.24C79.99 19.1572 79.9228 19.09 79.84 19.09C79.7572 19.09 79.69 19.1572 79.69 19.24C79.69 19.3228 79.7572 19.39 79.84 19.39Z" fill="white"/>
</g>
<g clip-path="url(#clip1_6_2565)">
<path d="M34.75 166.29C35.2135 165.124 35.4281 163.874 35.38 162.62V157.11C34.5845 157.753 33.8753 158.496 33.27 159.32C32.27 160.56 31.76 161.32 31.78 161.64L31.93 163.79H28.22C28.2103 163.697 28.2103 163.603 28.22 163.51C28.4815 161.538 28.968 159.602 29.67 157.74C29.3 157.74 28.79 158.11 28.13 158.86C27.45 159.78 26.78 160.71 26.13 161.64C25.9499 161.948 25.831 162.287 25.78 162.64C25.78 162.89 25.71 163.26 25.68 163.74H22C21.4899 163.696 21.0004 163.519 20.5808 163.226C20.1611 162.933 19.8263 162.534 19.61 162.07C18.55 160.283 17.7633 158.95 17.25 158.07L14.25 163C15.1051 164.13 15.8391 165.347 16.44 166.63C17.1218 167.865 17.5438 169.226 17.68 170.63C17.34 171.09 16.19 171.49 14.23 171.83C12.9314 172.054 11.6175 172.178 10.3 172.2C5.98 172.2 3.81 170.62 3.81 167.46C3.78176 166.028 4.21667 164.625 5.05 163.46C5.98 162.3 6.69 161.46 7.17 160.87C6.56 160.97 6.17 161.12 6.17 161.33C5.64 161.33 4.79 162.23 3.61 164.02C2.8055 165.109 2.13408 166.291 1.61 167.54C0.983082 169.072 0.617996 170.697 0.529999 172.35C0.529999 175.917 3.49 177.703 9.41 177.71C10.8412 177.581 12.246 177.244 13.58 176.71C14.9313 176.344 16.2029 175.73 17.33 174.9C18.0159 174.079 18.5785 173.163 19 172.18C19.5547 171.279 19.9347 170.282 20.12 169.24H25L25.78 168.44C26.0164 168.685 26.2275 168.953 26.41 169.24H33.57C33.8992 168.232 34.2934 167.247 34.75 166.29Z" fill="#560702"/>
<path d="M71.21 172.75C70.5833 173.417 70.2133 173.75 70.1 173.75C69.4628 173.566 68.8658 173.264 68.34 172.86C67.7075 172.483 67.1116 172.048 66.56 171.56L65.61 172.56C65.28 172.92 64.61 173.66 63.74 174.8C64.2652 175.348 64.8809 175.801 65.56 176.14C66.216 176.54 66.9093 176.874 67.63 177.14C68.34 176.32 69.01 175.6 69.63 174.97C72.13 176.477 73.43 177.23 73.53 177.23C73.7 177.23 74.19 176.73 74.99 175.73C75.65 174.92 76.11 174.31 76.39 173.89L72.39 171.44C72.34 171.57 71.93 172 71.21 172.75Z" fill="#560702"/>
<path d="M87.81 171.34C87.43 171.34 86.25 172.57 84.29 175.03C84.34 175.39 84.95 176.03 86.13 176.95C86.7931 177.589 87.5985 178.062 88.48 178.33C89.2205 177.872 89.8937 177.314 90.48 176.67C91.1372 176.129 91.731 175.515 92.25 174.84C92.2567 174.66 90.7767 173.493 87.81 171.34Z" fill="#560702"/>
<path d="M109.92 153.12C108.78 155.24 107.83 156.86 107.06 158C108.499 159.704 109.596 161.67 110.29 163.79H93.29C93.7521 163.543 94.2298 163.326 94.72 163.14C96.1867 162.538 97.7548 162.223 99.34 162.21C100.158 160.823 100.889 159.387 101.53 157.91H100.32C98.626 157.957 96.9314 157.84 95.26 157.56C94.78 157.427 93.05 156.857 90.07 155.85C88.4157 155.219 86.6766 154.838 84.91 154.72C84.0362 154.677 83.1676 154.878 82.4012 155.3C81.6348 155.722 81.0008 156.349 80.57 157.11C79.7891 158.702 79.1983 160.38 78.81 162.11C79.2643 161.355 79.9737 160.787 80.81 160.51C81.6001 160.184 82.4452 160.011 83.3 160C84.4056 160.141 85.4943 160.392 86.55 160.75C87.5843 160.97 88.5906 161.305 89.55 161.75C89.0482 162.295 88.4476 162.739 87.78 163.06C87.1749 163.438 86.4903 163.671 85.78 163.74H76.97C76.2915 163.742 75.6387 163.481 75.15 163.01C74.8997 162.811 74.708 162.548 74.5953 162.248C74.4826 161.949 74.4531 161.625 74.51 161.31C74.7912 159.618 74.9383 157.906 74.95 156.19C74.9616 156.074 74.9616 155.956 74.95 155.84V155.17C74.86 155.26 74.26 155.95 73.17 157.26C72.08 158.57 71.53 159.26 71.51 159.34C71.5132 160.818 71.3624 162.293 71.06 163.74H61.58C60.66 163.85 60.19 163.39 60.19 162.35C60.19 162.05 60.07 160.46 59.82 157.58C59.62 155.08 59.4167 152.577 59.21 150.07C58.8833 146.523 58.5667 144.75 58.26 144.75C57.5858 145.556 56.9836 146.419 56.46 147.33C56.32 147.55 55.78 148.48 54.85 150.11L56.56 163.74H51.2C50.9789 161.981 50.5249 160.259 49.85 158.62C48.87 156.32 47.7267 155.17 46.42 155.17C45.3 155.17 44.26 155.9 43.28 157.36C42.5048 158.598 41.8357 159.899 41.28 161.25C40.6477 162.564 40.2516 163.979 40.11 165.43C40.11 167.903 42.41 169.137 47.01 169.13C46.1578 170.01 45.2122 170.795 44.19 171.47C41.8282 173.156 39.0741 174.21 36.19 174.53C34.64 174.64 33.51 174.71 32.79 174.74C33.4967 175.28 35.1867 175.773 37.86 176.22C39.6718 176.56 41.5074 176.757 43.35 176.81C46.15 176.81 48.45 174.27 50.25 169.19H54.6C55.85 166.85 56.49 165.65 56.51 165.57L56.61 168.17C56.61 168.85 56.95 169.17 57.61 169.17H69.66L71.61 165.78C71.848 166.669 72.2667 167.5 72.84 168.22C73.1533 168.555 73.5355 168.817 73.9602 168.99C74.3849 169.163 74.842 169.241 75.3 169.22H84.24C84.839 169.224 85.4213 169.023 85.89 168.65L87.15 167.35C88.15 166.35 88.67 165.75 88.86 165.6C89.4267 165.033 90.1723 164.68 90.97 164.6C90.97 165.52 90.92 166.2 90.92 166.6C90.9197 167.483 91.0068 168.364 91.18 169.23H100.65H112.54C113.074 166.724 113.435 164.185 113.62 161.63C113.611 160.844 113.531 160.061 113.38 159.29C113.127 157.99 111.973 155.933 109.92 153.12ZM46.4 163.83C45.6219 163.835 44.8517 163.674 44.14 163.36C43.26 162.953 42.82 162.403 42.82 161.71C43.49 160.55 44.13 159.97 44.75 159.97C45.89 159.97 46.7733 161.137 47.4 163.47C47.4 163.71 47.07 163.83 46.4 163.83Z" fill="#560702"/>
<path d="M109.17 150.2C110.25 149.067 110.79 148.4 110.79 148.2C110.45 148.2 108.977 147.42 106.37 145.86C106.023 145.86 104.777 147.147 102.63 149.72C104.325 150.325 105.959 151.088 107.51 152C107.53 151.93 108.08 151.33 109.17 150.2Z" fill="#560702"/>
<path d="M119.5 146.93C118.766 147.981 118.098 149.076 117.5 150.21C116.86 151.209 116.355 152.288 116 153.42L118.15 169.72C120.067 167.262 121.074 164.216 121 161.1C121 159.16 120.897 157.137 120.69 155.03C120.103 149.63 119.707 146.93 119.5 146.93Z" fill="#560702"/>
<path d="M140.19 179.68C139.54 180.29 139.19 180.59 139.02 180.59C138.383 180.439 137.781 180.163 137.25 179.78C136.627 179.438 136.04 179.033 135.5 178.57C133.65 180.49 132.69 181.49 132.63 181.57C133.176 182.052 133.794 182.446 134.46 182.74C135.127 183.106 135.823 183.417 136.54 183.67C137.176 182.928 137.89 182.258 138.67 181.67C141.21 183.07 142.49 183.77 142.53 183.77C142.57 183.77 143.19 183.31 143.99 182.4C144.66 181.65 145.13 181.1 145.4 180.73L141.45 178.48C141.33 178.58 140.91 178.98 140.19 179.68Z" fill="#560702"/>
<path d="M159.75 150.2C160.83 149.067 161.37 148.4 161.37 148.2C159.831 147.581 158.365 146.793 157 145.85C156.64 145.85 155.39 147.137 153.25 149.71C154.932 150.318 156.553 151.085 158.09 152C158.11 151.93 158.67 151.33 159.75 150.2Z" fill="#560702"/>
<path d="M164 159.3C163.74 157.967 162.59 155.907 160.55 153.12C159.41 155.24 158.46 156.86 157.69 158C159.133 159.702 160.23 161.668 160.92 163.79H153.8V163.64H142.16C140.988 165.219 139.983 166.914 139.16 168.7L142.83 169.06C143.716 168.999 144.602 169.17 145.402 169.556C146.201 169.941 146.887 170.529 147.39 171.26L144.16 172.1C142.237 172.53 140.271 172.742 138.3 172.73C136.764 172.734 135.258 172.301 133.96 171.48C133.28 171.16 132.703 170.658 132.291 170.03C131.88 169.401 131.651 168.671 131.63 167.92C131.648 166.279 132.108 164.673 132.96 163.27C133.806 161.871 134.794 160.564 135.91 159.37C135.53 159.37 134.69 160.02 133.41 161.3C130.03 164.68 128.34 167.993 128.34 171.24C128.288 172.232 128.505 173.219 128.965 174.099C129.426 174.978 130.115 175.718 130.96 176.24C132.707 177.215 134.691 177.686 136.69 177.6C138.482 177.545 140.264 177.314 142.01 176.91C143.758 176.608 145.446 176.027 147.01 175.19C148.015 174.444 148.851 173.493 149.46 172.4C149.87 171.76 150.46 170.68 151.22 169.16V169.31H163.1C163.634 166.804 163.995 164.265 164.18 161.71C164.195 160.903 164.135 160.096 164 159.3Z" fill="#560702"/>
<path d="M2.83 187.07C3.32298 187.363 3.83784 187.617 4.37 187.83C4.43 187.83 4.62 187.66 4.94 187.32C5.18 187.06 5.36 186.86 5.47 186.71L3.94 185.9C3.76662 186.024 3.60585 186.165 3.46001 186.32C3.21001 186.55 3.06001 186.66 2.99001 186.66C2.7402 186.604 2.50287 186.502 2.28999 186.36C2.04575 186.241 1.81452 186.097 1.60001 185.93C1.13001 186.36 0.749996 186.73 0.479996 187.02C0.703328 187.195 0.948797 187.339 1.21001 187.45C1.47206 187.591 1.74654 187.709 2.03 187.8C2.31 187.53 2.57 187.28 2.83 187.07Z" fill="black"/>
<path d="M11.07 195.85C10.9607 195.984 10.8328 196.102 10.69 196.2C10.4678 196.139 10.2602 196.034 10.08 195.89C9.86557 195.764 9.66453 195.617 9.48 195.45L9.14999 195.8C9.03999 195.92 8.82999 196.18 8.50999 196.57C8.68955 196.754 8.89924 196.906 9.13 197.02C9.3545 197.157 9.59239 197.271 9.84 197.36C10.08 197.08 10.31 196.84 10.53 196.62C11.39 197.14 11.83 197.4 11.86 197.4C11.89 197.4 12.09 197.22 12.36 196.88C12.5326 196.683 12.6929 196.476 12.84 196.26L11.49 195.42C11.3427 195.556 11.2025 195.7 11.07 195.85Z" fill="black"/>
<path d="M24.3 188.94C24.38 188.94 24.59 188.74 24.94 188.34C25.1594 188.104 25.3664 187.857 25.56 187.6L23.82 186.6C23.5831 186.781 23.3712 186.993 23.19 187.23L22.58 187.99L23.43 188.45C23.7109 188.629 24.0013 188.793 24.3 188.94Z" fill="black"/>
<path d="M35.08 187.36C34.9164 187.256 34.7821 187.111 34.69 186.94C34.6361 186.755 34.6125 186.563 34.62 186.37C34.44 186.37 34.01 187.02 33.33 188.37C33.4958 188.542 33.6728 188.702 33.86 188.85C33.99 189.47 34.11 190.1 34.23 190.73C34.3492 191.347 34.4194 191.972 34.44 192.6C34.44 192.74 34.44 192.82 34.44 192.82H32L30.91 191.82L28.83 189.82L27.78 188.82L31.98 187.61L32.58 185.88L27.26 187.17L27.03 187.76L26.72 188.76L26.38 189.76L29.46 192.83H26.36C26.1272 192.833 25.9021 192.747 25.73 192.59C25.6463 192.518 25.5823 192.427 25.5438 192.323C25.5053 192.22 25.4937 192.109 25.51 192C25.6113 191.426 25.6615 190.843 25.66 190.26C25.6639 190.217 25.6639 190.173 25.66 190.13V189.91L25.05 190.62C24.68 191.06 24.49 191.3 24.48 191.33C24.4854 191.834 24.4351 192.337 24.33 192.83H21.33C21.2536 192.822 21.1802 192.797 21.1158 192.755C21.0514 192.713 20.998 192.657 20.96 192.59C20.8622 192.45 20.7973 192.289 20.77 192.12L20.66 190.78C20.48 190.78 20.13 191.22 19.66 192.1V192.46C19.66 192.71 19.66 192.83 19.55 192.83H18.3C18.4073 192.445 18.4743 192.049 18.5 191.65C18.5 191.54 18.5 191.37 18.5 191.13C18.5 190.89 18.5 190.72 18.5 190.61C17.9955 191.038 17.5808 191.561 17.28 192.15V192.24C17.2846 192.287 17.2846 192.333 17.28 192.38C17.28 192.68 17.19 192.83 17.01 192.83H15.07C15.336 192.111 15.5107 191.362 15.59 190.6C15.46 190.6 15.26 190.89 14.99 191.33C14.94 191.4 14.77 191.69 14.47 192.2C14.47 192.62 14.37 192.83 14.17 192.83H13C12.7705 192.831 12.549 192.745 12.38 192.59C12.2923 192.522 12.2252 192.43 12.1864 192.326C12.1475 192.222 12.1384 192.109 12.16 192C12.2613 191.426 12.3115 190.843 12.31 190.26C12.3139 190.217 12.3139 190.173 12.31 190.13V189.91C12.31 189.91 12.07 190.17 11.7 190.62C11.33 191.07 11.14 191.3 11.13 191.33C11.1354 191.834 11.0851 192.337 10.98 192.83H7.85001C7.62727 192.836 7.40488 192.809 7.19 192.75C7.04793 192.687 6.92244 192.592 6.8235 192.472C6.72456 192.353 6.65488 192.211 6.62 192.06C6.62 191.75 6.51 191.44 6.45 191.13L5.99001 188.63C5.91809 188.163 5.81111 187.701 5.67 187.25C5.3 187.9 4.95001 188.48 4.60001 188.99C4.60686 189.09 4.63051 189.188 4.67 189.28C4.71079 189.375 4.73449 189.477 4.74001 189.58L3.25999 190.45C2.90274 190.631 2.56726 190.853 2.25999 191.11C1.96392 191.489 1.7402 191.92 1.60001 192.38C1.39329 192.826 1.25829 193.302 1.2 193.79C1.70017 193.827 2.19771 193.894 2.69 193.99L3.5 194.16C3.76627 194.224 4.03707 194.267 4.31 194.29C4.53 194.29 4.75001 194.08 4.96001 193.64C5.07855 193.353 5.25175 193.091 5.47 192.87C5.54 193.15 5.61 193.43 5.69 193.7C5.75154 193.955 5.86752 194.194 6.03 194.4C6.12813 194.498 6.24547 194.574 6.37457 194.624C6.50367 194.674 6.64172 194.696 6.78 194.69H10.52L11.19 193.53C11.267 193.837 11.4104 194.124 11.61 194.37C11.7184 194.481 11.8497 194.567 11.9948 194.622C12.1398 194.678 12.2952 194.701 12.45 194.69H13.81C13.9195 194.69 14.0274 194.663 14.1235 194.611C14.2197 194.558 14.301 194.482 14.36 194.39C14.44 194.39 14.55 194.49 14.7 194.69H17C17.05 194.69 17.12 194.64 17.22 194.54C17.32 194.44 17.38 194.38 17.41 194.38C17.44 194.38 17.61 194.49 17.75 194.69H19.91L20.25 194.19C20.35 194.42 20.43 194.58 20.48 194.69H23.79L24.45 193.53C24.527 193.837 24.6704 194.124 24.87 194.37C24.9784 194.481 25.1097 194.567 25.2548 194.622C25.3998 194.678 25.5552 194.701 25.71 194.69H29.38L29.73 194.11L30.09 193.49L30.77 194.15L31 194.37L31.11 194.47L31.22 194.58L31.35 194.69H34.5C34.87 194.77 35.1 194.6 35.2 194.21L35.42 193.21C35.4969 192.915 35.5438 192.614 35.56 192.31C35.42 191.043 35.35 190.263 35.35 189.97L36.69 188.33C36.1078 188.089 35.5651 187.762 35.08 187.36ZM3.44 191.79C3.53658 191.641 3.6712 191.52 3.83 191.44C3.99133 191.372 4.14543 191.289 4.28999 191.19L4.64999 190.78C4.74331 190.652 4.847 190.531 4.96001 190.42C5.09914 190.947 5.2093 191.481 5.28999 192.02C4.66515 192.039 4.04108 191.962 3.44 191.79Z" fill="black"/>
<path d="M38.72 187C38.4657 187.356 38.2384 187.73 38.04 188.12C37.8168 188.457 37.6418 188.824 37.52 189.21L38.25 194.78C38.9126 193.941 39.2657 192.899 39.25 191.83C39.25 191.17 39.25 190.48 39.14 189.76C39.0913 188.828 38.9506 187.904 38.72 187Z" fill="black"/>
<path d="M55.59 193.65C55.7531 193.251 55.8281 192.821 55.81 192.39V190.51C55.5337 190.726 55.291 190.982 55.09 191.27C54.74 191.69 54.57 191.95 54.58 192.06V192.79H53.32C53.32 192.79 53.32 192.79 53.32 192.7C53.403 192.016 53.5675 191.345 53.81 190.7C53.69 190.7 53.51 190.82 53.29 191.08L52.6 192.08C52.5349 192.19 52.494 192.313 52.48 192.44C52.48 192.52 52.48 192.65 52.48 192.81H51.23C51.0554 192.795 50.8877 192.735 50.7438 192.635C50.5998 192.535 50.4847 192.399 50.41 192.24C50.05 191.63 49.78 191.17 49.61 190.86L48.61 192.55C48.9022 192.936 49.1536 193.352 49.36 193.79C49.5917 194.213 49.7346 194.68 49.78 195.16C49.66 195.32 49.27 195.45 48.6 195.57C48.1577 195.65 47.7095 195.694 47.26 195.7C45.78 195.7 45.04 195.16 45.04 194.08C45.0291 193.585 45.1801 193.101 45.47 192.7L46.19 191.81C45.98 191.81 45.87 191.9 45.84 191.97C45.65 191.97 45.36 192.28 44.96 192.89C44.692 193.263 44.4672 193.666 44.29 194.09C44.0785 194.613 43.9536 195.167 43.92 195.73C43.92 196.95 44.92 197.56 46.92 197.56C47.4068 197.519 47.8851 197.408 48.34 197.23C48.8006 197.107 49.2345 196.9 49.62 196.62C49.8607 196.335 50.0625 196.019 50.22 195.68C50.4056 195.372 50.5343 195.033 50.6 194.68H52.25L52.51 194.41C52.594 194.491 52.6679 194.581 52.73 194.68H55.17C55.2895 194.329 55.4298 193.985 55.59 193.65Z" fill="black"/>
<path d="M63.69 188.35C63.94 188.09 64.19 187.84 64.44 187.61C64.6892 187.763 64.9462 187.903 65.21 188.03C65.437 188.162 65.6745 188.276 65.92 188.37C66.05 188.37 66.41 188 66.99 187.24L65.5 186.42C65.45 186.42 65.3 186.59 65.02 186.84C64.74 187.09 64.65 187.19 64.6 187.19C64.363 187.133 64.1391 187.031 63.94 186.89C63.7038 186.76 63.4796 186.609 63.27 186.44C62.98 186.72 62.62 187.09 62.19 187.56C62.4128 187.736 62.6542 187.887 62.91 188.01C63.1562 188.153 63.4179 188.267 63.69 188.35Z" fill="black"/>
<path d="M79.05 187.36C78.8815 187.258 78.7434 187.113 78.65 186.94C78.6008 186.754 78.5806 186.562 78.59 186.37C78.4 186.37 77.97 187.02 77.29 188.37C77.4613 188.54 77.6415 188.7 77.83 188.85L78.19 190.73C78.3114 191.347 78.385 191.972 78.41 192.6C78.41 192.74 78.41 192.82 78.41 192.82H76.41C76.4975 192.611 76.5977 192.407 76.71 192.21C76.549 191.696 76.2642 191.229 75.8806 190.851C75.497 190.472 75.0264 190.194 74.51 190.04C74.04 190.108 73.582 190.243 73.15 190.44C72.58 190.66 72.15 190.86 71.77 191.03C71.0221 191.375 70.3031 191.78 69.62 192.24C69.8026 191.715 69.93 191.172 70 190.62C69.9954 190.265 69.9653 189.911 69.91 189.56C70.18 189.56 70.43 189.37 70.66 189C70.72 188.89 70.87 188.59 71.09 188.08C70.4603 187.871 69.8976 187.499 69.46 187C69.3257 186.792 69.2213 186.567 69.15 186.33C68.905 186.545 68.6928 186.794 68.52 187.07C68.3109 187.305 68.1602 187.586 68.08 187.89C68.0777 188.041 68.1311 188.187 68.23 188.3C68.3753 188.465 68.4661 188.671 68.49 188.89C68.49 189.12 68.56 189.35 68.59 189.58L68.9 192.42C68.9 192.69 68.73 192.82 68.37 192.82H66.87L67.42 191.9C67.512 191.703 67.5532 191.487 67.54 191.27C67.5366 190.926 67.4652 190.586 67.33 190.27C67.14 189.86 66.89 189.66 66.57 189.66C65.957 189.718 65.3755 189.959 64.9 190.35C64.3831 190.707 63.9157 191.131 63.51 191.61C63.3565 191.799 63.213 191.996 63.08 192.2C62.9941 192.409 62.9532 192.634 62.96 192.86H61.21C61.133 192.259 60.9784 191.671 60.75 191.11C60.41 190.33 60.02 189.94 59.58 189.94C59.3543 189.965 59.1383 190.046 58.9516 190.175C58.7648 190.304 58.613 190.478 58.51 190.68C58.2393 191.101 58.0083 191.546 57.82 192.01C57.6032 192.459 57.4678 192.943 57.42 193.44C57.42 194.28 58.2 194.7 59.77 194.7C59.4708 195.007 59.1349 195.275 58.77 195.5C57.9606 196.054 57.0257 196.398 56.05 196.5L54.89 196.57C55.4293 196.846 56.0166 197.016 56.62 197.07C57.2365 197.191 57.862 197.261 58.49 197.28C59.49 197.28 60.24 196.41 60.85 194.67H61.42H68.2H77.43H78.43C78.79 194.75 79.02 194.58 79.12 194.19L79.35 193.19C79.4247 192.895 79.4683 192.594 79.48 192.29C79.34 191.023 79.27 190.243 79.27 189.95L80.62 188.31C80.051 188.076 79.5215 187.755 79.05 187.36ZM59.57 192.8C59.306 192.801 59.0443 192.75 58.8 192.65C58.6761 192.612 58.5667 192.537 58.4863 192.435C58.406 192.333 58.3584 192.209 58.35 192.08C58.58 191.69 58.8 191.49 59.01 191.49C59.4 191.49 59.7 191.89 59.91 192.68C59.91 192.76 59.8 192.8 59.57 192.8ZM65.29 192.8C65.0406 192.784 64.798 192.712 64.58 192.59C64.26 192.43 64.1 192.27 64.1 192.11C64.1 191.97 64.28 191.83 64.64 191.66C64.8632 191.538 65.1076 191.46 65.36 191.43C65.4831 191.431 65.6039 191.464 65.7106 191.525C65.8174 191.587 65.9067 191.674 65.97 191.78C66.1046 191.988 66.1743 192.232 66.17 192.48C66.0538 192.591 65.9153 192.677 65.7635 192.73C65.6117 192.784 65.4503 192.804 65.29 192.79V192.8ZM70.73 192.8C70.5902 192.81 70.4498 192.81 70.31 192.8C71.1827 192.083 72.254 191.65 73.38 191.56C73.7477 191.582 74.0985 191.722 74.38 191.96C74.6854 192.167 74.9277 192.454 75.08 192.79L70.73 192.8Z" fill="black"/>
<path d="M83.18 191.87C83.18 191.21 83.18 190.52 83.07 189.8C83.0367 188.87 82.9094 187.945 82.69 187.04C82.4349 187.397 82.2044 187.771 82 188.16C81.7815 188.5 81.6067 188.866 81.48 189.25L82.22 194.82C82.869 193.976 83.2079 192.934 83.18 191.87Z" fill="black"/>
<path d="M86.81 189.5C86.43 189.5 86 189.88 85.52 190.63C85.1929 191.031 84.9727 191.508 84.88 192.017C84.7873 192.526 84.8252 193.05 84.99 193.54C85.0572 193.729 85.1845 193.891 85.3524 194.001C85.5203 194.112 85.7197 194.164 85.92 194.15C86.1027 194.165 86.2866 194.141 86.4591 194.079C86.6317 194.017 86.7888 193.918 86.92 193.79C87.1432 193.482 87.3247 193.146 87.46 192.79C87.4767 192.883 87.4767 192.977 87.46 193.07C87.3585 193.736 86.9994 194.336 86.46 194.74C85.9977 195.247 85.4534 195.673 84.85 196C83.918 196.377 82.925 196.58 81.92 196.6C82.4587 196.878 83.0463 197.047 83.65 197.1C84.2664 197.222 84.8919 197.292 85.52 197.31C86.34 197.31 87.04 196.67 87.6 195.41C88.0369 194.47 88.2687 193.447 88.28 192.41C88.2567 191.826 88.1208 191.252 87.88 190.72C87.57 189.89 87.21 189.5 86.81 189.5ZM86.36 192.41C86.204 192.404 86.0509 192.366 85.9099 192.299C85.7689 192.232 85.643 192.137 85.54 192.02C85.5843 191.847 85.6824 191.693 85.82 191.58C85.9398 191.458 86.0996 191.384 86.27 191.37C86.366 191.376 86.4587 191.407 86.5393 191.46C86.6199 191.512 86.6855 191.585 86.73 191.67C86.8375 191.83 86.8965 192.017 86.9 192.21C86.7506 192.341 86.5584 192.412 86.36 192.41Z" fill="black"/>
<path d="M97.52 189.76C97.7748 189.527 98.0059 189.269 98.21 188.99C97.9585 188.778 97.6947 188.581 97.42 188.4C97.1781 188.214 96.9242 188.043 96.66 187.89C96.55 187.89 96.29 188.1 95.88 188.51C95.6058 188.756 95.3669 189.039 95.17 189.35C95.6263 189.738 96.1388 190.055 96.69 190.29C96.87 190.29 97.15 190.11 97.52 189.76Z" fill="black"/>
<path d="M97.39 192.68C97.6397 193.06 97.8668 193.454 98.07 193.86C98.2818 194.257 98.4143 194.692 98.46 195.14C98.35 195.3 97.95 195.43 97.29 195.55C96.8442 195.63 96.3928 195.673 95.94 195.68C94.47 195.68 93.73 195.14 93.73 194.06C93.7155 193.566 93.863 193.082 94.15 192.68L94.87 191.79C94.67 191.79 94.55 191.88 94.52 191.95C94.34 191.95 94.05 192.26 93.65 192.87C93.3797 193.244 93.1517 193.646 92.97 194.07C92.7609 194.593 92.6393 195.147 92.61 195.71C92.61 196.93 93.61 197.54 95.61 197.54C96.0969 197.5 96.5753 197.389 97.03 197.21C97.4884 197.095 97.9198 196.891 98.3 196.61C98.7119 196.15 99.0069 195.598 99.16 195C99.3143 194.619 99.3957 194.211 99.4 193.8C99.3489 192.841 98.9993 191.921 98.4 191.17L97.39 192.68Z" fill="black"/>
<path d="M113.55 187.36C113.386 187.255 113.252 187.111 113.16 186.94C113.111 186.754 113.091 186.562 113.1 186.37C112.91 186.37 112.48 187.02 111.8 188.37C111.967 188.544 112.147 188.705 112.34 188.85L112.7 190.73C112.819 191.347 112.889 191.972 112.91 192.6C112.91 192.74 112.91 192.82 112.91 192.82H108.37C108.54 192.74 108.7 192.66 108.86 192.6C109.362 192.394 109.898 192.286 110.44 192.28C110.715 191.806 110.965 191.319 111.19 190.82H110.77C110.194 190.835 109.617 190.792 109.05 190.69C108.88 190.69 108.29 190.46 107.27 190.11C106.706 189.894 106.113 189.765 105.51 189.73C105.213 189.716 104.917 189.784 104.656 189.927C104.395 190.07 104.178 190.282 104.03 190.54C103.768 191.09 103.566 191.666 103.43 192.26C103.588 192.007 103.828 191.817 104.11 191.72C104.384 191.597 104.68 191.532 104.98 191.53C105.357 191.576 105.729 191.66 106.09 191.78C106.436 191.862 106.771 191.983 107.09 192.14C106.926 192.332 106.721 192.486 106.49 192.59C106.283 192.722 106.045 192.801 105.8 192.82H102.3C102.216 192.813 102.137 192.776 102.078 192.715C102.019 192.654 101.985 192.574 101.98 192.49L101.89 191.32L101.64 188.62C101.56 187.74 101.5 187.03 101.45 186.49C100.95 187.13 100.58 187.63 100.33 187.98L100.71 192.8C100.82 194.04 100.88 194.66 100.9 194.68H105.26C105.463 194.682 105.66 194.615 105.82 194.49L106.25 194.04C106.58 193.7 106.77 193.5 106.83 193.45C107.024 193.249 107.282 193.122 107.56 193.09C107.56 193.41 107.56 193.64 107.56 193.78C107.56 194.082 107.59 194.384 107.65 194.68H113C113.37 194.76 113.6 194.59 113.7 194.2L113.93 193.2C114 192.904 114.043 192.603 114.06 192.3C113.92 191.033 113.85 190.253 113.85 189.96L115.19 188.32C114.598 188.085 114.045 187.761 113.55 187.36Z" fill="black"/>
<path d="M115.65 186.49C116.148 186.103 116.751 185.874 117.38 185.83C117.505 185.675 117.619 185.511 117.72 185.34H116.78C116.488 185.321 116.213 185.2 116 185C116.136 184.877 116.301 184.791 116.48 184.75C116.657 184.811 116.82 184.906 116.96 185.03L117.24 184.62C117.238 184.574 117.225 184.529 117.203 184.489C117.18 184.449 117.148 184.415 117.11 184.39C117.039 184.331 116.952 184.296 116.86 184.29C116.539 184.297 116.234 184.43 116.01 184.66C115.895 184.768 115.804 184.898 115.74 185.043C115.676 185.187 115.642 185.342 115.64 185.5C115.64 185.6 115.9 185.72 116.41 185.84L115.96 186.13C115.829 186.223 115.723 186.347 115.65 186.49Z" fill="black"/>
<path d="M123 187.21C122.817 187.134 122.66 187.005 122.55 186.84C122.47 186.661 122.436 186.465 122.45 186.27C122.017 186.844 121.616 187.441 121.25 188.06L121.54 188.43C121.637 188.632 121.681 188.856 121.67 189.08C121.658 189.637 121.503 190.181 121.22 190.66C120.609 189.807 119.905 189.026 119.12 188.33C117.81 187.24 116.92 186.69 116.45 186.69C116.088 187.304 115.85 187.984 115.75 188.69C115.756 188.941 115.856 189.18 116.03 189.36C116.198 189.557 116.411 189.711 116.65 189.81C116.976 189.95 117.294 190.11 117.6 190.29C117.74 190.37 118.04 190.57 118.49 190.87C118.55 190.87 118.63 190.79 118.74 190.63C118.785 190.539 118.842 190.455 118.91 190.38C119.03 190.38 119.29 190.57 119.69 190.96C120.09 191.35 120.29 191.58 120.29 191.7C120.048 191.988 119.761 192.235 119.44 192.43C119.115 192.658 118.736 192.797 118.34 192.83L118.01 193.76C117.79 194.33 117.67 194.64 117.66 194.69H122.11C122.176 194.256 122.22 193.819 122.24 193.38C122.25 193.217 122.25 193.053 122.24 192.89C122.02 192.24 121.83 191.72 121.67 191.34C121.738 191.274 121.801 191.204 121.86 191.13C122.363 190.579 122.666 189.874 122.72 189.13L122.92 189.22C123.019 189.245 123.122 189.245 123.22 189.22L124.14 187.87C124.15 187.84 123.78 187.6 123 187.21ZM120.63 193.05C120.397 193.076 120.163 193.076 119.93 193.05C120.252 192.828 120.542 192.562 120.79 192.26C121.002 192.486 121.148 192.766 121.21 193.07C121.03 193.076 120.849 193.069 120.67 193.05H120.63Z" fill="black"/>
<path d="M126.16 187C125.905 187.357 125.674 187.731 125.47 188.12C125.251 188.46 125.077 188.826 124.95 189.21L125.69 194.78C126.353 193.941 126.707 192.899 126.69 191.83C126.692 191.138 126.655 190.447 126.58 189.76C126.534 188.828 126.393 187.903 126.16 187Z" fill="black"/>
<path d="M141.37 195.85C141.16 196.08 141.03 196.2 140.99 196.2C140.772 196.136 140.568 196.031 140.39 195.89C140.173 195.763 139.969 195.616 139.78 195.45L139.46 195.8C139.35 195.92 139.13 196.18 138.82 196.57C139 196.754 139.209 196.906 139.44 197.02C139.664 197.157 139.902 197.271 140.15 197.36C140.39 197.08 140.62 196.84 140.84 196.62C141.69 197.14 142.14 197.4 142.17 197.4C142.2 197.4 142.4 197.22 142.67 196.88C142.94 196.54 143.05 196.4 143.15 196.26L141.8 195.42C141.8 195.42 141.62 195.59 141.37 195.85Z" fill="black"/>
<path d="M156.77 188.35L157.53 187.61C157.779 187.763 158.036 187.903 158.3 188.03C158.527 188.162 158.764 188.276 159.01 188.37C159.14 188.37 159.5 188 160.08 187.24L158.59 186.42L158.11 186.84C157.88 187.07 157.74 187.19 157.69 187.19C157.453 187.133 157.229 187.031 157.03 186.89C156.795 186.763 156.574 186.613 156.37 186.44C156.07 186.72 155.71 187.09 155.28 187.56C155.502 187.735 155.743 187.883 156 188C156.244 188.142 156.502 188.259 156.77 188.35Z" fill="black"/>
<path d="M164.19 188.32C163.595 188.073 163.042 187.735 162.55 187.32C162.386 187.215 162.252 187.071 162.16 186.9C162.106 186.715 162.083 186.523 162.09 186.33C161.91 186.33 161.48 186.98 160.8 188.33C160.967 188.504 161.147 188.665 161.34 188.81L161.7 190.69C161.819 191.307 161.889 191.932 161.91 192.56C161.91 192.7 161.91 192.78 161.91 192.78H160.11C159.88 192.781 159.659 192.695 159.49 192.54C159.402 192.472 159.335 192.38 159.296 192.276C159.258 192.172 159.248 192.059 159.27 191.95C159.361 191.374 159.411 190.793 159.42 190.21C159.42 190.21 159.42 190.14 159.42 190.08V189.86C159.42 189.86 159.18 190.12 158.81 190.57C158.44 191.02 158.25 191.25 158.24 191.28C158.245 191.784 158.195 192.287 158.09 192.78H155.09C155.013 192.775 154.938 192.75 154.874 192.708C154.809 192.666 154.756 192.608 154.72 192.54C154.62 192.4 154.551 192.239 154.52 192.07L154.42 190.73C154.233 190.73 153.883 191.17 153.37 192.05C153.366 192.107 153.366 192.163 153.37 192.22V192.41C153.37 192.66 153.37 192.78 153.25 192.78H152.1C152.205 192.395 152.269 191.999 152.29 191.6C152.29 191.49 152.29 191.32 152.29 191.08C152.29 190.84 152.29 190.67 152.29 190.56C151.785 190.988 151.371 191.511 151.07 192.1V192.19C151.075 192.237 151.075 192.283 151.07 192.33C151.07 192.63 150.98 192.78 150.8 192.78H148.86C149.126 192.061 149.301 191.312 149.38 190.55C149.129 190.747 148.924 190.996 148.78 191.28C148.73 191.35 148.56 191.64 148.26 192.15C148.26 192.57 148.16 192.78 147.96 192.78H146.64C146.32 192.78 146.16 192.66 146.16 192.31C146.16 192.21 146.16 191.66 146.03 190.68C145.9 189.7 145.9 188.97 145.83 188.12C145.71 186.9 145.6 186.3 145.5 186.3C145.271 186.575 145.067 186.869 144.89 187.18C144.89 187.25 144.65 187.57 144.34 188.18L144.92 192.83H143.32C143.09 192.831 142.869 192.745 142.7 192.59C142.612 192.522 142.545 192.43 142.506 192.326C142.468 192.222 142.458 192.109 142.48 192C142.571 191.424 142.621 190.843 142.63 190.26C142.63 190.26 142.63 190.19 142.63 190.13V189.91C142.63 189.91 142.39 190.17 142.02 190.62C141.65 191.07 141.46 191.3 141.45 191.33C141.455 191.834 141.405 192.337 141.3 192.83H137.5C137.118 192.574 136.844 192.186 136.73 191.74L136.26 189.74C135.903 189.785 135.549 189.852 135.2 189.94C134.573 190.093 133.955 190.284 133.35 190.51C132.778 190.713 132.287 191.095 131.95 191.6C131.697 191.962 131.492 192.355 131.34 192.77L131.1 193.51L131.34 195.16L131.68 197.59L131.82 198.5L132.05 197.95L132.24 197.52L132.44 197.02C132.553 196.776 132.627 196.517 132.66 196.25L132.24 192.7C132.24 192.55 132.41 192.39 132.75 192.25C133 192.104 133.281 192.019 133.57 192L132.97 193.27C133.056 193.41 133.168 193.532 133.3 193.63C133.504 193.792 133.718 193.943 133.94 194.08C134.374 194.353 134.837 194.577 135.32 194.75L136.21 195.13L136.85 195.5L137.45 194.68H140.84L141.51 193.52C141.589 193.825 141.728 194.111 141.92 194.36C142.031 194.47 142.164 194.556 142.311 194.611C142.457 194.666 142.614 194.69 142.77 194.68H144.29C144.72 193.89 144.93 193.47 144.94 193.45V194.34C144.94 194.57 145.06 194.68 145.28 194.68H147.55C147.66 194.681 147.768 194.654 147.864 194.602C147.961 194.549 148.042 194.473 148.1 194.38C148.18 194.38 148.29 194.48 148.44 194.68H150.76C150.76 194.68 150.88 194.63 150.98 194.53C151.08 194.43 151.14 194.37 151.17 194.37C151.2 194.37 151.37 194.48 151.52 194.68H153.68L154.01 194.18C154.11 194.41 154.19 194.57 154.24 194.68H157.55L158.22 193.52C158.299 193.825 158.438 194.111 158.63 194.36C158.741 194.47 158.874 194.556 159.021 194.611C159.167 194.666 159.324 194.69 159.48 194.68H162C162.37 194.76 162.6 194.59 162.7 194.2L162.92 193.2C162.997 192.905 163.044 192.604 163.06 192.3C162.92 191.033 162.85 190.253 162.85 189.96L164.19 188.32ZM135.19 192.61C134.72 192.36 134.48 192.19 134.45 192.1C134.523 192.032 134.608 191.978 134.7 191.94L134.94 191.81L135.09 191.73C135.143 191.724 135.197 191.724 135.25 191.73L135.59 191.65L135.71 192.35L135.93 193.04L135.19 192.61Z" fill="black"/>
<path d="M57.75 127.82C58.6157 128.339 59.522 128.787 60.46 129.16C60.58 129.16 60.91 128.86 61.46 128.26C62.01 127.66 62.2 127.44 62.41 127.18L59.7 125.75C59.3986 125.979 59.1145 126.229 58.85 126.5C58.42 126.9 58.14 127.09 58.03 127.09C57.5884 126.994 57.1681 126.818 56.79 126.57C56.3615 126.359 55.956 126.104 55.58 125.81C54.74 126.58 54.08 127.22 53.58 127.74C53.9735 128.045 54.4034 128.301 54.86 128.5C55.3292 128.743 55.8175 128.947 56.32 129.11C56.84 128.63 57.31 128.2 57.75 127.82Z" fill="black"/>
<path d="M80 139.44C80.2736 138.729 80.4028 137.971 80.38 137.21V133.89C79.9009 134.276 79.474 134.724 79.11 135.22C78.5 135.96 78.2 136.43 78.21 136.62L78.3 137.91H76.08C76.0701 137.854 76.0701 137.796 76.08 137.74C76.2351 136.553 76.5305 135.388 76.96 134.27C76.73 134.27 76.42 134.49 76.02 134.94C75.62 135.39 75.21 136.06 74.82 136.62C74.6478 137.018 74.5561 137.446 74.55 137.88C74.26 137.88 73.75 137.93 73.01 137.93C72.01 137.93 71.52 137.86 71.41 137.71C71.8417 136.576 72.1501 135.4 72.33 134.2C72.33 134.01 72.33 133.91 72.22 133.91C71.62 134.61 70.9533 135.41 70.22 136.31C70.22 136.36 70.22 136.49 70.22 136.69C70.2234 137.122 70.1018 137.546 69.87 137.91H66.64C66.2452 137.921 65.851 137.874 65.47 137.77C65.2194 137.659 64.9984 137.491 64.8247 137.279C64.651 137.067 64.5295 136.817 64.47 136.55L64.17 134.91L63.35 130.51C63.2266 129.68 63.0394 128.861 62.79 128.06C62.15 129.21 61.52 130.23 60.9 131.13C60.9126 131.31 60.9566 131.486 61.03 131.65C61.0989 131.819 61.1427 131.998 61.16 132.18L58.53 133.7C57.9109 134.034 57.3249 134.425 56.78 134.87C56.2573 135.539 55.8609 136.299 55.61 137.11C55.2528 137.9 55.0168 138.74 54.91 139.6C55.7896 139.664 56.6645 139.78 57.53 139.95C58.0033 140.057 58.4833 140.157 58.97 140.25C59.4399 140.366 59.918 140.446 60.4 140.49C60.78 140.49 61.16 140.11 61.55 139.34C61.7562 138.834 62.0584 138.372 62.44 137.98C62.57 138.47 62.69 138.98 62.82 139.44C62.93 139.893 63.1382 140.316 63.43 140.68C63.5993 140.854 63.8039 140.989 64.0298 141.077C64.2558 141.165 64.4979 141.203 64.74 141.19H69.07C69.2891 141.135 69.4872 141.016 69.64 140.85C69.64 140.85 69.81 140.64 70.08 140.33C70.2208 140.61 70.3281 140.905 70.4 141.21H74.12L74.6 140.71C74.69 140.71 74.81 140.88 74.98 141.21H79.27C79.4818 140.607 79.7254 140.017 80 139.44ZM58.83 136.15C59.0067 135.883 59.2519 135.669 59.54 135.53C59.817 135.403 60.0844 135.256 60.34 135.09C60.5651 134.857 60.7755 134.609 60.97 134.35C61.1397 134.128 61.3234 133.918 61.52 133.72C61.7724 134.65 61.9628 135.595 62.09 136.55C60.986 136.583 59.8835 136.448 58.82 136.15H58.83Z" fill="black"/>
<path d="M84.7 133.43C84.25 134.56 83.84 135.55 83.48 136.43L85.14 137.84C85.6477 138.254 86.0894 138.743 86.45 139.29C85.09 141.44 83.64 142.7 82.13 143.1C81.075 143.399 79.9863 143.564 78.89 143.59C78.125 143.585 77.3632 143.491 76.62 143.31L77.62 143.91C79.5137 144.9 81.5965 145.477 83.73 145.6C84.3618 145.439 84.9301 145.09 85.36 144.6C86.2914 143.747 87.0234 142.698 87.5039 141.53C87.9844 140.362 88.2016 139.102 88.14 137.84C87.8758 136.944 87.395 136.126 86.74 135.46C86.1994 134.656 85.5063 133.967 84.7 133.43Z" fill="black"/>
<path d="M110.88 136.62C110.387 134.94 110.017 133.68 109.77 132.84C109.68 132.66 109.46 132.56 109.13 132.56C108.785 132.574 108.446 132.652 108.13 132.79C106.532 133.38 105.169 134.476 104.25 135.91L103.35 137.91H101.47H101.29C100.95 137.91 100.617 137.45 100.29 136.53C100.29 136.44 100.11 135.85 99.85 134.75C99.2 132.06 98.72 130.21 98.39 129.19C98.29 129.34 97.98 129.92 97.47 130.93C97.185 131.453 96.928 131.99 96.7 132.54L97.59 135.84C97.7996 136.504 97.9173 137.194 97.94 137.89H92.17C91.68 137.89 91.43 137.52 91.43 136.79C91.43 136.61 91.43 136.33 91.48 135.94C91.53 135.55 91.48 135.26 91.48 135.08C91.25 135.15 91.04 135.4 90.84 135.84C90.7035 136.164 90.5931 136.498 90.51 136.84C90.1885 138.001 90.0105 139.196 89.98 140.4C89.972 140.504 89.9856 140.608 90.0201 140.706C90.0545 140.804 90.109 140.894 90.18 140.97C90.253 141.047 90.3416 141.107 90.44 141.147C90.5383 141.187 90.6441 141.205 90.75 141.2H96.85C97.12 141.2 97.41 140.9 97.71 140.3C97.8485 139.933 98.0517 139.595 98.31 139.3C98.43 139.67 98.57 140.04 98.71 140.4C98.91 140.92 99.13 141.18 99.38 141.18H102.75C103.09 141.18 103.41 140.78 103.75 140.18C104.09 139.58 104.32 139.12 104.46 139.12L109.24 140.91C109.638 140.516 109.975 140.064 110.24 139.57C110.598 139.092 110.881 138.563 111.08 138C111.084 137.532 111.017 137.067 110.88 136.62ZM105.88 135.99C106.307 135.649 106.826 135.444 107.37 135.4C107.657 135.4 107.917 135.92 108.15 136.96L105.88 135.99Z" fill="black"/>
<path d="M115.98 136.96H164.19" stroke="black" stroke-width="1.54" stroke-miterlimit="10"/>
<path d="M0.479996 136.96H48.69" stroke="black" stroke-width="1.54" stroke-miterlimit="10"/>
<path d="M115.09 144.27C115.093 143.811 115.191 143.358 115.377 142.938C115.562 142.518 115.832 142.141 116.17 141.83C116.489 141.498 116.87 141.234 117.293 141.052C117.715 140.869 118.17 140.774 118.63 140.77C118.895 140.785 119.148 140.887 119.35 141.06C119.46 141.131 119.551 141.227 119.617 141.34C119.683 141.453 119.722 141.58 119.73 141.71L118.9 142.93C118.519 142.547 118.048 142.265 117.53 142.11C117.011 142.217 116.531 142.462 116.14 142.82C116.572 143.201 117.079 143.487 117.629 143.659C118.178 143.831 118.758 143.886 119.33 143.82H120H120.44H121.25C120.982 144.321 120.664 144.793 120.3 145.23C119.147 145.097 117.48 145.743 115.3 147.17C115.829 146.396 116.531 145.756 117.35 145.3L115.83 144.88C115.32 144.74 115.09 144.54 115.09 144.27Z" fill="#560702"/>
</g>
<defs>
<radialGradient id="paint0_radial_6_2565" cx="0" cy="0" r="1" gradientUnits="userSpaceOnUse" gradientTransform="translate(83.34 18.5) scale(88.24)">
<stop stop-color="#FFD17B"/>
<stop offset="0.23" stop-color="#FECD77"/>
<stop offset="0.47" stop-color="#F9C36B"/>
<stop offset="0.7" stop-color="#F3B157"/>
<stop offset="0.94" stop-color="#E9983B"/>
<stop offset="1" stop-color="#E69032"/>
</radialGradient>
<radialGradient id="paint1_radial_6_2565" cx="0" cy="0" r="1" gradientUnits="userSpaceOnUse" gradientTransform="translate(86.9 23.44) scale(28.23 28.23)">
<stop stop-color="white"/>
<stop offset="0.13" stop-color="#FFF4DF"/>
<stop offset="0.3" stop-color="#FFE7BB"/>
<stop offset="0.48" stop-color="#FFDE9F"/>
<stop offset="0.65" stop-color="#FFD78B"/>
<stop offset="0.83" stop-color="#FFD27F"/>
<stop offset="1" stop-color="#FFD17B"/>
</radialGradient>
<radialGradient id="paint2_radial_6_2565" cx="0" cy="0" r="1" gradientUnits="userSpaceOnUse" gradientTransform="translate(85.64 19.12) scale(0.66)">
<stop stop-color="#FFD17B"/>
<stop offset="0.14" stop-color="#FBCD79"/>
<stop offset="0.28" stop-color="#EFC171"/>
<stop offset="0.42" stop-color="#DCAD66"/>
<stop offset="0.56" stop-color="#C09055"/>
<stop offset="0.7" stop-color="#9D6C3F"/>
<stop offset="0.84" stop-color="#723F25"/>
<stop offset="0.97" stop-color="#3F0C06"/>
<stop offset="1" stop-color="#350100"/>
</radialGradient>
<radialGradient id="paint3_radial_6_2565" cx="0" cy="0" r="1" gradientUnits="userSpaceOnUse" gradientTransform="translate(80.09 19.12) scale(0.659999)">
<stop stop-color="#FFD17B"/>
<stop offset="0.14" stop-color="#FBCD79"/>
<stop offset="0.28" stop-color="#EFC171"/>
<stop offset="0.42" stop-color="#DCAD66"/>
<stop offset="0.56" stop-color="#C09055"/>
<stop offset="0.7" stop-color="#9D6C3F"/>
<stop offset="0.84" stop-color="#723F25"/>
<stop offset="0.97" stop-color="#3F0C06"/>
<stop offset="1" stop-color="#350100"/>
</radialGradient>
<linearGradient id="paint4_linear_6_2565" x1="115.18" y1="14.2" x2="115.18" y2="87.4" gradientUnits="userSpaceOnUse">
<stop stop-color="white"/>
<stop offset="0.14" stop-color="#FFF3DE" stop-opacity="0.87"/>
<stop offset="0.28" stop-color="#FFE9C0" stop-opacity="0.76"/>
<stop offset="0.42" stop-color="#FFE0A7" stop-opacity="0.67"/>
<stop offset="0.57" stop-color="#FFDA94" stop-opacity="0.59"/>
<stop offset="0.71" stop-color="#FFD586" stop-opacity="0.54"/>
<stop offset="0.86" stop-color="#FFD27E" stop-opacity="0.51"/>
<stop offset="1" stop-color="#FFD17B" stop-opacity="0.5"/>
</linearGradient>
<linearGradient id="paint5_linear_6_2565" x1="48.88" y1="14.2" x2="48.88" y2="87.4" gradientUnits="userSpaceOnUse">
<stop stop-color="white"/>
<stop offset="0.14" stop-color="#FFF3DE" stop-opacity="0.87"/>
<stop offset="0.28" stop-color="#FFE9C0" stop-opacity="0.76"/>
<stop offset="0.42" stop-color="#FFE0A7" stop-opacity="0.67"/>
<stop offset="0.57" stop-color="#FFDA94" stop-opacity="0.59"/>
<stop offset="0.71" stop-color="#FFD586" stop-opacity="0.54"/>
<stop offset="0.86" stop-color="#FFD27E" stop-opacity="0.51"/>
<stop offset="1" stop-color="#FFD17B" stop-opacity="0.5"/>
</linearGradient>
<clipPath id="clip0_6_2565">
<rect width="128" height="110" fill="white" transform="translate(18)"/>
</clipPath>
<clipPath id="clip1_6_2565">
<rect width="164" height="72" fill="white" transform="translate(0 126)"/>
</clipPath>
</defs>
</svg>
