<svg xmlns="http://www.w3.org/2000/svg" width="164" height="198" fill="none"><g clip-path="url(#a)"><path fill="url(#b)" d="M66.3 22.22 38.36 9.53l-8.19 81.65 50.47 17.1L134 91.18l-8.57-82-25.58 11.58s.48-19.23-17-19.23S64.74 18.68 66.3 22.22Z"/><path fill="#711621" d="m127.28 18.5 13.62-3.14 2.58 83.46-45.82 6.76 36.3-14.4-6.68-72.68ZM36.85 18.5l-13.87-3.14-3.28 83.46 41.8 5.17L30.67 92.5l6.18-74Z"/><path fill="url(#c)" d="M100 46.22s-.15-1.33-2.49-6.7c-1.62-3.71-3.09-5.29-3.85-5.91A11.078 11.078 0 0 0 91 30.77c1.63-3.16 2.09-11.95 2.11-12.86.02-.91-1.7-9.29-10.29-9.29S72.6 16.87 72.6 20.06c0 3.19 2.16 10.86 2.16 10.86-2.45 1.82-4.29 4.29-7.1 10-2.81 5.71-3.92 14.14-3.92 14.14l9.63-6.39c.12-4.12.4-5.09.54-5.56a3 3 0 0 1 .59-1 3.18 3.18 0 0 1 .58-1.11s3.57-3.9 3.92-4.21c.35-.31.38-.2.68-.14.3.06.72.73.11 1.53s-2 2.21-2 2.21c2.75.07 3.05.7 3 1.14a.84.84 0 0 1-.34.59s-1 5.22-1.31 6.93A7.32 7.32 0 0 1 77 52.29l.15 1.71c.32.12 4.41 5 4.41 5a20.998 20.998 0 0 0 1.32-3.73L84 58.58l1.4-2.72-.1-6.52h-2.18a8 8 0 0 1-.12-2.62c.24-.94.54-.91.54-.91.763.25 1.551.418 2.35.5.119-.245.32-.44.57-.55a2.77 2.77 0 0 0 1.5.3 2.29 2.29 0 0 1-.19-1.53c.09-.35.61-.46 1.17.07.248.268.543.488.87.65a1.22 1.22 0 0 1 .47-.28 1.33 1.33 0 0 1 1.14 0 1.06 1.06 0 0 1 1.32-.14 1.09 1.09 0 0 1 1.4.22c1.67.13 1.91.93 1.91.93s2-.17 2.35-.12a.27.27 0 0 1 .22.38l1.38-.02Z"/><path fill="#FFD17B" d="M82.88 24.76a6.673 6.673 0 0 0-1.55.95 2.07 2.07 0 0 0 1.08 1.37c.29-.065.59-.065.88 0 0 0 .77-.15 1.09-1.39l-1.5-.93Z"/><path fill="#FFD17B" d="M82.06 15.24h1.54l5.18 4.57s-.63 4.07-2.48 5.84c0 0-2.09-2.1-3-2.07a.61.61 0 0 1-.45.22 1 1 0 0 1-.62-.27 13 13 0 0 0-2.92 2.18 10.66 10.66 0 0 1-2.45-5.95l5.2-4.52Z"/><path fill="#fff" d="M85.62 18.74a2.37 2.37 0 0 0-1.24.46 1.3 1.3 0 0 0 1.24.91 1.63 1.63 0 0 0 1.4-.88 2.22 2.22 0 0 0-1.4-.49ZM79.42 18.85l-.75.38a1.6 1.6 0 0 0 1.42.89 1.46 1.46 0 0 0 1.22-.91 3.511 3.511 0 0 0-1.31-.46c-.48 0-.58.1-.58.1Z"/><path fill="url(#d)" d="M85.65 18.74c-.56 0-.67.18-.67.18s-.1.82.62.82.66-.85.66-.85l-.61-.15Z"/><path fill="url(#e)" d="M80.1 18.74c-.55 0-.67.18-.67.18s-.1.82.63.82.65-.85.65-.85l-.61-.15Z"/><path fill="url(#f)" d="m98.62 22.4-.51 2.38 26.48-13.51 7.45 78.99.21-.07-7.3-79.66L98.62 22.4Z"/><path fill="url(#g)" d="m65.45 22.39.5 2.38-26.48-13.5-7.44 78.99-.22-.07 7.3-79.66 26.34 11.86Z"/><path fill="#350100" d="m145.55 97.24-3.07-79.87-.17-4.37-4.31 1.06-9.41 2.42-.5-5.51-.48-5.19L123 8.11l-21 10.51v-.13A19.003 19.003 0 0 0 69.395 5.465 19.001 19.001 0 0 0 64 18.97v.72L40.71 8.11 36 5.78 35.56 11l-.5 5.52-9.41-2.46L21.37 13l-.18 4.42-3.07 79.82-.12 3.17 3.14.49 57.17 8.77 2.74.43.79.12.8-.12 3.37-.52 56.52-8.68 3.14-.49-.12-3.17ZM82.88 3.31a15.81 15.81 0 0 1 9.6 28.35 8.906 8.906 0 0 0-1.13-.92 34.54 34.54 0 0 0 2.17-12.48 9.76 9.76 0 0 0-3-6.6 11 11 0 0 0-7-3.37h-1.36a11 11 0 0 0-7 3.38 9.72 9.72 0 0 0-3 6.59 34.45 34.45 0 0 0 2.17 12.47c-.381.267-.742.56-1.08.88a15.789 15.789 0 0 1 9.64-28.3h-.01Zm15.91 42.91a.349.349 0 0 0-.13-.28c-.32-.28-1.2-.17-2.13-.05h-.29a2.511 2.511 0 0 0-1.8-.92 1.64 1.64 0 0 0-1.62-.26 1.13 1.13 0 0 0-.9-.1 1.19 1.19 0 0 0-.4.21 2.051 2.051 0 0 0-1 0c0-.48.16-1.88.19-3.77 0 0 .08-1.65-.1-5.09a16.23 16.23 0 0 0 3.06-1.85c1.59 2.05 3.84 5.77 5.83 12.08l-.71.03Zm1.13.16c.72-.05 1.28-.1 1.72-.15.181.573.276 1.17.28 1.77a1.823 1.823 0 0 1-.47 1.34L97.78 49v-.3a2.77 2.77 0 0 1 .68-1.8c.112-.119.2-.258.26-.41l1.2-.11ZM87.81 45c0-.58.21-.66.44-.66s.44.2.67.42c.198.217.436.393.7.52-.247.246-.453.53-.61.84l-.86-.1a2 2 0 0 1-.34-1.02Zm2.38.16a1.65 1.65 0 0 1 1.1-.16 6 6 0 0 0-1.47 2.71 2.73 2.73 0 0 1-.66 1.4l-.16.09a.79.79 0 0 1-.58 0 .5.5 0 0 1-.26-.38c0-.19 0-.32.21-.59.21-.307.373-.644.48-1a3.42 3.42 0 0 1 1.34-2.05v-.02Zm-.13 2.61c.38-1.49 1.35-2.8 1.92-2.93a.91.91 0 0 1 .62 0 6.2 6.2 0 0 0-1.3 2.51l-.08.25c-.55 1.73-.75 2.22-1.62 2.07a.53.53 0 0 1-.38-.19.24.24 0 0 1 0-.13c.15-.02.52-.35.84-1.56v-.02Zm.63 1.79c.35-.573.606-1.197.76-1.85l.08-.25A4.93 4.93 0 0 1 92.91 45 1.26 1.26 0 0 1 94 45c-.82.25-1.11 1.45-1.3 2.2-.03.139-.066.275-.11.41 0 .12-.08.28-.13.45-.18.71-.46 1.78-1 1.87a.8.8 0 0 1-.83-.36l.06-.01Zm2-1.44c0-.18.09-.33.13-.45.04-.12.07-.25.11-.42.19-.77.5-2.05 1.38-2.05a2.26 2.26 0 0 1 1.55.72h-.06a1.242 1.242 0 0 0-.38 0 .8.8 0 0 0-.41.23 7.58 7.58 0 0 0-1.15 2.25 1.39 1.39 0 0 1-.95 1.18.64.64 0 0 1-.61-.15c.18-.417.324-.848.43-1.29l-.04-.02ZM90 24.81l-.52-.73v-3.65l.82.69.07-.07-.89-.8L83.6 15V9c5.19.39 9.19 5.24 9.19 9.22a33.94 33.94 0 0 1-2.23 12.5l-.11.31.28.15a7.597 7.597 0 0 1 1.46 1.18c.412.407.799.838 1.16 1.29a15.219 15.219 0 0 1-2.78 1.71v-.33c-.25-3.79-.5-8.57-.56-9.9l1 1.26.09-.06-1.1-1.52Zm-5.75-2.12a1.412 1.412 0 0 0-.21-.38c0 .14.09.27.12.41a1.4 1.4 0 0 1 .07.4.48.48 0 0 1-.11.35.55.55 0 0 1-.21.12 3.218 3.218 0 0 0-.33-.12 1 1 0 0 0 .13-.36 1.42 1.42 0 0 0 0-.58 3.52 3.52 0 0 0-.19-.52.742.742 0 0 1 0-.26v-3.6c.031-.177.078-.351.14-.52a.939.939 0 0 1 .1-.23.26.26 0 0 1 .07-.1.24.24 0 0 1 .08-.06c.17-.05.344-.086.52-.11.32-.05.66-.09 1-.12l3.25 2.74a11.56 11.56 0 0 1-2.32 5.8 8.73 8.73 0 0 0-.84-.88 7.242 7.242 0 0 0-1-.78c-.156-.1-.32-.187-.49-.26a.5.5 0 0 0 .2-.08.52.52 0 0 0 .14-.2 1.005 1.005 0 0 0 0-.23 1.18 1.18 0 0 0-.16-.43h.04Zm-2.17 4.11a1.57 1.57 0 0 1-.31-.32c-.08-.13-.15-.26-.22-.4s-.07-.23-.1-.34c.211.075.429.132.65.17.254.044.512.067.77.07.256-.005.51-.035.76-.09a3 3 0 0 0 .6-.18c-.023.124-.06.245-.11.36a2.417 2.417 0 0 1-.21.39 1.64 1.64 0 0 1-.31.33 1.44 1.44 0 0 1-.39.2 2.7 2.7 0 0 0-.74.06 1.129 1.129 0 0 1-.39-.25Zm.79-1.06h-1.43a4.81 4.81 0 0 1 .55-.37c.275-.17.566-.31.87-.42.305.107.597.248.87.42.167.092.328.195.48.31-.44 0-.89.05-1.34.06Zm0-2a.51.51 0 0 1-.31-.11.69.69 0 0 1-.13-.11l-.09-.12a1.257 1.257 0 0 1-.13-.34 1.572 1.572 0 0 1 0-.53c.049-.175.113-.346.19-.51a.835.835 0 0 0 0-.15V18.09a3.654 3.654 0 0 0-.13-.55 2.14 2.14 0 0 0-.12-.28.948.948 0 0 0-.09-.12.42.42 0 0 0-.15-.11 2.832 2.832 0 0 0-.56-.13l-.8-.1 1.74-1.47h1.15l1.74 1.47-.8.1a3.2 3.2 0 0 0-.56.13.38.38 0 0 0-.14.11.47.47 0 0 0-.09.12c-.05.09-.093.184-.13.28a2.71 2.71 0 0 0-.12.55V21.7a.767.767 0 0 0 0 .15V22c.078.164.141.335.19.51a1.35 1.35 0 0 1 0 .53 1.14 1.14 0 0 1-.13.35l-.09.11a.52.52 0 0 1-.11.1.55.55 0 0 1-.36.15l.03-.01Zm-1.38-1.06a1.43 1.43 0 0 0-.1.43.658.658 0 0 0 0 .23.38.38 0 0 0 .33.28c-.164.07-.321.153-.47.25a6.57 6.57 0 0 0-1 .78c-.306.27-.59.565-.85.88a11.54 11.54 0 0 1-2.4-5.78L80.29 17c.34 0 .67.07 1 .12.173.023.343.06.51.11a.28.28 0 0 1 .09.06c.024.03.044.064.06.1.046.072.083.149.11.23.059.17.102.343.13.52.005.09.005.18 0 .27.005.09.005.18 0 .27v3.04a.57.57 0 0 1 0 .26c-.072.17-.136.343-.19.52a1.42 1.42 0 0 0 0 .58.89.89 0 0 0 .14.35c-.11.028-.218.068-.32.12a.43.43 0 0 1-.21-.12.44.44 0 0 1-.11-.35 1.84 1.84 0 0 1 .06-.4l.12-.41a1.41 1.41 0 0 0-.22.42l.03-.01Zm-6-1.57.81-.69v3.65l-.52.73-1.18 1.57.09.06 1-1.27c-.07 1.32-.32 6.11-.56 9.91v.32a15.052 15.052 0 0 1-2.79-1.7c.376-.468.78-.912 1.21-1.33a6.89 6.89 0 0 1 1.41-1.14l.29-.15-.12-.31a34.13 34.13 0 0 1-2.22-12.5c0-4 4-8.82 9.17-9.21v6l-5.81 5.19-.89.8.11.07Zm2.22 19.4 1 .12c1.29.14 2 .23 2 .76a.68.68 0 0 1-.24.58 16.78 16.78 0 0 1-2.92-.1c-.59-.05-1.1-.09-1.33-.09a2.82 2.82 0 0 0-1.56.41 3 3 0 0 1 .33-.69 4.16 4.16 0 0 1 2.65-.98l.07-.01Zm-2.44.49c1-1.4 3.67-4.24 4.12-4.24a.47.47 0 0 1 .48.28 1.25 1.25 0 0 1-.25 1.19c-.41.46-1.73 1.82-2 2.08a3.9 3.9 0 0 0-2.35.69Zm-2 7.41h-.05a71.01 71.01 0 0 0-9.12 6.17c2.27-11.35 5.51-17.4 7.91-20.51.943.733 1.97 1.35 3.06 1.84C74.91 39 75 40.63 75 41a2.78 2.78 0 0 0-.66 1.41 2.099 2.099 0 0 0-.71 1.45 6.918 6.918 0 0 0-.26 1.83c-.07.9-.08 2.1-.09 2.69l-.01.03ZM83.36 9.15v.25H82.3v-.25h1.06Zm0 .38v.25H82.3v-.25h1.06Zm0 .38v.25H82.3v-.25h1.06Zm0 .37v.26H82.3v-.26h1.06Zm0 .38v.26H82.3v-.26h1.06Zm0 .38v.26H82.3V11l1.06.04Zm0 .38v.25H82.3v-.25h1.06Zm0 .38v.25H82.3v-.25h1.06Zm0 .38v.25H82.3v-.25h1.06Zm0 .37v.26H82.3v-.26h1.06Zm0 .38v.26H82.3v-.26h1.06Zm0 .38v.26H82.3v-.26h1.06Zm0 .38v.25H82.3v-.25h1.06Zm0 .38v.25H82.3v-.25h1.06Zm0 .37v.26H82.3v-.26h1.06Zm0 .38V15H82.3v-.17l1.06-.01ZM21.69 97.37l3.07-79.86 10 2.57-6.5 70.55L28 93.5l2.75.86L58.4 103l-36.71-5.63ZM51.55 79c.37-.09.75-.123 1.13-.1L52 82.46l-.06.31A1.42 1.42 0 0 0 51.1 85a5.76 5.76 0 0 0-3.1 1.14A5.72 5.72 0 0 0 44.84 85a1.41 1.41 0 0 0-.84-2.23l-.7-3.9s2.18-.25 4.7 2.13a7.39 7.39 0 0 1 3.55-2Zm14.3 11.6-.34.19a5.362 5.362 0 0 0-.6.39 7.349 7.349 0 0 0-1.25-.72 4.9 4.9 0 0 0-1.41-.4 2.477 2.477 0 0 0-.47 0c.1-.161.173-.337.22-.52a1.25 1.25 0 0 0-.55-1.43 3.39 3.39 0 0 0-.54-.27l-.59-3.25-.12-.63h.16a5.52 5.52 0 0 1 2.57.72c.148.07.292.15.43.24.149.089.292.185.43.29a8.22 8.22 0 0 1 1.09.89 7.56 7.56 0 0 1 3.42-2 4.43 4.43 0 0 1 1.28-.14l-.71 3.89A1.41 1.41 0 0 0 68 90a4.45 4.45 0 0 0-1.83.4l-.32.2ZM85 95a5.68 5.68 0 0 0-3.14 1.15A5.63 5.63 0 0 0 78.71 95a1.42 1.42 0 0 0-.87-2.22l-.27-1.48-.24-1.3-.16-.88v-.21h.09c.173-.011.347-.011.52 0h.24A7.23 7.23 0 0 1 81.83 91a7 7 0 0 1 4.1-2.12c.203-.024.407-.024.61 0L86.35 90l-.51 2.8A1.42 1.42 0 0 0 85 95Zm16.9-5a5.759 5.759 0 0 0-3.13 1.15A5.75 5.75 0 0 0 95.65 90a1.41 1.41 0 0 0-.83-2.2l-.71-3.9a4.2 4.2 0 0 1 1.28.14 7.53 7.53 0 0 1 3.43 2 6.49 6.49 0 0 1 4.67-2.14l-.7 3.88a1.415 1.415 0 0 0-1.06.863A1.414 1.414 0 0 0 101.9 90Zm.23 10.23 1.24-9a3.995 3.995 0 0 0 2.866-1.333 4.01 4.01 0 0 0 1.004-2.997 6.341 6.341 0 0 0-.15-1.38 6.562 6.562 0 0 0-.44-1.36A6.975 6.975 0 0 0 106 83v-.14a8.933 8.933 0 0 0-2.07-2.18 8.237 8.237 0 0 0-1.18-.77l-.24-.13a9.585 9.585 0 0 0-1.24-.52 7.51 7.51 0 0 0-1-.26h-.45a7.853 7.853 0 0 0-1.08-.08 8 8 0 0 0-2.45.41h-.08l-.26.09-.24.09-.42.19c-.24.11-.49.25-.72.38a9.65 9.65 0 0 0-2.46 2.08v.07a7.46 7.46 0 0 0-1.78 4.7v.61a4.5 4.5 0 0 0 .41 1.56 3.53 3.53 0 0 0 1.01 1.28c.43.33.918.575 1.44.72.325.096.661.15 1 .16l1.52 11.06-1.24.39-8 2.49-1.36.42 1.3-9.4a4 4 0 0 0 3.87-4.33 6.671 6.671 0 0 0-.13-1.27 7.129 7.129 0 0 0-.48-1.52 8.998 8.998 0 0 0-.61-1.14 9.13 9.13 0 0 0-2.33-2.43 10.158 10.158 0 0 0-1.41-.85c-.35-.16-.71-.3-1.07-.43a7.64 7.64 0 0 0-4.88 0c-.31.11-.61.22-.91.36l-.15.08-.44.22c-.347.183-.681.39-1 .62-.41.3-.795.635-1.15 1-.15.143-.294.293-.43.45a5.655 5.655 0 0 0-.43.54c-.11.14-.21.29-.31.44a7.513 7.513 0 0 0-.55 1.1 6.39 6.39 0 0 0-.42 1.28l-.06.25c-.08.415-.12.837-.12 1.26-.008.49.053.977.18 1.45.036.15.083.297.14.44a3.67 3.67 0 0 0 2.01 2.07 4.47 4.47 0 0 0 1.54.36l1.29 9.4-1.35-.43-8-2.48-1.21-.38.86-6.3.32-2.35v-.14l.05-.38.06-.38.2-1.51a4.38 4.38 0 0 0 2.43-.88 3.094 3.094 0 0 0 .63-.66c.113-.14.21-.29.29-.45a.891.891 0 0 0 .08-.17 4.35 4.35 0 0 0 .41-2.17c0-.547-.07-1.091-.21-1.62 0-.22-.12-.44-.19-.65a8.89 8.89 0 0 0-5.24-5.28l-.34-.12a7.86 7.86 0 0 0-2.44-.41 7.331 7.331 0 0 0-2 .27l-.36.1h-.11l-.25.09a9.622 9.622 0 0 0-1 .42c-.447.232-.875.5-1.28.8l-.14.11-.36.28a9.317 9.317 0 0 0-1.71 1.9l-.08.13a7.608 7.608 0 0 0-.62 1.24 7.201 7.201 0 0 0-.44 1.36 7.098 7.098 0 0 0-.14 1.38 4 4 0 0 0 3.87 4.33l1.24 9-1.36-.42-7.87-2.46-1.21-.34 1.48-10.81a4.29 4.29 0 0 0 2.84-1.27c.208-.23.386-.485.53-.76.206-.405.345-.84.41-1.29.01-.103.01-.207 0-.31a5.175 5.175 0 0 0 0-.7 7.37 7.37 0 0 0-1.57-4.42 9 9 0 0 0-2.55-2.32 8.37 8.37 0 0 0-1.4-.71l-.5-.19a8.628 8.628 0 0 0-1.66-.36 6.987 6.987 0 0 0-.79 0 8.15 8.15 0 0 0-2.44.4 9.111 9.111 0 0 0-5.49 5 6.88 6.88 0 0 0-.53 2.61 4.79 4.79 0 0 0 .58 2.32 4.06 4.06 0 0 0 3.34 2L44.57 95l-1.35-.43L31.81 91l6.42-70 .16-1.79.16-1.8.56-6.09L64.61 24a19.25 19.25 0 0 0 4.72 8.22c-2.32 3.09-5.28 8.59-7.55 18.06a6.34 6.34 0 0 1 1 3.37 6 6 0 0 1-.51 2.48 5.63 5.63 0 0 1-.83 1.4c-.33.431-.716.815-1.15 1.14.569.244 1.114.538 1.63.88a4.23 4.23 0 0 1 .93-2.81c.3-.3.63-.61 1-.93a63.999 63.999 0 0 1 9.5-6.61c0 .77.07 2.39.12 4.41h.25c0-2.16-.1-3.86-.12-4.56v-.27c0-.01 0-1.81.06-3.09a7.15 7.15 0 0 1 .24-1.77 1.85 1.85 0 0 1 .66-1.33h.07a2.6 2.6 0 0 1 1.51-.59c.22 0 .73 0 1.31.08.58.08 1.26.1 1.75.12a1 1 0 0 1 .57.56.59.59 0 0 1-.37.64 2 2 0 0 1-.89.17h-.95l-1.21-.05H74.92a1.23 1.23 0 0 0-.23.11c-.277.18-.532.39-.76.63l.12.1c.216-.224.458-.422.72-.59a1 1 0 0 1 .42-.14h1.05c.278.159.53.357.75.59.234.24.489.462.76.66l.21.15.11.06h.06a.36.36 0 0 1 .12.15.65.65 0 0 1 .05.2.41.41 0 0 1-.05.19.49.49 0 0 1-.15.13.87.87 0 0 1-.43.07 1.57 1.57 0 0 1-.84-.4A4.697 4.697 0 0 0 76 45a.78.78 0 0 0-.52 0 1.87 1.87 0 0 0-.48.2 3.67 3.67 0 0 0-.75.67l.08.06c.216-.24.465-.45.74-.62a.93.93 0 0 1 .87-.14c.287.155.553.346.79.57.132.108.272.205.42.29.147.073.306.12.47.14v.06l-.09.16-.21.31-.42.64c-.269.43-.503.882-.7 1.35-.1.23-.18.48-.26.72-.08.24-.11.5-.16.74-.12.49-.26 1-.42 1.46.179-.475.332-.959.46-1.45.06-.24.11-.49.19-.73.078-.238.168-.471.27-.7.204-.462.445-.906.72-1.33l.43-.62.22-.31.11-.16v-.09a.8.8 0 0 0 .37-.08.49.49 0 0 0 .23-.2.54.54 0 0 0 .08-.28.62.62 0 0 0-.24-.51 4.54 4.54 0 0 0 .15-1.21h.22a2.27 2.27 0 0 0 1-.18 1 1 0 0 0 .4-.35A.56.56 0 0 0 80 43a.701.701 0 0 0 0-.29 1.14 1.14 0 0 0-.28-.46c.186.016.374.016.56 0-.06.2-.13.51-.21.94-.08.43-.17 1-.28 1.62-.35 2-.82 4.82-1.31 5.59a8.47 8.47 0 0 1-1.88 2.1l-.15.12a9.198 9.198 0 0 1-1.9 1.13l.4.08a9.292 9.292 0 0 0 1.51-.91v1.52c.26.139.507.3.74.48v-.61c.78.85 2.24 2.46 2.86 3.16.495.547.937 1.14 1.32 1.77l.18.31.15-.33a23.78 23.78 0 0 0 1.19-3.38c.29 1 .77 2.63.83 3.15l.06.53.24-.39a6.53 6.53 0 0 1 .26-1.1l-.28.44c-.26-1.14-.94-3.37-1-3.48l-.27-.88-.09.92c-.241 1.28-.63 2.53-1.16 3.72a13.787 13.787 0 0 0-1.17-1.52c-.71-.8-2.49-2.76-3.14-3.47v-1.29a.565.565 0 0 1 0-.14 9.083 9.083 0 0 0 1.51-1.79c.52-.83 1-3.53 1.34-5.69.111-.903.292-1.795.54-2.67a.94.94 0 0 0 .33-.78c0-.77-.91-.87-2.19-1l-.74-.09c.42-.43 1.5-1.54 1.87-2a1.459 1.459 0 0 0 .29-1.45.72.72 0 0 0-.7-.42 2 2 0 0 0-.89.56c-.43.37-.94.9-1.45 1.44-.75.82-1.48 1.69-1.85 2.17 0-.73 0-2.54.16-5.56.29-4.42.58-10.2.58-10.26l.5-.63v-3.92l.35-.3c.08.66.218 1.313.41 1.95l-.18.31c-.06.13-.12.27-.17.41-.05.14-.11.28-.15.43-.04.15-.07.29-.1.44 0-.15.08-.29.13-.43s.11-.28.17-.41c.06-.138.13-.272.21-.4.04-.072.083-.142.13-.21.132.439.289.87.47 1.29-.09.136-.167.28-.23.43-.07.18-.15.37-.21.55-.13.38-.24.75-.34 1.13-.05.19-.09.39-.13.58l-.12.57-.11.58-.1.58.11-.58.12-.57.14-.57.15-.57c.11-.38.23-.75.37-1.12.06-.17.14-.36.22-.53.057-.12.12-.237.19-.35.17.37.36.75.58 1.13a4.41 4.41 0 0 0-.35.53c-.132.215-.25.439-.35.67-.214.453-.394.92-.54 1.4l-.12.36-.09.36c-.07.24-.11.49-.18.73-.07.24-.09.49-.14.73l-.11.74.13-.74.15-.72c.07-.25.12-.49.19-.73l.1-.36.13-.35c.153-.473.34-.934.56-1.38.11-.22.23-.44.36-.65a4.07 4.07 0 0 1 .33-.48c.23.348.48.682.75 1-.233.284-.45.581-.65.89a17.464 17.464 0 0 0-1.24 2.24 18.56 18.56 0 0 0-.89 2.39 17.84 17.84 0 0 1 2.28-4.53 10.06 10.06 0 0 1 1.7-1.86c.31-.268.645-.505 1-.71a3.11 3.11 0 0 1 .55-.27l.29-.1h.2c.075.053.16.09.25.11v.88c-.289.11-.567.248-.83.41a7.492 7.492 0 0 0-.81.58 8.997 8.997 0 0 0-1.39 1.43 11.73 11.73 0 0 0-1.8 3.52 17.666 17.666 0 0 0-.77 3.88 26.874 26.874 0 0 0-.06 3.91 26.884 26.884 0 0 1 .12-3.91c.134-1.304.416-2.59.84-3.83a11.22 11.22 0 0 1 1.83-3.45 8.52 8.52 0 0 1 1.37-1.38c.03.107.07.21.12.31.064.154.148.299.25.43.12.149.265.274.43.37.078.056.162.103.25.14a3.12 3.12 0 0 0-.74.4 5.26 5.26 0 0 0-.56.5c-.17.182-.327.376-.47.58a9.061 9.061 0 0 0-1.25 2.67c-.13.48-.25 1-.34 1.44-.09.44-.16 1-.21 1.46a24.99 24.99 0 0 0-.17 2.81c.005-.96.065-1.918.18-2.87.05-.48.14-1 .23-1.45.09-.45.22-1 .36-1.42a8.72 8.72 0 0 1 1.27-2.62c.138-.19.288-.37.45-.54.17-.173.353-.33.55-.47a2.48 2.48 0 0 1 1.31-.49 2.45 2.45 0 0 1 1.3.49 5 5 0 0 1 .55.48c.164.174.318.358.46.55a9.12 9.12 0 0 1 1.26 2.63c.14.46.25.94.35 1.42.1.48.18 1 .23 1.45.115.973.175 1.95.18 2.93a24.1 24.1 0 0 0-.14-2.94c0-.48-.12-1-.2-1.46-.08-.46-.2-1-.34-1.43a9.15 9.15 0 0 0-1.22-2.68 5.275 5.275 0 0 0-.48-.58 3.21 3.21 0 0 0-.55-.49 3.002 3.002 0 0 0-.78-.43c.074-.032.145-.072.21-.12.14-.102.264-.223.37-.36.099-.134.183-.278.25-.43.056-.118.1-.242.13-.37l.11.09A8.581 8.581 0 0 1 86 27.27a11.67 11.67 0 0 1 1.83 3.45c.414 1.246.689 2.534.82 3.84.132 1.309.168 2.626.11 3.94a27.27 27.27 0 0 0 0-3.94 18.273 18.273 0 0 0-.77-3.88 11.539 11.539 0 0 0-1.81-3.52 8.892 8.892 0 0 0-1.38-1.43 6.735 6.735 0 0 0-.82-.58 4.83 4.83 0 0 0-.82-.41v-.91l.13-.07c.08-.009.16-.009.24 0l.28.1c.192.072.376.162.55.27.355.205.69.442 1 .71.62.567 1.17 1.204 1.64 1.9.491.689.923 1.418 1.29 2.18a17.84 17.84 0 0 1 1 2.34 18.457 18.457 0 0 0-.9-2.38 16.762 16.762 0 0 0-1.23-2.24 9.414 9.414 0 0 0-.66-.9c.276-.315.53-.65.76-1 .113.147.223.307.33.48.13.21.24.43.35.65.223.446.414.907.57 1.38l.12.35.1.36c.07.24.12.48.19.73s.1.48.15.72l.13.74-.11-.74c0-.24-.09-.49-.14-.73-.05-.24-.11-.49-.18-.73l-.09-.36-.11-.36c-.15-.478-.33-.945-.54-1.4-.11-.22-.22-.45-.35-.67a4.511 4.511 0 0 0-.36-.53c.218-.365.415-.742.59-1.13l.18.35c.09.17.16.36.23.53.14.37.25.74.36 1.12.06.19.1.38.15.57l.14.57.12.57.11.58-.1-.58-.1-.58-.15-.63c0-.19-.09-.39-.14-.58-.09-.38-.21-.75-.33-1.13-.07-.18-.14-.37-.22-.55a3.008 3.008 0 0 0-.23-.43c.185-.427.345-.864.48-1.31l.12.21c.08.128.15.262.21.4.06.13.12.27.17.41.05.14.09.28.13.43 0-.15-.06-.3-.1-.44-.04-.14-.09-.28-.14-.43l-.18-.41-.17-.3c.192-.654.326-1.323.4-2l.36.3v3.92l.5.64c0 .28.3 5.91.58 10.25a55.02 55.02 0 0 1 .16 6.02c0 2.06-.16 3.54-.2 3.87l-.17.08a1.59 1.59 0 0 0-.27.18 2 2 0 0 1-.73-.51 1.24 1.24 0 0 0-.84-.49c-.45 0-.69.3-.69.9a2 2 0 0 0 .29 1 5.152 5.152 0 0 1-1.31-.33 1.07 1.07 0 0 0-.58.5 7.87 7.87 0 0 1-2.29-.49h-.06c-.07 0-.69.35-.69 2.24 0 1.25.17 1.52.21 1.56h2.11c0 1.8 0 4.45.08 6.61.071-.103.152-.2.24-.29a71.026 71.026 0 0 1 0-8c.066-.496.219-.976.45-1.42a1.08 1.08 0 0 1 .43-.46c.786.247 1.598.404 2.42.47a5.393 5.393 0 0 0-.28.78 3.58 3.58 0 0 1-.46 1 1 1 0 0 0-.24.77.77.77 0 0 0 .39.56 1 1 0 0 0 .62 0 .6.6 0 0 0 .08.19.802.802 0 0 0 .55.3h.3a.9.9 0 0 0 .66-.23 1.06 1.06 0 0 0 .84.44h.2a.94.94 0 0 0 .6-.48.941.941 0 0 0 .78.17 1.65 1.65 0 0 0 1.16-1.37 7.541 7.541 0 0 1 1.09-2.14.53.53 0 0 1 .23-.14H96.49c.76-.09 1.71-.21 1.94 0a.13.13 0 0 1 0 .1.711.711 0 0 1-.25.5 3 3 0 0 0-.73 1.95c-.12 1.33 0 5.63.07 9.44 0 1.58.07 3.08.08 4.1.01 1.02 0 2.21 0 3.39.07-.31.16-.63.26-.94v-2.44c0-1 0-2.52-.08-4.11 0-.79 0-1.63-.06-2.46v-.37c0-2.42-.09-4.78 0-6l2.4.21v2.29c-.028.96.237 1.905.76 2.71a3.994 3.994 0 0 1-.26-1.06c-.08-.55-.124-1.104-.13-1.66v-.09l.66.05c.028-.058.051-.118.07-.18a6.358 6.358 0 0 1 3.41-3.62 8.18 8.18 0 0 0-.5-2.8v-.09l-2-1.21a40.88 40.88 0 0 0-5.68-11.44 19.43 19.43 0 0 0 5-9.48h.08l23-11.48.56 6.09.16 1.79.16 1.8 6.42 70-11.42 3.57-1.31.17 1.21-8.78a4.066 4.066 0 0 0 3.26-1.86 4.727 4.727 0 0 0 .6-2.47 6.734 6.734 0 0 0-.6-2.77 9.16 9.16 0 0 0-5.42-4.87 7.67 7.67 0 0 0-4.89 0c-.17.06-.35.12-.51.19-.485.192-.95.43-1.39.71a9.108 9.108 0 0 0-2.34 2 7.562 7.562 0 0 0-1.78 4.71v.71c-.006.1-.006.2 0 .3.073.449.215.884.42 1.29a3.5 3.5 0 0 0 .52.76 4.19 4.19 0 0 0 2.84 1.27L112.59 97l-1.25.39-7.85 2.46-1.36.38Zm-24-56.45c.004.387-.04.773-.13 1.15l-.15-.1a5.551 5.551 0 0 1-.71-.66 6.413 6.413 0 0 0-.48-.43h.9l.57.04Zm7.62 2.58c-.21.45-.351.928-.42 1.42-.064.48-.101.965-.11 1.45a11.78 11.78 0 0 1-2 0A4.13 4.13 0 0 1 83 47.9c0-1.46.39-1.89.52-2 .713.267 1.46.432 2.22.49l.01-.03ZM118.83 85a5.759 5.759 0 0 0-3.13 1.15 5.71 5.71 0 0 0-3.12-1.15 1.425 1.425 0 0 0 .166-1.35 1.423 1.423 0 0 0-1.046-.87l-.06-.33-.64-3.58a3.78 3.78 0 0 1 1.12.1 7.465 7.465 0 0 1 3.58 2c2.47-2.39 4.71-2.14 4.71-2.14l-.7 3.9a1.42 1.42 0 0 0-.88 2.27Zm-13.55 18 27.65-8.65 2.75-.86-.26-2.87L129 20.08l10-2.57 3 79.86-36.72 5.63Z"/><path fill="#350100" d="M87.35 12.68h-.5v-.44h-.04v-.11h-.25v.55h-.55v.24h.04v.11h.51v.43h.04v.12h.24v-.55h.55v-.24h-.04v-.11ZM85.7 14.07h-.51v-.43h-.04v-.11h-.24v.54h-.55v.25h.04v.11h.51v.44h.04v.11h.24v-.54h.55v-.25h-.04v-.12ZM85.7 11.34h-.51v-.43h-.04v-.11h-.24v.54h-.55v.25h.04v.11h.51v.43h.04v.11h.24v-.54h.55v-.24h-.04v-.12ZM79.92 11.7h.5v.43h.04v.11h.25v-.54h.54v-.24h-.04v-.12h-.5v-.43h-.04v-.11h-.25v.54h-.54v.25h.04v.11ZM79.92 14.44h.5v.43h.04v.11h.25v-.55h.54v-.24h-.04v-.12h-.5v-.43h-.04v-.11h-.25v.54h-.54v.25h.04v.12ZM78.27 13.03h.5v.43h.04v.12h.25v-.55h.54v-.24h-.04v-.11h-.5v-.44h-.04v-.11h-.25v.55h-.54v.24h.04v.11ZM82 29.17c-.382.53-.716 1.092-1 1.68a12.53 12.53 0 0 0-.67 1.8 12.64 12.64 0 0 0-.53 3.8c.016-.64.083-1.28.2-1.91.092-.634.236-1.26.43-1.87.19-.61.428-1.206.71-1.78.28-.58.614-1.134 1-1.65a.06.06 0 0 0 0-.08.07.07 0 1 0-.14.01ZM80 18.45a2.31 2.31 0 0 0-1.43.68 1 1 0 0 1-.41.12.48.48 0 0 0 .43 0 1.69 1.69 0 0 0 1.41.89 1.53 1.53 0 0 0 1.35-.9h-.05a.711.711 0 0 0 .31 0 .63.63 0 0 1-.22-.06 2.21 2.21 0 0 0-1.39-.73Zm-.54.49.33-.05a.33.33 0 0 0-.11.25.15.15 0 0 1 .12-.07.14.14 0 0 1 .099.239.14.14 0 0 1-.099.041.35.35 0 0 0 .563-.108.34.34 0 0 0-.073-.372 1.4 1.4 0 0 1 .32.06c.01.046.01.094 0 .14a.59.59 0 1 1-1.17 0 .408.408 0 0 1 .05-.13h-.03Zm.54 1.12a1.62 1.62 0 0 1-1.3-.81 4.42 4.42 0 0 1 .63-.28.565.565 0 0 0 0 .13.7.7 0 0 0 .7.71.72.72 0 0 0 .72-.71v-.11c.142.048.276.116.4.2h.1a1.4 1.4 0 0 1-1.25.87Z"/><path fill="#350100" d="M80.05 18a2 2 0 0 1 1.46.89l.1-.07a2.08 2.08 0 0 0-1.56-.94A2.56 2.56 0 0 0 78.31 19l.1.07S79.17 18 80.05 18ZM84.56 30.89c.275.575.506 1.17.69 1.78.197.61.344 1.236.44 1.87.095.632.145 1.27.15 1.91.01-.642-.03-1.284-.12-1.92a13.687 13.687 0 0 0-.4-1.88 12.565 12.565 0 0 0-.68-1.8 11.147 11.147 0 0 0-1-1.68.06.06 0 0 0-.09 0c.389.541.727 1.117 1.01 1.72ZM85.64 20.18a1.72 1.72 0 0 0 1.42-.89.48.48 0 0 0 .43 0 1 1 0 0 1-.42-.12 2.34 2.34 0 0 0-1.42-.68 2.21 2.21 0 0 0-1.4.74.61.61 0 0 1-.21.06.69.69 0 0 0 .31 0h-.06a1.55 1.55 0 0 0 1.35.89ZM85.05 19c.101-.03.205-.05.31-.06a.32.32 0 0 0-.09.24.34.34 0 0 0 .34.34.36.36 0 0 0 .25-.1.14.14 0 0 1-.099-.239.14.14 0 0 1 .099-.041.17.17 0 0 1 .13.07.329.329 0 0 0-.11-.25l.33.05a.41.41 0 0 1 0 .16.59.59 0 0 1-1.18 0 .591.591 0 0 1 .02-.17Zm-.53.23c.121-.088.257-.156.4-.2a.45.45 0 0 0 0 .11.71.71 0 1 0 1.42 0v-.13c.213.078.42.172.62.28a1.6 1.6 0 0 1-1.3.81 1.42 1.42 0 0 1-1.23-.82l.09-.05Z"/><path fill="#350100" d="M85.62 18c.88 0 1.63 1 1.64 1.06l.1-.07a2.59 2.59 0 0 0-1.74-1.11 2.13 2.13 0 0 0-1.57.94l.11.07a2 2 0 0 1 1.46-.89ZM54 58.23a5 5 0 0 0 4.86 0 5.06 5.06 0 0 0 2.64-4.44 5.07 5.07 0 1 0-7.5 4.44ZM60.21 77.65a6.55 6.55 0 0 1-.52-.66l-.1-.14a6.28 6.28 0 0 1-1-3.45 6.38 6.38 0 0 1 .74-3 5.86 5.86 0 0 0-2.86 1.15A6.35 6.35 0 0 0 54 70.46a6.29 6.29 0 0 1-1.9 2.74 2.242 2.242 0 0 1-.24.19l.27.13a10 10 0 0 1 2.55 1.75 9.86 9.86 0 0 1 1.84 2.27 8.71 8.71 0 0 1 1.17 3.31c.47-.503.986-.962 1.54-1.37.19-.13.38-.27.58-.38L60 79c.324-.191.658-.365 1-.52a6.834 6.834 0 0 1-.79-.83ZM107.23 58.86a5.07 5.07 0 1 0 0-10.13 5 5 0 0 0-2.79.84 5.06 5.06 0 0 0-2 2.48c-.117.324-.201.66-.25 1-.015.23-.015.46 0 .69a5.082 5.082 0 0 0 5.06 5.07l-.02.05ZM100.4 67.27h.18c.928.276 1.78.762 2.49 1.42a6.16 6.16 0 0 1 1.16 1.44c.2-.45.43-1.44-1-2l-.13-.71-.58-3.19c.206-.026.414-.026.62 0a7.161 7.161 0 0 1 4.09 2.11 7.474 7.474 0 0 1 3.49-2 6.34 6.34 0 0 1 3-2.1 8.918 8.918 0 0 0-6.47-3.09 8.3 8.3 0 0 0-4.09 1.14 9.178 9.178 0 0 0-2.51 2.09 1.914 1.914 0 0 0-.18.23 1.537 1.537 0 0 0-.19.24 7.26 7.26 0 0 0-1.5 4.08c.488 0 .975.057 1.45.17l.17.17ZM111.57 73.51l.26-.12-.22-.18a6.302 6.302 0 0 1-1.89-2.74 6.272 6.272 0 0 0-2.48 1.11 6 6 0 0 0-2.87-1.15c.489.924.743 1.954.74 3a6.251 6.251 0 0 1-1.65 4.25 5.085 5.085 0 0 1-.71.68l-.13.11.12.06c.3.14.6.3.9.47.646.388 1.25.844 1.8 1.36.199.17.386.354.56.55a9.923 9.923 0 0 1 5.57-7.4ZM85.48 61.55c.071.224.161.442.27.65a5.06 5.06 0 1 0-.38-3.38 5.288 5.288 0 0 0 .11 2.73Z"/><path fill="#350100" d="M85.69 71.05v-.25l-.05-.3a4.471 4.471 0 0 1 1.8.3c.21.064.415.147.61.25.85.394 1.624.932 2.29 1.59a8.109 8.109 0 0 1 2.28-1.59 1.89 1.89 0 0 1 .36-.16l.25-.09H93a6.37 6.37 0 0 1 3-3.08 8.67 8.67 0 0 0-5.66-2.28 8.43 8.43 0 0 0-4.66 1.5c-.09.054-.177.114-.26.18A8.44 8.44 0 0 0 82 72a6.29 6.29 0 0 1 4.18 1.71l-.49-2.66ZM93.31 76.62a5.85 5.85 0 0 0-3 1.15A6.46 6.46 0 0 0 88 76.69a6.123 6.123 0 0 1 .16 2.6c.004.063.004.127 0 .19v.18a6.331 6.331 0 0 1-1.11 2.46c-.17.23-.358.447-.56.65-.21.227-.442.435-.69.62a10.7 10.7 0 0 1 3.4 2.45 9.06 9.06 0 0 1 1.45-3.73c.06-.1.128-.197.2-.29a10.28 10.28 0 0 1 2.1-2.17l.25-.18.27-.19c.23-.16.46-.3.71-.44.25-.14.49-.26.74-.38h.09l-.08-.07a6.34 6.34 0 0 1-1.62-1.77ZM73.37 65.05h.34L74 65a5.13 5.13 0 0 0 3.04-1.49 5.06 5.06 0 0 0 .15-6.89 4.635 4.635 0 0 0-.72-.68 5 5 0 0 0-2.74-1h-.32a5.06 5.06 0 0 0 0 10.12l-.04-.01ZM70.74 70.89a8.4 8.4 0 0 1 2.63 1.75c.12-.12.25-.24.37-.34l.25-.21a7.92 7.92 0 0 1 2-1.2c.267-.1.517-.18.75-.24a4.067 4.067 0 0 1 1.34-.15l-.59 3.23A6.31 6.31 0 0 1 81.67 72a8.749 8.749 0 0 0-4.77-5.7 5.671 5.671 0 0 0-.72-.32 7.803 7.803 0 0 0-2.18-.51h-.6a8.74 8.74 0 0 0-5.66 2.27 6.46 6.46 0 0 1 3 3.15ZM76.19 81.26a5.828 5.828 0 0 1-.32-.72 5.56 5.56 0 0 1-.3-1.15 6.91 6.91 0 0 1-.09-1c0-.565.077-1.127.23-1.67a6 6 0 0 0-2 .85l-.26.16-.08.07a5.81 5.81 0 0 0-3-1.15 6.139 6.139 0 0 1-1.51 1.74l-.1.08h.1a10.25 10.25 0 0 1 2.73 1.84 9.53 9.53 0 0 1 1.56 1.82l.22.35.23.4a8.6 8.6 0 0 1 1 2.93c.18-.19.37-.38.56-.56.19-.18.26-.24.4-.35.14-.11.26-.22.4-.32a9.628 9.628 0 0 1 2.02-1.21 6.561 6.561 0 0 1-.67-.62 6.1 6.1 0 0 1-1.12-1.49Z"/><path fill="#350100" d="M86.14 81a5.05 5.05 0 0 0-4.3-7.72 5.06 5.06 0 0 0-5.06 5.06 5 5 0 0 0 .75 2.66c.301.485.68.917 1.12 1.28A5 5 0 0 0 86.14 81ZM103.21 75.83a5.074 5.074 0 0 0-2.66-7.17.608.608 0 0 0-.19-.06.642.642 0 0 0-.18-.06 4.791 4.791 0 0 0-1.32-.2h-.09a6.003 6.003 0 0 0-1 .08l-.25.06a6.373 6.373 0 0 0-.66.21 5.1 5.1 0 0 0-2.29 1.81c-.07.096-.133.196-.19.3-.053.08-.1.163-.14.25a4.9 4.9 0 0 0-.58 2.35c0 .41.047.82.14 1.22a.642.642 0 0 0 0 .13c.03.133.07.263.12.39 0 .13.1.26.16.38v.19c0 .1.11.2.17.3.026.049.056.096.09.14l.11.16.1.15.12.14c0 .07.11.13.16.19l.22.23.18.15.17.16.19.14.19.13a5 5 0 0 0 3.88.73h.19l.19-.06a5.07 5.07 0 0 0 2.58-1.79c.219-.195.417-.413.59-.65ZM68.93 76.48l.11-.15c.07-.1.13-.2.19-.3.064-.096.121-.196.17-.3l.12-.24c.053-.114.1-.231.14-.35a2.9 2.9 0 0 0 .12-.39.94.94 0 0 0 0-.13A4.91 4.91 0 0 0 70 73.4a5.09 5.09 0 0 0-3.21-4.71 4.002 4.002 0 0 0-.55-.19 5.113 5.113 0 0 0-1.31-.17h-.09a5.07 5.07 0 0 0-4.35 7.5c.126.228.27.445.43.65.197.263.422.505.67.72a5.06 5.06 0 0 0 3.34 1.26c.411-.004.82-.054 1.22-.15a4.998 4.998 0 0 0 1.58-.7l.16-.11.27-.22.26-.23.22-.23.06-.06c.14-.17.18-.23.23-.28ZM111.79 65.15a5.059 5.059 0 0 0-1.15 3.21v.15a5.059 5.059 0 0 0 9.592 2.085 5.063 5.063 0 0 0-4.292-7.295h-.24a4.995 4.995 0 0 0-3.91 1.85ZM53 68.51a.752.752 0 0 0 0-.15 5.08 5.08 0 0 0-5-5.07h-.29A5.073 5.073 0 0 0 48 73.43h.45a5.109 5.109 0 0 0 2.16-.71 4.82 4.82 0 0 0 1.26-1.08A5 5 0 0 0 53 68.51ZM53 64.43a7.61 7.61 0 0 1 3.49 2 7.68 7.68 0 0 1 2.81-1.81 4.701 4.701 0 0 1 1.9-.33l-.71 3.9a1.7 1.7 0 0 0-1 .83 1.41 1.41 0 0 0 0 1.09.249.249 0 0 1 0 .07 6.43 6.43 0 0 1 2.35-2.31l.36-.2.37-.16c.759-.31 1.57-.47 2.39-.47a8 8 0 0 0-3-5.67 6.03 6.03 0 0 0-.39-.32 3.392 3.392 0 0 0-.39-.27 8.7 8.7 0 0 0-2.41-1.18 7.58 7.58 0 0 0-2.3-.37 8.85 8.85 0 0 0-6.47 3.1 6.3 6.3 0 0 1 3 2.1Z"/><path fill="#fff" d="M85.82 19.39a.15.15 0 1 0 0-.3.15.15 0 0 0 0 .3ZM79.84 19.39a.15.15 0 1 0 0-.3.15.15 0 0 0 0 .3Z"/></g><g clip-path="url(#h)"><path fill="#560702" d="M34.75 166.29a9 9 0 0 0 .63-3.67v-5.51a11.902 11.902 0 0 0-2.11 2.21c-1 1.24-1.51 2-1.49 2.32l.15 2.15h-3.71a1.35 1.35 0 0 1 0-.28 26.071 26.071 0 0 1 1.45-5.77c-.37 0-.88.37-1.54 1.12-.68.92-1.35 1.85-2 2.78-.18.308-.299.647-.35 1 0 .25-.07.62-.1 1.1H22a2.916 2.916 0 0 1-2.39-1.67 700.421 700.421 0 0 1-2.36-4l-3 4.93a20.248 20.248 0 0 1 2.19 3.63 10.342 10.342 0 0 1 1.24 4c-.34.46-1.49.86-3.45 1.2a25.639 25.639 0 0 1-3.93.37c-4.32 0-6.49-1.58-6.49-4.74a6.65 6.65 0 0 1 1.24-4c.93-1.16 1.64-2 2.12-2.59-.61.1-1 .25-1 .46-.53 0-1.38.9-2.56 2.69a16.983 16.983 0 0 0-2 3.52 14.77 14.77 0 0 0-1.08 4.81c0 3.567 2.96 5.353 8.88 5.36a14.795 14.795 0 0 0 4.17-1 11.312 11.312 0 0 0 3.75-1.81 11.01 11.01 0 0 0 1.67-2.72 8.419 8.419 0 0 0 1.12-2.94H25l.78-.8c.236.245.447.513.63.8h7.16c.33-1.008.723-1.993 1.18-2.95ZM71.21 172.75c-.627.667-.997 1-1.11 1a5.304 5.304 0 0 1-1.76-.89 11.816 11.816 0 0 1-1.78-1.3l-.95 1c-.33.36-1 1.1-1.87 2.24a6.609 6.609 0 0 0 1.82 1.34c.656.4 1.35.734 2.07 1 .71-.82 1.38-1.54 2-2.17 2.5 1.507 3.8 2.26 3.9 2.26.17 0 .66-.5 1.46-1.5.66-.81 1.12-1.42 1.4-1.84l-4-2.45c-.05.13-.46.56-1.18 1.31ZM87.81 171.34c-.38 0-1.56 1.23-3.52 3.69.05.36.66 1 1.84 1.92a5.831 5.831 0 0 0 2.35 1.38 9.366 9.366 0 0 0 2-1.66 11.26 11.26 0 0 0 1.77-1.83c.007-.18-1.473-1.347-4.44-3.5Z"/><path fill="#560702" d="M109.92 153.12c-1.14 2.12-2.09 3.74-2.86 4.88a17.332 17.332 0 0 1 3.23 5.79h-17c.462-.247.94-.464 1.43-.65a12.435 12.435 0 0 1 4.62-.93 39.127 39.127 0 0 0 2.19-4.3h-1.21a26.223 26.223 0 0 1-5.06-.35c-.48-.133-2.21-.703-5.19-1.71a17.81 17.81 0 0 0-5.16-1.13 4.72 4.72 0 0 0-4.34 2.39 22.584 22.584 0 0 0-1.76 5 3.688 3.688 0 0 1 2-1.6 6.757 6.757 0 0 1 2.49-.51c1.106.141 2.194.392 3.25.75a14.1 14.1 0 0 1 3 1 5.852 5.852 0 0 1-1.77 1.31 4.618 4.618 0 0 1-2 .68h-8.81a2.61 2.61 0 0 1-1.82-.73 1.767 1.767 0 0 1-.64-1.7c.281-1.692.428-3.404.44-5.12a1.764 1.764 0 0 0 0-.35v-.67c-.09.09-.69.78-1.78 2.09-1.09 1.31-1.64 2-1.66 2.08a21.286 21.286 0 0 1-.45 4.4h-9.48c-.92.11-1.39-.35-1.39-1.39 0-.3-.12-1.89-.37-4.77-.2-2.5-.403-5.003-.61-7.51-.327-3.547-.643-5.32-.95-5.32a18.003 18.003 0 0 0-1.8 2.58c-.14.22-.68 1.15-1.61 2.78l1.71 13.63H51.2a19.998 19.998 0 0 0-1.35-5.12c-.98-2.3-2.123-3.45-3.43-3.45-1.12 0-2.16.73-3.14 2.19a25.878 25.878 0 0 0-2 3.89 12.423 12.423 0 0 0-1.17 4.18c0 2.473 2.3 3.707 6.9 3.7a16.857 16.857 0 0 1-2.82 2.34 16.996 16.996 0 0 1-8 3.06c-1.55.11-2.68.18-3.4.21.707.54 2.397 1.033 5.07 1.48 1.812.34 3.647.537 5.49.59 2.8 0 5.1-2.54 6.9-7.62h4.35c1.25-2.34 1.89-3.54 1.91-3.62l.1 2.6c0 .68.34 1 1 1h12.05l1.95-3.39c.238.889.657 1.72 1.23 2.44a3.17 3.17 0 0 0 2.46 1h8.94a2.621 2.621 0 0 0 1.65-.57l1.26-1.3c1-1 1.52-1.6 1.71-1.75a3.473 3.473 0 0 1 2.11-1c0 .92-.05 1.6-.05 2 0 .883.087 1.764.26 2.63h21.36a55.8 55.8 0 0 0 1.08-7.6 12.944 12.944 0 0 0-.24-2.34c-.253-1.3-1.407-3.357-3.46-6.17ZM46.4 163.83a5.512 5.512 0 0 1-2.26-.47c-.88-.407-1.32-.957-1.32-1.65.67-1.16 1.31-1.74 1.93-1.74 1.14 0 2.023 1.167 2.65 3.5 0 .24-.33.36-1 .36ZM109.17 150.2c1.08-1.133 1.62-1.8 1.62-2-.34 0-1.813-.78-4.42-2.34-.347 0-1.593 1.287-3.74 3.86a28.583 28.583 0 0 1 4.88 2.28c.02-.07.57-.67 1.66-1.8ZM119.5 146.93a30.906 30.906 0 0 0-2 3.28 13.365 13.365 0 0 0-1.5 3.21l2.15 16.3a13.496 13.496 0 0 0 2.85-8.62c0-1.94-.103-3.963-.31-6.07-.587-5.4-.983-8.1-1.19-8.1ZM140.19 179.68c-.65.61-1 .91-1.17.91a5 5 0 0 1-1.77-.81 10.31 10.31 0 0 1-1.75-1.21c-1.85 1.92-2.81 2.92-2.87 3a7.093 7.093 0 0 0 1.83 1.17c.667.366 1.363.677 2.08.93a13.536 13.536 0 0 1 2.13-2c2.54 1.4 3.82 2.1 3.86 2.1.04 0 .66-.46 1.46-1.37.67-.75 1.14-1.3 1.41-1.67l-3.95-2.25c-.12.1-.54.5-1.26 1.2ZM159.75 150.2c1.08-1.133 1.62-1.8 1.62-2a22.383 22.383 0 0 1-4.37-2.35c-.36 0-1.61 1.287-3.75 3.86a28.21 28.21 0 0 1 4.84 2.29c.02-.07.58-.67 1.66-1.8ZM164 159.3c-.26-1.333-1.41-3.393-3.45-6.18-1.14 2.12-2.09 3.74-2.86 4.88a17.156 17.156 0 0 1 3.23 5.79h-7.12v-.15h-11.64a28.502 28.502 0 0 0-3 5.06l3.67.36a5.11 5.11 0 0 1 4.56 2.2l-3.23.84c-1.923.43-3.889.642-5.86.63a8.08 8.08 0 0 1-4.34-1.25 4.065 4.065 0 0 1-2.33-3.56 9.153 9.153 0 0 1 1.33-4.65 23.576 23.576 0 0 1 2.95-3.9c-.38 0-1.22.65-2.5 1.93-3.38 3.38-5.07 6.693-5.07 9.94a5.545 5.545 0 0 0 2.62 5 10.806 10.806 0 0 0 5.73 1.36 27.317 27.317 0 0 0 5.32-.69 16.579 16.579 0 0 0 5-1.72 8.827 8.827 0 0 0 2.45-2.79c.41-.64 1-1.72 1.76-3.24v.15h11.88a55.8 55.8 0 0 0 1.08-7.6 12.972 12.972 0 0 0-.18-2.41Z"/><path fill="#000" d="M2.83 187.07c.493.293 1.008.547 1.54.76.06 0 .25-.17.57-.51.24-.26.42-.46.53-.61l-1.53-.81a3.278 3.278 0 0 0-.48.42c-.25.23-.4.34-.47.34a2.083 2.083 0 0 1-.7-.3 3.913 3.913 0 0 1-.69-.43c-.47.43-.85.8-1.12 1.09.223.175.469.319.73.43.262.141.537.259.82.35.28-.27.54-.52.8-.73ZM11.07 195.85c-.11.134-.237.252-.38.35a1.695 1.695 0 0 1-.61-.31 3.646 3.646 0 0 1-.6-.44l-.33.35c-.11.12-.32.38-.64.77.18.184.39.336.62.45.224.137.462.251.71.34.24-.28.47-.52.69-.74.86.52 1.3.78 1.33.78.03 0 .23-.18.5-.52.173-.197.333-.404.48-.62l-1.35-.84c-.147.136-.287.28-.42.43ZM24.3 188.94c.08 0 .29-.2.64-.6.22-.236.426-.483.62-.74l-1.74-1a3.365 3.365 0 0 0-.63.63l-.61.76.85.46c.28.179.571.343.87.49Z"/><path fill="#000" d="M35.08 187.36a1.136 1.136 0 0 1-.39-.42 1.787 1.787 0 0 1-.07-.57c-.18 0-.61.65-1.29 2 .166.172.343.332.53.48.13.62.25 1.25.37 1.88.12.617.19 1.242.21 1.87v.22H32l-1.09-1-2.08-2-1.05-1 4.2-1.21.6-1.73-5.32 1.29-.23.59-.31 1-.34 1 3.08 3.07h-3.1a.917.917 0 0 1-.63-.24.648.648 0 0 1-.22-.59 9.872 9.872 0 0 0 .15-1.74.724.724 0 0 0 0-.13v-.22l-.61.71c-.37.44-.56.68-.57.71a6.842 6.842 0 0 1-.15 1.5h-3a.483.483 0 0 1-.37-.24 1.138 1.138 0 0 1-.19-.47l-.11-1.34c-.18 0-.53.44-1 1.32v.36c0 .25 0 .37-.11.37H18.3c.107-.385.174-.781.2-1.18v-1.04c-.505.428-.92.951-1.22 1.54v.09a.712.712 0 0 1 0 .14c0 .3-.09.45-.27.45h-1.94c.266-.719.44-1.468.52-2.23-.13 0-.33.29-.6.73-.05.07-.22.36-.52.87 0 .42-.1.63-.3.63H13a.912.912 0 0 1-.62-.24.6.6 0 0 1-.22-.59 9.872 9.872 0 0 0 .15-1.74.724.724 0 0 0 0-.13v-.22s-.24.26-.61.71c-.37.45-.56.68-.57.71a6.842 6.842 0 0 1-.15 1.5H7.85a2.263 2.263 0 0 1-.66-.08 1 1 0 0 1-.57-.69c0-.31-.11-.62-.17-.93l-.46-2.5a9.433 9.433 0 0 0-.32-1.38c-.37.65-.72 1.23-1.07 1.74.007.1.03.198.07.29.04.095.064.197.07.3l-1.48.87a5.278 5.278 0 0 0-1 .66 3.92 3.92 0 0 0-.66 1.27 4.67 4.67 0 0 0-.4 1.41c.5.037.998.104 1.49.2l.81.17c.266.064.537.107.81.13.22 0 .44-.21.65-.65a2.4 2.4 0 0 1 .51-.77c.07.28.14.56.22.83.062.255.178.494.34.7a.996.996 0 0 0 .75.29h3.74l.67-1.16c.077.307.22.594.42.84a1.066 1.066 0 0 0 .84.32h1.36c.11 0 .217-.027.313-.079a.658.658 0 0 0 .237-.221c.08 0 .19.1.34.3H17c.05 0 .12-.05.22-.15.1-.1.16-.16.19-.16s.2.11.34.31h2.16l.34-.5c.1.23.18.39.23.5h3.31l.66-1.16c.077.307.22.594.42.84a1.066 1.066 0 0 0 .84.32h3.67l.35-.58.36-.62.68.66.23.22.11.1.11.11.13.11h3.15c.37.08.6-.09.7-.48l.22-1c.077-.295.124-.596.14-.9-.14-1.267-.21-2.047-.21-2.34l1.34-1.64a6.299 6.299 0 0 1-1.61-.97Zm-31.64 4.43c.097-.149.231-.27.39-.35.161-.068.315-.151.46-.25l.36-.41c.093-.128.197-.249.31-.36.14.527.25 1.061.33 1.6a6.055 6.055 0 0 1-1.85-.23ZM38.72 187c-.254.356-.482.73-.68 1.12a4.338 4.338 0 0 0-.52 1.09l.73 5.57a4.65 4.65 0 0 0 1-2.95c0-.66 0-1.35-.11-2.07a14.15 14.15 0 0 0-.42-2.76ZM55.59 193.65c.163-.399.238-.829.22-1.26v-1.88a3.526 3.526 0 0 0-.72.76c-.35.42-.52.68-.51.79v.73h-1.26v-.09a8.638 8.638 0 0 1 .49-2c-.12 0-.3.12-.52.38l-.69 1a.901.901 0 0 0-.12.36v.37h-1.25a1.002 1.002 0 0 1-.82-.57c-.36-.61-.63-1.07-.8-1.38l-1 1.69c.292.386.544.802.75 1.24.232.423.375.89.42 1.37-.12.16-.51.29-1.18.41a8.14 8.14 0 0 1-1.34.13c-1.48 0-2.22-.54-2.22-1.62-.01-.495.14-.979.43-1.38l.72-.89c-.21 0-.32.09-.35.16-.19 0-.48.31-.88.92a6.065 6.065 0 0 0-.67 1.2 5.201 5.201 0 0 0-.37 1.64c0 1.22 1 1.83 3 1.83a5.063 5.063 0 0 0 1.42-.33c.46-.123.894-.33 1.28-.61.24-.285.443-.601.6-.94.186-.308.314-.647.38-1h1.65l.26-.27c.084.081.158.171.22.27h2.44c.12-.351.26-.695.42-1.03ZM63.69 188.35c.25-.26.5-.51.75-.74.25.153.506.293.77.42.227.132.465.246.71.34.13 0 .49-.37 1.07-1.13l-1.49-.82c-.05 0-.2.17-.48.42-.28.25-.37.35-.42.35a1.918 1.918 0 0 1-.66-.3 4.609 4.609 0 0 1-.67-.45c-.29.28-.65.65-1.08 1.12.223.176.464.327.72.45.246.143.508.257.78.34Z"/><path fill="#000" d="M79.05 187.36a1.104 1.104 0 0 1-.4-.42 1.87 1.87 0 0 1-.06-.57c-.19 0-.62.65-1.3 2 .171.17.351.33.54.48l.36 1.88c.121.617.195 1.242.22 1.87v.22h-2c.088-.209.188-.413.3-.61a3.288 3.288 0 0 0-2.2-2.17c-.47.068-.928.203-1.36.4-.57.22-1 .42-1.38.59-.748.345-1.467.75-2.15 1.21.183-.525.31-1.068.38-1.62a7.427 7.427 0 0 0-.09-1.06c.27 0 .52-.19.75-.56.06-.11.21-.41.43-.92a3.729 3.729 0 0 1-1.63-1.08 2.632 2.632 0 0 1-.31-.67 3.349 3.349 0 0 0-.63.74c-.21.235-.36.516-.44.82a.608.608 0 0 0 .15.41c.145.165.236.371.26.59 0 .23.07.46.1.69l.31 2.84c0 .27-.17.4-.53.4h-1.5l.55-.92a1.3 1.3 0 0 0 .12-.63 2.608 2.608 0 0 0-.21-1c-.19-.41-.44-.61-.76-.61a3.088 3.088 0 0 0-1.67.69 7.138 7.138 0 0 0-1.39 1.26 6.999 6.999 0 0 0-.43.59 1.61 1.61 0 0 0-.12.66h-1.75a6.999 6.999 0 0 0-.46-1.75c-.34-.78-.73-1.17-1.17-1.17a1.372 1.372 0 0 0-1.07.74c-.27.421-.502.866-.69 1.33a4.216 4.216 0 0 0-.4 1.43c0 .84.78 1.26 2.35 1.26-.3.307-.635.575-1 .8a5.903 5.903 0 0 1-2.72 1l-1.16.07c.54.276 1.127.446 1.73.5.617.121 1.242.191 1.87.21 1 0 1.75-.87 2.36-2.61H78.43c.36.08.59-.09.69-.48l.23-1c.075-.295.118-.596.13-.9-.14-1.267-.21-2.047-.21-2.34l1.35-1.64a5.999 5.999 0 0 1-1.57-.95Zm-19.48 5.44a2.013 2.013 0 0 1-.77-.15.638.638 0 0 1-.45-.57c.23-.39.45-.59.66-.59.39 0 .69.4.9 1.19 0 .08-.11.12-.34.12Zm5.72 0a1.674 1.674 0 0 1-.71-.21c-.32-.16-.48-.32-.48-.48 0-.14.18-.28.54-.45.223-.122.468-.2.72-.23a.719.719 0 0 1 .61.35c.135.208.204.452.2.7a1.128 1.128 0 0 1-.88.31v.01Zm5.44 0c-.14.01-.28.01-.42 0a5.53 5.53 0 0 1 3.07-1.24c.368.022.719.162 1 .4a2 2 0 0 1 .7.83l-4.35.01ZM83.18 191.87c0-.66 0-1.35-.11-2.07-.033-.93-.16-1.855-.38-2.76a9.633 9.633 0 0 0-.69 1.12c-.219.34-.393.706-.52 1.09l.74 5.57a4.64 4.64 0 0 0 .96-2.95ZM86.81 189.5c-.38 0-.81.38-1.29 1.13a3.062 3.062 0 0 0-.53 2.91.92.92 0 0 0 .93.61 1.283 1.283 0 0 0 1-.36c.223-.308.405-.644.54-1a.789.789 0 0 1 0 .28 2.57 2.57 0 0 1-1 1.67 6.135 6.135 0 0 1-1.61 1.26 8.25 8.25 0 0 1-2.93.6 4.66 4.66 0 0 0 1.73.5c.616.122 1.242.192 1.87.21.82 0 1.52-.64 2.08-1.9.437-.94.669-1.963.68-3a4.538 4.538 0 0 0-.4-1.69c-.31-.83-.67-1.22-1.07-1.22Zm-.45 2.91a1.152 1.152 0 0 1-.82-.39.838.838 0 0 1 .28-.44.712.712 0 0 1 .45-.21.553.553 0 0 1 .46.3 1 1 0 0 1 .17.54.806.806 0 0 1-.54.2ZM97.52 189.76c.255-.233.486-.491.69-.77a8.377 8.377 0 0 0-.79-.59 7.018 7.018 0 0 0-.76-.51c-.11 0-.37.21-.78.62a4.011 4.011 0 0 0-.71.84c.456.388.969.705 1.52.94.18 0 .46-.18.83-.53ZM97.39 192.68c.25.38.477.774.68 1.18.212.397.344.832.39 1.28-.11.16-.51.29-1.17.41-.446.08-.897.123-1.35.13-1.47 0-2.21-.54-2.21-1.62a2.26 2.26 0 0 1 .42-1.38l.72-.89c-.2 0-.32.09-.35.16-.18 0-.47.31-.87.92-.27.374-.498.776-.68 1.2a5.136 5.136 0 0 0-.36 1.64c0 1.22 1 1.83 3 1.83.487-.04.965-.151 1.42-.33.458-.115.89-.319 1.27-.6.412-.46.707-1.012.86-1.61.154-.381.236-.789.24-1.2a4.61 4.61 0 0 0-1-2.63l-1.01 1.51ZM113.55 187.36a1.14 1.14 0 0 1-.39-.42 1.889 1.889 0 0 1-.06-.57c-.19 0-.62.65-1.3 2 .167.174.347.335.54.48l.36 1.88c.119.617.189 1.242.21 1.87v.22h-4.54c.17-.08.33-.16.49-.22a4.285 4.285 0 0 1 1.58-.32c.275-.474.525-.961.75-1.46h-.42a8.474 8.474 0 0 1-1.72-.13c-.17 0-.76-.23-1.78-.58a5.871 5.871 0 0 0-1.76-.38 1.62 1.62 0 0 0-1.48.81 8.313 8.313 0 0 0-.6 1.72c.158-.253.398-.443.68-.54.274-.123.57-.188.87-.19.377.046.749.13 1.11.25.346.082.681.203 1 .36a1.716 1.716 0 0 1-.6.45 1.501 1.501 0 0 1-.69.23h-3.5a.349.349 0 0 1-.32-.33l-.09-1.17-.25-2.7c-.08-.88-.14-1.59-.19-2.13-.5.64-.87 1.14-1.12 1.49l.38 4.82c.11 1.24.17 1.86.19 1.88h4.36c.203.002.4-.065.56-.19l.43-.45c.33-.34.52-.54.58-.59.194-.201.452-.328.73-.36v.69c0 .302.03.604.09.9H113c.37.08.6-.09.7-.48l.23-1c.07-.296.113-.597.13-.9-.14-1.267-.21-2.047-.21-2.34l1.34-1.64a6.297 6.297 0 0 1-1.64-.96ZM115.65 186.49a3.181 3.181 0 0 1 1.73-.66c.125-.155.239-.319.34-.49h-.94a1.259 1.259 0 0 1-.78-.34c.136-.123.301-.209.48-.25.177.061.34.156.48.28l.28-.41a.3.3 0 0 0-.037-.131.294.294 0 0 0-.093-.099.435.435 0 0 0-.25-.1c-.321.007-.626.14-.85.37a1.174 1.174 0 0 0-.37.84c0 .1.26.22.77.34l-.45.29a.997.997 0 0 0-.31.36ZM123 187.21a1.004 1.004 0 0 1-.45-.37 1.189 1.189 0 0 1-.1-.57 19.195 19.195 0 0 0-1.2 1.79l.29.37c.097.202.141.426.13.65a3.243 3.243 0 0 1-.45 1.58 14.038 14.038 0 0 0-2.1-2.33c-1.31-1.09-2.2-1.64-2.67-1.64a5.442 5.442 0 0 0-.7 2c.006.251.106.49.28.67.168.197.381.351.62.45.326.14.644.3.95.48.14.08.44.28.89.58.06 0 .14-.08.25-.24.045-.091.102-.175.17-.25.12 0 .38.19.78.58.4.39.6.62.6.74a3.452 3.452 0 0 1-.85.73 2.24 2.24 0 0 1-1.1.4l-.33.93c-.22.57-.34.88-.35.93h4.45c.066-.434.11-.871.13-1.31.01-.163.01-.327 0-.49-.22-.65-.41-1.17-.57-1.55.068-.066.131-.136.19-.21a3.324 3.324 0 0 0 .86-2l.2.09a.61.61 0 0 0 .3 0l.92-1.35c.01-.03-.36-.27-1.14-.66Zm-2.37 5.84a3.15 3.15 0 0 1-.7 0c.322-.222.612-.488.86-.79.212.226.358.506.42.81a3.895 3.895 0 0 1-.54-.02h-.04ZM126.16 187a9.592 9.592 0 0 0-.69 1.12c-.219.34-.393.706-.52 1.09l.74 5.57a4.64 4.64 0 0 0 1-2.95 18.578 18.578 0 0 0-.11-2.07 13.764 13.764 0 0 0-.42-2.76ZM141.37 195.85c-.21.23-.34.35-.38.35a1.768 1.768 0 0 1-.6-.31 3.937 3.937 0 0 1-.61-.44l-.32.35c-.11.12-.33.38-.64.77.18.184.389.336.62.45.224.137.462.251.71.34.24-.28.47-.52.69-.74.85.52 1.3.78 1.33.78.03 0 .23-.18.5-.52s.38-.48.48-.62l-1.35-.84s-.18.17-.43.43ZM156.77 188.35l.76-.74c.249.153.506.293.77.42.227.132.464.246.71.34.13 0 .49-.37 1.07-1.13l-1.49-.82-.48.42c-.23.23-.37.35-.42.35a1.918 1.918 0 0 1-.66-.3 3.845 3.845 0 0 1-.66-.45c-.3.28-.66.65-1.09 1.12.222.175.463.323.72.44.244.142.502.259.77.35Z"/><path fill="#000" d="M164.19 188.32a6.278 6.278 0 0 1-1.64-1 1.14 1.14 0 0 1-.39-.42 1.798 1.798 0 0 1-.07-.57c-.18 0-.61.65-1.29 2 .167.174.347.335.54.48l.36 1.88c.119.617.189 1.242.21 1.87v.22h-1.8a.911.911 0 0 1-.62-.24.6.6 0 0 1-.22-.59 12.37 12.37 0 0 0 .15-1.74v-.35s-.24.26-.61.71c-.37.45-.56.68-.57.71a6.873 6.873 0 0 1-.15 1.5h-3a.448.448 0 0 1-.37-.24c-.1-.14-.169-.301-.2-.47l-.1-1.34c-.187 0-.537.44-1.05 1.32a1.206 1.206 0 0 0 0 .17v.19c0 .25 0 .37-.12.37h-1.15c.105-.385.169-.781.19-1.18v-1.04a5 5 0 0 0-1.22 1.54v.09a.655.655 0 0 1 0 .14c0 .3-.09.45-.27.45h-1.94a9.145 9.145 0 0 0 .52-2.23 2.184 2.184 0 0 0-.6.73c-.05.07-.22.36-.52.87 0 .42-.1.63-.3.63h-1.32c-.32 0-.48-.12-.48-.47 0-.1 0-.65-.13-1.63-.13-.98-.13-1.71-.2-2.56-.12-1.22-.23-1.82-.33-1.82a6.054 6.054 0 0 0-.61.88c0 .07-.24.39-.55 1l.58 4.65h-1.6a.911.911 0 0 1-.62-.24.6.6 0 0 1-.22-.59 12.37 12.37 0 0 0 .15-1.74v-.35s-.24.26-.61.71c-.37.45-.56.68-.57.71a6.873 6.873 0 0 1-.15 1.5h-3.8a1.869 1.869 0 0 1-.77-1.09l-.47-2a8.876 8.876 0 0 0-1.06.2c-.627.153-1.245.344-1.85.57a2.814 2.814 0 0 0-1.4 1.09 5.11 5.11 0 0 0-.61 1.17l-.24.74.24 1.65.34 2.43.14.91.23-.55.19-.43.2-.5c.113-.244.187-.503.22-.77l-.42-3.55c0-.15.17-.31.51-.45.25-.146.531-.231.82-.25l-.6 1.27c.086.14.198.262.33.36.204.162.418.313.64.45.434.273.897.497 1.38.67l.89.38.64.37.6-.82h3.39l.67-1.16c.079.305.218.591.41.84a1.107 1.107 0 0 0 .85.32h1.52c.43-.79.64-1.21.65-1.23v.89c0 .23.12.34.34.34h2.27a.647.647 0 0 0 .55-.3c.08 0 .19.1.34.3h2.32s.12-.05.22-.15c.1-.1.16-.16.19-.16s.2.11.35.31h2.16l.33-.5c.1.23.18.39.23.5h3.31l.67-1.16c.079.305.218.591.41.84a1.107 1.107 0 0 0 .85.32H162c.37.08.6-.09.7-.48l.22-1c.077-.295.124-.596.14-.9-.14-1.267-.21-2.047-.21-2.34l1.34-1.64Zm-29 4.29c-.47-.25-.71-.42-.74-.51a.834.834 0 0 1 .25-.16l.24-.13.15-.08a.713.713 0 0 1 .16 0l.34-.08.12.7.22.69-.74-.43ZM57.75 127.82a18.73 18.73 0 0 0 2.71 1.34c.12 0 .45-.3 1-.9.55-.6.74-.82.95-1.08l-2.71-1.43a7.672 7.672 0 0 0-.85.75c-.43.4-.71.59-.82.59a3.69 3.69 0 0 1-1.24-.52 6.948 6.948 0 0 1-1.21-.76c-.84.77-1.5 1.41-2 1.93.394.305.823.561 1.28.76.47.243.958.447 1.46.61.52-.48.99-.91 1.43-1.29ZM80 139.44a5.731 5.731 0 0 0 .38-2.23v-3.32a7.11 7.11 0 0 0-1.27 1.33c-.61.74-.91 1.21-.9 1.4l.09 1.29h-2.22a.49.49 0 0 1 0-.17 15.15 15.15 0 0 1 .88-3.47c-.23 0-.54.22-.94.67-.4.45-.81 1.12-1.2 1.68a3.289 3.289 0 0 0-.27 1.26c-.29 0-.8.05-1.54.05-1 0-1.49-.07-1.6-.22.432-1.134.74-2.31.92-3.51 0-.19 0-.29-.11-.29-.6.7-1.267 1.5-2 2.4v.38a2.24 2.24 0 0 1-.35 1.22h-3.23a4.018 4.018 0 0 1-1.17-.14 1.75 1.75 0 0 1-1-1.22l-.3-1.64-.82-4.4c-.123-.83-.31-1.649-.56-2.45-.64 1.15-1.27 2.17-1.89 3.07.013.18.057.356.13.52.069.169.113.348.13.53l-2.63 1.52c-.62.334-1.205.725-1.75 1.17a7 7 0 0 0-1.17 2.24 8.626 8.626 0 0 0-.7 2.49 21.8 21.8 0 0 1 2.62.35c.473.107.953.207 1.44.3.47.116.948.196 1.43.24.38 0 .76-.38 1.15-1.15.206-.506.508-.968.89-1.36.13.49.25 1 .38 1.46.11.453.318.876.61 1.24a1.694 1.694 0 0 0 1.31.51h4.33a1.16 1.16 0 0 0 .57-.34s.17-.21.44-.52c.14.28.248.575.32.88h3.72l.48-.5c.09 0 .21.17.38.5h4.29a17.99 17.99 0 0 1 .73-1.77Zm-21.17-3.29c.177-.267.422-.481.71-.62.277-.127.544-.274.8-.44.225-.233.435-.481.63-.74.17-.222.353-.432.55-.63.252.93.443 1.875.57 2.83a10.911 10.911 0 0 1-3.27-.4h.01Z"/><path fill="#000" d="M84.7 133.43c-.45 1.13-.86 2.12-1.22 3l1.66 1.41c.508.414.95.903 1.31 1.45-1.36 2.15-2.81 3.41-4.32 3.81a13.015 13.015 0 0 1-3.24.49 9.866 9.866 0 0 1-2.27-.28l1 .6a15.06 15.06 0 0 0 6.11 1.69 3.23 3.23 0 0 0 1.63-1 8.6 8.6 0 0 0 2.78-6.76 5.69 5.69 0 0 0-1.4-2.38 7.4 7.4 0 0 0-2.04-2.03ZM110.88 136.62l-1.11-3.78c-.09-.18-.31-.28-.64-.28a2.78 2.78 0 0 0-1 .23 7.831 7.831 0 0 0-3.88 3.12l-.9 2h-2.06c-.34 0-.673-.46-1-1.38 0-.09-.18-.68-.44-1.78-.65-2.69-1.13-4.54-1.46-5.56-.1.15-.41.73-.92 1.74-.285.523-.542 1.06-.77 1.61l.89 3.3c.21.664.327 1.354.35 2.05h-5.77c-.49 0-.74-.37-.74-1.1 0-.18 0-.46.05-.85.05-.39 0-.68 0-.86-.23.07-.44.32-.64.76a6.57 6.57 0 0 0-.33 1 14.735 14.735 0 0 0-.53 3.56.748.748 0 0 0 .46.747c.098.04.204.058.31.053h6.1c.27 0 .56-.3.86-.9a3.27 3.27 0 0 1 .6-1c.12.37.26.74.4 1.1.2.52.42.78.67.78h3.37c.34 0 .66-.4 1-1 .34-.6.57-1.06.71-1.06l4.78 1.79a5.631 5.631 0 0 0 1-1.34 5.896 5.896 0 0 0 .84-1.57 4.573 4.573 0 0 0-.2-1.38Zm-5-.63a2.742 2.742 0 0 1 1.49-.59c.287 0 .547.52.78 1.56l-2.27-.97Z"/><path stroke="#000" stroke-miterlimit="10" stroke-width="1.54" d="M115.98 136.96h48.21M.48 136.96h48.21"/><path fill="#560702" d="M115.09 144.27a3.343 3.343 0 0 1 1.08-2.44 3.443 3.443 0 0 1 2.46-1.06c.265.015.518.117.72.29a.832.832 0 0 1 .38.65l-.83 1.22a3.245 3.245 0 0 0-1.37-.82 2.935 2.935 0 0 0-1.39.71 4.102 4.102 0 0 0 3.19 1H121.25a8.373 8.373 0 0 1-.95 1.41c-1.153-.133-2.82.513-5 1.94a6.044 6.044 0 0 1 2.05-1.87l-1.52-.42c-.51-.14-.74-.34-.74-.61Z"/></g><defs><radialGradient id="b" cx="0" cy="0" r="1" gradientTransform="translate(83.34 18.5) scale(88.24)" gradientUnits="userSpaceOnUse"><stop stop-color="#FFD17B"/><stop offset=".23" stop-color="#FECD77"/><stop offset=".47" stop-color="#F9C36B"/><stop offset=".7" stop-color="#F3B157"/><stop offset=".94" stop-color="#E9983B"/><stop offset="1" stop-color="#E69032"/></radialGradient><radialGradient id="c" cx="0" cy="0" r="1" gradientTransform="translate(86.9 23.44) scale(28.23)" gradientUnits="userSpaceOnUse"><stop stop-color="#fff"/><stop offset=".13" stop-color="#FFF4DF"/><stop offset=".3" stop-color="#FFE7BB"/><stop offset=".48" stop-color="#FFDE9F"/><stop offset=".65" stop-color="#FFD78B"/><stop offset=".83" stop-color="#FFD27F"/><stop offset="1" stop-color="#FFD17B"/></radialGradient><radialGradient id="d" cx="0" cy="0" r="1" gradientTransform="matrix(.66 0 0 .66 85.64 19.12)" gradientUnits="userSpaceOnUse"><stop stop-color="#FFD17B"/><stop offset=".14" stop-color="#FBCD79"/><stop offset=".28" stop-color="#EFC171"/><stop offset=".42" stop-color="#DCAD66"/><stop offset=".56" stop-color="#C09055"/><stop offset=".7" stop-color="#9D6C3F"/><stop offset=".84" stop-color="#723F25"/><stop offset=".97" stop-color="#3F0C06"/><stop offset="1" stop-color="#350100"/></radialGradient><radialGradient id="e" cx="0" cy="0" r="1" gradientTransform="matrix(.66 0 0 .66 80.09 19.12)" gradientUnits="userSpaceOnUse"><stop stop-color="#FFD17B"/><stop offset=".14" stop-color="#FBCD79"/><stop offset=".28" stop-color="#EFC171"/><stop offset=".42" stop-color="#DCAD66"/><stop offset=".56" stop-color="#C09055"/><stop offset=".7" stop-color="#9D6C3F"/><stop offset=".84" stop-color="#723F25"/><stop offset=".97" stop-color="#3F0C06"/><stop offset="1" stop-color="#350100"/></radialGradient><linearGradient id="f" x1="115.18" x2="115.18" y1="14.2" y2="87.4" gradientUnits="userSpaceOnUse"><stop stop-color="#fff"/><stop offset=".14" stop-color="#FFF3DE" stop-opacity=".87"/><stop offset=".28" stop-color="#FFE9C0" stop-opacity=".76"/><stop offset=".42" stop-color="#FFE0A7" stop-opacity=".67"/><stop offset=".57" stop-color="#FFDA94" stop-opacity=".59"/><stop offset=".71" stop-color="#FFD586" stop-opacity=".54"/><stop offset=".86" stop-color="#FFD27E" stop-opacity=".51"/><stop offset="1" stop-color="#FFD17B" stop-opacity=".5"/></linearGradient><linearGradient id="g" x1="48.88" x2="48.88" y1="14.2" y2="87.4" gradientUnits="userSpaceOnUse"><stop stop-color="#fff"/><stop offset=".14" stop-color="#FFF3DE" stop-opacity=".87"/><stop offset=".28" stop-color="#FFE9C0" stop-opacity=".76"/><stop offset=".42" stop-color="#FFE0A7" stop-opacity=".67"/><stop offset=".57" stop-color="#FFDA94" stop-opacity=".59"/><stop offset=".71" stop-color="#FFD586" stop-opacity=".54"/><stop offset=".86" stop-color="#FFD27E" stop-opacity=".51"/><stop offset="1" stop-color="#FFD17B" stop-opacity=".5"/></linearGradient><clipPath id="a"><path fill="#fff" d="M18 0h128v110H18z"/></clipPath><clipPath id="h"><path fill="#fff" d="M0 126h164v72H0z"/></clipPath></defs></svg>