<svg xmlns="http://www.w3.org/2000/svg" xml:space="preserve" width="800" height="800" fill="#5A121A" viewBox="0 0 511.999 511.999"><path d="M508.483 249.1 320.75 112.567a8.508 8.508 0 0 0-5.018-1.63 8.527 8.527 0 0 0-8.533 8.533v85.333h-93.867a8.525 8.525 0 0 0-8.533 8.533v85.333a8.53 8.53 0 0 0 8.533 8.533h93.867v85.333a8.535 8.535 0 0 0 13.551 6.895l187.733-136.533a8.514 8.514 0 0 0 3.516-6.895 8.515 8.515 0 0 0-3.516-6.902zM162.133 204.8c-14.114 0-25.6 11.486-25.6 25.6v51.2c0 14.114 11.486 25.6 25.6 25.6s25.6-11.486 25.6-25.6v-51.2c0-14.114-11.486-25.6-25.6-25.6zM93.867 204.8c-14.114 0-25.6 11.486-25.6 25.6v51.2c0 14.114 11.486 25.6 25.6 25.6s25.6-11.486 25.6-25.6v-51.2c0-14.114-11.486-25.6-25.6-25.6zM25.6 204.8C11.486 204.8 0 216.286 0 230.4v51.2c0 14.114 11.486 25.6 25.6 25.6s25.6-11.486 25.6-25.6v-51.2c0-14.114-11.486-25.6-25.6-25.6z"/></svg>