<svg width="24" height="24" viewBox="0 0 24 24" fill="none" xmlns="http://www.w3.org/2000/svg">
<path d="M14.35 2.00006H9.65001C8.61001 2.00006 7.76001 2.84006 7.76001 3.88006V4.82006C7.76001 5.86006 8.60001 6.70006 9.64001 6.70006H14.35C15.39 6.70006 16.23 5.86006 16.23 4.82006V3.88006C16.24 2.84006 15.39 2.00006 14.35 2.00006Z" fill="#C6525A"/>
<path d="M17.24 4.82007C17.24 6.41007 15.94 7.71007 14.35 7.71007H9.65004C8.06004 7.71007 6.76004 6.41007 6.76004 4.82007C6.76004 4.26007 6.16004 3.91007 5.66004 4.17007C4.25004 4.92007 3.29004 6.41007 3.29004 8.12007V17.5301C3.29004 19.9901 5.30004 22.0001 7.76004 22.0001H16.24C18.7 22.0001 20.71 19.9901 20.71 17.5301V8.12007C20.71 6.41007 19.75 4.92007 18.34 4.17007C17.84 3.91007 17.24 4.26007 17.24 4.82007ZM12.38 16.9501H8.00004C7.59004 16.9501 7.25004 16.6101 7.25004 16.2001C7.25004 15.7901 7.59004 15.4501 8.00004 15.4501H12.38C12.79 15.4501 13.13 15.7901 13.13 16.2001C13.13 16.6101 12.79 16.9501 12.38 16.9501ZM15 12.9501H8.00004C7.59004 12.9501 7.25004 12.6101 7.25004 12.2001C7.25004 11.7901 7.59004 11.4501 8.00004 11.4501H15C15.41 11.4501 15.75 11.7901 15.75 12.2001C15.75 12.6101 15.41 12.9501 15 12.9501Z" fill="#C6525A"/>
</svg>
