<svg xmlns="http://www.w3.org/2000/svg" width="24" height="24" fill="none"><mask id="a" width="13" height="23" x="6" y="1" fill="#000" maskUnits="userSpaceOnUse"><path fill="#fff" d="M6 1h13v23H6z"/><path d="M10.066 2.323c.257.257.48.542.669.855.193.314.335.741.428 1.284.08.418.12.89.12 1.416 0 .265-.016.606-.048 1.024-.044.446-.104.892-.18 1.338a8.9 8.9 0 0 1-.248 1.12c.161.214.364.42.609.622.249.2.506.3.771.3.185 0 .348-.033.488-.101.145-.069.288-.175.428-.32.145-.149.346-.386.603-.711-.354-2.141-.81-3.782-1.368-4.923-.563-1.153-1.32-1.788-2.272-1.904Zm-.554.078a5.018 5.018 0 0 1-.446.169c-.056.024-.085.04-.085.048.153.104.274.23.362.38.092.148.139.339.139.572 0 .325-.059.588-.175.79a.953.953 0 0 1-.434.421c-.173.08-.356.12-.548.12-.394 0-.72-.13-.977-.391a1.302 1.302 0 0 1-.38-.928c0-.787.232-1.35.694-1.687.466-.338 1.147-.506 2.043-.506.554 0 1.064.086 1.53.259.478.18.902.435 1.272.765.22.18.458.436.71.765.258.326.499.774.724 1.344l.813 2.332.2.603a8.99 8.99 0 0 0 .56 1.302c.116.22.263.45.44.686.245.338.5.573.765.705a1.158 1.158 0 0 0 .434.157c.096.016.207.024.331.024.189 0 .394-.016.615-.048-.109.149-.378.305-.808.47-.43.165-.715.247-.855.247-.406 0-.832-.107-1.278-.32a3.308 3.308 0 0 1-1.157-.94 2.686 2.686 0 0 1-.59.694 2.693 2.693 0 0 1-.681.427c-.23.093-.418.139-.567.139-.257 0-.492-.058-.705-.175-.209-.116-.526-.38-.952-.79-.112.254-.315.479-.609.676a1.75 1.75 0 0 1-.982.289c-.96 0-1.635-.317-2.025-.952a1.933 1.933 0 0 1-.283-1.049c0-.494.085-.861.253-1.102.169-.241.476-.362.922-.362.374 0 .663.088.868.265.209.173.313.424.313.753 0 .366-.06.651-.18.856-.117.205-.344.344-.681.416.052.104.158.207.319.307.165.1.396.15.693.15.51 0 .852-.306 1.024-.921 0 .016.033-.094.097-.332a14.2 14.2 0 0 0 .205-.897c.072-.362.136-.776.193-1.242.032-.317.048-.663.048-1.036 0-.687-.09-1.316-.271-1.886A4.268 4.268 0 0 0 9.512 2.4ZM8.83 14.262l-1.687-.886h2.982c-.43 1.455-.723 2.672-.88 3.652-.152.976-.228 1.86-.228 2.652 0 .514.048.976.144 1.386.1.405.271.729.512.97.246.24.569.361.97.361.254 0 .493-.066.718-.198.225-.133.472-.344.74-.633a23.096 23.096 0 0 1-.47-1.115 12.53 12.53 0 0 1-.451-1.428 6.03 6.03 0 0 1-.199-1.452c0-.53.046-1.083.139-1.658a7.558 7.558 0 0 1 .415-1.566c.19-.47.416-.794.681-.97.245.136.47.373.675.71.21.338.39.728.543 1.17.152.438.267.86.343 1.265.076.402.115.751.115 1.049 0 .381-.03.739-.09 1.072-.057.33-.145.683-.266 1.06-.12.374-.34.983-.657 1.827.109.104.21.203.302.295.096.088.202.169.319.241.12.068.249.12.386.157.14.036.323.06.548.072.474 0 .842-.24 1.103-.717.26-.478.392-1.151.392-2.019 0-.731-.117-1.587-.35-2.567-.229-.98-.659-2.185-1.29-3.616h2.995l-1.416.85c.346.751.625 1.378.838 1.88.213.502.412 1.067.596 1.693.185.623.278 1.168.278 1.634 0 .442-.053.873-.157 1.295a3.443 3.443 0 0 1-.512 1.14 2.59 2.59 0 0 1-.964.825c-.402.205-.894.307-1.477.307a1.77 1.77 0 0 1-.645-.114 3.215 3.215 0 0 1-.572-.314 17.834 17.834 0 0 1-.741-.572 3.398 3.398 0 0 1-.976.735c-.358.177-.696.265-1.013.265-.74 0-1.356-.18-1.85-.542a3.243 3.243 0 0 1-1.079-1.374 4.299 4.299 0 0 1-.343-1.651c0-.362.072-.816.217-1.362.145-.55.31-1.083.494-1.597.185-.514.376-1.01.573-1.489.196-.478.295-.719.295-.723Z"/></mask><path fill="#7C5026" d="M10.066 2.323c.257.257.48.542.669.855.193.314.335.741.428 1.284.08.418.12.89.12 1.416 0 .265-.016.606-.048 1.024-.044.446-.104.892-.18 1.338a8.9 8.9 0 0 1-.248 1.12c.161.214.364.42.609.622.249.2.506.3.771.3.185 0 .348-.033.488-.101.145-.069.288-.175.428-.32.145-.149.346-.386.603-.711-.354-2.141-.81-3.782-1.368-4.923-.563-1.153-1.32-1.788-2.272-1.904Zm-.554.078a5.018 5.018 0 0 1-.446.169c-.056.024-.085.04-.085.048.153.104.274.23.362.38.092.148.139.339.139.572 0 .325-.059.588-.175.79a.953.953 0 0 1-.434.421c-.173.08-.356.12-.548.12-.394 0-.72-.13-.977-.391a1.302 1.302 0 0 1-.38-.928c0-.787.232-1.35.694-1.687.466-.338 1.147-.506 2.043-.506.554 0 1.064.086 1.53.259.478.18.902.435 1.272.765.22.18.458.436.71.765.258.326.499.774.724 1.344l.813 2.332.2.603a8.99 8.99 0 0 0 .56 1.302c.116.22.263.45.44.686.245.338.5.573.765.705a1.158 1.158 0 0 0 .434.157c.096.016.207.024.331.024.189 0 .394-.016.615-.048-.109.149-.378.305-.808.47-.43.165-.715.247-.855.247-.406 0-.832-.107-1.278-.32a3.308 3.308 0 0 1-1.157-.94 2.686 2.686 0 0 1-.59.694 2.693 2.693 0 0 1-.681.427c-.23.093-.418.139-.567.139-.257 0-.492-.058-.705-.175-.209-.116-.526-.38-.952-.79-.112.254-.315.479-.609.676a1.75 1.75 0 0 1-.982.289c-.96 0-1.635-.317-2.025-.952a1.933 1.933 0 0 1-.283-1.049c0-.494.085-.861.253-1.102.169-.241.476-.362.922-.362.374 0 .663.088.868.265.209.173.313.424.313.753 0 .366-.06.651-.18.856-.117.205-.344.344-.681.416.052.104.158.207.319.307.165.1.396.15.693.15.51 0 .852-.306 1.024-.921 0 .016.033-.094.097-.332a14.2 14.2 0 0 0 .205-.897c.072-.362.136-.776.193-1.242.032-.317.048-.663.048-1.036 0-.687-.09-1.316-.271-1.886A4.268 4.268 0 0 0 9.512 2.4ZM8.83 14.262l-1.687-.886h2.982c-.43 1.455-.723 2.672-.88 3.652-.152.976-.228 1.86-.228 2.652 0 .514.048.976.144 1.386.1.405.271.729.512.97.246.24.569.361.97.361.254 0 .493-.066.718-.198.225-.133.472-.344.74-.633a23.096 23.096 0 0 1-.47-1.115 12.53 12.53 0 0 1-.451-1.428 6.03 6.03 0 0 1-.199-1.452c0-.53.046-1.083.139-1.658a7.558 7.558 0 0 1 .415-1.566c.19-.47.416-.794.681-.97.245.136.47.373.675.71.21.338.39.728.543 1.17.152.438.267.86.343 1.265.076.402.115.751.115 1.049 0 .381-.03.739-.09 1.072-.057.33-.145.683-.266 1.06-.12.374-.34.983-.657 1.827.109.104.21.203.302.295.096.088.202.169.319.241.12.068.249.12.386.157.14.036.323.06.548.072.474 0 .842-.24 1.103-.717.26-.478.392-1.151.392-2.019 0-.731-.117-1.587-.35-2.567-.229-.98-.659-2.185-1.29-3.616h2.995l-1.416.85c.346.751.625 1.378.838 1.88.213.502.412 1.067.596 1.693.185.623.278 1.168.278 1.634 0 .442-.053.873-.157 1.295a3.443 3.443 0 0 1-.512 1.14 2.59 2.59 0 0 1-.964.825c-.402.205-.894.307-1.477.307a1.77 1.77 0 0 1-.645-.114 3.215 3.215 0 0 1-.572-.314 17.834 17.834 0 0 1-.741-.572 3.398 3.398 0 0 1-.976.735c-.358.177-.696.265-1.013.265-.74 0-1.356-.18-1.85-.542a3.243 3.243 0 0 1-1.079-1.374 4.299 4.299 0 0 1-.343-1.651c0-.362.072-.816.217-1.362.145-.55.31-1.083.494-1.597.185-.514.376-1.01.573-1.489.196-.478.295-.719.295-.723Z"/><path fill="#2D090D" d="m10.066 2.323.013-.11-.316-.038.225.225.078-.077Zm.669.855-.094.057.094-.057Zm.428 1.284-.109.018v.003l.109-.021Zm.072 2.44.11.011v-.002l-.11-.009Zm-.18 1.338-.109-.018.108.018Zm-.248 1.12-.105-.03-.016.053.034.044.087-.066Zm.609.622-.07.085.07-.085Zm1.26.199-.048-.1.047.1Zm.427-.32-.079-.077.08.077Zm.603-.711.086.068.03-.038-.008-.048-.108.018Zm-1.368-4.923-.099.048.099-.048ZM9.512 2.4l.082-.073-.053-.06-.073.032.044.1Zm-.241.096.033.105.005-.002-.038-.103Zm-.205.073-.041-.103-.003.001.044.102Zm-.085.048h-.11v.058l.048.033.062-.091Zm.362.38-.095.056.002.002.093-.059Zm-.036 1.361-.095-.055-.001.002.096.053Zm-.434.422-.046-.1.046.1ZM7.348 4.51l-.08.076.002.001.078-.077Zm.314-2.615-.065-.09.065.09Zm3.573-.247.04-.103h-.002l-.038.103Zm1.272.765-.074.082.004.003.07-.085Zm.71.765-.087.067.001.001.087-.068Zm.724 1.344.104-.036-.002-.004-.102.04Zm.813 2.332.105-.035v-.001l-.105.036Zm.2.603-.105.034v.002l.104-.036Zm.234.614-.102.042.001.001.101-.043Zm.766 1.374.089-.064-.001-.001-.088.065Zm.765.705.053-.096-.004-.002-.05.098Zm1.38.133.089.065.154-.212-.259.038.016.109Zm-.808.47-.039-.103.04.103Zm-2.133-.072-.048.099.048-.1Zm-1.157-.94.086-.069-.098-.124-.082.136.094.057Zm-.59.693-.07-.085h-.001l.07.085Zm-.681.427.04.102h.002l-.042-.102Zm-1.272-.036-.053.096.053-.096Zm-.952-.79.076-.078-.113-.11-.063.144.1.045Zm-.609.676.06.092h.002l-.062-.092Zm-3.007-.663.094-.058-.094.058ZM8.65 7.8l-.072.083.002.002.07-.085Zm.133 1.61-.095-.057-.001.002.096.054Zm-.681.415-.023-.108-.14.03.064.127.099-.05Zm.319.307-.058.094.058-.094Zm1.718-.771h.11l-.216-.03.106.03Zm.096-.332.106.03-.106-.03Zm.398-2.139.109.013v-.002l-.11-.01Zm-.223-2.922L10.305 4l.105-.033Zm-.344-1.645-.078.077c.251.251.469.53.653.835l.094-.057.094-.057a4.567 4.567 0 0 0-.685-.876l-.078.078Zm.669.855-.094.058c.183.297.322.71.413 1.244l.109-.018.108-.019c-.093-.55-.24-.993-.442-1.322l-.094.057Zm.428 1.284-.108.02c.079.41.118.875.118 1.396h.22c0-.532-.04-1.011-.122-1.437l-.108.02Zm.12 1.416h-.11c0 .261-.015.6-.047 1.016l.11.008.109.009c.032-.42.048-.764.048-1.033h-.11Zm-.048 1.024-.11-.01c-.043.443-.103.886-.179 1.33l.108.018.109.019c.077-.449.137-.897.182-1.346l-.11-.01Zm-.18 1.338-.11-.018a8.807 8.807 0 0 1-.243 1.107l.105.032.106.032c.094-.312.177-.69.25-1.135l-.109-.018Zm-.248 1.12-.088.067c.167.221.377.434.627.64l.07-.085.07-.085a3.567 3.567 0 0 1-.59-.602l-.089.066Zm.609.622-.07.085c.265.213.546.326.841.326v-.22c-.235 0-.468-.088-.702-.277l-.069.086Zm.771.3v.11c.199 0 .378-.036.537-.113l-.049-.098-.048-.1a.995.995 0 0 1-.44.092v.11Zm.488-.101.047.099c.16-.075.313-.19.46-.342l-.079-.077-.079-.077a1.392 1.392 0 0 1-.396.297l.047.1Zm.428-.32.08.077c.148-.153.351-.394.61-.72l-.087-.068-.086-.068a9.78 9.78 0 0 1-.596.702l.08.077Zm.603-.711.108-.018c-.354-2.145-.812-3.799-1.377-4.954l-.1.049-.098.048c.552 1.127 1.005 2.756 1.358 4.893l.109-.018Zm-1.368-4.923.099-.048c-.573-1.174-1.356-1.843-2.357-1.966l-.014.11-.013.109c.903.11 1.634.71 2.186 1.843l.099-.048ZM9.512 2.4 9.468 2.3a4.91 4.91 0 0 1-.235.094l.038.103.038.103a5.11 5.11 0 0 0 .246-.098l-.043-.101Zm-.241.096-.033-.105c-.079.025-.15.05-.213.075l.04.103.042.102c.057-.023.123-.046.197-.07l-.033-.105Zm-.205.073-.044-.102a.763.763 0 0 0-.074.036.213.213 0 0 0-.033.023.133.133 0 0 0-.022.024.116.116 0 0 0-.022.067h.22a.104.104 0 0 1-.033.076c-.004.003-.006.004 0 .001a.568.568 0 0 1 .051-.024l-.043-.101Zm-.085.048-.062.09c.14.097.25.212.33.346l.094-.057.095-.056a1.314 1.314 0 0 0-.394-.414l-.063.09Zm.362.38-.093.058c.078.126.122.295.122.514h.22c0-.247-.05-.46-.156-.63l-.093.057Zm.139.572h-.11c0 .313-.057.555-.16.734l.095.055.095.056c.13-.224.19-.508.19-.845h-.11Zm-.175.79-.096-.054a.844.844 0 0 1-.384.375l.046.1.046.1c.201-.091.362-.25.484-.468l-.096-.054Zm-.434.421-.046-.1c-.158.074-.325.11-.502.11v.22c.208 0 .407-.043.594-.13l-.046-.1Zm-.548.12v-.11c-.367 0-.663-.12-.898-.358l-.079.077-.078.077c.28.284.634.425 1.055.425v-.11Zm-.977-.391.08-.076a1.192 1.192 0 0 1-.35-.852h-.22c0 .383.139.72.41 1.004l.08-.076Zm-.38-.928h.11c0-.767.225-1.289.649-1.598l-.065-.09-.065-.088c-.5.365-.738.968-.738 1.776h.11Zm.694-1.687.064.089c.44-.318 1.094-.486 1.979-.486v-.22c-.907 0-1.615.17-2.108.528l.065.089Zm2.043-.506v.11c.542 0 1.04.084 1.492.252l.038-.103.038-.104a4.482 4.482 0 0 0-1.568-.266v.11Zm1.53.259-.039.103c.466.176.878.424 1.238.744l.073-.082.073-.082a4.15 4.15 0 0 0-1.306-.786l-.039.103Zm1.272.765-.07.085c.212.174.444.422.694.747l.087-.067.087-.067a4.77 4.77 0 0 0-.729-.783l-.07.085Zm.71.765-.086.068c.248.314.485.752.707 1.316l.103-.04.102-.04c-.227-.577-.473-1.035-.739-1.372l-.086.068Zm.724 1.344-.104.036.813 2.332.104-.036.104-.036-.813-2.332-.104.036Zm.813 2.332-.104.035.199.602.104-.034.105-.034a88.83 88.83 0 0 0-.2-.604l-.104.035Zm.2.603-.105.036c.061.175.14.382.237.62l.102-.042.102-.041a13.271 13.271 0 0 1-.233-.61l-.104.037Zm.234.614-.101.043c.102.24.211.472.33.696l.097-.052.097-.051a8.877 8.877 0 0 1-.322-.679l-.1.043Zm.326.687-.098.052c.12.226.27.46.45.701l.088-.066.088-.065a5.164 5.164 0 0 1-.431-.673l-.097.051Zm.44.687-.09.065c.252.346.52.596.806.739l.049-.099.05-.098c-.245-.122-.488-.343-.726-.671l-.09.064Zm.765.705-.054.096c.076.042.146.077.212.103l.04-.102.042-.102a1.654 1.654 0 0 1-.187-.09l-.053.095Zm.199.097-.041.102c.07.028.157.05.258.066l.018-.108.018-.109a1.05 1.05 0 0 1-.212-.053l-.041.102Zm.235.06-.018.108c.103.018.22.026.35.026v-.22c-.12 0-.225-.008-.314-.023l-.018.109Zm.331.024v.11c.195 0 .405-.017.63-.05l-.015-.108-.016-.109a4.167 4.167 0 0 1-.599.047v.11Zm.615-.048-.089-.065a.825.825 0 0 1-.25.199 3.577 3.577 0 0 1-.508.233l.04.103.039.103c.218-.084.399-.167.54-.249.14-.081.25-.167.317-.26l-.09-.064Zm-.808.47-.039-.103a6.824 6.824 0 0 1-.527.183c-.142.04-.236.057-.29.057v.22c.087 0 .207-.024.35-.066.147-.043.33-.105.546-.188l-.04-.103Zm-.855.247v-.11c-.387 0-.796-.101-1.23-.309l-.048.1-.047.099c.457.218.9.33 1.325.33V11Zm-1.278-.32.048-.098a3.197 3.197 0 0 1-1.119-.91l-.086.069-.086.068c.339.426.737.75 1.195.97l.048-.098Zm-1.157-.94-.094-.056a2.573 2.573 0 0 1-.566.665l.07.085.07.084c.239-.197.444-.438.614-.72l-.094-.057Zm-.59.694-.071-.085c-.218.183-.436.32-.653.411l.043.101.042.102a2.8 2.8 0 0 0 .71-.445l-.071-.084Zm-.681.427-.042-.102c-.223.09-.397.131-.525.131v.22c.17 0 .373-.052.608-.147l-.041-.102Zm-.567.139v-.11c-.24 0-.456-.054-.652-.161l-.053.096-.053.097c.23.126.484.188.758.188V11Zm-.705-.175.054-.096c-.195-.109-.504-.362-.93-.772l-.076.079-.076.08c.425.409.752.681.975.805l.053-.096Zm-.952-.79-.1-.044c-.103.23-.29.44-.57.628l.061.092.062.091c.306-.205.525-.445.648-.721l-.101-.045Zm-.609.676-.06-.092c-.275.18-.581.271-.922.271v.22c.383 0 .731-.102 1.043-.307l-.06-.092ZM8.915 11v-.11c-.934 0-1.567-.307-1.93-.9l-.095.058-.093.057c.415.677 1.132 1.005 2.118 1.005V11Zm-2.025-.952.094-.059A1.823 1.823 0 0 1 6.717 9h-.22c0 .416.1.786.3 1.107l.093-.058Zm-.283-1.049h.11c0-.485.084-.826.233-1.04l-.09-.062-.09-.063c-.188.268-.273.662-.273 1.165h.11Zm.253-1.102.09.063c.14-.199.403-.315.832-.315v-.22c-.462 0-.813.125-1.012.409l.09.063Zm.922-.362v.11c.358 0 .618.085.796.238L8.65 7.8l.072-.083c-.231-.2-.55-.292-.94-.292v.11Zm.868.265-.07.085c.178.147.273.364.273.668h.22c0-.354-.113-.64-.353-.838l-.07.085Zm.313.753h-.11c0 .356-.059.62-.165.8l.095.056.094.056c.135-.229.196-.536.196-.912h-.11Zm-.18.856-.096-.054c-.095.167-.287.294-.608.362l.023.108.023.107c.353-.075.615-.226.753-.469l-.095-.054Zm-.681.416-.099.05c.066.13.192.245.36.35l.058-.093.058-.093c-.153-.096-.24-.185-.279-.263l-.098.049Zm.319.307-.057.094c.189.115.443.167.75.167v-.22c-.287 0-.495-.049-.636-.135l-.057.094Zm.693.15v.11c.28 0 .52-.084.712-.258.191-.172.329-.423.418-.743l-.105-.03-.106-.03c-.083.295-.203.504-.354.64a.81.81 0 0 1-.565.202v.11Zm1.024-.921h-.11c0 .003 0 .014.004.027a.11.11 0 0 0 .206.023 1.693 1.693 0 0 0 .03-.09c.017-.056.04-.144.073-.263l-.106-.029-.106-.028a15.825 15.825 0 0 1-.089.313c-.002.007-.001.003.002-.003l.01-.017a.108.108 0 0 1 .094-.041.11.11 0 0 1 .1.083l.002.025h-.11Zm.097-.332.106.03c.065-.241.134-.543.207-.906l-.108-.021-.108-.022c-.072.36-.14.657-.203.89l.106.03Zm.205-.897.108.021c.073-.365.137-.781.194-1.25l-.11-.013-.109-.013c-.056.464-.12.875-.191 1.233l.108.022Zm.193-1.242.109.011c.033-.321.049-.67.049-1.047h-.22c0 .37-.016.712-.048 1.025l.11.011Zm.048-1.036h.11a6.33 6.33 0 0 0-.277-1.92l-.104.034-.105.033a6.11 6.11 0 0 1 .266 1.853h.11Zm-.271-1.886.104-.033a4.377 4.377 0 0 0-.92-1.607l-.082.073-.082.073c.407.459.699.968.875 1.527l.105-.033ZM8.83 14.262h.11v-.066l-.058-.031-.051.097Zm-1.686-.886v-.11l-.052.208.052-.098Zm2.982 0 .106.032.042-.142h-.148v.11Zm-.88 3.652-.108-.017.109.017Zm-.084 4.038-.107.025v.001l.107-.026Zm.512.97-.077.078.077-.078Zm2.429-.47.08.075.05-.054-.03-.067-.1.046Zm-.47-1.115-.103.04.103-.04Zm-.452-1.428-.107.026v.001l.107-.027Zm.356-4.676-.103-.041.103.04Zm.68-.97.054-.097-.059-.032-.056.037.061.091Zm.675.71-.094.058.094-.057Zm.543 1.17-.104.036.104-.036Zm.343 1.265-.108.02.108-.02Zm.024 2.121-.108-.02v.002l.108.018Zm-.265 1.06.105.035-.105-.034Zm-.657 1.827-.103-.04-.025.069.052.05.076-.08Zm.302.295-.078.078.003.003.075-.081Zm.319.241-.058.094.004.002.054-.096Zm.386.157-.029.106h.001l.028-.106Zm.548.072-.006.11h.006v-.11Zm1.103-.717-.097-.053.097.053Zm.042-4.586-.107.025.107-.025Zm-1.29-3.616v-.11h-.168l.068.155.1-.045Zm2.995 0 .057.095.34-.205h-.397v.11Zm-1.416.85-.056-.094-.085.05.041.09.1-.046Zm1.434 3.573-.105.032.105-.032Zm.12 2.93.108.026-.107-.027Zm-.511 1.138-.09-.063.09.063Zm-.964.826.05.098-.05-.098Zm-2.122.192-.042.102.003.001.04-.102Zm-.572-.313-.064.09.002.001.062-.09ZM12.513 22l.069-.086-.08-.064-.07.074.08.076Zm-3.839.458-.066.088h.001l.065-.088Zm-1.079-1.374-.101.042.101-.042ZM7.47 18.07l.106.028-.106-.028Zm.494-1.597-.103-.037.103.037Zm.573-1.489-.102-.041.102.041Zm.295-.723.05-.097-1.686-.886-.051.097-.052.098 1.688.886.05-.098Zm-1.687-.886v.11h2.982v-.22H7.144v.11Zm2.982 0-.105-.03c-.43 1.456-.725 2.678-.883 3.665l.109.017.108.018c.156-.974.448-2.186.877-3.638l-.106-.032Zm-.88 3.652-.108-.017c-.153.98-.23 1.87-.23 2.669h.22c0-.785.075-1.663.227-2.635l-.108-.017Zm-.228 2.652h-.11c0 .52.048.991.147 1.41l.107-.024.107-.025a5.96 5.96 0 0 1-.141-1.361h-.11Zm.144 1.386-.107.026c.105.42.284.764.542 1.022l.077-.078.078-.078c-.224-.224-.386-.528-.483-.919l-.107.027Zm.512.97-.077.078c.27.265.622.393 1.048.393v-.22c-.378 0-.672-.112-.893-.33l-.078.079Zm.97.361v.11a1.5 1.5 0 0 0 .774-.214l-.056-.095-.056-.094a1.28 1.28 0 0 1-.661.183v.11Zm.718-.198.056.094c.237-.14.492-.359.766-.652l-.081-.075-.08-.075c-.266.285-.505.488-.717.613l.056.095Zm.74-.633.101-.046a22.971 22.971 0 0 1-.468-1.11l-.102.041-.102.04c.165.42.322.793.472 1.12l.1-.045Zm-.47-1.115.103-.04a12.439 12.439 0 0 1-.447-1.416l-.107.028-.107.027c.138.534.29 1.014.456 1.441l.103-.04Zm-.451-1.428.107-.027a5.922 5.922 0 0 1-.196-1.425h-.22c0 .448.068.941.202 1.478l.107-.026Zm-.199-1.452h.11c0-.524.046-1.07.137-1.64l-.108-.018-.109-.017c-.093.58-.14 1.138-.14 1.675h.11Zm.139-1.658.108.018a7.439 7.439 0 0 1 .41-1.544l-.102-.04-.103-.04a7.667 7.667 0 0 0-.422 1.589l.109.017Zm.415-1.566.103.04c.185-.46.4-.76.64-.919l-.062-.092-.06-.091c-.292.194-.53.541-.723 1.02l.103.042Zm.681-.97-.053.095c.223.125.436.345.634.673l.094-.057.094-.058c-.21-.347-.448-.6-.715-.75l-.054.096Zm.675.71-.093.058c.204.33.381.712.532 1.148l.104-.036.104-.036a5.954 5.954 0 0 0-.553-1.191l-.094.058Zm.543 1.17-.104.036c.15.433.264.85.34 1.25l.107-.021.108-.02a8.906 8.906 0 0 0-.347-1.282l-.104.037Zm.343 1.265-.108.02c.076.398.113.74.113 1.029h.22c0-.307-.04-.663-.117-1.07l-.108.021Zm.115 1.049h-.11c0 .375-.03.726-.089 1.053l.108.02.109.019a6.14 6.14 0 0 0 .092-1.092h-.11Zm-.09 1.072-.11-.018a7.734 7.734 0 0 1-.26 1.045l.104.034.105.033a7.96 7.96 0 0 0 .269-1.075l-.109-.019Zm-.266 1.06-.105-.033c-.12.37-.337.977-.655 1.82l.103.04.103.038a46.13 46.13 0 0 0 .659-1.83l-.105-.034Zm-.657 1.827-.076.079c.108.104.208.202.3.294l.078-.078.077-.078a23.402 23.402 0 0 0-.302-.297l-.077.08Zm.302.295-.075.081c.102.093.214.178.336.253l.058-.093.058-.093a2.035 2.035 0 0 1-.303-.23l-.074.082Zm.319.241-.054.096c.129.073.266.129.412.167l.028-.106.028-.107a1.512 1.512 0 0 1-.36-.146l-.054.096Zm.386.157-.028.106c.15.039.341.063.57.076l.006-.11.006-.11a2.787 2.787 0 0 1-.527-.069l-.027.107Zm.548.072v.11c.521 0 .922-.267 1.2-.774l-.097-.053-.097-.053c-.245.45-.579.66-1.006.66v.11Zm1.103-.717.096.053c.274-.502.405-1.195.405-2.072h-.22c0 .86-.13 1.511-.378 1.966l.097.053Zm.392-2.019h.11c0-.742-.119-1.607-.353-2.592l-.107.025-.107.025c.232.975.346 1.822.346 2.542h.11Zm-.35-2.567.107-.025c-.231-.99-.664-2.201-1.296-3.635l-.1.044-.101.045c.629 1.427 1.056 2.625 1.283 3.596l.107-.025Zm-1.29-3.616v.11h2.995v-.22H14.29v.11Zm2.995 0-.056-.094-1.416.85.056.094.057.094 1.416-.85-.057-.094Zm-1.416.85-.1.046c.345.75.624 1.376.836 1.877l.102-.043.101-.043a70.532 70.532 0 0 0-.839-1.883l-.1.046Zm.838 1.88-.102.043a15.7 15.7 0 0 1 .593 1.682l.105-.032.106-.03a15.934 15.934 0 0 0-.6-1.706l-.102.043Zm.596 1.693-.105.032c.183.616.273 1.15.273 1.602h.22c0-.48-.095-1.036-.282-1.665l-.106.031Zm.278 1.634h-.11c0 .433-.052.856-.154 1.269l.107.026.107.027c.106-.431.16-.872.16-1.322h-.11Zm-.157 1.295-.107-.027a3.332 3.332 0 0 1-.496 1.103l.09.063.091.063c.245-.353.421-.745.529-1.175l-.107-.027Zm-.512 1.14-.09-.064a2.48 2.48 0 0 1-.925.79l.05.099.05.098a2.7 2.7 0 0 0 1.005-.861l-.09-.063Zm-.964.825-.05-.098c-.383.195-.857.295-1.427.295v.22c.595 0 1.105-.105 1.527-.32l-.05-.097ZM14.47 23v-.11c-.22 0-.422-.036-.605-.107l-.04.102-.04.103c.211.082.44.122.685.122V23Zm-.645-.114.043-.102a3.107 3.107 0 0 1-.553-.303l-.062.091-.062.091c.194.132.392.24.592.324l.042-.101Zm-.572-.314.064-.09c-.182-.13-.428-.32-.736-.568l-.07.086-.068.085c.31.25.559.442.746.576l.064-.089ZM12.513 22l-.08-.076c-.285.305-.6.542-.945.712l.049.099.048.099c.37-.184.706-.437 1.008-.76l-.08-.074Zm-.976.735-.05-.099c-.345.171-.666.254-.963.254v.22c.338 0 .692-.094 1.061-.276l-.049-.1ZM10.524 23v-.11c-.72 0-1.313-.176-1.785-.521l-.065.089-.065.088c.517.378 1.158.564 1.915.564V23Zm-1.85-.542.066-.088a3.133 3.133 0 0 1-1.043-1.329l-.102.043-.101.042c.237.57.609 1.043 1.114 1.42l.066-.088Zm-1.079-1.374.102-.042a4.19 4.19 0 0 1-.335-1.61h-.22c0 .563.118 1.127.352 1.694l.101-.042Zm-.343-1.651h.11c0-.349.07-.792.213-1.334l-.106-.028-.106-.028c-.146.55-.221 1.015-.221 1.39h.11Zm.217-1.362.106.028c.144-.548.308-1.077.492-1.588l-.104-.037-.103-.037a19.101 19.101 0 0 0-.497 1.606l.106.028Zm.494-1.597.104.037c.184-.513.374-1.007.57-1.484l-.101-.042-.102-.041c-.198.48-.39.977-.574 1.493l.103.037Zm.573-1.489.101.042a213.245 213.245 0 0 0 .296-.723l.002-.007.002-.006a.11.11 0 0 0 .002-.007c0-.002.002-.01.002-.022h-.22l.002-.021.002-.007v-.005l.001-.001a226.257 226.257 0 0 1-.293.716l.103.041Z" mask="url(#a)"/></svg>