<svg width="24" height="24" viewBox="0 0 24 24" fill="none" xmlns="http://www.w3.org/2000/svg">
<mask id="path-1-outside-1_73_2893" maskUnits="userSpaceOnUse" x="6" y="1" width="13" height="23" fill="black">
<rect fill="white" x="6" y="1" width="13" height="23"/>
<path d="M10.0661 2.32253C10.3232 2.57964 10.5462 2.86487 10.735 3.17823C10.9279 3.49158 11.0705 3.91943 11.1629 4.46177C11.2432 4.87957 11.2834 5.35161 11.2834 5.87788C11.2834 6.14303 11.2673 6.4845 11.2352 6.90231C11.191 7.34823 11.1307 7.79416 11.0544 8.24008C10.9821 8.68199 10.8997 9.0556 10.8073 9.36092C10.968 9.57384 11.1709 9.78074 11.416 9.9816C11.665 10.1825 11.9222 10.2829 12.1873 10.2829C12.3721 10.2829 12.5348 10.2488 12.6754 10.1805C12.82 10.1122 12.9626 10.0057 13.1033 9.86108C13.2479 9.71244 13.4487 9.47542 13.7059 9.15001C13.3523 7.00877 12.8964 5.36768 12.3379 4.22675C11.7755 3.07377 11.0182 2.43903 10.0661 2.32253ZM9.51174 2.40087C9.42738 2.43702 9.34703 2.46916 9.2707 2.49728C9.19437 2.52139 9.12608 2.54549 9.06582 2.5696C9.00958 2.5937 8.98145 2.60977 8.98145 2.61781C9.13411 2.72226 9.25463 2.8488 9.34302 2.99744C9.43542 3.14609 9.48161 3.33691 9.48161 3.56992C9.48161 3.89532 9.42336 4.15846 9.30686 4.35933C9.19437 4.56019 9.04975 4.7008 8.87299 4.78115C8.70024 4.86149 8.51745 4.90167 8.32462 4.90167C7.93092 4.90167 7.60551 4.7711 7.3484 4.50998C7.09531 4.24483 6.96876 3.9355 6.96876 3.58197C6.96876 2.79457 7.19976 2.23214 7.66176 1.89468C8.12777 1.55723 8.80871 1.3885 9.70458 1.3885C10.259 1.3885 10.7692 1.47487 11.2352 1.64762C11.7133 1.8284 12.1371 2.0835 12.5067 2.41292C12.7276 2.5937 12.9647 2.8488 13.2177 3.17823C13.4749 3.50363 13.7159 3.95156 13.9409 4.52203L14.7544 6.8541C14.8307 7.08309 14.897 7.28395 14.9532 7.4567C15.0135 7.62945 15.0918 7.83433 15.1883 8.07135C15.2887 8.30838 15.3972 8.53737 15.5137 8.75832C15.6302 8.97927 15.7768 9.20826 15.9536 9.44529C16.1986 9.78274 16.4537 10.0178 16.7189 10.1503C16.7912 10.1905 16.8575 10.2226 16.9177 10.2467C16.978 10.2709 17.0563 10.2909 17.1527 10.307C17.2492 10.3231 17.3596 10.3311 17.4842 10.3311C17.673 10.3311 17.8779 10.315 18.0988 10.2829C17.9904 10.4315 17.7212 10.5882 17.2913 10.7529C16.8615 10.9176 16.5762 11 16.4356 11C16.0299 11 15.6041 10.8935 15.1581 10.6806C14.7162 10.4677 14.3306 10.1543 14.0011 9.74056C13.8364 10.0137 13.6396 10.2447 13.4106 10.4336C13.1856 10.6224 12.9586 10.765 12.7296 10.8614C12.5007 10.9538 12.3118 11 12.1632 11C11.9061 11 11.6711 10.9417 11.4581 10.8252C11.2492 10.7087 10.9319 10.4456 10.506 10.0358C10.3936 10.2889 10.1907 10.5139 9.89741 10.7108C9.60414 10.9036 9.27673 11 8.91517 11C7.95502 11 7.28011 10.6826 6.89043 10.0479C6.70161 9.74659 6.6072 9.39708 6.6072 8.99936C6.6072 8.50523 6.69157 8.13764 6.8603 7.8966C7.02902 7.65556 7.33635 7.53504 7.78228 7.53504C8.15589 7.53504 8.44514 7.62342 8.65002 7.80018C8.85893 7.97293 8.96338 8.22401 8.96338 8.55344C8.96338 8.91901 8.90312 9.20425 8.7826 9.40913C8.66609 9.61402 8.43911 9.75261 8.10166 9.82493C8.15388 9.92938 8.26034 10.0318 8.42104 10.1323C8.58575 10.2327 8.81674 10.2829 9.11403 10.2829C9.62423 10.2829 9.9657 9.97558 10.1385 9.36092C10.1385 9.37699 10.1706 9.26651 10.2349 9.02949C10.2991 8.79247 10.3674 8.49318 10.4398 8.13161C10.5121 7.77005 10.5763 7.35627 10.6326 6.89025C10.6647 6.57288 10.6808 6.22739 10.6808 5.85378C10.6808 5.16681 10.5904 4.5381 10.4096 3.96763C10.2288 3.39315 9.92955 2.8709 9.51174 2.40087ZM8.8308 14.2623L7.14352 13.3764H10.1264C9.69654 14.8307 9.40328 16.048 9.2466 17.0282C9.09394 18.0044 9.01761 18.8882 9.01761 19.6797C9.01761 20.1939 9.06582 20.6559 9.16224 21.0656C9.26267 21.4714 9.43341 21.7948 9.67445 22.0358C9.91951 22.2769 10.2429 22.3974 10.6446 22.3974C10.8977 22.3974 11.1368 22.3311 11.3617 22.1985C11.5867 22.066 11.8338 21.8551 12.1029 21.5658C11.9543 21.2404 11.7976 20.8688 11.6329 20.451C11.4682 20.0292 11.3175 19.5531 11.181 19.0228C11.0484 18.4925 10.9821 18.0084 10.9821 17.5706C10.9821 17.0403 11.0283 16.4879 11.1207 15.9134C11.2131 15.3389 11.3517 14.8167 11.5365 14.3466C11.7253 13.8766 11.9523 13.5532 12.2174 13.3764C12.4625 13.513 12.6875 13.7501 12.8923 14.0875C13.1012 14.425 13.282 14.8147 13.4347 15.2566C13.5873 15.6945 13.7018 16.1163 13.7782 16.522C13.8545 16.9238 13.8927 17.2733 13.8927 17.5706C13.8927 17.9522 13.8625 18.3097 13.8023 18.6432C13.746 18.9726 13.6576 19.3261 13.5371 19.7038C13.4166 20.0774 13.1977 20.686 12.8803 21.5297C12.9888 21.6341 13.0892 21.7325 13.1816 21.8249C13.278 21.9133 13.3845 21.9937 13.501 22.066C13.6215 22.1343 13.75 22.1865 13.8866 22.2226C14.0272 22.2588 14.21 22.2829 14.435 22.295C14.9091 22.295 15.2766 22.0559 15.5378 21.5779C15.7989 21.0998 15.9295 20.4269 15.9295 19.5591C15.9295 18.828 15.813 17.9723 15.5799 16.9921C15.351 16.0118 14.9211 14.8066 14.2904 13.3764H17.2853L15.8692 14.2261C16.2147 14.9774 16.4939 15.6041 16.7068 16.1062C16.9197 16.6084 17.1186 17.1728 17.3034 17.7995C17.4882 18.4222 17.5806 18.9666 17.5806 19.4326C17.5806 19.8745 17.5284 20.3064 17.4239 20.7282C17.3195 21.146 17.1487 21.5256 16.9117 21.8671C16.6747 22.2086 16.3533 22.4838 15.9475 22.6927C15.5458 22.8976 15.0537 23 14.4712 23C14.2382 23 14.0232 22.9618 13.8264 22.8855C13.6335 22.8052 13.4427 22.7007 13.2539 22.5722C13.0691 22.4396 12.822 22.2488 12.5127 21.9997C12.2194 22.313 11.894 22.5581 11.5365 22.7349C11.1789 22.9116 10.8415 23 10.5241 23C9.78492 23 9.16826 22.8192 8.67413 22.4577C8.18401 22.0921 7.82446 21.6341 7.59547 21.0837C7.36648 20.5293 7.25199 19.979 7.25199 19.4326C7.25199 19.071 7.3243 18.6171 7.46892 18.0707C7.61355 17.5203 7.77826 16.988 7.96306 16.4738C8.14786 15.9596 8.33868 15.4635 8.53553 14.9854C8.73238 14.5073 8.8308 14.2663 8.8308 14.2623Z"/>
</mask>
<path d="M10.0661 2.32253C10.3232 2.57964 10.5462 2.86487 10.735 3.17823C10.9279 3.49158 11.0705 3.91943 11.1629 4.46177C11.2432 4.87957 11.2834 5.35161 11.2834 5.87788C11.2834 6.14303 11.2673 6.4845 11.2352 6.90231C11.191 7.34823 11.1307 7.79416 11.0544 8.24008C10.9821 8.68199 10.8997 9.0556 10.8073 9.36092C10.968 9.57384 11.1709 9.78074 11.416 9.9816C11.665 10.1825 11.9222 10.2829 12.1873 10.2829C12.3721 10.2829 12.5348 10.2488 12.6754 10.1805C12.82 10.1122 12.9626 10.0057 13.1033 9.86108C13.2479 9.71244 13.4487 9.47542 13.7059 9.15001C13.3523 7.00877 12.8964 5.36768 12.3379 4.22675C11.7755 3.07377 11.0182 2.43903 10.0661 2.32253ZM9.51174 2.40087C9.42738 2.43702 9.34703 2.46916 9.2707 2.49728C9.19437 2.52139 9.12608 2.54549 9.06582 2.5696C9.00958 2.5937 8.98145 2.60977 8.98145 2.61781C9.13411 2.72226 9.25463 2.8488 9.34302 2.99744C9.43542 3.14609 9.48161 3.33691 9.48161 3.56992C9.48161 3.89532 9.42336 4.15846 9.30686 4.35933C9.19437 4.56019 9.04975 4.7008 8.87299 4.78115C8.70024 4.86149 8.51745 4.90167 8.32462 4.90167C7.93092 4.90167 7.60551 4.7711 7.3484 4.50998C7.09531 4.24483 6.96876 3.9355 6.96876 3.58197C6.96876 2.79457 7.19976 2.23214 7.66176 1.89468C8.12777 1.55723 8.80871 1.3885 9.70458 1.3885C10.259 1.3885 10.7692 1.47487 11.2352 1.64762C11.7133 1.8284 12.1371 2.0835 12.5067 2.41292C12.7276 2.5937 12.9647 2.8488 13.2177 3.17823C13.4749 3.50363 13.7159 3.95156 13.9409 4.52203L14.7544 6.8541C14.8307 7.08309 14.897 7.28395 14.9532 7.4567C15.0135 7.62945 15.0918 7.83433 15.1883 8.07135C15.2887 8.30838 15.3972 8.53737 15.5137 8.75832C15.6302 8.97927 15.7768 9.20826 15.9536 9.44529C16.1986 9.78274 16.4537 10.0178 16.7189 10.1503C16.7912 10.1905 16.8575 10.2226 16.9177 10.2467C16.978 10.2709 17.0563 10.2909 17.1527 10.307C17.2492 10.3231 17.3596 10.3311 17.4842 10.3311C17.673 10.3311 17.8779 10.315 18.0988 10.2829C17.9904 10.4315 17.7212 10.5882 17.2913 10.7529C16.8615 10.9176 16.5762 11 16.4356 11C16.0299 11 15.6041 10.8935 15.1581 10.6806C14.7162 10.4677 14.3306 10.1543 14.0011 9.74056C13.8364 10.0137 13.6396 10.2447 13.4106 10.4336C13.1856 10.6224 12.9586 10.765 12.7296 10.8614C12.5007 10.9538 12.3118 11 12.1632 11C11.9061 11 11.6711 10.9417 11.4581 10.8252C11.2492 10.7087 10.9319 10.4456 10.506 10.0358C10.3936 10.2889 10.1907 10.5139 9.89741 10.7108C9.60414 10.9036 9.27673 11 8.91517 11C7.95502 11 7.28011 10.6826 6.89043 10.0479C6.70161 9.74659 6.6072 9.39708 6.6072 8.99936C6.6072 8.50523 6.69157 8.13764 6.8603 7.8966C7.02902 7.65556 7.33635 7.53504 7.78228 7.53504C8.15589 7.53504 8.44514 7.62342 8.65002 7.80018C8.85893 7.97293 8.96338 8.22401 8.96338 8.55344C8.96338 8.91901 8.90312 9.20425 8.7826 9.40913C8.66609 9.61402 8.43911 9.75261 8.10166 9.82493C8.15388 9.92938 8.26034 10.0318 8.42104 10.1323C8.58575 10.2327 8.81674 10.2829 9.11403 10.2829C9.62423 10.2829 9.9657 9.97558 10.1385 9.36092C10.1385 9.37699 10.1706 9.26651 10.2349 9.02949C10.2991 8.79247 10.3674 8.49318 10.4398 8.13161C10.5121 7.77005 10.5763 7.35627 10.6326 6.89025C10.6647 6.57288 10.6808 6.22739 10.6808 5.85378C10.6808 5.16681 10.5904 4.5381 10.4096 3.96763C10.2288 3.39315 9.92955 2.8709 9.51174 2.40087ZM8.8308 14.2623L7.14352 13.3764H10.1264C9.69654 14.8307 9.40328 16.048 9.2466 17.0282C9.09394 18.0044 9.01761 18.8882 9.01761 19.6797C9.01761 20.1939 9.06582 20.6559 9.16224 21.0656C9.26267 21.4714 9.43341 21.7948 9.67445 22.0358C9.91951 22.2769 10.2429 22.3974 10.6446 22.3974C10.8977 22.3974 11.1368 22.3311 11.3617 22.1985C11.5867 22.066 11.8338 21.8551 12.1029 21.5658C11.9543 21.2404 11.7976 20.8688 11.6329 20.451C11.4682 20.0292 11.3175 19.5531 11.181 19.0228C11.0484 18.4925 10.9821 18.0084 10.9821 17.5706C10.9821 17.0403 11.0283 16.4879 11.1207 15.9134C11.2131 15.3389 11.3517 14.8167 11.5365 14.3466C11.7253 13.8766 11.9523 13.5532 12.2174 13.3764C12.4625 13.513 12.6875 13.7501 12.8923 14.0875C13.1012 14.425 13.282 14.8147 13.4347 15.2566C13.5873 15.6945 13.7018 16.1163 13.7782 16.522C13.8545 16.9238 13.8927 17.2733 13.8927 17.5706C13.8927 17.9522 13.8625 18.3097 13.8023 18.6432C13.746 18.9726 13.6576 19.3261 13.5371 19.7038C13.4166 20.0774 13.1977 20.686 12.8803 21.5297C12.9888 21.6341 13.0892 21.7325 13.1816 21.8249C13.278 21.9133 13.3845 21.9937 13.501 22.066C13.6215 22.1343 13.75 22.1865 13.8866 22.2226C14.0272 22.2588 14.21 22.2829 14.435 22.295C14.9091 22.295 15.2766 22.0559 15.5378 21.5779C15.7989 21.0998 15.9295 20.4269 15.9295 19.5591C15.9295 18.828 15.813 17.9723 15.5799 16.9921C15.351 16.0118 14.9211 14.8066 14.2904 13.3764H17.2853L15.8692 14.2261C16.2147 14.9774 16.4939 15.6041 16.7068 16.1062C16.9197 16.6084 17.1186 17.1728 17.3034 17.7995C17.4882 18.4222 17.5806 18.9666 17.5806 19.4326C17.5806 19.8745 17.5284 20.3064 17.4239 20.7282C17.3195 21.146 17.1487 21.5256 16.9117 21.8671C16.6747 22.2086 16.3533 22.4838 15.9475 22.6927C15.5458 22.8976 15.0537 23 14.4712 23C14.2382 23 14.0232 22.9618 13.8264 22.8855C13.6335 22.8052 13.4427 22.7007 13.2539 22.5722C13.0691 22.4396 12.822 22.2488 12.5127 21.9997C12.2194 22.313 11.894 22.5581 11.5365 22.7349C11.1789 22.9116 10.8415 23 10.5241 23C9.78492 23 9.16826 22.8192 8.67413 22.4577C8.18401 22.0921 7.82446 21.6341 7.59547 21.0837C7.36648 20.5293 7.25199 19.979 7.25199 19.4326C7.25199 19.071 7.3243 18.6171 7.46892 18.0707C7.61355 17.5203 7.77826 16.988 7.96306 16.4738C8.14786 15.9596 8.33868 15.4635 8.53553 14.9854C8.73238 14.5073 8.8308 14.2663 8.8308 14.2623Z" fill="#7C5026"/>
<path d="M10.0661 2.32253L10.0795 2.21334L9.76261 2.17457L9.98836 2.40031L10.0661 2.32253ZM10.735 3.17823L10.6408 3.235L10.6413 3.23588L10.735 3.17823ZM11.1629 4.46177L11.0544 4.48025L11.0549 4.48254L11.1629 4.46177ZM11.2352 6.90231L11.3447 6.91316L11.3449 6.91074L11.2352 6.90231ZM11.0544 8.24008L10.946 8.22152L10.9458 8.22232L11.0544 8.24008ZM10.8073 9.36092L10.7021 9.32906L10.6859 9.38257L10.7195 9.42719L10.8073 9.36092ZM11.416 9.9816L11.3462 10.0667L11.3469 10.0672L11.416 9.9816ZM12.6754 10.1805L12.6284 10.081L12.6273 10.0815L12.6754 10.1805ZM13.1033 9.86108L13.0244 9.78437L13.0244 9.7844L13.1033 9.86108ZM13.7059 9.15001L13.7922 9.21821L13.8223 9.18006L13.8144 9.13209L13.7059 9.15001ZM12.3379 4.22675L12.2391 4.27498L12.2391 4.27511L12.3379 4.22675ZM9.51174 2.40087L9.59396 2.32779L9.54129 2.26853L9.46841 2.29976L9.51174 2.40087ZM9.2707 2.49728L9.30386 2.6023L9.30873 2.6005L9.2707 2.49728ZM9.06582 2.5696L9.02495 2.46743L9.02249 2.46849L9.06582 2.5696ZM8.98145 2.61781H8.87145V2.67583L8.91934 2.70859L8.98145 2.61781ZM9.34302 2.99744L9.24845 3.05367L9.24959 3.05552L9.34302 2.99744ZM9.30686 4.35933L9.2117 4.30413L9.21088 4.30558L9.30686 4.35933ZM8.87299 4.78115L8.82747 4.681L8.8266 4.68141L8.87299 4.78115ZM7.3484 4.50998L7.26882 4.58594L7.27002 4.58715L7.3484 4.50998ZM7.66176 1.89468L7.59724 1.80559L7.59687 1.80586L7.66176 1.89468ZM11.2352 1.64762L11.2741 1.54472L11.2734 1.54447L11.2352 1.64762ZM12.5067 2.41292L12.4334 2.49511L12.437 2.49806L12.5067 2.41292ZM13.2177 3.17823L13.1305 3.24525L13.1314 3.24642L13.2177 3.17823ZM13.9409 4.52203L14.0448 4.48577L14.0432 4.48167L13.9409 4.52203ZM14.7544 6.8541L14.8587 6.81931L14.8582 6.81787L14.7544 6.8541ZM14.9532 7.4567L14.8486 7.49076L14.8494 7.49293L14.9532 7.4567ZM15.1883 8.07135L15.0864 8.11281L15.087 8.11427L15.1883 8.07135ZM15.9536 9.44529L16.0426 9.38065L16.0417 9.37953L15.9536 9.44529ZM16.7189 10.1503L16.7723 10.0541L16.7681 10.0519L16.7189 10.1503ZM18.0988 10.2829L18.1877 10.3477L18.3419 10.1364L18.083 10.174L18.0988 10.2829ZM17.2913 10.7529L17.252 10.6502L17.2913 10.7529ZM15.1581 10.6806L15.1104 10.7797L15.1107 10.7799L15.1581 10.6806ZM14.0011 9.74056L14.0872 9.67205L13.9886 9.54825L13.9069 9.68376L14.0011 9.74056ZM13.4106 10.4336L13.3406 10.3487L13.3399 10.3493L13.4106 10.4336ZM12.7296 10.8614L12.7708 10.9634L12.7723 10.9628L12.7296 10.8614ZM11.4581 10.8252L11.4046 10.9213L11.4053 10.9217L11.4581 10.8252ZM10.506 10.0358L10.5823 9.95657L10.4692 9.84778L10.4055 9.99116L10.506 10.0358ZM9.89741 10.7108L9.95785 10.8027L9.95872 10.8021L9.89741 10.7108ZM6.89043 10.0479L6.98417 9.99033L6.98364 9.98948L6.89043 10.0479ZM8.65002 7.80018L8.57815 7.88349L8.57992 7.88495L8.65002 7.80018ZM8.7826 9.40913L8.68777 9.35335L8.68697 9.35476L8.7826 9.40913ZM8.10166 9.82493L8.07861 9.71737L7.93977 9.74712L8.00327 9.87412L8.10166 9.82493ZM8.42103 10.1323L8.36273 10.2255L8.36377 10.2262L8.42103 10.1323ZM10.1385 9.36092H10.2485L10.0326 9.33116L10.1385 9.36092ZM10.2349 9.02949L10.341 9.05828L10.2349 9.02949ZM10.6326 6.89025L10.7418 6.90344L10.742 6.90134L10.6326 6.89025ZM10.4096 3.96763L10.3047 4.00065L10.3048 4.00086L10.4096 3.96763ZM10.0661 2.32253L9.98836 2.40031C10.2391 2.65107 10.4566 2.92924 10.6408 3.235L10.735 3.17823L10.8292 3.12145C10.6359 2.8005 10.4074 2.50821 10.1439 2.24475L10.0661 2.32253ZM10.735 3.17823L10.6413 3.23588C10.8241 3.53283 10.9633 3.94556 11.0544 4.48024L11.1629 4.46177L11.2713 4.44329C11.1776 3.89329 11.0316 3.45033 10.8287 3.12057L10.735 3.17823ZM11.1629 4.46177L11.0549 4.48254C11.1336 4.89212 11.1734 5.35702 11.1734 5.87788H11.2834H11.3934C11.3934 5.3462 11.3528 4.86703 11.2709 4.44099L11.1629 4.46177ZM11.2834 5.87788H11.1734C11.1734 6.13909 11.1575 6.47747 11.1255 6.89387L11.2352 6.90231L11.3449 6.91074C11.3771 6.49154 11.3934 6.14697 11.3934 5.87788H11.2834ZM11.2352 6.90231L11.1257 6.89146C11.0818 7.33478 11.0219 7.77813 10.946 8.22152L11.0544 8.24008L11.1628 8.25864C11.2396 7.81018 11.3002 7.36169 11.3447 6.91315L11.2352 6.90231ZM11.0544 8.24008L10.9458 8.22232C10.874 8.6612 10.7926 9.02979 10.7021 9.32906L10.8073 9.36092L10.9126 9.39279C11.0069 9.08142 11.0902 8.70278 11.163 8.25785L11.0544 8.24008ZM10.8073 9.36092L10.7195 9.42719C10.8864 9.64823 11.0957 9.86128 11.3462 10.0667L11.416 9.9816L11.4857 9.89653C11.2462 9.70019 11.0497 9.49946 10.8951 9.29466L10.8073 9.36092ZM11.416 9.9816L11.3469 10.0672C11.6114 10.2805 11.8921 10.3929 12.1873 10.3929V10.2829V10.1729C11.9522 10.1729 11.7187 10.0845 11.485 9.89598L11.416 9.9816ZM12.1873 10.2829V10.3929C12.3857 10.3929 12.5654 10.3562 12.7235 10.2794L12.6754 10.1805L12.6273 10.0815C12.5042 10.1413 12.3585 10.1729 12.1873 10.1729V10.2829ZM12.6754 10.1805L12.7224 10.2799C12.8816 10.2048 13.0346 10.0895 13.1821 9.93776L13.1033 9.86108L13.0244 9.7844C12.8907 9.92195 12.7585 10.0196 12.6284 10.081L12.6754 10.1805ZM13.1033 9.86108L13.1821 9.93779C13.3308 9.78493 13.5345 9.54427 13.7922 9.21821L13.7059 9.15001L13.6195 9.08182C13.363 9.40657 13.1649 9.63995 13.0244 9.78437L13.1033 9.86108ZM13.7059 9.15001L13.8144 9.13209C13.4602 6.98663 13.002 5.33338 12.4367 4.1784L12.3379 4.22675L12.2391 4.27511C12.7907 5.40198 13.2445 7.0309 13.5973 9.16793L13.7059 9.15001ZM12.3379 4.22675L12.4368 4.17853C11.8642 3.00463 11.0806 2.33584 10.0795 2.21334L10.0661 2.32253L10.0528 2.43172C10.9559 2.54222 11.6869 3.14292 12.2391 4.27498L12.3379 4.22675ZM9.51174 2.40087L9.46841 2.29976C9.38558 2.33526 9.30701 2.36668 9.23268 2.39407L9.2707 2.49728L9.30873 2.6005C9.38706 2.57165 9.46918 2.53879 9.55508 2.50197L9.51174 2.40087ZM9.2707 2.49728L9.23758 2.39239C9.15921 2.41714 9.08827 2.44214 9.02497 2.46746L9.06582 2.5696L9.10667 2.67173C9.16389 2.64884 9.22953 2.62564 9.30383 2.60218L9.2707 2.49728ZM9.06582 2.5696L9.02249 2.46849C8.99326 2.48102 8.96757 2.49302 8.94797 2.50422C8.93866 2.50954 8.92644 2.51707 8.91514 2.52675C8.90955 2.53155 8.90079 2.53972 8.89266 2.55133C8.88521 2.56197 8.87145 2.58521 8.87145 2.61781H8.98145H9.09145C9.09145 2.64839 9.07858 2.66937 9.07289 2.6775C9.06652 2.6866 9.06039 2.69201 9.05831 2.69379C9.05405 2.69745 9.05237 2.69795 9.05712 2.69523C9.06564 2.69036 9.08214 2.68228 9.10915 2.6707L9.06582 2.5696ZM8.98145 2.61781L8.91934 2.70859C9.05974 2.80465 9.16882 2.9197 9.24847 3.05366L9.34302 2.99744L9.43757 2.94123C9.34045 2.7779 9.20849 2.63986 9.04357 2.52702L8.98145 2.61781ZM9.34302 2.99744L9.24959 3.05552C9.32813 3.18185 9.37161 3.35081 9.37161 3.56992H9.48161H9.59161C9.59161 3.32301 9.54271 3.11032 9.43644 2.93937L9.34302 2.99744ZM9.48161 3.56992H9.37161C9.37161 3.88333 9.31535 4.12544 9.21171 4.30414L9.30686 4.35933L9.40201 4.41451C9.53138 4.19147 9.59161 3.90731 9.59161 3.56992H9.48161ZM9.30686 4.35933L9.21088 4.30558C9.10766 4.48991 8.97915 4.61206 8.82747 4.68101L8.87299 4.78115L8.9185 4.88129C9.12035 4.78954 9.28109 4.63047 9.40284 4.41307L9.30686 4.35933ZM8.87299 4.78115L8.8266 4.68141C8.66856 4.75491 8.50163 4.79167 8.32462 4.79167V4.90167V5.01167C8.53328 5.01167 8.73192 4.96808 8.91938 4.88089L8.87299 4.78115ZM8.32462 4.90167V4.79167C7.95796 4.79167 7.66158 4.67126 7.42679 4.4328L7.3484 4.50998L7.27002 4.58715C7.54945 4.87095 7.90388 5.01167 8.32462 5.01167V4.90167ZM7.3484 4.50998L7.42797 4.43402C7.19361 4.18851 7.07876 3.90607 7.07876 3.58197H6.96876H6.85876C6.85876 3.96492 6.99701 4.30116 7.26883 4.58593L7.3484 4.50998ZM6.96876 3.58197H7.07876C7.07876 2.81545 7.30281 2.29309 7.72664 1.98351L7.66176 1.89468L7.59687 1.80586C7.09672 2.17119 6.85876 2.77369 6.85876 3.58197H6.96876ZM7.66176 1.89468L7.72627 1.98378C8.16568 1.66558 8.81984 1.4985 9.70458 1.4985V1.3885V1.2785C8.79758 1.2785 8.08986 1.44887 7.59724 1.80559L7.66176 1.89468ZM9.70458 1.3885V1.4985C10.2474 1.4985 10.7445 1.58304 11.197 1.75076L11.2352 1.64762L11.2734 1.54447C10.7938 1.3667 10.2705 1.2785 9.70458 1.2785V1.3885ZM11.2352 1.64762L11.1963 1.75051C11.6622 1.92668 12.0743 2.17487 12.4335 2.49504L12.5067 2.41292L12.5799 2.3308C12.1999 1.99213 11.7643 1.73012 11.2741 1.54473L11.2352 1.64762ZM12.5067 2.41292L12.437 2.49806C12.6492 2.67168 12.8805 2.91977 13.1305 3.24524L13.2177 3.17823L13.305 3.11121C13.0488 2.77783 12.806 2.51573 12.5763 2.32779L12.5067 2.41292ZM13.2177 3.17823L13.1314 3.24642C13.3795 3.56039 13.6158 3.99763 13.8385 4.56238L13.9409 4.52203L14.0432 4.48167C13.816 3.9055 13.5702 3.44687 13.3041 3.11003L13.2177 3.17823ZM13.9409 4.52203L13.837 4.55826L14.6505 6.89033L14.7544 6.8541L14.8582 6.81787L14.0447 4.4858L13.9409 4.52203ZM14.7544 6.8541L14.65 6.88888C14.7263 7.1177 14.7925 7.31832 14.8486 7.49075L14.9532 7.4567L15.0578 7.42265C15.0015 7.24959 14.9351 7.04847 14.8587 6.81931L14.7544 6.8541ZM14.9532 7.4567L14.8494 7.49293C14.9104 7.66797 14.9895 7.87468 15.0864 8.1128L15.1883 8.07135L15.2901 8.02991C15.1942 7.79398 15.1166 7.59092 15.0571 7.42047L14.9532 7.4567ZM15.1883 8.07135L15.087 8.11427C15.1886 8.35406 15.2984 8.58585 15.4164 8.80963L15.5137 8.75832L15.611 8.70702C15.4959 8.48888 15.3888 8.2627 15.2895 8.02844L15.1883 8.07135ZM15.5137 8.75832L15.4164 8.80963C15.536 9.03644 15.6858 9.27026 15.8654 9.51105L15.9536 9.44529L16.0417 9.37953C15.8678 9.14627 15.7244 8.9221 15.611 8.70702L15.5137 8.75832ZM15.9536 9.44529L15.8646 9.50992C16.116 9.8562 16.3836 10.1057 16.6697 10.2487L16.7189 10.1503L16.7681 10.0519C16.5238 9.92981 16.2812 9.70929 16.0426 9.38065L15.9536 9.44529ZM16.7189 10.1503L16.6654 10.2465C16.7408 10.2883 16.8113 10.3227 16.8769 10.3489L16.9177 10.2467L16.9586 10.1446C16.9036 10.1226 16.8416 10.0927 16.7723 10.0542L16.7189 10.1503ZM16.9177 10.2467L16.8769 10.3489C16.9472 10.377 17.0339 10.3987 17.1347 10.4155L17.1527 10.307L17.1708 10.1985C17.0787 10.1832 17.0088 10.1647 16.9586 10.1446L16.9177 10.2467ZM17.1527 10.307L17.1347 10.4155C17.2384 10.4328 17.3551 10.4411 17.4842 10.4411V10.3311V10.2211C17.3641 10.2211 17.2599 10.2134 17.1708 10.1985L17.1527 10.307ZM17.4842 10.3311V10.4411C17.6791 10.4411 17.8894 10.4245 18.1147 10.3918L18.0988 10.2829L18.083 10.174C17.8664 10.2056 17.6668 10.2211 17.4842 10.2211V10.3311ZM18.0988 10.2829L18.01 10.2181C17.9688 10.2744 17.8896 10.3416 17.7603 10.4168C17.6326 10.4911 17.4637 10.5691 17.252 10.6502L17.2913 10.7529L17.3307 10.8557C17.5488 10.7721 17.7295 10.6893 17.8709 10.607C18.0108 10.5256 18.1203 10.44 18.1877 10.3477L18.0988 10.2829ZM17.2913 10.7529L17.252 10.6502C17.0386 10.732 16.863 10.7926 16.7245 10.8326C16.5833 10.8733 16.4895 10.89 16.4356 10.89V11V11.11C16.5224 11.11 16.6415 11.0855 16.7855 11.0439C16.9323 11.0015 17.1143 10.9386 17.3307 10.8557L17.2913 10.7529ZM16.4356 11V10.89C16.0495 10.89 15.6398 10.7887 15.2055 10.5814L15.1581 10.6806L15.1107 10.7799C15.5683 10.9984 16.0103 11.11 16.4356 11.11V11ZM15.1581 10.6806L15.2059 10.5815C14.78 10.3763 14.4071 10.0739 14.0872 9.67205L14.0011 9.74056L13.9151 9.80907C14.254 10.2348 14.6524 10.5591 15.1104 10.7797L15.1581 10.6806ZM14.0011 9.74056L13.9069 9.68376C13.7482 9.94708 13.5593 10.1684 13.3406 10.3487L13.4106 10.4336L13.4806 10.5184C13.7198 10.3211 13.9247 10.0804 14.0953 9.79736L14.0011 9.74056ZM13.4106 10.4336L13.3399 10.3493C13.1218 10.5323 12.9041 10.6686 12.687 10.76L12.7296 10.8614L12.7723 10.9628C13.0131 10.8614 13.2494 10.7125 13.4813 10.5178L13.4106 10.4336ZM12.7296 10.8614L12.6885 10.7594C12.4651 10.8495 12.2914 10.89 12.1632 10.89V11V11.11C12.3322 11.11 12.5362 11.0581 12.7708 10.9634L12.7296 10.8614ZM12.1632 11V10.89C11.9234 10.89 11.7067 10.8359 11.511 10.7287L11.4581 10.8252L11.4053 10.9217C11.6354 11.0476 11.8888 11.11 12.1632 11.11V11ZM11.4581 10.8252L11.5117 10.7292C11.3167 10.6204 11.0084 10.3666 10.5823 9.95657L10.506 10.0358L10.4298 10.1151C10.8553 10.5246 11.1818 10.7971 11.4046 10.9213L11.4581 10.8252ZM10.506 10.0358L10.4055 9.99116C10.3035 10.2207 10.1169 10.431 9.8361 10.6194L9.89741 10.7108L9.95872 10.8021C10.2645 10.5968 10.4836 10.3571 10.6066 10.0805L10.506 10.0358ZM9.89741 10.7108L9.83698 10.6188C9.56222 10.7995 9.25594 10.89 8.91517 10.89V11V11.11C9.29752 11.11 9.64607 11.0077 9.95784 10.8027L9.89741 10.7108ZM8.91517 11V10.89C7.98067 10.89 7.34804 10.583 6.98417 9.99034L6.89043 10.0479L6.79668 10.1054C7.21218 10.7822 7.92938 11.11 8.91517 11.11V11ZM6.89043 10.0479L6.98364 9.98948C6.80706 9.7077 6.7172 9.37894 6.7172 8.99936H6.6072H6.4972C6.4972 9.41522 6.59616 9.78547 6.79722 10.1063L6.89043 10.0479ZM6.6072 8.99936H6.7172C6.7172 8.51399 6.80076 8.17346 6.95041 7.95968L6.8603 7.8966L6.77018 7.83352C6.58237 8.10182 6.4972 8.49646 6.4972 8.99936H6.6072ZM6.8603 7.8966L6.95041 7.95968C7.08952 7.76095 7.35291 7.64504 7.78228 7.64504V7.53504V7.42504C7.3198 7.42504 6.96853 7.55017 6.77018 7.83352L6.8603 7.8966ZM7.78228 7.53504V7.64504C8.13954 7.64504 8.39973 7.72952 8.57817 7.88347L8.65002 7.80018L8.72188 7.7169C8.49055 7.51732 8.17224 7.42504 7.78228 7.42504V7.53504ZM8.65002 7.80018L8.57992 7.88495C8.75813 8.03231 8.85338 8.24904 8.85338 8.55344H8.96338H9.07338C9.07338 8.19899 8.95973 7.91355 8.72012 7.71541L8.65002 7.80018ZM8.96338 8.55344H8.85338C8.85338 8.90909 8.79439 9.17213 8.68778 9.35336L8.7826 9.40913L8.87741 9.4649C9.01184 9.23636 9.07338 8.92894 9.07338 8.55344H8.96338ZM8.7826 9.40913L8.68697 9.35476C8.59203 9.52173 8.39986 9.64853 8.07861 9.71737L8.10166 9.82493L8.1247 9.93248C8.47836 9.8567 8.74016 9.7063 8.87822 9.4635L8.7826 9.40913ZM8.10166 9.82493L8.00327 9.87412C8.06855 10.0047 8.19451 10.1204 8.36274 10.2255L8.42103 10.1323L8.47933 10.039C8.32617 9.94325 8.23921 9.85407 8.20004 9.77573L8.10166 9.82493ZM8.42103 10.1323L8.36377 10.2262C8.55267 10.3414 8.8066 10.3929 9.11403 10.3929V10.2829V10.1729C8.82689 10.1729 8.61883 10.124 8.4783 10.0383L8.42103 10.1323ZM9.11403 10.2829V10.3929C9.39306 10.3929 9.63315 10.3081 9.82637 10.1342C10.0175 9.96215 10.1545 9.71055 10.2443 9.39068L10.1385 9.36092L10.0326 9.33116C9.9497 9.62595 9.82954 9.83534 9.6792 9.97065C9.53095 10.1041 9.34519 10.1729 9.11403 10.1729V10.2829ZM10.1385 9.36092H10.0285C10.0285 9.3638 10.0284 9.3749 10.0317 9.38835C10.0333 9.39464 10.0375 9.41008 10.0492 9.42641C10.0626 9.44505 10.0899 9.46961 10.132 9.47224C10.1687 9.47453 10.1943 9.45827 10.2043 9.4509C10.2155 9.44267 10.2226 9.43418 10.2257 9.43013C10.2324 9.4217 10.2364 9.41409 10.2377 9.41147C10.243 9.40114 10.2469 9.38959 10.2486 9.3847C10.2535 9.37034 10.2601 9.34855 10.2682 9.32084C10.2845 9.26458 10.3089 9.17689 10.341 9.05828L10.2349 9.02949L10.1287 9.0007C10.0966 9.11912 10.0727 9.20518 10.0569 9.25939C10.0489 9.28693 10.0435 9.30455 10.0403 9.3138C10.038 9.3207 10.0389 9.317 10.0422 9.31057C10.0431 9.30892 10.0466 9.30203 10.0529 9.29408C10.0559 9.29027 10.0627 9.28196 10.0737 9.27384C10.0836 9.26659 10.1091 9.25038 10.1457 9.25267C10.1876 9.25529 10.2148 9.27978 10.2281 9.29829C10.2397 9.31448 10.2439 9.32974 10.2454 9.33577C10.2485 9.34871 10.2485 9.35905 10.2485 9.36092H10.1385ZM10.2349 9.02949L10.341 9.05828C10.4062 8.81801 10.475 8.5161 10.5476 8.15319L10.4398 8.13161L10.3319 8.11004C10.2598 8.47025 10.1921 8.76692 10.1287 9.0007L10.2349 9.02949ZM10.4398 8.13161L10.5476 8.15319C10.6206 7.78822 10.6853 7.37154 10.7418 6.90343L10.6326 6.89025L10.5234 6.87707C10.4674 7.34099 10.4035 7.75189 10.3319 8.11004L10.4398 8.13161ZM10.6326 6.89025L10.742 6.90134C10.7746 6.57972 10.7908 6.23048 10.7908 5.85378H10.6808H10.5708C10.5708 6.2243 10.5549 6.56604 10.5231 6.87917L10.6326 6.89025ZM10.6808 5.85378H10.7908C10.7908 5.15717 10.6991 4.51707 10.5145 3.9344L10.4096 3.96763L10.3048 4.00086C10.4817 4.55912 10.5708 5.17645 10.5708 5.85378H10.6808ZM10.4096 3.96763L10.5145 3.93461C10.3289 3.34467 10.0216 2.80889 9.59396 2.32779L9.51174 2.40087L9.42953 2.47395C9.83749 2.9329 10.1288 3.44163 10.3047 4.00065L10.4096 3.96763ZM8.8308 14.2623H8.9408V14.1958L8.88194 14.1649L8.8308 14.2623ZM7.14352 13.3764V13.2664L7.09239 13.4738L7.14352 13.3764ZM10.1264 13.3764L10.2319 13.4076L10.2736 13.2664H10.1264V13.3764ZM9.2466 17.0282L9.13798 17.0109L9.13792 17.0112L9.2466 17.0282ZM9.16224 21.0656L9.05515 21.0908L9.05546 21.0921L9.16224 21.0656ZM9.67445 22.0358L9.59666 22.1136L9.59731 22.1143L9.67445 22.0358ZM12.1029 21.5658L12.1835 21.6407L12.2335 21.5869L12.203 21.5201L12.1029 21.5658ZM11.6329 20.451L11.5304 20.491L11.5306 20.4913L11.6329 20.451ZM11.181 19.0228L11.0742 19.0495L11.0744 19.0503L11.181 19.0228ZM11.5365 14.3466L11.4344 14.3056L11.4341 14.3064L11.5365 14.3466ZM12.2174 13.3764L12.271 13.2804L12.2123 13.2477L12.1564 13.2849L12.2174 13.3764ZM12.8923 14.0875L12.7983 14.1446L12.7988 14.1454L12.8923 14.0875ZM13.4347 15.2566L13.3307 15.2925L13.3308 15.2928L13.4347 15.2566ZM13.7782 16.522L13.6701 16.5424L13.6701 16.5426L13.7782 16.522ZM13.8023 18.6432L13.694 18.6236L13.6938 18.6247L13.8023 18.6432ZM13.5371 19.7038L13.6418 19.7375L13.6419 19.7372L13.5371 19.7038ZM12.8803 21.5297L12.7773 21.4909L12.7518 21.5587L12.804 21.6089L12.8803 21.5297ZM13.1816 21.8249L13.1037 21.9028L13.1073 21.906L13.1816 21.8249ZM13.501 22.066L13.4429 22.1595L13.4467 22.1617L13.501 22.066ZM13.8866 22.2226L13.8585 22.329L13.8592 22.3292L13.8866 22.2226ZM14.435 22.295L14.4291 22.405H14.435V22.295ZM15.5378 21.5779L15.4412 21.5251L15.5378 21.5779ZM15.5799 16.9921L15.4728 17.0171L15.4729 17.0175L15.5799 16.9921ZM14.2904 13.3764V13.2664H14.1216L14.1897 13.4208L14.2904 13.3764ZM17.2853 13.3764L17.3419 13.4708L17.6824 13.2664H17.2853V13.3764ZM15.8692 14.2261L15.8126 14.1318L15.7281 14.1825L15.7693 14.2721L15.8692 14.2261ZM17.3034 17.7995L17.1979 17.8307L17.1979 17.8308L17.3034 17.7995ZM17.4239 20.7282L17.5306 20.7549L17.5307 20.7546L17.4239 20.7282ZM16.9117 21.8671L16.8213 21.8044L16.9117 21.8671ZM15.9475 22.6927L15.9975 22.7907L15.9979 22.7905L15.9475 22.6927ZM13.8264 22.8855L13.7841 22.9871L13.7866 22.9881L13.8264 22.8855ZM13.2539 22.5722L13.1898 22.6616L13.192 22.6631L13.2539 22.5722ZM12.5127 21.9997L12.5817 21.914L12.5022 21.85L12.4324 21.9245L12.5127 21.9997ZM8.67413 22.4577L8.60836 22.5458L8.60917 22.5464L8.67413 22.4577ZM7.59547 21.0837L7.4938 21.1257L7.49391 21.126L7.59547 21.0837ZM7.46892 18.0707L7.57526 18.0989L7.57531 18.0987L7.46892 18.0707ZM7.96306 16.4738L7.85954 16.4366L7.96306 16.4738ZM8.53553 14.9854L8.43381 14.9435L8.53553 14.9854ZM8.8308 14.2623L8.88194 14.1649L7.19465 13.2791L7.14352 13.3764L7.09239 13.4738L8.77967 14.3597L8.8308 14.2623ZM7.14352 13.3764V13.4864H10.1264V13.3764V13.2664H7.14352V13.3764ZM10.1264 13.3764L10.0209 13.3453C9.59033 14.802 9.29568 16.0242 9.13798 17.0109L9.2466 17.0282L9.35522 17.0456C9.51087 16.0718 9.80275 14.8595 10.2319 13.4076L10.1264 13.3764ZM9.2466 17.0282L9.13792 17.0112C8.98459 17.9917 8.90761 18.8814 8.90761 19.6797H9.01761H9.12761C9.12761 18.8951 9.20329 18.0171 9.35528 17.0452L9.2466 17.0282ZM9.01761 19.6797H8.90761C8.90761 20.2006 8.95643 20.6712 9.05516 21.0908L9.16224 21.0656L9.26931 21.0405C9.17521 20.6405 9.12761 20.1872 9.12761 19.6797H9.01761ZM9.16224 21.0656L9.05546 21.0921C9.15962 21.5129 9.33858 21.8555 9.59667 22.1136L9.67445 22.0358L9.75223 21.9581C9.52823 21.7341 9.36572 21.4299 9.26901 21.0392L9.16224 21.0656ZM9.67445 22.0358L9.59731 22.1143C9.8664 22.3789 10.2193 22.5074 10.6446 22.5074V22.3974V22.2874C10.2665 22.2874 9.97261 22.1748 9.75158 21.9574L9.67445 22.0358ZM10.6446 22.3974V22.5074C10.918 22.5074 11.1762 22.4355 11.4176 22.2933L11.3617 22.1985L11.3059 22.1038C11.0973 22.2267 10.8774 22.2874 10.6446 22.2874V22.3974ZM11.3617 22.1985L11.4176 22.2933C11.6551 22.1533 11.9104 21.9342 12.1835 21.6407L12.1029 21.5658L12.0224 21.4909C11.7572 21.7759 11.5183 21.9786 11.3059 22.1038L11.3617 22.1985ZM12.1029 21.5658L12.203 21.5201C12.0553 21.1968 11.8994 20.8271 11.7352 20.4107L11.6329 20.451L11.5306 20.4913C11.6958 20.9105 11.8533 21.284 12.0029 21.6115L12.1029 21.5658ZM11.6329 20.451L11.7354 20.411C11.5726 19.994 11.4232 19.5223 11.2875 18.9954L11.181 19.0228L11.0744 19.0503C11.2119 19.584 11.3638 20.0643 11.5304 20.491L11.6329 20.451ZM11.181 19.0228L11.2877 18.9961C11.1568 18.4725 11.0921 17.9976 11.0921 17.5706H10.9821H10.8721C10.8721 18.0193 10.94 18.5125 11.0742 19.0495L11.181 19.0228ZM10.9821 17.5706H11.0921C11.0921 17.0466 11.1377 16.5001 11.2293 15.9309L11.1207 15.9134L11.0121 15.8959C10.9188 16.4756 10.8721 17.0339 10.8721 17.5706H10.9821ZM11.1207 15.9134L11.2293 15.9309C11.3206 15.363 11.4573 14.8486 11.6389 14.3869L11.5365 14.3466L11.4341 14.3064C11.246 14.7848 11.1056 15.3148 11.0121 15.8959L11.1207 15.9134ZM11.5365 14.3466L11.6386 14.3876C11.8236 13.927 12.0397 13.6271 12.2784 13.468L12.2174 13.3764L12.1564 13.2849C11.8648 13.4793 11.627 13.8262 11.4344 14.3056L11.5365 14.3466ZM12.2174 13.3764L12.1639 13.4725C12.3869 13.5968 12.5995 13.8172 12.7983 14.1446L12.8923 14.0875L12.9864 14.0304C12.7754 13.683 12.5381 13.4292 12.271 13.2804L12.2174 13.3764ZM12.8923 14.0875L12.7988 14.1454C13.0028 14.4749 13.1803 14.8569 13.3307 15.2925L13.4347 15.2566L13.5387 15.2206C13.3838 14.7724 13.1997 14.3751 12.9859 14.0296L12.8923 14.0875ZM13.4347 15.2566L13.3308 15.2928C13.4819 15.7261 13.5949 16.1426 13.6701 16.5424L13.7782 16.522L13.8863 16.5017C13.8088 16.0899 13.6928 15.6628 13.5386 15.2204L13.4347 15.2566ZM13.7782 16.522L13.6701 16.5426C13.7456 16.9399 13.7827 17.2822 13.7827 17.5706H13.8927H14.0027C14.0027 17.2644 13.9634 16.9077 13.8862 16.5015L13.7782 16.522ZM13.8927 17.5706H13.7827C13.7827 17.9465 13.753 18.2974 13.694 18.6236L13.8023 18.6432L13.9105 18.6628C13.9721 18.3221 14.0027 17.958 14.0027 17.5706H13.8927ZM13.8023 18.6432L13.6938 18.6247C13.6386 18.9482 13.5516 19.2967 13.4323 19.6703L13.5371 19.7038L13.6419 19.7372C13.7637 19.3556 13.8535 18.997 13.9107 18.6617L13.8023 18.6432ZM13.5371 19.7038L13.4324 19.67C13.3128 20.0409 13.0947 20.6474 12.7773 21.4909L12.8803 21.5297L12.9832 21.5684C13.3007 20.7246 13.5204 20.1139 13.6418 19.7375L13.5371 19.7038ZM12.8803 21.5297L12.804 21.6089C12.912 21.7129 13.012 21.8109 13.1038 21.9027L13.1816 21.8249L13.2594 21.7471C13.1664 21.6542 13.0655 21.5553 12.9566 21.4504L12.8803 21.5297ZM13.1816 21.8249L13.1073 21.906C13.209 21.9992 13.3209 22.0837 13.443 22.1594L13.501 22.066L13.559 21.9725C13.448 21.9036 13.3471 21.8274 13.2559 21.7438L13.1816 21.8249ZM13.501 22.066L13.4467 22.1617C13.5756 22.2347 13.713 22.2905 13.8585 22.329L13.8866 22.2226L13.9148 22.1163C13.7871 22.0825 13.6674 22.0338 13.5552 21.9703L13.501 22.066ZM13.8866 22.2226L13.8592 22.3292C14.0096 22.3678 14.2004 22.3925 14.4291 22.4048L14.435 22.295L14.4409 22.1851C14.2197 22.1733 14.0449 22.1497 13.914 22.1161L13.8866 22.2226ZM14.435 22.295V22.405C14.9561 22.405 15.3574 22.1376 15.6343 21.6306L15.5378 21.5779L15.4412 21.5251C15.1959 21.9743 14.8621 22.185 14.435 22.185V22.295ZM15.5378 21.5779L15.6343 21.6306C15.908 21.1295 16.0395 20.4355 16.0395 19.5591H15.9295H15.8195C15.8195 20.4183 15.6898 21.0701 15.4412 21.5251L15.5378 21.5779ZM15.9295 19.5591H16.0395C16.0395 18.8169 15.9213 17.9523 15.687 16.9666L15.5799 16.9921L15.4729 17.0175C15.7046 17.9923 15.8195 18.8391 15.8195 19.5591H15.9295ZM15.5799 16.9921L15.6871 16.967C15.4559 15.9776 15.0232 14.7655 14.391 13.3321L14.2904 13.3764L14.1897 13.4208C14.819 14.8478 15.246 16.0461 15.4728 17.0171L15.5799 16.9921ZM14.2904 13.3764V13.4864H17.2853V13.3764V13.2664H14.2904V13.3764ZM17.2853 13.3764L17.2287 13.2821L15.8126 14.1318L15.8692 14.2261L15.9258 14.3204L17.3419 13.4708L17.2853 13.3764ZM15.8692 14.2261L15.7693 14.2721C16.1145 15.0228 16.3932 15.6484 16.6055 16.1492L16.7068 16.1062L16.8081 16.0633C16.5946 15.5597 16.3149 14.9319 15.9691 14.1802L15.8692 14.2261ZM16.7068 16.1062L16.6055 16.1492C16.8165 16.6468 17.014 17.2072 17.1979 17.8307L17.3034 17.7995L17.4089 17.7684C17.2231 17.1385 17.0229 16.57 16.8081 16.0633L16.7068 16.1062ZM17.3034 17.7995L17.1979 17.8308C17.3808 18.447 17.4706 18.9804 17.4706 19.4326H17.5806H17.6906C17.6906 18.9527 17.5956 18.3974 17.4088 17.7682L17.3034 17.7995ZM17.5806 19.4326H17.4706C17.4706 19.8657 17.4194 20.2887 17.3171 20.7017L17.4239 20.7282L17.5307 20.7546C17.6373 20.324 17.6906 19.8833 17.6906 19.4326H17.5806ZM17.4239 20.7282L17.3172 20.7015C17.2159 21.1069 17.0505 21.4742 16.8213 21.8044L16.9117 21.8671L17.0021 21.9298C17.2469 21.577 17.4231 21.1851 17.5306 20.7549L17.4239 20.7282ZM16.9117 21.8671L16.8213 21.8044C16.5956 22.1297 16.2885 22.3934 15.8972 22.5949L15.9475 22.6927L15.9979 22.7905C16.418 22.5742 16.7538 22.2875 17.0021 21.9298L16.9117 21.8671ZM15.9475 22.6927L15.8976 22.5947C15.5151 22.7897 15.0412 22.89 14.4712 22.89V23V23.11C15.0661 23.11 15.5765 23.0054 15.9975 22.7907L15.9475 22.6927ZM14.4712 23V22.89C14.2503 22.89 14.0491 22.8539 13.8661 22.7829L13.8264 22.8855L13.7866 22.9881C13.9974 23.0698 14.226 23.11 14.4712 23.11V23ZM13.8264 22.8855L13.8687 22.784C13.6833 22.7067 13.499 22.606 13.3158 22.4812L13.2539 22.5722L13.192 22.6631C13.3864 22.7954 13.5838 22.9036 13.7841 22.987L13.8264 22.8855ZM13.2539 22.5722L13.318 22.4828C13.1357 22.3519 12.8904 22.1626 12.5817 21.914L12.5127 21.9997L12.4437 22.0854C12.7537 22.3349 13.0026 22.5272 13.1898 22.6615L13.2539 22.5722ZM12.5127 21.9997L12.4324 21.9245C12.1475 22.229 11.8326 22.4658 11.4877 22.6362L11.5365 22.7349L11.5852 22.8335C11.9555 22.6504 12.2914 22.3971 12.593 22.0748L12.5127 21.9997ZM11.5365 22.7349L11.4877 22.6362C11.1416 22.8074 10.8208 22.89 10.5241 22.89V23V23.11C10.8622 23.11 11.2163 23.0158 11.5852 22.8335L11.5365 22.7349ZM10.5241 23V22.89C9.80333 22.89 9.21073 22.714 8.73908 22.3689L8.67413 22.4577L8.60917 22.5464C9.12579 22.9244 9.76652 23.11 10.5241 23.11V23ZM8.67413 22.4577L8.7399 22.3695C8.26519 22.0154 7.91823 21.5731 7.69703 21.0415L7.59547 21.0837L7.49391 21.126C7.73069 21.6951 8.10283 22.1688 8.60836 22.5458L8.67413 22.4577ZM7.59547 21.0837L7.69714 21.0417C7.47311 20.4993 7.36199 19.9632 7.36199 19.4326H7.25199H7.14199C7.14199 19.9947 7.25985 20.5593 7.4938 21.1257L7.59547 21.0837ZM7.25199 19.4326H7.36199C7.36199 19.0843 7.43187 18.6406 7.57526 18.0989L7.46892 18.0707L7.36259 18.0426C7.21673 18.5936 7.14199 19.0578 7.14199 19.4326H7.25199ZM7.46892 18.0707L7.57531 18.0987C7.71915 17.5513 7.88291 17.0221 8.06658 16.511L7.96306 16.4738L7.85954 16.4366C7.6736 16.954 7.50795 17.4894 7.36253 18.0428L7.46892 18.0707ZM7.96306 16.4738L8.06658 16.511C8.25084 15.9983 8.44106 15.5037 8.63724 15.0273L8.53553 14.9854L8.43381 14.9435C8.23629 15.4232 8.04487 15.9209 7.85954 16.4366L7.96306 16.4738ZM8.53553 14.9854L8.63724 15.0273C8.73568 14.7882 8.80955 14.6083 8.85882 14.4876C8.88345 14.4273 8.902 14.3817 8.91442 14.3507C8.92061 14.3353 8.92541 14.3232 8.92871 14.3148C8.93033 14.3106 8.9318 14.3067 8.93296 14.3036C8.93349 14.3021 8.93429 14.2999 8.93508 14.2975C8.93543 14.2964 8.93618 14.2941 8.93695 14.2912C8.93733 14.2898 8.93801 14.2872 8.93867 14.2839C8.93902 14.2821 8.9408 14.2735 8.9408 14.2623H8.8308H8.7208C8.7208 14.2511 8.72258 14.2426 8.72291 14.2409C8.72354 14.2377 8.72419 14.2353 8.72451 14.234C8.72519 14.2315 8.72579 14.2297 8.72595 14.2292C8.72635 14.228 8.72658 14.2274 8.72634 14.228C8.72596 14.2291 8.72513 14.2313 8.72367 14.235C8.72082 14.2423 8.71639 14.2535 8.71027 14.2687C8.69809 14.2991 8.67974 14.3443 8.65515 14.4045C8.606 14.5248 8.53223 14.7045 8.43381 14.9435L8.53553 14.9854Z" fill="#2D090D" mask="url(#path-1-outside-1_73_2893)"/>
</svg>
