<svg width="24" height="24" viewBox="0 0 24 24" fill="none" xmlns="http://www.w3.org/2000/svg">
<mask id="path-1-inside-1_141_709" fill="white">
<path d="M21.0716 17.358L19.0598 2.94756C19.0472 2.85818 19.0029 2.77632 18.9348 2.71706C18.8667 2.6578 18.7795 2.62512 18.6893 2.62504C18.682 2.62504 18.6748 2.62504 18.6674 2.62504C18.6405 2.62659 15.9325 2.78026 11.9907 2.78026C8.04887 2.78026 5.34073 2.62728 5.31383 2.62504C5.30659 2.62504 5.29934 2.62504 5.2921 2.62504C5.20184 2.62509 5.11463 2.65775 5.04655 2.71702C4.97847 2.77629 4.93411 2.85816 4.92163 2.94756L2.90976 17.358C2.90476 17.393 2.90476 17.4284 2.90976 17.4634L3.28402 20.0524C3.29707 20.1413 3.34174 20.2226 3.40983 20.2814C3.47792 20.3401 3.5649 20.3724 3.65483 20.3723H5.18603C5.17586 20.7076 5.14759 21.0421 5.10135 21.3743C5.33508 21.2408 5.55978 21.0921 5.77398 20.929C5.77398 20.929 5.85487 21.0991 6.35693 21.3743C6.35693 21.3743 6.38539 20.8914 6.3985 20.3723H20.3257C20.3818 20.3723 20.4373 20.3597 20.4879 20.3354C20.5385 20.3111 20.5829 20.2757 20.618 20.2319C20.6531 20.1881 20.6779 20.1369 20.6905 20.0822C20.7031 20.0275 20.7033 19.9707 20.691 19.9159L20.4302 18.7556L20.5877 17.8196L20.7848 17.7737C20.8574 17.7567 20.9231 17.7182 20.9735 17.6633H20.9769V17.6595C21.0138 17.6191 21.0413 17.5712 21.0576 17.519C21.0738 17.4668 21.0784 17.4117 21.0709 17.3575M6.40212 19.6859C6.40022 19.6031 6.39746 19.5255 6.39315 19.4561L6.70929 19.4632L7.85139 19.4835L9.12613 19.5023L11.8964 19.533L13.3037 19.5422C13.7678 19.5481 14.2247 19.5453 14.6662 19.5477L15.9411 19.5487L17.0836 19.5456L18.794 19.5284C19.0009 19.527 19.1627 19.5213 19.2733 19.5194L19.443 19.5156L19.2736 19.5044C19.1632 19.4977 19.0013 19.4848 18.7952 19.4744C18.3828 19.4537 17.7938 19.4142 17.0865 19.3864C16.3794 19.3544 15.5541 19.3264 14.6697 19.3033C14.2275 19.2938 13.7704 19.2802 13.306 19.2742L11.8979 19.2557L10.4905 19.2512C10.0261 19.2504 9.56886 19.2552 9.12647 19.2588C8.24187 19.2666 7.41608 19.284 6.70843 19.3049C6.00078 19.3257 5.41128 19.3547 4.99873 19.3716C4.79176 19.3802 4.63033 19.3915 4.51995 19.3977L4.35058 19.4078L4.99941 19.4251L5.18344 19.4292C5.18551 19.473 5.18879 19.5593 5.1912 19.6771L3.87318 19.6676L3.58619 17.6931C4.81763 17.7507 7.91314 17.873 11.9907 17.873C15.896 17.873 18.9001 17.7607 20.2291 17.7005L20.1361 18.2525L19.573 18.2869L20.1249 18.3201L20.0497 18.7668L20.0152 18.9582L18.5035 19.0006L19.9997 19.0425L19.8633 19.7842L6.40212 19.6859ZM11.9902 17.4988C7.51887 17.4988 4.23002 17.3513 3.29471 17.3042L5.29227 2.9993C5.29227 2.9993 7.99041 3.15452 11.9907 3.15452C15.991 3.15452 18.6891 2.9993 18.6891 2.9993L20.6862 17.3042C19.7508 17.3513 16.4622 17.4988 11.9907 17.4988"/>
</mask>
<path d="M21.0716 17.358L19.0598 2.94756C19.0472 2.85818 19.0029 2.77632 18.9348 2.71706C18.8667 2.6578 18.7795 2.62512 18.6893 2.62504C18.682 2.62504 18.6748 2.62504 18.6674 2.62504C18.6405 2.62659 15.9325 2.78026 11.9907 2.78026C8.04887 2.78026 5.34073 2.62728 5.31383 2.62504C5.30659 2.62504 5.29934 2.62504 5.2921 2.62504C5.20184 2.62509 5.11463 2.65775 5.04655 2.71702C4.97847 2.77629 4.93411 2.85816 4.92163 2.94756L2.90976 17.358C2.90476 17.393 2.90476 17.4284 2.90976 17.4634L3.28402 20.0524C3.29707 20.1413 3.34174 20.2226 3.40983 20.2814C3.47792 20.3401 3.5649 20.3724 3.65483 20.3723H5.18603C5.17586 20.7076 5.14759 21.0421 5.10135 21.3743C5.33508 21.2408 5.55978 21.0921 5.77398 20.929C5.77398 20.929 5.85487 21.0991 6.35693 21.3743C6.35693 21.3743 6.38539 20.8914 6.3985 20.3723H20.3257C20.3818 20.3723 20.4373 20.3597 20.4879 20.3354C20.5385 20.3111 20.5829 20.2757 20.618 20.2319C20.6531 20.1881 20.6779 20.1369 20.6905 20.0822C20.7031 20.0275 20.7033 19.9707 20.691 19.9159L20.4302 18.7556L20.5877 17.8196L20.7848 17.7737C20.8574 17.7567 20.9231 17.7182 20.9735 17.6633H20.9769V17.6595C21.0138 17.6191 21.0413 17.5712 21.0576 17.519C21.0738 17.4668 21.0784 17.4117 21.0709 17.3575M6.40212 19.6859C6.40022 19.6031 6.39746 19.5255 6.39315 19.4561L6.70929 19.4632L7.85139 19.4835L9.12613 19.5023L11.8964 19.533L13.3037 19.5422C13.7678 19.5481 14.2247 19.5453 14.6662 19.5477L15.9411 19.5487L17.0836 19.5456L18.794 19.5284C19.0009 19.527 19.1627 19.5213 19.2733 19.5194L19.443 19.5156L19.2736 19.5044C19.1632 19.4977 19.0013 19.4848 18.7952 19.4744C18.3828 19.4537 17.7938 19.4142 17.0865 19.3864C16.3794 19.3544 15.5541 19.3264 14.6697 19.3033C14.2275 19.2938 13.7704 19.2802 13.306 19.2742L11.8979 19.2557L10.4905 19.2512C10.0261 19.2504 9.56886 19.2552 9.12647 19.2588C8.24187 19.2666 7.41608 19.284 6.70843 19.3049C6.00078 19.3257 5.41128 19.3547 4.99873 19.3716C4.79176 19.3802 4.63033 19.3915 4.51995 19.3977L4.35058 19.4078L4.99941 19.4251L5.18344 19.4292C5.18551 19.473 5.18879 19.5593 5.1912 19.6771L3.87318 19.6676L3.58619 17.6931C4.81763 17.7507 7.91314 17.873 11.9907 17.873C15.896 17.873 18.9001 17.7607 20.2291 17.7005L20.1361 18.2525L19.573 18.2869L20.1249 18.3201L20.0497 18.7668L20.0152 18.9582L18.5035 19.0006L19.9997 19.0425L19.8633 19.7842L6.40212 19.6859ZM11.9902 17.4988C7.51887 17.4988 4.23002 17.3513 3.29471 17.3042L5.29227 2.9993C5.29227 2.9993 7.99041 3.15452 11.9907 3.15452C15.991 3.15452 18.6891 2.9993 18.6891 2.9993L20.6862 17.3042C19.7508 17.3513 16.4622 17.4988 11.9907 17.4988" fill="#32200F"/>
<path d="M19.0598 2.94756L19.4559 2.89225L19.4559 2.8921L19.0598 2.94756ZM18.9348 2.71706L18.6722 3.01875L18.9348 2.71706ZM18.6893 2.62504L18.6897 2.22504H18.6893V2.62504ZM18.6674 2.62504V2.22504H18.6559L18.6443 2.2257L18.6674 2.62504ZM5.31383 2.62504L5.34705 2.22642L5.33047 2.22504H5.31383V2.62504ZM5.2921 2.62504V2.22504L5.29188 2.22504L5.2921 2.62504ZM4.92163 2.94756L5.31779 3.00287L5.31779 3.00286L4.92163 2.94756ZM2.90976 17.358L3.30572 17.4147L3.30592 17.4133L2.90976 17.358ZM2.90976 17.4634L2.51379 17.5201L2.51387 17.5206L2.90976 17.4634ZM3.28402 20.0524L2.88813 20.1096L2.88826 20.1104L3.28402 20.0524ZM3.65483 20.3723V19.9723H3.65428L3.65483 20.3723ZM5.18603 20.3723L5.58584 20.3844L5.59834 19.9723H5.18603V20.3723ZM5.10135 21.3743L4.70516 21.3192L4.59294 22.1255L5.29977 21.7217L5.10135 21.3743ZM5.77398 20.929L6.1352 20.7572L5.92365 20.3125L5.53173 20.6107L5.77398 20.929ZM6.35693 21.3743L6.16463 21.7251L6.71905 22.0291L6.75624 21.3979L6.35693 21.3743ZM6.3985 20.3723V19.9723H6.00847L5.99863 20.3622L6.3985 20.3723ZM20.3257 20.3723L20.3258 19.9723H20.3257V20.3723ZM20.691 19.9159L20.3007 20.0036L20.3007 20.0037L20.691 19.9159ZM20.4302 18.7556L20.0358 18.6892L20.0227 18.7666L20.0399 18.8433L20.4302 18.7556ZM20.5877 17.8196L20.497 17.43L20.2374 17.4904L20.1932 17.7532L20.5877 17.8196ZM20.7848 17.7737L20.8755 18.1633L20.8759 18.1632L20.7848 17.7737ZM20.9735 17.6633V17.2633H20.7975L20.6786 17.393L20.9735 17.6633ZM20.9769 17.6633V18.0633H21.3769V17.6633H20.9769ZM20.9769 17.6595L20.6816 17.3897L20.5769 17.5043V17.6595H20.9769ZM6.40212 19.6859L6.00223 19.695L6.01112 20.083L6.3992 20.0858L6.40212 19.6859ZM6.39315 19.4561L6.4021 19.0562L5.9669 19.0465L5.99392 19.481L6.39315 19.4561ZM6.70929 19.4632L6.70035 19.8631L6.70216 19.8631L6.70929 19.4632ZM7.85139 19.4835L7.84427 19.8835L7.84549 19.8835L7.85139 19.4835ZM9.12613 19.5023L9.12023 19.9023L9.12169 19.9023L9.12613 19.5023ZM11.8964 19.533L11.8919 19.933L11.8938 19.933L11.8964 19.533ZM13.3037 19.5422L13.3088 19.1422L13.3063 19.1422L13.3037 19.5422ZM14.6662 19.5477L14.664 19.9477L14.6659 19.9477L14.6662 19.5477ZM15.9411 19.5487L15.9408 19.9487L15.9422 19.9487L15.9411 19.5487ZM17.0836 19.5456L17.0847 19.9456L17.0876 19.9456L17.0836 19.5456ZM18.794 19.5284L18.7913 19.1284L18.7899 19.1284L18.794 19.5284ZM19.2733 19.5194L19.2801 19.9194L19.2822 19.9193L19.2733 19.5194ZM19.443 19.5156L19.4519 19.9155L19.4694 19.1165L19.443 19.5156ZM19.2736 19.5044L19.3 19.1053L19.298 19.1052L19.2736 19.5044ZM18.7952 19.4744L18.8152 19.0749H18.8152L18.7952 19.4744ZM17.0865 19.3864L17.0684 19.786L17.0708 19.7861L17.0865 19.3864ZM14.6697 19.3033L14.6801 18.9035L14.6783 18.9034L14.6697 19.3033ZM13.306 19.2742L13.3007 19.6741H13.3008L13.306 19.2742ZM11.8979 19.2557L11.9031 18.8557L11.8992 18.8557L11.8979 19.2557ZM10.4905 19.2512L10.4918 18.8512H10.4913L10.4905 19.2512ZM9.12647 19.2588L9.1232 18.8588L9.12296 18.8588L9.12647 19.2588ZM4.99873 19.3716L4.98235 18.972L4.98207 18.972L4.99873 19.3716ZM4.51995 19.3977L4.49748 18.9983L4.49596 18.9984L4.51995 19.3977ZM4.35058 19.4078L4.32659 19.0086L4.33995 19.8077L4.35058 19.4078ZM4.99941 19.4251L4.98879 19.8249L4.99042 19.825L4.99941 19.4251ZM5.18344 19.4292L5.583 19.4103L5.56539 19.0377L5.19244 19.0293L5.18344 19.4292ZM5.1912 19.6771L5.18832 20.0771L5.59955 20.08L5.59112 19.6689L5.1912 19.6771ZM3.87318 19.6676L3.47734 19.7251L3.52676 20.0651L3.8703 20.0676L3.87318 19.6676ZM3.58619 17.6931L3.60488 17.2936L3.12061 17.2709L3.19035 17.7507L3.58619 17.6931ZM20.2291 17.7005L20.6236 17.767L20.7058 17.2785L20.211 17.301L20.2291 17.7005ZM20.1361 18.2525L20.1606 18.6517L20.4778 18.6323L20.5306 18.3189L20.1361 18.2525ZM19.573 18.2869L19.5486 17.8877L19.5491 18.6862L19.573 18.2869ZM20.1249 18.3201L20.5194 18.3865L20.5933 17.9474L20.1489 17.9208L20.1249 18.3201ZM20.0497 18.7668L20.4434 18.8377L20.4442 18.8332L20.0497 18.7668ZM20.0152 18.9582L20.0265 19.358L20.3513 19.3489L20.4089 19.0291L20.0152 18.9582ZM18.5035 19.0006L18.4923 18.6008L18.4923 19.4005L18.5035 19.0006ZM19.9997 19.0425L20.3931 19.1149L20.4776 18.6558L20.0109 18.6427L19.9997 19.0425ZM19.8633 19.7842L19.8604 20.1842L20.196 20.1866L20.2567 19.8565L19.8633 19.7842ZM3.29471 17.3042L2.89856 17.2489L2.83811 17.6817L3.2746 17.7037L3.29471 17.3042ZM5.29227 2.9993L5.31524 2.59996L4.94711 2.57878L4.89611 2.94398L5.29227 2.9993ZM18.6891 2.9993L19.0853 2.94399L19.0343 2.57878L18.6661 2.59996L18.6891 2.9993ZM20.6862 17.3042L20.7063 17.7037L21.1427 17.6817L21.0823 17.2489L20.6862 17.3042ZM21.0716 17.358L21.4678 17.3027L19.4559 2.89225L19.0598 2.94756L18.6636 3.00287L20.6755 17.4133L21.0716 17.358ZM19.0598 2.94756L19.4559 2.8921C19.43 2.70724 19.3382 2.53794 19.1974 2.41537L18.9348 2.71706L18.6722 3.01875C18.6675 3.01471 18.6645 3.00912 18.6636 3.00302L19.0598 2.94756ZM18.9348 2.71706L19.1974 2.41537C19.0567 2.2928 18.8763 2.22521 18.6897 2.22504L18.6893 2.62504L18.6889 3.02504C18.6828 3.02503 18.6768 3.0228 18.6722 3.01875L18.9348 2.71706ZM18.6893 2.62504V2.22504C18.6644 2.22504 18.7033 2.22504 18.6784 2.22504C18.6784 2.22504 18.6729 2.22504 18.6729 2.22504C18.6729 2.22504 18.6702 2.22504 18.6702 2.22504C18.6702 2.22504 18.6688 2.22504 18.6688 2.22504H18.6684H18.6681H18.6679H18.6677H18.6674V2.62504V3.02504C18.6674 3.02504 18.6674 3.02504 18.6674 3.02504C18.6674 3.02504 18.6675 3.02504 18.6675 3.02504H18.6676H18.6677H18.6679H18.6681H18.6684H18.6688C18.6688 3.02504 18.6702 3.02504 18.6702 3.02504C18.6702 3.02504 18.6729 3.02504 18.6729 3.02504C18.6729 3.02504 18.6784 3.02504 18.6784 3.02504C18.7033 3.02504 18.6644 3.02504 18.6893 3.02504V2.62504ZM18.6674 2.62504L18.6443 2.2257C18.6228 2.22695 15.9228 2.38026 11.9907 2.38026V2.78026V3.18026C15.9422 3.18026 18.6582 3.02623 18.6904 3.02437L18.6674 2.62504ZM11.9907 2.78026V2.38026C10.0249 2.38026 8.3668 2.34211 7.1973 2.30371C6.61258 2.2845 6.1501 2.26524 5.83247 2.25066C5.50936 2.23582 5.34442 2.2262 5.34705 2.22642L5.31383 2.62504L5.28061 3.02366C5.32273 3.02717 8.04294 3.18026 11.9907 3.18026V2.78026ZM5.31383 2.62504V2.22504C5.31382 2.22504 5.3138 2.22504 5.31379 2.22504C5.31377 2.22504 5.31376 2.22504 5.31374 2.22504C5.31373 2.22504 5.31372 2.22504 5.3137 2.22504C5.31369 2.22504 5.31367 2.22504 5.31366 2.22504C5.31365 2.22504 5.31363 2.22504 5.31362 2.22504C5.3136 2.22504 5.31359 2.22504 5.31357 2.22504C5.31356 2.22504 5.31355 2.22504 5.31353 2.22504C5.31352 2.22504 5.3135 2.22504 5.31349 2.22504C5.31348 2.22504 5.31346 2.22504 5.31345 2.22504C5.31343 2.22504 5.31342 2.22504 5.3134 2.22504C5.31339 2.22504 5.31338 2.22504 5.31336 2.22504C5.31335 2.22504 5.31333 2.22504 5.31332 2.22504C5.31331 2.22504 5.31329 2.22504 5.31328 2.22504C5.31326 2.22504 5.31325 2.22504 5.31324 2.22504C5.31322 2.22504 5.31321 2.22504 5.31319 2.22504C5.31318 2.22504 5.31316 2.22504 5.31315 2.22504C5.31314 2.22504 5.31312 2.22504 5.31311 2.22504C5.31309 2.22504 5.31308 2.22504 5.31307 2.22504C5.31305 2.22504 5.31304 2.22504 5.31302 2.22504C5.31301 2.22504 5.31299 2.22504 5.31298 2.22504C5.31297 2.22504 5.31295 2.22504 5.31294 2.22504C5.31292 2.22504 5.31291 2.22504 5.3129 2.22504C5.31288 2.22504 5.31287 2.22504 5.31285 2.22504C5.31284 2.22504 5.31282 2.22504 5.31281 2.22504C5.3128 2.22504 5.31278 2.22504 5.31277 2.22504C5.31275 2.22504 5.31274 2.22504 5.31273 2.22504C5.31271 2.22504 5.3127 2.22504 5.31268 2.22504C5.31267 2.22504 5.31265 2.22504 5.31264 2.22504C5.31263 2.22504 5.31261 2.22504 5.3126 2.22504C5.31258 2.22504 5.31257 2.22504 5.31256 2.22504C5.31254 2.22504 5.31253 2.22504 5.31251 2.22504C5.3125 2.22504 5.31249 2.22504 5.31247 2.22504C5.31246 2.22504 5.31244 2.22504 5.31243 2.22504C5.31241 2.22504 5.3124 2.22504 5.31239 2.22504C5.31237 2.22504 5.31236 2.22504 5.31234 2.22504C5.31233 2.22504 5.31232 2.22504 5.3123 2.22504C5.31229 2.22504 5.31227 2.22504 5.31226 2.22504C5.31224 2.22504 5.31223 2.22504 5.31222 2.22504C5.3122 2.22504 5.31219 2.22504 5.31217 2.22504C5.31216 2.22504 5.31215 2.22504 5.31213 2.22504C5.31212 2.22504 5.3121 2.22504 5.31209 2.22504C5.31207 2.22504 5.31206 2.22504 5.31205 2.22504C5.31203 2.22504 5.31202 2.22504 5.312 2.22504C5.31199 2.22504 5.31198 2.22504 5.31196 2.22504C5.31195 2.22504 5.31193 2.22504 5.31192 2.22504C5.31191 2.22504 5.31189 2.22504 5.31188 2.22504C5.31186 2.22504 5.31185 2.22504 5.31183 2.22504C5.31182 2.22504 5.31181 2.22504 5.31179 2.22504C5.31178 2.22504 5.31176 2.22504 5.31175 2.22504C5.31174 2.22504 5.31172 2.22504 5.31171 2.22504C5.31169 2.22504 5.31168 2.22504 5.31166 2.22504C5.31165 2.22504 5.31164 2.22504 5.31162 2.22504C5.31161 2.22504 5.31159 2.22504 5.31158 2.22504C5.31157 2.22504 5.31155 2.22504 5.31154 2.22504C5.31152 2.22504 5.31151 2.22504 5.31149 2.22504C5.31148 2.22504 5.31147 2.22504 5.31145 2.22504C5.31144 2.22504 5.31142 2.22504 5.31141 2.22504C5.3114 2.22504 5.31138 2.22504 5.31137 2.22504C5.31135 2.22504 5.31134 2.22504 5.31133 2.22504C5.31131 2.22504 5.3113 2.22504 5.31128 2.22504C5.31127 2.22504 5.31125 2.22504 5.31124 2.22504C5.31123 2.22504 5.31121 2.22504 5.3112 2.22504C5.31118 2.22504 5.31117 2.22504 5.31116 2.22504C5.31114 2.22504 5.31113 2.22504 5.31111 2.22504C5.3111 2.22504 5.31108 2.22504 5.31107 2.22504C5.31106 2.22504 5.31104 2.22504 5.31103 2.22504C5.31101 2.22504 5.311 2.22504 5.31099 2.22504C5.31097 2.22504 5.31096 2.22504 5.31094 2.22504C5.31093 2.22504 5.31091 2.22504 5.3109 2.22504C5.31089 2.22504 5.31087 2.22504 5.31086 2.22504C5.31084 2.22504 5.31083 2.22504 5.31082 2.22504C5.3108 2.22504 5.31079 2.22504 5.31077 2.22504C5.31076 2.22504 5.31075 2.22504 5.31073 2.22504C5.31072 2.22504 5.3107 2.22504 5.31069 2.22504C5.31067 2.22504 5.31066 2.22504 5.31065 2.22504C5.31063 2.22504 5.31062 2.22504 5.3106 2.22504C5.31059 2.22504 5.31058 2.22504 5.31056 2.22504C5.31055 2.22504 5.31053 2.22504 5.31052 2.22504C5.3105 2.22504 5.31049 2.22504 5.31048 2.22504C5.31046 2.22504 5.31045 2.22504 5.31043 2.22504C5.31042 2.22504 5.31041 2.22504 5.31039 2.22504C5.31038 2.22504 5.31036 2.22504 5.31035 2.22504C5.31033 2.22504 5.31032 2.22504 5.31031 2.22504C5.31029 2.22504 5.31028 2.22504 5.31026 2.22504C5.31025 2.22504 5.31024 2.22504 5.31022 2.22504C5.31021 2.22504 5.31019 2.22504 5.31018 2.22504C5.31016 2.22504 5.31015 2.22504 5.31014 2.22504C5.31012 2.22504 5.31011 2.22504 5.31009 2.22504C5.31008 2.22504 5.31007 2.22504 5.31005 2.22504C5.31004 2.22504 5.31002 2.22504 5.31001 2.22504C5.31 2.22504 5.30998 2.22504 5.30997 2.22504C5.30995 2.22504 5.30994 2.22504 5.30992 2.22504C5.30991 2.22504 5.3099 2.22504 5.30988 2.22504C5.30987 2.22504 5.30985 2.22504 5.30984 2.22504C5.30983 2.22504 5.30981 2.22504 5.3098 2.22504C5.30978 2.22504 5.30977 2.22504 5.30975 2.22504C5.30974 2.22504 5.30973 2.22504 5.30971 2.22504C5.3097 2.22504 5.30968 2.22504 5.30967 2.22504C5.30966 2.22504 5.30964 2.22504 5.30963 2.22504C5.30961 2.22504 5.3096 2.22504 5.30958 2.22504C5.30957 2.22504 5.30956 2.22504 5.30954 2.22504C5.30953 2.22504 5.30951 2.22504 5.3095 2.22504C5.30949 2.22504 5.30947 2.22504 5.30946 2.22504C5.30944 2.22504 5.30943 2.22504 5.30942 2.22504C5.3094 2.22504 5.30939 2.22504 5.30937 2.22504C5.30936 2.22504 5.30934 2.22504 5.30933 2.22504C5.30932 2.22504 5.3093 2.22504 5.30929 2.22504C5.30927 2.22504 5.30926 2.22504 5.30925 2.22504C5.30923 2.22504 5.30922 2.22504 5.3092 2.22504C5.30919 2.22504 5.30917 2.22504 5.30916 2.22504C5.30915 2.22504 5.30913 2.22504 5.30912 2.22504C5.3091 2.22504 5.30909 2.22504 5.30908 2.22504C5.30906 2.22504 5.30905 2.22504 5.30903 2.22504C5.30902 2.22504 5.309 2.22504 5.30899 2.22504C5.30898 2.22504 5.30896 2.22504 5.30895 2.22504C5.30893 2.22504 5.30892 2.22504 5.30891 2.22504C5.30889 2.22504 5.30888 2.22504 5.30886 2.22504C5.30885 2.22504 5.30884 2.22504 5.30882 2.22504C5.30881 2.22504 5.30879 2.22504 5.30878 2.22504C5.30876 2.22504 5.30875 2.22504 5.30874 2.22504C5.30872 2.22504 5.30871 2.22504 5.30869 2.22504C5.30868 2.22504 5.30867 2.22504 5.30865 2.22504C5.30864 2.22504 5.30862 2.22504 5.30861 2.22504C5.30859 2.22504 5.30858 2.22504 5.30857 2.22504C5.30855 2.22504 5.30854 2.22504 5.30852 2.22504C5.30851 2.22504 5.3085 2.22504 5.30848 2.22504C5.30847 2.22504 5.30845 2.22504 5.30844 2.22504C5.30842 2.22504 5.30841 2.22504 5.3084 2.22504C5.30838 2.22504 5.30837 2.22504 5.30835 2.22504C5.30834 2.22504 5.30833 2.22504 5.30831 2.22504C5.3083 2.22504 5.30828 2.22504 5.30827 2.22504C5.30825 2.22504 5.30824 2.22504 5.30823 2.22504C5.30821 2.22504 5.3082 2.22504 5.30818 2.22504C5.30817 2.22504 5.30816 2.22504 5.30814 2.22504C5.30813 2.22504 5.30811 2.22504 5.3081 2.22504C5.30809 2.22504 5.30807 2.22504 5.30806 2.22504C5.30804 2.22504 5.30803 2.22504 5.30801 2.22504C5.308 2.22504 5.30799 2.22504 5.30797 2.22504C5.30796 2.22504 5.30794 2.22504 5.30793 2.22504C5.30792 2.22504 5.3079 2.22504 5.30789 2.22504C5.30787 2.22504 5.30786 2.22504 5.30784 2.22504C5.30783 2.22504 5.30782 2.22504 5.3078 2.22504C5.30779 2.22504 5.30777 2.22504 5.30776 2.22504C5.30775 2.22504 5.30773 2.22504 5.30772 2.22504C5.3077 2.22504 5.30769 2.22504 5.30767 2.22504C5.30766 2.22504 5.30765 2.22504 5.30763 2.22504C5.30762 2.22504 5.3076 2.22504 5.30759 2.22504C5.30758 2.22504 5.30756 2.22504 5.30755 2.22504C5.30753 2.22504 5.30752 2.22504 5.30751 2.22504C5.30749 2.22504 5.30748 2.22504 5.30746 2.22504C5.30745 2.22504 5.30743 2.22504 5.30742 2.22504C5.30741 2.22504 5.30739 2.22504 5.30738 2.22504C5.30736 2.22504 5.30735 2.22504 5.30734 2.22504C5.30732 2.22504 5.30731 2.22504 5.30729 2.22504C5.30728 2.22504 5.30726 2.22504 5.30725 2.22504C5.30724 2.22504 5.30722 2.22504 5.30721 2.22504C5.30719 2.22504 5.30718 2.22504 5.30717 2.22504C5.30715 2.22504 5.30714 2.22504 5.30712 2.22504C5.30711 2.22504 5.30709 2.22504 5.30708 2.22504C5.30707 2.22504 5.30705 2.22504 5.30704 2.22504C5.30702 2.22504 5.30701 2.22504 5.307 2.22504C5.30698 2.22504 5.30697 2.22504 5.30695 2.22504C5.30694 2.22504 5.30693 2.22504 5.30691 2.22504C5.3069 2.22504 5.30688 2.22504 5.30687 2.22504C5.30685 2.22504 5.30684 2.22504 5.30683 2.22504C5.30681 2.22504 5.3068 2.22504 5.30678 2.22504C5.30677 2.22504 5.30676 2.22504 5.30674 2.22504C5.30673 2.22504 5.30671 2.22504 5.3067 2.22504C5.30668 2.22504 5.30667 2.22504 5.30666 2.22504C5.30664 2.22504 5.30663 2.22504 5.30661 2.22504C5.3066 2.22504 5.30659 2.22504 5.30657 2.22504C5.30656 2.22504 5.30654 2.22504 5.30653 2.22504C5.30651 2.22504 5.3065 2.22504 5.30649 2.22504C5.30647 2.22504 5.30646 2.22504 5.30644 2.22504C5.30643 2.22504 5.30642 2.22504 5.3064 2.22504C5.30639 2.22504 5.30637 2.22504 5.30636 2.22504C5.30634 2.22504 5.30633 2.22504 5.30632 2.22504C5.3063 2.22504 5.30629 2.22504 5.30627 2.22504C5.30626 2.22504 5.30625 2.22504 5.30623 2.22504C5.30622 2.22504 5.3062 2.22504 5.30619 2.22504C5.30618 2.22504 5.30616 2.22504 5.30615 2.22504C5.30613 2.22504 5.30612 2.22504 5.3061 2.22504C5.30609 2.22504 5.30608 2.22504 5.30606 2.22504C5.30605 2.22504 5.30603 2.22504 5.30602 2.22504C5.30601 2.22504 5.30599 2.22504 5.30598 2.22504C5.30596 2.22504 5.30595 2.22504 5.30593 2.22504C5.30592 2.22504 5.30591 2.22504 5.30589 2.22504C5.30588 2.22504 5.30586 2.22504 5.30585 2.22504C5.30584 2.22504 5.30582 2.22504 5.30581 2.22504C5.30579 2.22504 5.30578 2.22504 5.30576 2.22504C5.30575 2.22504 5.30574 2.22504 5.30572 2.22504C5.30571 2.22504 5.30569 2.22504 5.30568 2.22504C5.30567 2.22504 5.30565 2.22504 5.30564 2.22504C5.30562 2.22504 5.30561 2.22504 5.3056 2.22504C5.30558 2.22504 5.30557 2.22504 5.30555 2.22504C5.30554 2.22504 5.30552 2.22504 5.30551 2.22504C5.3055 2.22504 5.30548 2.22504 5.30547 2.22504C5.30545 2.22504 5.30544 2.22504 5.30543 2.22504C5.30541 2.22504 5.3054 2.22504 5.30538 2.22504C5.30537 2.22504 5.30535 2.22504 5.30534 2.22504C5.30533 2.22504 5.30531 2.22504 5.3053 2.22504C5.30528 2.22504 5.30527 2.22504 5.30526 2.22504C5.30524 2.22504 5.30523 2.22504 5.30521 2.22504C5.3052 2.22504 5.30518 2.22504 5.30517 2.22504C5.30516 2.22504 5.30514 2.22504 5.30513 2.22504C5.30511 2.22504 5.3051 2.22504 5.30509 2.22504C5.30507 2.22504 5.30506 2.22504 5.30504 2.22504C5.30503 2.22504 5.30502 2.22504 5.305 2.22504C5.30499 2.22504 5.30497 2.22504 5.30496 2.22504C5.30494 2.22504 5.30493 2.22504 5.30492 2.22504C5.3049 2.22504 5.30489 2.22504 5.30487 2.22504C5.30486 2.22504 5.30485 2.22504 5.30483 2.22504C5.30482 2.22504 5.3048 2.22504 5.30479 2.22504C5.30477 2.22504 5.30476 2.22504 5.30475 2.22504C5.30473 2.22504 5.30472 2.22504 5.3047 2.22504C5.30469 2.22504 5.30468 2.22504 5.30466 2.22504C5.30465 2.22504 5.30463 2.22504 5.30462 2.22504C5.3046 2.22504 5.30459 2.22504 5.30458 2.22504C5.30456 2.22504 5.30455 2.22504 5.30453 2.22504C5.30452 2.22504 5.30451 2.22504 5.30449 2.22504C5.30448 2.22504 5.30446 2.22504 5.30445 2.22504C5.30444 2.22504 5.30442 2.22504 5.30441 2.22504C5.30439 2.22504 5.30438 2.22504 5.30436 2.22504C5.30435 2.22504 5.30434 2.22504 5.30432 2.22504C5.30431 2.22504 5.30429 2.22504 5.30428 2.22504C5.30427 2.22504 5.30425 2.22504 5.30424 2.22504C5.30422 2.22504 5.30421 2.22504 5.30419 2.22504C5.30418 2.22504 5.30417 2.22504 5.30415 2.22504C5.30414 2.22504 5.30412 2.22504 5.30411 2.22504C5.3041 2.22504 5.30408 2.22504 5.30407 2.22504C5.30405 2.22504 5.30404 2.22504 5.30402 2.22504C5.30401 2.22504 5.304 2.22504 5.30398 2.22504C5.30397 2.22504 5.30395 2.22504 5.30394 2.22504C5.30393 2.22504 5.30391 2.22504 5.3039 2.22504C5.30388 2.22504 5.30387 2.22504 5.30385 2.22504C5.30384 2.22504 5.30383 2.22504 5.30381 2.22504C5.3038 2.22504 5.30378 2.22504 5.30377 2.22504C5.30376 2.22504 5.30374 2.22504 5.30373 2.22504C5.30371 2.22504 5.3037 2.22504 5.30369 2.22504C5.30367 2.22504 5.30366 2.22504 5.30364 2.22504C5.30363 2.22504 5.30361 2.22504 5.3036 2.22504C5.30359 2.22504 5.30357 2.22504 5.30356 2.22504C5.30354 2.22504 5.30353 2.22504 5.30352 2.22504C5.3035 2.22504 5.30349 2.22504 5.30347 2.22504C5.30346 2.22504 5.30344 2.22504 5.30343 2.22504C5.30342 2.22504 5.3034 2.22504 5.30339 2.22504C5.30337 2.22504 5.30336 2.22504 5.30335 2.22504C5.30333 2.22504 5.30332 2.22504 5.3033 2.22504C5.30329 2.22504 5.30327 2.22504 5.30326 2.22504C5.30325 2.22504 5.30323 2.22504 5.30322 2.22504C5.3032 2.22504 5.30319 2.22504 5.30318 2.22504C5.30316 2.22504 5.30315 2.22504 5.30313 2.22504C5.30312 2.22504 5.30311 2.22504 5.30309 2.22504C5.30308 2.22504 5.30306 2.22504 5.30305 2.22504C5.30303 2.22504 5.30302 2.22504 5.30301 2.22504C5.30299 2.22504 5.30298 2.22504 5.30296 2.22504C5.30295 2.22504 5.30294 2.22504 5.30292 2.22504C5.30291 2.22504 5.30289 2.22504 5.30288 2.22504C5.30286 2.22504 5.30285 2.22504 5.30284 2.22504C5.30282 2.22504 5.30281 2.22504 5.30279 2.22504C5.30278 2.22504 5.30277 2.22504 5.30275 2.22504C5.30274 2.22504 5.30272 2.22504 5.30271 2.22504C5.30269 2.22504 5.30268 2.22504 5.30267 2.22504C5.30265 2.22504 5.30264 2.22504 5.30262 2.22504C5.30261 2.22504 5.3026 2.22504 5.30258 2.22504C5.30257 2.22504 5.30255 2.22504 5.30254 2.22504C5.30253 2.22504 5.30251 2.22504 5.3025 2.22504C5.30248 2.22504 5.30247 2.22504 5.30245 2.22504C5.30244 2.22504 5.30243 2.22504 5.30241 2.22504C5.3024 2.22504 5.30238 2.22504 5.30237 2.22504C5.30236 2.22504 5.30234 2.22504 5.30233 2.22504C5.30231 2.22504 5.3023 2.22504 5.30228 2.22504C5.30227 2.22504 5.30226 2.22504 5.30224 2.22504C5.30223 2.22504 5.30221 2.22504 5.3022 2.22504C5.30219 2.22504 5.30217 2.22504 5.30216 2.22504C5.30214 2.22504 5.30213 2.22504 5.30211 2.22504C5.3021 2.22504 5.30209 2.22504 5.30207 2.22504C5.30206 2.22504 5.30204 2.22504 5.30203 2.22504C5.30202 2.22504 5.302 2.22504 5.30199 2.22504C5.30197 2.22504 5.30196 2.22504 5.30194 2.22504C5.30193 2.22504 5.30192 2.22504 5.3019 2.22504C5.30189 2.22504 5.30187 2.22504 5.30186 2.22504C5.30185 2.22504 5.30183 2.22504 5.30182 2.22504C5.3018 2.22504 5.30179 2.22504 5.30178 2.22504C5.30176 2.22504 5.30175 2.22504 5.30173 2.22504C5.30172 2.22504 5.3017 2.22504 5.30169 2.22504C5.30168 2.22504 5.30166 2.22504 5.30165 2.22504C5.30163 2.22504 5.30162 2.22504 5.30161 2.22504C5.30159 2.22504 5.30158 2.22504 5.30156 2.22504C5.30155 2.22504 5.30153 2.22504 5.30152 2.22504C5.30151 2.22504 5.30149 2.22504 5.30148 2.22504C5.30146 2.22504 5.30145 2.22504 5.30144 2.22504C5.30142 2.22504 5.30141 2.22504 5.30139 2.22504C5.30138 2.22504 5.30136 2.22504 5.30135 2.22504C5.30134 2.22504 5.30132 2.22504 5.30131 2.22504C5.30129 2.22504 5.30128 2.22504 5.30127 2.22504C5.30125 2.22504 5.30124 2.22504 5.30122 2.22504C5.30121 2.22504 5.3012 2.22504 5.30118 2.22504C5.30117 2.22504 5.30115 2.22504 5.30114 2.22504C5.30112 2.22504 5.30111 2.22504 5.3011 2.22504C5.30108 2.22504 5.30107 2.22504 5.30105 2.22504C5.30104 2.22504 5.30103 2.22504 5.30101 2.22504C5.301 2.22504 5.30098 2.22504 5.30097 2.22504C5.30095 2.22504 5.30094 2.22504 5.30093 2.22504C5.30091 2.22504 5.3009 2.22504 5.30088 2.22504C5.30087 2.22504 5.30086 2.22504 5.30084 2.22504C5.30083 2.22504 5.30081 2.22504 5.3008 2.22504C5.30078 2.22504 5.30077 2.22504 5.30076 2.22504C5.30074 2.22504 5.30073 2.22504 5.30071 2.22504C5.3007 2.22504 5.30069 2.22504 5.30067 2.22504C5.30066 2.22504 5.30064 2.22504 5.30063 2.22504C5.30062 2.22504 5.3006 2.22504 5.30059 2.22504C5.30057 2.22504 5.30056 2.22504 5.30054 2.22504C5.30053 2.22504 5.30052 2.22504 5.3005 2.22504C5.30049 2.22504 5.30047 2.22504 5.30046 2.22504C5.30045 2.22504 5.30043 2.22504 5.30042 2.22504C5.3004 2.22504 5.30039 2.22504 5.30037 2.22504C5.30036 2.22504 5.30035 2.22504 5.30033 2.22504C5.30032 2.22504 5.3003 2.22504 5.30029 2.22504C5.30028 2.22504 5.30026 2.22504 5.30025 2.22504C5.30023 2.22504 5.30022 2.22504 5.3002 2.22504C5.30019 2.22504 5.30018 2.22504 5.30016 2.22504C5.30015 2.22504 5.30013 2.22504 5.30012 2.22504C5.30011 2.22504 5.30009 2.22504 5.30008 2.22504C5.30006 2.22504 5.30005 2.22504 5.30003 2.22504C5.30002 2.22504 5.30001 2.22504 5.29999 2.22504C5.29998 2.22504 5.29996 2.22504 5.29995 2.22504C5.29994 2.22504 5.29992 2.22504 5.29991 2.22504C5.29989 2.22504 5.29988 2.22504 5.29987 2.22504C5.29985 2.22504 5.29984 2.22504 5.29982 2.22504C5.29981 2.22504 5.29979 2.22504 5.29978 2.22504C5.29977 2.22504 5.29975 2.22504 5.29974 2.22504C5.29972 2.22504 5.29971 2.22504 5.2997 2.22504C5.29968 2.22504 5.29967 2.22504 5.29965 2.22504C5.29964 2.22504 5.29962 2.22504 5.29961 2.22504C5.2996 2.22504 5.29958 2.22504 5.29957 2.22504C5.29955 2.22504 5.29954 2.22504 5.29953 2.22504C5.29951 2.22504 5.2995 2.22504 5.29948 2.22504C5.29947 2.22504 5.29945 2.22504 5.29944 2.22504C5.29943 2.22504 5.29941 2.22504 5.2994 2.22504C5.29938 2.22504 5.29937 2.22504 5.29936 2.22504C5.29934 2.22504 5.29933 2.22504 5.29931 2.22504C5.2993 2.22504 5.29929 2.22504 5.29927 2.22504C5.29926 2.22504 5.29924 2.22504 5.29923 2.22504C5.29921 2.22504 5.2992 2.22504 5.29919 2.22504C5.29917 2.22504 5.29916 2.22504 5.29914 2.22504C5.29913 2.22504 5.29912 2.22504 5.2991 2.22504C5.29909 2.22504 5.29907 2.22504 5.29906 2.22504C5.29904 2.22504 5.29903 2.22504 5.29902 2.22504C5.299 2.22504 5.29899 2.22504 5.29897 2.22504C5.29896 2.22504 5.29895 2.22504 5.29893 2.22504C5.29892 2.22504 5.2989 2.22504 5.29889 2.22504C5.29887 2.22504 5.29886 2.22504 5.29885 2.22504C5.29883 2.22504 5.29882 2.22504 5.2988 2.22504C5.29879 2.22504 5.29878 2.22504 5.29876 2.22504C5.29875 2.22504 5.29873 2.22504 5.29872 2.22504C5.29871 2.22504 5.29869 2.22504 5.29868 2.22504C5.29866 2.22504 5.29865 2.22504 5.29863 2.22504C5.29862 2.22504 5.29861 2.22504 5.29859 2.22504C5.29858 2.22504 5.29856 2.22504 5.29855 2.22504C5.29854 2.22504 5.29852 2.22504 5.29851 2.22504C5.29849 2.22504 5.29848 2.22504 5.29846 2.22504C5.29845 2.22504 5.29844 2.22504 5.29842 2.22504C5.29841 2.22504 5.29839 2.22504 5.29838 2.22504C5.29837 2.22504 5.29835 2.22504 5.29834 2.22504C5.29832 2.22504 5.29831 2.22504 5.29829 2.22504C5.29828 2.22504 5.29827 2.22504 5.29825 2.22504C5.29824 2.22504 5.29822 2.22504 5.29821 2.22504C5.2982 2.22504 5.29818 2.22504 5.29817 2.22504C5.29815 2.22504 5.29814 2.22504 5.29813 2.22504C5.29811 2.22504 5.2981 2.22504 5.29808 2.22504C5.29807 2.22504 5.29805 2.22504 5.29804 2.22504C5.29803 2.22504 5.29801 2.22504 5.298 2.22504C5.29798 2.22504 5.29797 2.22504 5.29796 2.22504C5.29794 2.22504 5.29793 2.22504 5.29791 2.22504C5.2979 2.22504 5.29788 2.22504 5.29787 2.22504C5.29786 2.22504 5.29784 2.22504 5.29783 2.22504C5.29781 2.22504 5.2978 2.22504 5.29779 2.22504C5.29777 2.22504 5.29776 2.22504 5.29774 2.22504C5.29773 2.22504 5.29771 2.22504 5.2977 2.22504C5.29769 2.22504 5.29767 2.22504 5.29766 2.22504C5.29764 2.22504 5.29763 2.22504 5.29762 2.22504C5.2976 2.22504 5.29759 2.22504 5.29757 2.22504C5.29756 2.22504 5.29754 2.22504 5.29753 2.22504C5.29752 2.22504 5.2975 2.22504 5.29749 2.22504C5.29747 2.22504 5.29746 2.22504 5.29745 2.22504C5.29743 2.22504 5.29742 2.22504 5.2974 2.22504C5.29739 2.22504 5.29738 2.22504 5.29736 2.22504C5.29735 2.22504 5.29733 2.22504 5.29732 2.22504C5.2973 2.22504 5.29729 2.22504 5.29728 2.22504C5.29726 2.22504 5.29725 2.22504 5.29723 2.22504C5.29722 2.22504 5.29721 2.22504 5.29719 2.22504C5.29718 2.22504 5.29716 2.22504 5.29715 2.22504C5.29713 2.22504 5.29712 2.22504 5.29711 2.22504C5.29709 2.22504 5.29708 2.22504 5.29706 2.22504C5.29705 2.22504 5.29704 2.22504 5.29702 2.22504C5.29701 2.22504 5.29699 2.22504 5.29698 2.22504C5.29696 2.22504 5.29695 2.22504 5.29694 2.22504C5.29692 2.22504 5.29691 2.22504 5.29689 2.22504C5.29688 2.22504 5.29687 2.22504 5.29685 2.22504C5.29684 2.22504 5.29682 2.22504 5.29681 2.22504C5.2968 2.22504 5.29678 2.22504 5.29677 2.22504C5.29675 2.22504 5.29674 2.22504 5.29672 2.22504C5.29671 2.22504 5.2967 2.22504 5.29668 2.22504C5.29667 2.22504 5.29665 2.22504 5.29664 2.22504C5.29663 2.22504 5.29661 2.22504 5.2966 2.22504C5.29658 2.22504 5.29657 2.22504 5.29655 2.22504C5.29654 2.22504 5.29653 2.22504 5.29651 2.22504C5.2965 2.22504 5.29648 2.22504 5.29647 2.22504C5.29646 2.22504 5.29644 2.22504 5.29643 2.22504C5.29641 2.22504 5.2964 2.22504 5.29638 2.22504C5.29637 2.22504 5.29636 2.22504 5.29634 2.22504C5.29633 2.22504 5.29631 2.22504 5.2963 2.22504C5.29629 2.22504 5.29627 2.22504 5.29626 2.22504C5.29624 2.22504 5.29623 2.22504 5.29622 2.22504C5.2962 2.22504 5.29619 2.22504 5.29617 2.22504C5.29616 2.22504 5.29614 2.22504 5.29613 2.22504C5.29612 2.22504 5.2961 2.22504 5.29609 2.22504C5.29607 2.22504 5.29606 2.22504 5.29605 2.22504C5.29603 2.22504 5.29602 2.22504 5.296 2.22504C5.29599 2.22504 5.29597 2.22504 5.29596 2.22504C5.29595 2.22504 5.29593 2.22504 5.29592 2.22504C5.2959 2.22504 5.29589 2.22504 5.29588 2.22504C5.29586 2.22504 5.29585 2.22504 5.29583 2.22504C5.29582 2.22504 5.2958 2.22504 5.29579 2.22504C5.29578 2.22504 5.29576 2.22504 5.29575 2.22504C5.29573 2.22504 5.29572 2.22504 5.29571 2.22504C5.29569 2.22504 5.29568 2.22504 5.29566 2.22504C5.29565 2.22504 5.29563 2.22504 5.29562 2.22504C5.29561 2.22504 5.29559 2.22504 5.29558 2.22504C5.29556 2.22504 5.29555 2.22504 5.29554 2.22504C5.29552 2.22504 5.29551 2.22504 5.29549 2.22504C5.29548 2.22504 5.29547 2.22504 5.29545 2.22504C5.29544 2.22504 5.29542 2.22504 5.29541 2.22504C5.29539 2.22504 5.29538 2.22504 5.29537 2.22504C5.29535 2.22504 5.29534 2.22504 5.29532 2.22504C5.29531 2.22504 5.2953 2.22504 5.29528 2.22504C5.29527 2.22504 5.29525 2.22504 5.29524 2.22504C5.29522 2.22504 5.29521 2.22504 5.2952 2.22504C5.29518 2.22504 5.29517 2.22504 5.29515 2.22504C5.29514 2.22504 5.29513 2.22504 5.29511 2.22504C5.2951 2.22504 5.29508 2.22504 5.29507 2.22504C5.29505 2.22504 5.29504 2.22504 5.29503 2.22504C5.29501 2.22504 5.295 2.22504 5.29498 2.22504C5.29497 2.22504 5.29496 2.22504 5.29494 2.22504C5.29493 2.22504 5.29491 2.22504 5.2949 2.22504C5.29489 2.22504 5.29487 2.22504 5.29486 2.22504C5.29484 2.22504 5.29483 2.22504 5.29481 2.22504C5.2948 2.22504 5.29479 2.22504 5.29477 2.22504C5.29476 2.22504 5.29474 2.22504 5.29473 2.22504C5.29472 2.22504 5.2947 2.22504 5.29469 2.22504C5.29467 2.22504 5.29466 2.22504 5.29464 2.22504C5.29463 2.22504 5.29462 2.22504 5.2946 2.22504C5.29459 2.22504 5.29457 2.22504 5.29456 2.22504C5.29455 2.22504 5.29453 2.22504 5.29452 2.22504C5.2945 2.22504 5.29449 2.22504 5.29447 2.22504C5.29446 2.22504 5.29445 2.22504 5.29443 2.22504C5.29442 2.22504 5.2944 2.22504 5.29439 2.22504C5.29438 2.22504 5.29436 2.22504 5.29435 2.22504C5.29433 2.22504 5.29432 2.22504 5.29431 2.22504C5.29429 2.22504 5.29428 2.22504 5.29426 2.22504C5.29425 2.22504 5.29423 2.22504 5.29422 2.22504C5.29421 2.22504 5.29419 2.22504 5.29418 2.22504C5.29416 2.22504 5.29415 2.22504 5.29414 2.22504C5.29412 2.22504 5.29411 2.22504 5.29409 2.22504C5.29408 2.22504 5.29406 2.22504 5.29405 2.22504C5.29404 2.22504 5.29402 2.22504 5.29401 2.22504C5.29399 2.22504 5.29398 2.22504 5.29397 2.22504C5.29395 2.22504 5.29394 2.22504 5.29392 2.22504C5.29391 2.22504 5.29389 2.22504 5.29388 2.22504C5.29387 2.22504 5.29385 2.22504 5.29384 2.22504C5.29382 2.22504 5.29381 2.22504 5.2938 2.22504C5.29378 2.22504 5.29377 2.22504 5.29375 2.22504C5.29374 2.22504 5.29373 2.22504 5.29371 2.22504C5.2937 2.22504 5.29368 2.22504 5.29367 2.22504C5.29365 2.22504 5.29364 2.22504 5.29363 2.22504C5.29361 2.22504 5.2936 2.22504 5.29358 2.22504C5.29357 2.22504 5.29356 2.22504 5.29354 2.22504C5.29353 2.22504 5.29351 2.22504 5.2935 2.22504C5.29348 2.22504 5.29347 2.22504 5.29346 2.22504C5.29344 2.22504 5.29343 2.22504 5.29341 2.22504C5.2934 2.22504 5.29339 2.22504 5.29337 2.22504C5.29336 2.22504 5.29334 2.22504 5.29333 2.22504C5.29331 2.22504 5.2933 2.22504 5.29329 2.22504C5.29327 2.22504 5.29326 2.22504 5.29324 2.22504C5.29323 2.22504 5.29322 2.22504 5.2932 2.22504C5.29319 2.22504 5.29317 2.22504 5.29316 2.22504C5.29314 2.22504 5.29313 2.22504 5.29312 2.22504C5.2931 2.22504 5.29309 2.22504 5.29307 2.22504C5.29306 2.22504 5.29305 2.22504 5.29303 2.22504C5.29302 2.22504 5.293 2.22504 5.29299 2.22504C5.29297 2.22504 5.29296 2.22504 5.29295 2.22504C5.29293 2.22504 5.29292 2.22504 5.2929 2.22504C5.29289 2.22504 5.29288 2.22504 5.29286 2.22504C5.29285 2.22504 5.29283 2.22504 5.29282 2.22504C5.29281 2.22504 5.29279 2.22504 5.29278 2.22504C5.29276 2.22504 5.29275 2.22504 5.29273 2.22504C5.29272 2.22504 5.29271 2.22504 5.29269 2.22504C5.29268 2.22504 5.29266 2.22504 5.29265 2.22504C5.29264 2.22504 5.29262 2.22504 5.29261 2.22504C5.29259 2.22504 5.29258 2.22504 5.29256 2.22504C5.29255 2.22504 5.29254 2.22504 5.29252 2.22504C5.29251 2.22504 5.29249 2.22504 5.29248 2.22504C5.29247 2.22504 5.29245 2.22504 5.29244 2.22504C5.29242 2.22504 5.29241 2.22504 5.29239 2.22504C5.29238 2.22504 5.29237 2.22504 5.29235 2.22504C5.29234 2.22504 5.29232 2.22504 5.29231 2.22504C5.2923 2.22504 5.29228 2.22504 5.29227 2.22504C5.29225 2.22504 5.29224 2.22504 5.29223 2.22504C5.29221 2.22504 5.2922 2.22504 5.29218 2.22504C5.29217 2.22504 5.29215 2.22504 5.29214 2.22504C5.29213 2.22504 5.29211 2.22504 5.2921 2.22504V2.62504V3.02504C5.29211 3.02504 5.29213 3.02504 5.29214 3.02504C5.29215 3.02504 5.29217 3.02504 5.29218 3.02504C5.2922 3.02504 5.29221 3.02504 5.29223 3.02504C5.29224 3.02504 5.29225 3.02504 5.29227 3.02504C5.29228 3.02504 5.2923 3.02504 5.29231 3.02504C5.29232 3.02504 5.29234 3.02504 5.29235 3.02504C5.29237 3.02504 5.29238 3.02504 5.29239 3.02504C5.29241 3.02504 5.29242 3.02504 5.29244 3.02504C5.29245 3.02504 5.29247 3.02504 5.29248 3.02504C5.29249 3.02504 5.29251 3.02504 5.29252 3.02504C5.29254 3.02504 5.29255 3.02504 5.29256 3.02504C5.29258 3.02504 5.29259 3.02504 5.29261 3.02504C5.29262 3.02504 5.29264 3.02504 5.29265 3.02504C5.29266 3.02504 5.29268 3.02504 5.29269 3.02504C5.29271 3.02504 5.29272 3.02504 5.29273 3.02504C5.29275 3.02504 5.29276 3.02504 5.29278 3.02504C5.29279 3.02504 5.29281 3.02504 5.29282 3.02504C5.29283 3.02504 5.29285 3.02504 5.29286 3.02504C5.29288 3.02504 5.29289 3.02504 5.2929 3.02504C5.29292 3.02504 5.29293 3.02504 5.29295 3.02504C5.29296 3.02504 5.29297 3.02504 5.29299 3.02504C5.293 3.02504 5.29302 3.02504 5.29303 3.02504C5.29305 3.02504 5.29306 3.02504 5.29307 3.02504C5.29309 3.02504 5.2931 3.02504 5.29312 3.02504C5.29313 3.02504 5.29314 3.02504 5.29316 3.02504C5.29317 3.02504 5.29319 3.02504 5.2932 3.02504C5.29322 3.02504 5.29323 3.02504 5.29324 3.02504C5.29326 3.02504 5.29327 3.02504 5.29329 3.02504C5.2933 3.02504 5.29331 3.02504 5.29333 3.02504C5.29334 3.02504 5.29336 3.02504 5.29337 3.02504C5.29339 3.02504 5.2934 3.02504 5.29341 3.02504C5.29343 3.02504 5.29344 3.02504 5.29346 3.02504C5.29347 3.02504 5.29348 3.02504 5.2935 3.02504C5.29351 3.02504 5.29353 3.02504 5.29354 3.02504C5.29356 3.02504 5.29357 3.02504 5.29358 3.02504C5.2936 3.02504 5.29361 3.02504 5.29363 3.02504C5.29364 3.02504 5.29365 3.02504 5.29367 3.02504C5.29368 3.02504 5.2937 3.02504 5.29371 3.02504C5.29373 3.02504 5.29374 3.02504 5.29375 3.02504C5.29377 3.02504 5.29378 3.02504 5.2938 3.02504C5.29381 3.02504 5.29382 3.02504 5.29384 3.02504C5.29385 3.02504 5.29387 3.02504 5.29388 3.02504C5.29389 3.02504 5.29391 3.02504 5.29392 3.02504C5.29394 3.02504 5.29395 3.02504 5.29397 3.02504C5.29398 3.02504 5.29399 3.02504 5.29401 3.02504C5.29402 3.02504 5.29404 3.02504 5.29405 3.02504C5.29406 3.02504 5.29408 3.02504 5.29409 3.02504C5.29411 3.02504 5.29412 3.02504 5.29414 3.02504C5.29415 3.02504 5.29416 3.02504 5.29418 3.02504C5.29419 3.02504 5.29421 3.02504 5.29422 3.02504C5.29423 3.02504 5.29425 3.02504 5.29426 3.02504C5.29428 3.02504 5.29429 3.02504 5.29431 3.02504C5.29432 3.02504 5.29433 3.02504 5.29435 3.02504C5.29436 3.02504 5.29438 3.02504 5.29439 3.02504C5.2944 3.02504 5.29442 3.02504 5.29443 3.02504C5.29445 3.02504 5.29446 3.02504 5.29447 3.02504C5.29449 3.02504 5.2945 3.02504 5.29452 3.02504C5.29453 3.02504 5.29455 3.02504 5.29456 3.02504C5.29457 3.02504 5.29459 3.02504 5.2946 3.02504C5.29462 3.02504 5.29463 3.02504 5.29464 3.02504C5.29466 3.02504 5.29467 3.02504 5.29469 3.02504C5.2947 3.02504 5.29472 3.02504 5.29473 3.02504C5.29474 3.02504 5.29476 3.02504 5.29477 3.02504C5.29479 3.02504 5.2948 3.02504 5.29481 3.02504C5.29483 3.02504 5.29484 3.02504 5.29486 3.02504C5.29487 3.02504 5.29489 3.02504 5.2949 3.02504C5.29491 3.02504 5.29493 3.02504 5.29494 3.02504C5.29496 3.02504 5.29497 3.02504 5.29498 3.02504C5.295 3.02504 5.29501 3.02504 5.29503 3.02504C5.29504 3.02504 5.29505 3.02504 5.29507 3.02504C5.29508 3.02504 5.2951 3.02504 5.29511 3.02504C5.29513 3.02504 5.29514 3.02504 5.29515 3.02504C5.29517 3.02504 5.29518 3.02504 5.2952 3.02504C5.29521 3.02504 5.29522 3.02504 5.29524 3.02504C5.29525 3.02504 5.29527 3.02504 5.29528 3.02504C5.2953 3.02504 5.29531 3.02504 5.29532 3.02504C5.29534 3.02504 5.29535 3.02504 5.29537 3.02504C5.29538 3.02504 5.29539 3.02504 5.29541 3.02504C5.29542 3.02504 5.29544 3.02504 5.29545 3.02504C5.29547 3.02504 5.29548 3.02504 5.29549 3.02504C5.29551 3.02504 5.29552 3.02504 5.29554 3.02504C5.29555 3.02504 5.29556 3.02504 5.29558 3.02504C5.29559 3.02504 5.29561 3.02504 5.29562 3.02504C5.29563 3.02504 5.29565 3.02504 5.29566 3.02504C5.29568 3.02504 5.29569 3.02504 5.29571 3.02504C5.29572 3.02504 5.29573 3.02504 5.29575 3.02504C5.29576 3.02504 5.29578 3.02504 5.29579 3.02504C5.2958 3.02504 5.29582 3.02504 5.29583 3.02504C5.29585 3.02504 5.29586 3.02504 5.29588 3.02504C5.29589 3.02504 5.2959 3.02504 5.29592 3.02504C5.29593 3.02504 5.29595 3.02504 5.29596 3.02504C5.29597 3.02504 5.29599 3.02504 5.296 3.02504C5.29602 3.02504 5.29603 3.02504 5.29605 3.02504C5.29606 3.02504 5.29607 3.02504 5.29609 3.02504C5.2961 3.02504 5.29612 3.02504 5.29613 3.02504C5.29614 3.02504 5.29616 3.02504 5.29617 3.02504C5.29619 3.02504 5.2962 3.02504 5.29622 3.02504C5.29623 3.02504 5.29624 3.02504 5.29626 3.02504C5.29627 3.02504 5.29629 3.02504 5.2963 3.02504C5.29631 3.02504 5.29633 3.02504 5.29634 3.02504C5.29636 3.02504 5.29637 3.02504 5.29638 3.02504C5.2964 3.02504 5.29641 3.02504 5.29643 3.02504C5.29644 3.02504 5.29646 3.02504 5.29647 3.02504C5.29648 3.02504 5.2965 3.02504 5.29651 3.02504C5.29653 3.02504 5.29654 3.02504 5.29655 3.02504C5.29657 3.02504 5.29658 3.02504 5.2966 3.02504C5.29661 3.02504 5.29663 3.02504 5.29664 3.02504C5.29665 3.02504 5.29667 3.02504 5.29668 3.02504C5.2967 3.02504 5.29671 3.02504 5.29672 3.02504C5.29674 3.02504 5.29675 3.02504 5.29677 3.02504C5.29678 3.02504 5.2968 3.02504 5.29681 3.02504C5.29682 3.02504 5.29684 3.02504 5.29685 3.02504C5.29687 3.02504 5.29688 3.02504 5.29689 3.02504C5.29691 3.02504 5.29692 3.02504 5.29694 3.02504C5.29695 3.02504 5.29696 3.02504 5.29698 3.02504C5.29699 3.02504 5.29701 3.02504 5.29702 3.02504C5.29704 3.02504 5.29705 3.02504 5.29706 3.02504C5.29708 3.02504 5.29709 3.02504 5.29711 3.02504C5.29712 3.02504 5.29713 3.02504 5.29715 3.02504C5.29716 3.02504 5.29718 3.02504 5.29719 3.02504C5.29721 3.02504 5.29722 3.02504 5.29723 3.02504C5.29725 3.02504 5.29726 3.02504 5.29728 3.02504C5.29729 3.02504 5.2973 3.02504 5.29732 3.02504C5.29733 3.02504 5.29735 3.02504 5.29736 3.02504C5.29738 3.02504 5.29739 3.02504 5.2974 3.02504C5.29742 3.02504 5.29743 3.02504 5.29745 3.02504C5.29746 3.02504 5.29747 3.02504 5.29749 3.02504C5.2975 3.02504 5.29752 3.02504 5.29753 3.02504C5.29754 3.02504 5.29756 3.02504 5.29757 3.02504C5.29759 3.02504 5.2976 3.02504 5.29762 3.02504C5.29763 3.02504 5.29764 3.02504 5.29766 3.02504C5.29767 3.02504 5.29769 3.02504 5.2977 3.02504C5.29771 3.02504 5.29773 3.02504 5.29774 3.02504C5.29776 3.02504 5.29777 3.02504 5.29779 3.02504C5.2978 3.02504 5.29781 3.02504 5.29783 3.02504C5.29784 3.02504 5.29786 3.02504 5.29787 3.02504C5.29788 3.02504 5.2979 3.02504 5.29791 3.02504C5.29793 3.02504 5.29794 3.02504 5.29796 3.02504C5.29797 3.02504 5.29798 3.02504 5.298 3.02504C5.29801 3.02504 5.29803 3.02504 5.29804 3.02504C5.29805 3.02504 5.29807 3.02504 5.29808 3.02504C5.2981 3.02504 5.29811 3.02504 5.29813 3.02504C5.29814 3.02504 5.29815 3.02504 5.29817 3.02504C5.29818 3.02504 5.2982 3.02504 5.29821 3.02504C5.29822 3.02504 5.29824 3.02504 5.29825 3.02504C5.29827 3.02504 5.29828 3.02504 5.29829 3.02504C5.29831 3.02504 5.29832 3.02504 5.29834 3.02504C5.29835 3.02504 5.29837 3.02504 5.29838 3.02504C5.29839 3.02504 5.29841 3.02504 5.29842 3.02504C5.29844 3.02504 5.29845 3.02504 5.29846 3.02504C5.29848 3.02504 5.29849 3.02504 5.29851 3.02504C5.29852 3.02504 5.29854 3.02504 5.29855 3.02504C5.29856 3.02504 5.29858 3.02504 5.29859 3.02504C5.29861 3.02504 5.29862 3.02504 5.29863 3.02504C5.29865 3.02504 5.29866 3.02504 5.29868 3.02504C5.29869 3.02504 5.29871 3.02504 5.29872 3.02504C5.29873 3.02504 5.29875 3.02504 5.29876 3.02504C5.29878 3.02504 5.29879 3.02504 5.2988 3.02504C5.29882 3.02504 5.29883 3.02504 5.29885 3.02504C5.29886 3.02504 5.29887 3.02504 5.29889 3.02504C5.2989 3.02504 5.29892 3.02504 5.29893 3.02504C5.29895 3.02504 5.29896 3.02504 5.29897 3.02504C5.29899 3.02504 5.299 3.02504 5.29902 3.02504C5.29903 3.02504 5.29904 3.02504 5.29906 3.02504C5.29907 3.02504 5.29909 3.02504 5.2991 3.02504C5.29912 3.02504 5.29913 3.02504 5.29914 3.02504C5.29916 3.02504 5.29917 3.02504 5.29919 3.02504C5.2992 3.02504 5.29921 3.02504 5.29923 3.02504C5.29924 3.02504 5.29926 3.02504 5.29927 3.02504C5.29929 3.02504 5.2993 3.02504 5.29931 3.02504C5.29933 3.02504 5.29934 3.02504 5.29936 3.02504C5.29937 3.02504 5.29938 3.02504 5.2994 3.02504C5.29941 3.02504 5.29943 3.02504 5.29944 3.02504C5.29945 3.02504 5.29947 3.02504 5.29948 3.02504C5.2995 3.02504 5.29951 3.02504 5.29953 3.02504C5.29954 3.02504 5.29955 3.02504 5.29957 3.02504C5.29958 3.02504 5.2996 3.02504 5.29961 3.02504C5.29962 3.02504 5.29964 3.02504 5.29965 3.02504C5.29967 3.02504 5.29968 3.02504 5.2997 3.02504C5.29971 3.02504 5.29972 3.02504 5.29974 3.02504C5.29975 3.02504 5.29977 3.02504 5.29978 3.02504C5.29979 3.02504 5.29981 3.02504 5.29982 3.02504C5.29984 3.02504 5.29985 3.02504 5.29987 3.02504C5.29988 3.02504 5.29989 3.02504 5.29991 3.02504C5.29992 3.02504 5.29994 3.02504 5.29995 3.02504C5.29996 3.02504 5.29998 3.02504 5.29999 3.02504C5.30001 3.02504 5.30002 3.02504 5.30003 3.02504C5.30005 3.02504 5.30006 3.02504 5.30008 3.02504C5.30009 3.02504 5.30011 3.02504 5.30012 3.02504C5.30013 3.02504 5.30015 3.02504 5.30016 3.02504C5.30018 3.02504 5.30019 3.02504 5.3002 3.02504C5.30022 3.02504 5.30023 3.02504 5.30025 3.02504C5.30026 3.02504 5.30028 3.02504 5.30029 3.02504C5.3003 3.02504 5.30032 3.02504 5.30033 3.02504C5.30035 3.02504 5.30036 3.02504 5.30037 3.02504C5.30039 3.02504 5.3004 3.02504 5.30042 3.02504C5.30043 3.02504 5.30045 3.02504 5.30046 3.02504C5.30047 3.02504 5.30049 3.02504 5.3005 3.02504C5.30052 3.02504 5.30053 3.02504 5.30054 3.02504C5.30056 3.02504 5.30057 3.02504 5.30059 3.02504C5.3006 3.02504 5.30062 3.02504 5.30063 3.02504C5.30064 3.02504 5.30066 3.02504 5.30067 3.02504C5.30069 3.02504 5.3007 3.02504 5.30071 3.02504C5.30073 3.02504 5.30074 3.02504 5.30076 3.02504C5.30077 3.02504 5.30078 3.02504 5.3008 3.02504C5.30081 3.02504 5.30083 3.02504 5.30084 3.02504C5.30086 3.02504 5.30087 3.02504 5.30088 3.02504C5.3009 3.02504 5.30091 3.02504 5.30093 3.02504C5.30094 3.02504 5.30095 3.02504 5.30097 3.02504C5.30098 3.02504 5.301 3.02504 5.30101 3.02504C5.30103 3.02504 5.30104 3.02504 5.30105 3.02504C5.30107 3.02504 5.30108 3.02504 5.3011 3.02504C5.30111 3.02504 5.30112 3.02504 5.30114 3.02504C5.30115 3.02504 5.30117 3.02504 5.30118 3.02504C5.3012 3.02504 5.30121 3.02504 5.30122 3.02504C5.30124 3.02504 5.30125 3.02504 5.30127 3.02504C5.30128 3.02504 5.30129 3.02504 5.30131 3.02504C5.30132 3.02504 5.30134 3.02504 5.30135 3.02504C5.30136 3.02504 5.30138 3.02504 5.30139 3.02504C5.30141 3.02504 5.30142 3.02504 5.30144 3.02504C5.30145 3.02504 5.30146 3.02504 5.30148 3.02504C5.30149 3.02504 5.30151 3.02504 5.30152 3.02504C5.30153 3.02504 5.30155 3.02504 5.30156 3.02504C5.30158 3.02504 5.30159 3.02504 5.30161 3.02504C5.30162 3.02504 5.30163 3.02504 5.30165 3.02504C5.30166 3.02504 5.30168 3.02504 5.30169 3.02504C5.3017 3.02504 5.30172 3.02504 5.30173 3.02504C5.30175 3.02504 5.30176 3.02504 5.30178 3.02504C5.30179 3.02504 5.3018 3.02504 5.30182 3.02504C5.30183 3.02504 5.30185 3.02504 5.30186 3.02504C5.30187 3.02504 5.30189 3.02504 5.3019 3.02504C5.30192 3.02504 5.30193 3.02504 5.30194 3.02504C5.30196 3.02504 5.30197 3.02504 5.30199 3.02504C5.302 3.02504 5.30202 3.02504 5.30203 3.02504C5.30204 3.02504 5.30206 3.02504 5.30207 3.02504C5.30209 3.02504 5.3021 3.02504 5.30211 3.02504C5.30213 3.02504 5.30214 3.02504 5.30216 3.02504C5.30217 3.02504 5.30219 3.02504 5.3022 3.02504C5.30221 3.02504 5.30223 3.02504 5.30224 3.02504C5.30226 3.02504 5.30227 3.02504 5.30228 3.02504C5.3023 3.02504 5.30231 3.02504 5.30233 3.02504C5.30234 3.02504 5.30236 3.02504 5.30237 3.02504C5.30238 3.02504 5.3024 3.02504 5.30241 3.02504C5.30243 3.02504 5.30244 3.02504 5.30245 3.02504C5.30247 3.02504 5.30248 3.02504 5.3025 3.02504C5.30251 3.02504 5.30253 3.02504 5.30254 3.02504C5.30255 3.02504 5.30257 3.02504 5.30258 3.02504C5.3026 3.02504 5.30261 3.02504 5.30262 3.02504C5.30264 3.02504 5.30265 3.02504 5.30267 3.02504C5.30268 3.02504 5.30269 3.02504 5.30271 3.02504C5.30272 3.02504 5.30274 3.02504 5.30275 3.02504C5.30277 3.02504 5.30278 3.02504 5.30279 3.02504C5.30281 3.02504 5.30282 3.02504 5.30284 3.02504C5.30285 3.02504 5.30286 3.02504 5.30288 3.02504C5.30289 3.02504 5.30291 3.02504 5.30292 3.02504C5.30294 3.02504 5.30295 3.02504 5.30296 3.02504C5.30298 3.02504 5.30299 3.02504 5.30301 3.02504C5.30302 3.02504 5.30303 3.02504 5.30305 3.02504C5.30306 3.02504 5.30308 3.02504 5.30309 3.02504C5.30311 3.02504 5.30312 3.02504 5.30313 3.02504C5.30315 3.02504 5.30316 3.02504 5.30318 3.02504C5.30319 3.02504 5.3032 3.02504 5.30322 3.02504C5.30323 3.02504 5.30325 3.02504 5.30326 3.02504C5.30327 3.02504 5.30329 3.02504 5.3033 3.02504C5.30332 3.02504 5.30333 3.02504 5.30335 3.02504C5.30336 3.02504 5.30337 3.02504 5.30339 3.02504C5.3034 3.02504 5.30342 3.02504 5.30343 3.02504C5.30344 3.02504 5.30346 3.02504 5.30347 3.02504C5.30349 3.02504 5.3035 3.02504 5.30352 3.02504C5.30353 3.02504 5.30354 3.02504 5.30356 3.02504C5.30357 3.02504 5.30359 3.02504 5.3036 3.02504C5.30361 3.02504 5.30363 3.02504 5.30364 3.02504C5.30366 3.02504 5.30367 3.02504 5.30369 3.02504C5.3037 3.02504 5.30371 3.02504 5.30373 3.02504C5.30374 3.02504 5.30376 3.02504 5.30377 3.02504C5.30378 3.02504 5.3038 3.02504 5.30381 3.02504C5.30383 3.02504 5.30384 3.02504 5.30385 3.02504C5.30387 3.02504 5.30388 3.02504 5.3039 3.02504C5.30391 3.02504 5.30393 3.02504 5.30394 3.02504C5.30395 3.02504 5.30397 3.02504 5.30398 3.02504C5.304 3.02504 5.30401 3.02504 5.30402 3.02504C5.30404 3.02504 5.30405 3.02504 5.30407 3.02504C5.30408 3.02504 5.3041 3.02504 5.30411 3.02504C5.30412 3.02504 5.30414 3.02504 5.30415 3.02504C5.30417 3.02504 5.30418 3.02504 5.30419 3.02504C5.30421 3.02504 5.30422 3.02504 5.30424 3.02504C5.30425 3.02504 5.30427 3.02504 5.30428 3.02504C5.30429 3.02504 5.30431 3.02504 5.30432 3.02504C5.30434 3.02504 5.30435 3.02504 5.30436 3.02504C5.30438 3.02504 5.30439 3.02504 5.30441 3.02504C5.30442 3.02504 5.30444 3.02504 5.30445 3.02504C5.30446 3.02504 5.30448 3.02504 5.30449 3.02504C5.30451 3.02504 5.30452 3.02504 5.30453 3.02504C5.30455 3.02504 5.30456 3.02504 5.30458 3.02504C5.30459 3.02504 5.3046 3.02504 5.30462 3.02504C5.30463 3.02504 5.30465 3.02504 5.30466 3.02504C5.30468 3.02504 5.30469 3.02504 5.3047 3.02504C5.30472 3.02504 5.30473 3.02504 5.30475 3.02504C5.30476 3.02504 5.30477 3.02504 5.30479 3.02504C5.3048 3.02504 5.30482 3.02504 5.30483 3.02504C5.30485 3.02504 5.30486 3.02504 5.30487 3.02504C5.30489 3.02504 5.3049 3.02504 5.30492 3.02504C5.30493 3.02504 5.30494 3.02504 5.30496 3.02504C5.30497 3.02504 5.30499 3.02504 5.305 3.02504C5.30502 3.02504 5.30503 3.02504 5.30504 3.02504C5.30506 3.02504 5.30507 3.02504 5.30509 3.02504C5.3051 3.02504 5.30511 3.02504 5.30513 3.02504C5.30514 3.02504 5.30516 3.02504 5.30517 3.02504C5.30518 3.02504 5.3052 3.02504 5.30521 3.02504C5.30523 3.02504 5.30524 3.02504 5.30526 3.02504C5.30527 3.02504 5.30528 3.02504 5.3053 3.02504C5.30531 3.02504 5.30533 3.02504 5.30534 3.02504C5.30535 3.02504 5.30537 3.02504 5.30538 3.02504C5.3054 3.02504 5.30541 3.02504 5.30543 3.02504C5.30544 3.02504 5.30545 3.02504 5.30547 3.02504C5.30548 3.02504 5.3055 3.02504 5.30551 3.02504C5.30552 3.02504 5.30554 3.02504 5.30555 3.02504C5.30557 3.02504 5.30558 3.02504 5.3056 3.02504C5.30561 3.02504 5.30562 3.02504 5.30564 3.02504C5.30565 3.02504 5.30567 3.02504 5.30568 3.02504C5.30569 3.02504 5.30571 3.02504 5.30572 3.02504C5.30574 3.02504 5.30575 3.02504 5.30576 3.02504C5.30578 3.02504 5.30579 3.02504 5.30581 3.02504C5.30582 3.02504 5.30584 3.02504 5.30585 3.02504C5.30586 3.02504 5.30588 3.02504 5.30589 3.02504C5.30591 3.02504 5.30592 3.02504 5.30593 3.02504C5.30595 3.02504 5.30596 3.02504 5.30598 3.02504C5.30599 3.02504 5.30601 3.02504 5.30602 3.02504C5.30603 3.02504 5.30605 3.02504 5.30606 3.02504C5.30608 3.02504 5.30609 3.02504 5.3061 3.02504C5.30612 3.02504 5.30613 3.02504 5.30615 3.02504C5.30616 3.02504 5.30618 3.02504 5.30619 3.02504C5.3062 3.02504 5.30622 3.02504 5.30623 3.02504C5.30625 3.02504 5.30626 3.02504 5.30627 3.02504C5.30629 3.02504 5.3063 3.02504 5.30632 3.02504C5.30633 3.02504 5.30634 3.02504 5.30636 3.02504C5.30637 3.02504 5.30639 3.02504 5.3064 3.02504C5.30642 3.02504 5.30643 3.02504 5.30644 3.02504C5.30646 3.02504 5.30647 3.02504 5.30649 3.02504C5.3065 3.02504 5.30651 3.02504 5.30653 3.02504C5.30654 3.02504 5.30656 3.02504 5.30657 3.02504C5.30659 3.02504 5.3066 3.02504 5.30661 3.02504C5.30663 3.02504 5.30664 3.02504 5.30666 3.02504C5.30667 3.02504 5.30668 3.02504 5.3067 3.02504C5.30671 3.02504 5.30673 3.02504 5.30674 3.02504C5.30676 3.02504 5.30677 3.02504 5.30678 3.02504C5.3068 3.02504 5.30681 3.02504 5.30683 3.02504C5.30684 3.02504 5.30685 3.02504 5.30687 3.02504C5.30688 3.02504 5.3069 3.02504 5.30691 3.02504C5.30693 3.02504 5.30694 3.02504 5.30695 3.02504C5.30697 3.02504 5.30698 3.02504 5.307 3.02504C5.30701 3.02504 5.30702 3.02504 5.30704 3.02504C5.30705 3.02504 5.30707 3.02504 5.30708 3.02504C5.30709 3.02504 5.30711 3.02504 5.30712 3.02504C5.30714 3.02504 5.30715 3.02504 5.30717 3.02504C5.30718 3.02504 5.30719 3.02504 5.30721 3.02504C5.30722 3.02504 5.30724 3.02504 5.30725 3.02504C5.30726 3.02504 5.30728 3.02504 5.30729 3.02504C5.30731 3.02504 5.30732 3.02504 5.30734 3.02504C5.30735 3.02504 5.30736 3.02504 5.30738 3.02504C5.30739 3.02504 5.30741 3.02504 5.30742 3.02504C5.30743 3.02504 5.30745 3.02504 5.30746 3.02504C5.30748 3.02504 5.30749 3.02504 5.30751 3.02504C5.30752 3.02504 5.30753 3.02504 5.30755 3.02504C5.30756 3.02504 5.30758 3.02504 5.30759 3.02504C5.3076 3.02504 5.30762 3.02504 5.30763 3.02504C5.30765 3.02504 5.30766 3.02504 5.30767 3.02504C5.30769 3.02504 5.3077 3.02504 5.30772 3.02504C5.30773 3.02504 5.30775 3.02504 5.30776 3.02504C5.30777 3.02504 5.30779 3.02504 5.3078 3.02504C5.30782 3.02504 5.30783 3.02504 5.30784 3.02504C5.30786 3.02504 5.30787 3.02504 5.30789 3.02504C5.3079 3.02504 5.30792 3.02504 5.30793 3.02504C5.30794 3.02504 5.30796 3.02504 5.30797 3.02504C5.30799 3.02504 5.308 3.02504 5.30801 3.02504C5.30803 3.02504 5.30804 3.02504 5.30806 3.02504C5.30807 3.02504 5.30809 3.02504 5.3081 3.02504C5.30811 3.02504 5.30813 3.02504 5.30814 3.02504C5.30816 3.02504 5.30817 3.02504 5.30818 3.02504C5.3082 3.02504 5.30821 3.02504 5.30823 3.02504C5.30824 3.02504 5.30825 3.02504 5.30827 3.02504C5.30828 3.02504 5.3083 3.02504 5.30831 3.02504C5.30833 3.02504 5.30834 3.02504 5.30835 3.02504C5.30837 3.02504 5.30838 3.02504 5.3084 3.02504C5.30841 3.02504 5.30842 3.02504 5.30844 3.02504C5.30845 3.02504 5.30847 3.02504 5.30848 3.02504C5.3085 3.02504 5.30851 3.02504 5.30852 3.02504C5.30854 3.02504 5.30855 3.02504 5.30857 3.02504C5.30858 3.02504 5.30859 3.02504 5.30861 3.02504C5.30862 3.02504 5.30864 3.02504 5.30865 3.02504C5.30867 3.02504 5.30868 3.02504 5.30869 3.02504C5.30871 3.02504 5.30872 3.02504 5.30874 3.02504C5.30875 3.02504 5.30876 3.02504 5.30878 3.02504C5.30879 3.02504 5.30881 3.02504 5.30882 3.02504C5.30884 3.02504 5.30885 3.02504 5.30886 3.02504C5.30888 3.02504 5.30889 3.02504 5.30891 3.02504C5.30892 3.02504 5.30893 3.02504 5.30895 3.02504C5.30896 3.02504 5.30898 3.02504 5.30899 3.02504C5.309 3.02504 5.30902 3.02504 5.30903 3.02504C5.30905 3.02504 5.30906 3.02504 5.30908 3.02504C5.30909 3.02504 5.3091 3.02504 5.30912 3.02504C5.30913 3.02504 5.30915 3.02504 5.30916 3.02504C5.30917 3.02504 5.30919 3.02504 5.3092 3.02504C5.30922 3.02504 5.30923 3.02504 5.30925 3.02504C5.30926 3.02504 5.30927 3.02504 5.30929 3.02504C5.3093 3.02504 5.30932 3.02504 5.30933 3.02504C5.30934 3.02504 5.30936 3.02504 5.30937 3.02504C5.30939 3.02504 5.3094 3.02504 5.30942 3.02504C5.30943 3.02504 5.30944 3.02504 5.30946 3.02504C5.30947 3.02504 5.30949 3.02504 5.3095 3.02504C5.30951 3.02504 5.30953 3.02504 5.30954 3.02504C5.30956 3.02504 5.30957 3.02504 5.30958 3.02504C5.3096 3.02504 5.30961 3.02504 5.30963 3.02504C5.30964 3.02504 5.30966 3.02504 5.30967 3.02504C5.30968 3.02504 5.3097 3.02504 5.30971 3.02504C5.30973 3.02504 5.30974 3.02504 5.30975 3.02504C5.30977 3.02504 5.30978 3.02504 5.3098 3.02504C5.30981 3.02504 5.30983 3.02504 5.30984 3.02504C5.30985 3.02504 5.30987 3.02504 5.30988 3.02504C5.3099 3.02504 5.30991 3.02504 5.30992 3.02504C5.30994 3.02504 5.30995 3.02504 5.30997 3.02504C5.30998 3.02504 5.31 3.02504 5.31001 3.02504C5.31002 3.02504 5.31004 3.02504 5.31005 3.02504C5.31007 3.02504 5.31008 3.02504 5.31009 3.02504C5.31011 3.02504 5.31012 3.02504 5.31014 3.02504C5.31015 3.02504 5.31016 3.02504 5.31018 3.02504C5.31019 3.02504 5.31021 3.02504 5.31022 3.02504C5.31024 3.02504 5.31025 3.02504 5.31026 3.02504C5.31028 3.02504 5.31029 3.02504 5.31031 3.02504C5.31032 3.02504 5.31033 3.02504 5.31035 3.02504C5.31036 3.02504 5.31038 3.02504 5.31039 3.02504C5.31041 3.02504 5.31042 3.02504 5.31043 3.02504C5.31045 3.02504 5.31046 3.02504 5.31048 3.02504C5.31049 3.02504 5.3105 3.02504 5.31052 3.02504C5.31053 3.02504 5.31055 3.02504 5.31056 3.02504C5.31058 3.02504 5.31059 3.02504 5.3106 3.02504C5.31062 3.02504 5.31063 3.02504 5.31065 3.02504C5.31066 3.02504 5.31067 3.02504 5.31069 3.02504C5.3107 3.02504 5.31072 3.02504 5.31073 3.02504C5.31075 3.02504 5.31076 3.02504 5.31077 3.02504C5.31079 3.02504 5.3108 3.02504 5.31082 3.02504C5.31083 3.02504 5.31084 3.02504 5.31086 3.02504C5.31087 3.02504 5.31089 3.02504 5.3109 3.02504C5.31091 3.02504 5.31093 3.02504 5.31094 3.02504C5.31096 3.02504 5.31097 3.02504 5.31099 3.02504C5.311 3.02504 5.31101 3.02504 5.31103 3.02504C5.31104 3.02504 5.31106 3.02504 5.31107 3.02504C5.31108 3.02504 5.3111 3.02504 5.31111 3.02504C5.31113 3.02504 5.31114 3.02504 5.31116 3.02504C5.31117 3.02504 5.31118 3.02504 5.3112 3.02504C5.31121 3.02504 5.31123 3.02504 5.31124 3.02504C5.31125 3.02504 5.31127 3.02504 5.31128 3.02504C5.3113 3.02504 5.31131 3.02504 5.31133 3.02504C5.31134 3.02504 5.31135 3.02504 5.31137 3.02504C5.31138 3.02504 5.3114 3.02504 5.31141 3.02504C5.31142 3.02504 5.31144 3.02504 5.31145 3.02504C5.31147 3.02504 5.31148 3.02504 5.31149 3.02504C5.31151 3.02504 5.31152 3.02504 5.31154 3.02504C5.31155 3.02504 5.31157 3.02504 5.31158 3.02504C5.31159 3.02504 5.31161 3.02504 5.31162 3.02504C5.31164 3.02504 5.31165 3.02504 5.31166 3.02504C5.31168 3.02504 5.31169 3.02504 5.31171 3.02504C5.31172 3.02504 5.31174 3.02504 5.31175 3.02504C5.31176 3.02504 5.31178 3.02504 5.31179 3.02504C5.31181 3.02504 5.31182 3.02504 5.31183 3.02504C5.31185 3.02504 5.31186 3.02504 5.31188 3.02504C5.31189 3.02504 5.31191 3.02504 5.31192 3.02504C5.31193 3.02504 5.31195 3.02504 5.31196 3.02504C5.31198 3.02504 5.31199 3.02504 5.312 3.02504C5.31202 3.02504 5.31203 3.02504 5.31205 3.02504C5.31206 3.02504 5.31207 3.02504 5.31209 3.02504C5.3121 3.02504 5.31212 3.02504 5.31213 3.02504C5.31215 3.02504 5.31216 3.02504 5.31217 3.02504C5.31219 3.02504 5.3122 3.02504 5.31222 3.02504C5.31223 3.02504 5.31224 3.02504 5.31226 3.02504C5.31227 3.02504 5.31229 3.02504 5.3123 3.02504C5.31232 3.02504 5.31233 3.02504 5.31234 3.02504C5.31236 3.02504 5.31237 3.02504 5.31239 3.02504C5.3124 3.02504 5.31241 3.02504 5.31243 3.02504C5.31244 3.02504 5.31246 3.02504 5.31247 3.02504C5.31249 3.02504 5.3125 3.02504 5.31251 3.02504C5.31253 3.02504 5.31254 3.02504 5.31256 3.02504C5.31257 3.02504 5.31258 3.02504 5.3126 3.02504C5.31261 3.02504 5.31263 3.02504 5.31264 3.02504C5.31265 3.02504 5.31267 3.02504 5.31268 3.02504C5.3127 3.02504 5.31271 3.02504 5.31273 3.02504C5.31274 3.02504 5.31275 3.02504 5.31277 3.02504C5.31278 3.02504 5.3128 3.02504 5.31281 3.02504C5.31282 3.02504 5.31284 3.02504 5.31285 3.02504C5.31287 3.02504 5.31288 3.02504 5.3129 3.02504C5.31291 3.02504 5.31292 3.02504 5.31294 3.02504C5.31295 3.02504 5.31297 3.02504 5.31298 3.02504C5.31299 3.02504 5.31301 3.02504 5.31302 3.02504C5.31304 3.02504 5.31305 3.02504 5.31307 3.02504C5.31308 3.02504 5.31309 3.02504 5.31311 3.02504C5.31312 3.02504 5.31314 3.02504 5.31315 3.02504C5.31316 3.02504 5.31318 3.02504 5.31319 3.02504C5.31321 3.02504 5.31322 3.02504 5.31324 3.02504C5.31325 3.02504 5.31326 3.02504 5.31328 3.02504C5.31329 3.02504 5.31331 3.02504 5.31332 3.02504C5.31333 3.02504 5.31335 3.02504 5.31336 3.02504C5.31338 3.02504 5.31339 3.02504 5.3134 3.02504C5.31342 3.02504 5.31343 3.02504 5.31345 3.02504C5.31346 3.02504 5.31348 3.02504 5.31349 3.02504C5.3135 3.02504 5.31352 3.02504 5.31353 3.02504C5.31355 3.02504 5.31356 3.02504 5.31357 3.02504C5.31359 3.02504 5.3136 3.02504 5.31362 3.02504C5.31363 3.02504 5.31365 3.02504 5.31366 3.02504C5.31367 3.02504 5.31369 3.02504 5.3137 3.02504C5.31372 3.02504 5.31373 3.02504 5.31374 3.02504C5.31376 3.02504 5.31377 3.02504 5.31379 3.02504C5.3138 3.02504 5.31382 3.02504 5.31383 3.02504V2.62504ZM5.2921 2.62504L5.29188 2.22504C5.10515 2.22514 4.92475 2.29272 4.78391 2.41533L5.04655 2.71702L5.3092 3.01871C5.30452 3.02279 5.29852 3.02503 5.29231 3.02504L5.2921 2.62504ZM5.04655 2.71702L4.78391 2.41533C4.64307 2.53794 4.55129 2.70732 4.52547 2.89226L4.92163 2.94756L5.31779 3.00286C5.31693 3.00901 5.31388 3.01464 5.3092 3.01871L5.04655 2.71702ZM4.92163 2.94756L4.52547 2.89225L2.5136 17.3027L2.90976 17.358L3.30592 17.4133L5.31779 3.00287L4.92163 2.94756ZM2.90976 17.358L2.51379 17.3013C2.50341 17.3739 2.50341 17.4475 2.51379 17.5201L2.90976 17.4634L3.30572 17.4067C3.3061 17.4094 3.3061 17.4121 3.30572 17.4147L2.90976 17.358ZM2.90976 17.4634L2.51387 17.5206L2.88813 20.1096L3.28402 20.0524L3.6799 19.9951L3.30564 17.4062L2.90976 17.4634ZM3.28402 20.0524L2.88826 20.1104C2.91526 20.2945 3.00766 20.4627 3.14853 20.5843L3.40983 20.2814L3.67113 19.9785C3.67581 19.9826 3.67889 19.9882 3.67978 19.9943L3.28402 20.0524ZM3.40983 20.2814L3.14853 20.5843C3.2894 20.7058 3.46932 20.7725 3.65538 20.7723L3.65483 20.3723L3.65428 19.9723C3.66047 19.9723 3.66645 19.9745 3.67113 19.9785L3.40983 20.2814ZM3.65483 20.3723V20.7723H5.18603V20.3723V19.9723H3.65483V20.3723ZM5.18603 20.3723L4.78621 20.3602C4.77648 20.6811 4.74943 21.0012 4.70516 21.3192L5.10135 21.3743L5.49753 21.4295C5.54576 21.083 5.57524 20.7341 5.58584 20.3844L5.18603 20.3723ZM5.10135 21.3743L5.29977 21.7217C5.54873 21.5794 5.78807 21.421 6.01623 21.2473L5.77398 20.929L5.53173 20.6107C5.33148 20.7631 5.12143 20.9022 4.90292 21.027L5.10135 21.3743ZM5.77398 20.929C5.41276 21.1008 5.41291 21.1012 5.41306 21.1015C5.41311 21.1016 5.41326 21.1019 5.41337 21.1021C5.41357 21.1025 5.41377 21.103 5.41398 21.1034C5.41439 21.1042 5.41481 21.1051 5.41524 21.106C5.41609 21.1077 5.41698 21.1095 5.41789 21.1112C5.41972 21.1148 5.42166 21.1185 5.42374 21.1223C5.42789 21.13 5.43255 21.138 5.43777 21.1465C5.44823 21.1635 5.46092 21.1821 5.47632 21.2024C5.5071 21.2427 5.54876 21.2894 5.60525 21.3418C5.71769 21.446 5.89202 21.5756 6.16463 21.7251L6.35693 21.3743L6.54923 21.0236C6.31979 20.8978 6.20264 20.8047 6.14912 20.7551C6.12263 20.7306 6.11268 20.7175 6.11261 20.7174C6.11258 20.7174 6.11503 20.7206 6.1191 20.7272C6.12113 20.7305 6.12356 20.7347 6.12628 20.7397C6.12765 20.7422 6.12908 20.7449 6.13057 20.7478C6.13131 20.7493 6.13207 20.7508 6.13285 20.7523C6.13323 20.7531 6.13362 20.7539 6.13401 20.7547C6.13421 20.7551 6.13441 20.7556 6.13461 20.756C6.1347 20.7562 6.13485 20.7565 6.1349 20.7566C6.13505 20.7569 6.1352 20.7572 5.77398 20.929ZM6.35693 21.3743C6.75624 21.3979 6.75624 21.3979 6.75624 21.3979C6.75624 21.3979 6.75624 21.3978 6.75624 21.3978C6.75624 21.3978 6.75625 21.3978 6.75625 21.3977C6.75625 21.3977 6.75626 21.3975 6.75627 21.3974C6.75628 21.3971 6.75631 21.3968 6.75634 21.3962C6.75639 21.3952 6.75648 21.3938 6.75659 21.3919C6.75681 21.388 6.75713 21.3824 6.75754 21.3752C6.75837 21.3606 6.75955 21.3393 6.76101 21.3123C6.76392 21.2581 6.76793 21.1807 6.77236 21.0868C6.78119 20.8994 6.79172 20.6458 6.79837 20.3824L6.3985 20.3723L5.99863 20.3622C5.99217 20.6179 5.98191 20.8653 5.97324 21.0492C5.96891 21.141 5.96499 21.2167 5.96216 21.2693C5.96075 21.2956 5.9596 21.3161 5.95882 21.33C5.95843 21.3369 5.95812 21.3422 5.95792 21.3457C5.95782 21.3475 5.95774 21.3488 5.95769 21.3496C5.95767 21.3501 5.95765 21.3504 5.95764 21.3506C5.95763 21.3507 5.95763 21.3507 5.95763 21.3508C5.95763 21.3508 5.95763 21.3508 5.95763 21.3508C5.95762 21.3508 5.95763 21.3508 5.95762 21.3508C5.95763 21.3508 5.95763 21.3508 6.35693 21.3743ZM6.3985 20.3723V20.7723H20.3257V20.3723V19.9723H6.3985V20.3723ZM20.3257 20.3723L20.3255 20.7723C20.4417 20.7723 20.5563 20.7463 20.661 20.696L20.4879 20.3354L20.3147 19.9748C20.3182 19.9732 20.322 19.9723 20.3258 19.9723L20.3257 20.3723ZM20.4879 20.3354L20.661 20.696C20.7657 20.6457 20.8577 20.5725 20.9303 20.4819L20.618 20.2319L20.3057 19.9819C20.3082 19.9789 20.3112 19.9765 20.3147 19.9748L20.4879 20.3354ZM20.618 20.2319L20.9303 20.4819C21.0029 20.3912 21.0541 20.2854 21.0802 20.1722L20.6905 20.0822L20.3008 19.9922C20.3016 19.9885 20.3033 19.985 20.3057 19.9819L20.618 20.2319ZM20.6905 20.0822L21.0802 20.1722C21.1064 20.0591 21.1067 19.9415 21.0812 19.8282L20.691 19.9159L20.3007 20.0037C20.2999 19.9999 20.2999 19.996 20.3008 19.9922L20.6905 20.0822ZM20.691 19.9159L21.0813 19.8282L20.8205 18.6678L20.4302 18.7556L20.0399 18.8433L20.3007 20.0036L20.691 19.9159ZM20.4302 18.7556L20.8247 18.8219L20.9821 17.8859L20.5877 17.8196L20.1932 17.7532L20.0358 18.6892L20.4302 18.7556ZM20.5877 17.8196L20.6783 18.2091L20.8755 18.1633L20.7848 17.7737L20.6941 17.3841L20.497 17.43L20.5877 17.8196ZM20.7848 17.7737L20.8759 18.1632C21.0269 18.1278 21.1636 18.0478 21.2683 17.9336L20.9735 17.6633L20.6786 17.393C20.6827 17.3886 20.6879 17.3855 20.6937 17.3842L20.7848 17.7737ZM20.9735 17.6633V18.0633H20.9769V17.6633V17.2633H20.9735V17.6633ZM20.9769 17.6633H21.3769V17.6595H20.9769H20.5769V17.6633H20.9769ZM20.9769 17.6595L21.2723 17.9293C21.3487 17.8456 21.4058 17.7461 21.4395 17.6378L21.0576 17.519L20.6757 17.4001C20.6769 17.3962 20.6789 17.3927 20.6816 17.3897L20.9769 17.6595ZM21.0576 17.519L21.4395 17.6378C21.4732 17.5296 21.4827 17.4153 21.4672 17.303L21.0709 17.3575L20.6747 17.412C20.6741 17.408 20.6745 17.4039 20.6757 17.4001L21.0576 17.519ZM6.40212 19.6859L6.80202 19.6767C6.80006 19.5913 6.79715 19.5079 6.79238 19.4313L6.39315 19.4561L5.99392 19.481C5.99778 19.543 6.00039 19.6149 6.00223 19.695L6.40212 19.6859ZM6.39315 19.4561L6.38421 19.856L6.70035 19.8631L6.70929 19.4632L6.71824 19.0633L6.4021 19.0562L6.39315 19.4561ZM6.70929 19.4632L6.70216 19.8631L7.84427 19.8835L7.85139 19.4835L7.85852 19.0836L6.71642 19.0633L6.70929 19.4632ZM7.85139 19.4835L7.84549 19.8835L9.12023 19.9023L9.12613 19.5023L9.13202 19.1024L7.85729 19.0836L7.85139 19.4835ZM9.12613 19.5023L9.12169 19.9023L11.8919 19.933L11.8964 19.533L11.9008 19.1331L9.13056 19.1024L9.12613 19.5023ZM11.8964 19.533L11.8938 19.933L13.3011 19.9422L13.3037 19.5422L13.3063 19.1422L11.899 19.1331L11.8964 19.533ZM13.3037 19.5422L13.2987 19.9422C13.7635 19.948 14.2298 19.9453 14.664 19.9477L14.6662 19.5477L14.6684 19.1477C14.2196 19.1453 13.7721 19.1481 13.3088 19.1422L13.3037 19.5422ZM14.6662 19.5477L14.6659 19.9477L15.9408 19.9487L15.9411 19.5487L15.9415 19.1487L14.6666 19.1477L14.6662 19.5477ZM15.9411 19.5487L15.9422 19.9487L17.0847 19.9456L17.0836 19.5456L17.0825 19.1456L15.9401 19.1487L15.9411 19.5487ZM17.0836 19.5456L17.0876 19.9456L18.798 19.9284L18.794 19.5284L18.7899 19.1284L17.0796 19.1457L17.0836 19.5456ZM18.794 19.5284L18.7966 19.9284C19.0048 19.927 19.1801 19.9211 19.2801 19.9194L19.2733 19.5194L19.2664 19.1195C19.1453 19.1216 18.9971 19.127 18.7913 19.1284L18.794 19.5284ZM19.2733 19.5194L19.2822 19.9193L19.4519 19.9155L19.443 19.5156L19.434 19.1157L19.2643 19.1195L19.2733 19.5194ZM19.443 19.5156L19.4694 19.1165L19.3 19.1053L19.2736 19.5044L19.2472 19.9035L19.4166 19.9148L19.443 19.5156ZM19.2736 19.5044L19.298 19.1052C19.1988 19.0991 19.0223 19.0853 18.8152 19.0749L18.7952 19.4744L18.7751 19.8739C18.9802 19.8842 19.1277 19.8963 19.2493 19.9037L19.2736 19.5044ZM18.7952 19.4744L18.8152 19.0749C18.4127 19.0547 17.8111 19.0146 17.1022 18.9868L17.0865 19.3864L17.0708 19.7861C17.7766 19.8138 18.3529 19.8527 18.7751 19.8739L18.7952 19.4744ZM17.0865 19.3864L17.1046 18.9869C16.3942 18.9546 15.5663 18.9266 14.6801 18.9035L14.6697 19.3033L14.6592 19.7032C15.542 19.7262 16.3645 19.7541 17.0684 19.786L17.0865 19.3864ZM14.6697 19.3033L14.6783 18.9034C14.2407 18.894 13.7776 18.8803 13.3112 18.8742L13.306 19.2742L13.3008 19.6741C13.7632 19.6801 14.2142 19.6936 14.6611 19.7032L14.6697 19.3033ZM13.306 19.2742L13.3112 18.8742L11.9031 18.8558L11.8979 19.2557L11.8927 19.6557L13.3007 19.6741L13.306 19.2742ZM11.8979 19.2557L11.8992 18.8557L10.4918 18.8512L10.4905 19.2512L10.4893 19.6512L11.8966 19.6557L11.8979 19.2557ZM10.4905 19.2512L10.4913 18.8512C10.0242 18.8504 9.56427 18.8552 9.1232 18.8588L9.12647 19.2588L9.12975 19.6588C9.57345 19.6552 10.0279 19.6504 10.4898 19.6512L10.4905 19.2512ZM9.12647 19.2588L9.12296 18.8588C8.23537 18.8666 7.40681 18.8841 6.69664 18.905L6.70843 19.3049L6.72022 19.7047C7.42534 19.6839 8.24837 19.6665 9.12998 19.6588L9.12647 19.2588ZM6.70843 19.3049L6.69664 18.905C5.98595 18.926 5.39112 18.9552 4.98235 18.972L4.99873 19.3716L5.0151 19.7713C5.43143 19.7542 6.01561 19.7255 6.72022 19.7047L6.70843 19.3049ZM4.99873 19.3716L4.98207 18.972C4.77137 18.9807 4.60179 18.9924 4.49748 18.9983L4.51995 19.3977L4.54241 19.797C4.65886 19.7905 4.81215 19.7797 5.01538 19.7713L4.99873 19.3716ZM4.51995 19.3977L4.49596 18.9984L4.32659 19.0086L4.35058 19.4078L4.37457 19.8071L4.54393 19.7969L4.51995 19.3977ZM4.35058 19.4078L4.33995 19.8077L4.98879 19.8249L4.99941 19.4251L5.01004 19.0252L4.36121 19.008L4.35058 19.4078ZM4.99941 19.4251L4.99042 19.825L5.17445 19.8291L5.18344 19.4292L5.19244 19.0293L5.00841 19.0252L4.99941 19.4251ZM5.18344 19.4292L4.78389 19.4481C4.78577 19.4879 4.78894 19.5706 4.79129 19.6853L5.1912 19.6771L5.59112 19.6689C5.58864 19.548 5.58525 19.4581 5.583 19.4103L5.18344 19.4292ZM5.1912 19.6771L5.19408 19.2771L3.87606 19.2676L3.87318 19.6676L3.8703 20.0676L5.18832 20.0771L5.1912 19.6771ZM3.87318 19.6676L4.26902 19.61L3.98203 17.6356L3.58619 17.6931L3.19035 17.7507L3.47734 19.7251L3.87318 19.6676ZM3.58619 17.6931L3.5675 18.0927C4.80353 18.1505 7.90546 18.273 11.9907 18.273V17.873V17.473C7.92082 17.473 4.83174 17.351 3.60488 17.2936L3.58619 17.6931ZM11.9907 17.873V18.273C15.9033 18.273 18.9136 18.1605 20.2472 18.1001L20.2291 17.7005L20.211 17.301C18.8865 17.3609 15.8886 17.473 11.9907 17.473V17.873ZM20.2291 17.7005L19.8347 17.6341L19.7417 18.186L20.1361 18.2525L20.5306 18.3189L20.6236 17.767L20.2291 17.7005ZM20.1361 18.2525L20.1117 17.8532L19.5486 17.8877L19.573 18.2869L19.5975 18.6862L20.1606 18.6517L20.1361 18.2525ZM19.573 18.2869L19.5491 18.6862L20.101 18.7193L20.1249 18.3201L20.1489 17.9208L19.597 17.8877L19.573 18.2869ZM20.1249 18.3201L19.7305 18.2537L19.6553 18.7004L20.0497 18.7668L20.4442 18.8332L20.5194 18.3865L20.1249 18.3201ZM20.0497 18.7668L19.6561 18.6958L19.6216 18.8873L20.0152 18.9582L20.4089 19.0291L20.4434 18.8377L20.0497 18.7668ZM20.0152 18.9582L20.004 18.5584L18.4923 18.6008L18.5035 19.0006L18.5148 19.4005L20.0265 19.358L20.0152 18.9582ZM18.5035 19.0006L18.4923 19.4005L19.9885 19.4424L19.9997 19.0425L20.0109 18.6427L18.5147 18.6008L18.5035 19.0006ZM19.9997 19.0425L19.6063 18.9702L19.4699 19.7118L19.8633 19.7842L20.2567 19.8565L20.3931 19.1149L19.9997 19.0425ZM19.8633 19.7842L19.8662 19.3842L6.40504 19.2859L6.40212 19.6859L6.3992 20.0858L19.8604 20.1842L19.8633 19.7842ZM11.9902 17.4988V17.0988C7.52726 17.0988 4.24536 16.9516 3.31482 16.9047L3.29471 17.3042L3.2746 17.7037C4.21469 17.751 7.51048 17.8988 11.9902 17.8988V17.4988ZM3.29471 17.3042L3.69087 17.3595L5.68843 3.05462L5.29227 2.9993L4.89611 2.94398L2.89856 17.2489L3.29471 17.3042ZM5.29227 2.9993C5.2693 3.39864 5.26932 3.39864 5.26936 3.39864C5.26939 3.39864 5.26943 3.39865 5.26949 3.39865C5.26959 3.39866 5.26974 3.39866 5.26992 3.39868C5.2703 3.3987 5.27083 3.39873 5.27153 3.39877C5.27293 3.39885 5.27499 3.39896 5.27769 3.39912C5.2831 3.39942 5.2911 3.39987 5.30165 3.40044C5.32276 3.4016 5.35407 3.40329 5.39524 3.40543C5.47758 3.40971 5.59939 3.41582 5.75793 3.42313C6.07499 3.43776 6.53902 3.45723 7.12817 3.47669C8.3064 3.51562 9.98547 3.55452 11.9907 3.55452V3.15452V2.75452C9.99563 2.75452 8.32549 2.71581 7.15458 2.67713C6.56916 2.65779 6.10863 2.63846 5.79479 2.62398C5.63787 2.61674 5.51763 2.61071 5.4368 2.60651C5.39638 2.60441 5.36582 2.60276 5.34544 2.60164C5.33526 2.60108 5.32762 2.60066 5.32257 2.60038C5.32005 2.60023 5.31817 2.60013 5.31695 2.60006C5.31634 2.60002 5.31589 2.6 5.3156 2.59998C5.31546 2.59997 5.31536 2.59997 5.3153 2.59996C5.31527 2.59996 5.31526 2.59996 5.31524 2.59996C5.31524 2.59996 5.31524 2.59996 5.29227 2.9993ZM11.9907 3.15452V3.55452C13.9959 3.55452 15.675 3.51562 16.8532 3.47669C17.4424 3.45723 17.9064 3.43776 18.2235 3.42313C18.382 3.41582 18.5038 3.40971 18.5862 3.40543C18.6273 3.40329 18.6586 3.4016 18.6797 3.40044C18.6903 3.39987 18.6983 3.39942 18.7037 3.39912C18.7064 3.39896 18.7085 3.39885 18.7099 3.39877C18.7106 3.39873 18.7111 3.3987 18.7115 3.39868C18.7117 3.39866 18.7118 3.39866 18.7119 3.39865C18.712 3.39865 18.712 3.39864 18.712 3.39864C18.7121 3.39864 18.7121 3.39864 18.6891 2.9993C18.6661 2.59996 18.6662 2.59996 18.6661 2.59996C18.6661 2.59996 18.6661 2.59996 18.6661 2.59996C18.666 2.59997 18.6659 2.59997 18.6658 2.59998C18.6655 2.6 18.6651 2.60002 18.6644 2.60006C18.6632 2.60013 18.6613 2.60023 18.6588 2.60038C18.6538 2.60066 18.6461 2.60108 18.6359 2.60164C18.6156 2.60276 18.585 2.60441 18.5446 2.60651C18.4638 2.61071 18.3435 2.61674 18.1866 2.62398C17.8728 2.63846 17.4122 2.65779 16.8268 2.67713C15.6559 2.71581 13.9858 2.75452 11.9907 2.75452V3.15452ZM18.6891 2.9993L18.293 3.05461L20.29 17.3595L20.6862 17.3042L21.0823 17.2489L19.0853 2.94399L18.6891 2.9993ZM20.6862 17.3042L20.666 16.9047C19.7355 16.9516 16.4538 17.0988 11.9907 17.0988V17.4988V17.8988C16.4706 17.8988 19.7662 17.751 20.7063 17.7037L20.6862 17.3042Z" fill="#7C5026" mask="url(#path-1-inside-1_141_709)"/>
<path d="M6.37537 18.1338C6.75136 18.1569 7.15873 18.18 7.59008 18.1989C8.02143 18.2179 8.47589 18.2391 8.94674 18.2495C9.41741 18.2633 9.90378 18.2769 10.3981 18.2817C10.8926 18.2904 11.3948 18.289 11.897 18.2924C12.3993 18.2924 12.9015 18.2828 13.3958 18.2783C13.8901 18.2738 14.3765 18.2536 14.8471 18.2426C15.3178 18.2315 15.7724 18.2064 16.2036 18.1883C16.6348 18.1701 17.042 18.1441 17.418 18.1215C17.794 18.0989 18.1384 18.0775 18.4435 18.051L19.2334 17.9863C19.4523 17.969 19.6241 17.9518 19.7413 17.9411L19.9211 17.9239L19.7405 17.9254C19.6229 17.927 19.45 17.9254 19.2305 17.9313L18.4387 17.9461L17.4118 17.9599L16.1972 17.9782L14.842 17.9954L13.3932 18.0073L11.8972 18.0118C11.3958 18.0118 10.8945 18.0163 10.401 18.0118L8.95226 18.0039L7.59698 17.9911L6.38244 17.9739C5.63029 17.9611 5.00267 17.9537 4.56391 17.9415L3.87402 17.9242C3.87402 17.9242 4.12342 17.9546 4.56098 17.9949C4.99888 18.0313 5.62443 18.0891 6.3764 18.1329" fill="#32200F"/>
<path d="M15.173 19.0384C14.597 19.0147 13.9247 18.994 13.2044 18.9766L12.0937 18.9547L10.947 18.9408C10.1784 18.9368 9.40974 18.9339 8.68915 18.9408C7.96857 18.9477 7.29611 18.958 6.71971 18.9723C6.14331 18.9866 5.66315 19.0068 5.32718 19.0192C4.9912 19.0316 4.79907 19.0451 4.79907 19.0451L6.72023 19.0796L8.68898 19.1055L10.9454 19.1281L13.202 19.1424L15.171 19.1467L16.564 19.14L17.0926 19.1332L16.5649 19.1034C16.2289 19.0884 15.7491 19.0598 15.173 19.0392" fill="#32200F"/>
<path d="M19.3752 18.5401L18.9135 18.5324L17.6969 18.5224L15.9776 18.5201L14.0069 18.5237L10.3171 18.5441L8.63892 18.5603C8.63892 18.5603 8.80639 18.5741 9.09976 18.5915C9.39313 18.6089 9.81224 18.6324 10.3155 18.651C10.8188 18.6696 11.406 18.6878 12.0354 18.6974C12.6647 18.7071 13.3362 18.711 14.0074 18.7116L15.0093 18.7028L15.9794 18.6855C16.6086 18.6707 17.1957 18.6526 17.6988 18.6303C18.2021 18.6115 18.621 18.5838 18.9144 18.5693L19.3752 18.5406" fill="#32200F"/>
<path d="M5.65277 18.5948C5.86164 18.5948 6.0705 18.5964 6.26625 18.592C6.46201 18.5877 6.64483 18.5831 6.80091 18.5748C6.957 18.5665 7.08825 18.5576 7.18035 18.5517C7.27245 18.5458 7.32402 18.5393 7.32402 18.5393C7.32402 18.5393 7.27227 18.5327 7.18052 18.5244C7.08877 18.5162 6.95872 18.5036 6.80212 18.4943C6.64552 18.4849 6.46287 18.4746 6.26746 18.4679C6.07205 18.4611 5.86284 18.4572 5.65398 18.4539C5.44512 18.4539 5.23626 18.4525 5.0405 18.4567C4.84475 18.4608 4.66107 18.4656 4.50584 18.4739C4.35062 18.4822 4.21851 18.4911 4.12641 18.497C4.03431 18.5029 3.98291 18.5093 3.98291 18.5093C3.98291 18.5093 4.03465 18.516 4.12641 18.5243C4.21816 18.5325 4.3482 18.5448 4.50481 18.5543C4.66141 18.5638 4.84406 18.5739 5.03947 18.5807C5.23488 18.5874 5.44391 18.5914 5.65277 18.5948Z" fill="#32200F"/>
<path d="M15.1738 8.33637C15.2002 8.30677 15.2199 8.2719 15.2318 8.23408C15.2437 8.19627 15.2475 8.15635 15.2428 8.11699L15.1372 7.21772C15.1292 7.14938 15.0964 7.08636 15.045 7.04063C14.9936 6.99491 14.9272 6.96967 14.8583 6.96971H13.1585C13.1825 6.92537 13.194 6.87537 13.1919 6.82501L13.1599 6.03992C13.1569 5.96753 13.126 5.8991 13.0738 5.84892C13.0215 5.79875 12.9519 5.77072 12.8794 5.77069H12.668V5.69498C12.6665 5.62155 12.6363 5.55163 12.5838 5.50023C12.5313 5.44883 12.4608 5.42004 12.3874 5.42006H11.4075C11.3341 5.42004 11.2636 5.44883 11.2111 5.50023C11.1586 5.55163 11.1284 5.62155 11.1269 5.69498L11.1254 5.77069H10.9146C10.8422 5.77072 10.7725 5.79875 10.7203 5.84892C10.668 5.8991 10.6372 5.96753 10.6342 6.03992L10.6021 6.82483C10.6 6.87518 10.6115 6.92516 10.6354 6.96954H8.93552C8.86674 6.96954 8.80036 6.9948 8.74898 7.04052C8.6976 7.08624 8.6648 7.14924 8.65681 7.21755L8.55126 8.11681C8.5466 8.15617 8.55034 8.19607 8.56222 8.23388C8.57411 8.27169 8.59386 8.30656 8.6202 8.33618C8.64653 8.36581 8.67884 8.38951 8.71499 8.40575C8.75115 8.42198 8.79034 8.43037 8.82997 8.43037H11.0704L11.0486 9.48244L10.798 9.33601C10.7563 9.3116 10.709 9.29838 10.6607 9.29764C10.6123 9.29689 10.5646 9.30864 10.5222 9.33175C10.4797 9.35486 10.444 9.38855 10.4183 9.42954C10.3927 9.47054 10.3781 9.51745 10.376 9.56574L10.3243 10.7109C10.322 10.7612 10.3333 10.8111 10.3569 10.8555C10.3805 10.8999 10.4157 10.9371 10.4586 10.9633L11.0105 11.2999L10.9346 14.9679C10.9339 15.0052 10.9406 15.0423 10.9544 15.077C10.9682 15.1118 10.9887 15.1434 11.0149 15.1701C11.041 15.1967 11.0722 15.2179 11.1067 15.2324C11.1411 15.2469 11.1781 15.2543 11.2154 15.2543H12.5779C12.6153 15.2543 12.6523 15.2469 12.6867 15.2324C12.7211 15.2179 12.7523 15.1967 12.7785 15.1701C12.8046 15.1434 12.8252 15.1118 12.839 15.077C12.8527 15.0423 12.8595 15.0052 12.8587 14.9679L12.8059 12.3936L13.1369 12.5954C13.1804 12.6218 13.2303 12.636 13.2812 12.6363C13.3321 12.6366 13.3822 12.6231 13.426 12.5972C13.4698 12.5712 13.5057 12.5339 13.5299 12.4891C13.5542 12.4443 13.5657 12.3937 13.5634 12.3429L13.5051 11.0666C13.503 11.0198 13.4892 10.9742 13.4649 10.9341C13.4407 10.8941 13.4068 10.8607 13.3663 10.837L12.7663 10.4862L12.7237 8.43054H14.9641C15.0037 8.43051 15.0429 8.4221 15.079 8.40587C15.1151 8.38964 15.1474 8.36596 15.1738 8.33637ZM12.4888 10.6492L13.2244 11.0792L13.2827 12.3555L12.5143 11.8867L12.5781 14.9727H11.2156L11.2948 11.1439L10.6049 10.723L10.6566 9.57781L11.3196 9.96536L11.3572 8.14976H8.82997L8.93552 7.25049H11.3755L11.3841 6.83656H10.8825L10.9146 6.05165H11.4003L11.4075 5.70084H12.3865L12.3937 6.05165H12.8794L12.9115 6.83656H12.4093L12.4179 7.25049H14.8583L14.9639 8.14976H12.437L12.4888 10.6492Z" fill="#32200F"/>
<path d="M4.95415 6.43803C4.89982 6.80764 4.84256 7.19691 4.78323 7.60049C4.72683 8.00407 4.66457 8.42059 4.60852 8.84469C4.55247 9.2688 4.49365 9.69946 4.43605 10.1301C4.38138 10.5613 4.32653 10.9925 4.27272 11.4169C4.21891 11.8414 4.17113 12.2598 4.12181 12.6642C4.02609 13.4735 3.94244 14.2296 3.87604 14.8784C3.73996 16.1756 3.67407 17.0436 3.67407 17.0436C3.67407 17.0436 3.83361 16.1878 4.03626 14.8993C4.13871 14.2551 4.25202 13.5023 4.36741 12.6961C4.42363 12.2926 4.48641 11.8762 4.54195 11.4521C4.59748 11.028 4.65664 10.5972 4.71442 10.1665L4.87757 8.8797C4.93242 8.45543 4.97916 8.03701 5.02831 7.63239C5.07454 7.22761 5.11921 6.83627 5.16163 6.46511C5.20406 6.09395 5.24045 5.74263 5.27408 5.41821C5.40947 4.12106 5.47588 3.25301 5.47588 3.25301C5.47588 3.25301 5.31634 4.1083 5.11369 5.39752C5.06195 5.71952 5.00779 6.06843 4.95346 6.43803" fill="#32200F"/>
<path d="M17.055 16.1871L16.2582 16.1926L14.2646 16.2033L13.1404 16.2049C12.7576 16.2074 12.3688 16.2049 11.9799 16.2026C11.591 16.2052 11.202 16.2005 10.8192 16.1995L9.69465 16.1938L7.70089 16.1812L6.28921 16.1766H5.75317C5.75317 16.1766 5.94686 16.1995 6.28645 16.2314C6.62605 16.2633 7.11173 16.3045 7.6952 16.3409C8.27849 16.3804 8.95992 16.413 9.69017 16.4391C10.0553 16.4489 10.4327 16.4639 10.8162 16.4687C11.1998 16.4736 11.5896 16.4812 11.9794 16.4818C12.3692 16.4825 12.7589 16.4803 13.1427 16.4746C13.5263 16.4725 13.9038 16.4603 14.2691 16.4491C14.6344 16.4379 14.9874 16.4248 15.322 16.407C15.6566 16.3892 15.9729 16.3749 16.2646 16.3523L17.0604 16.293L17.673 16.2338L18.2059 16.1766L17.6697 16.1795L17.055 16.1871Z" fill="#32200F"/>
<path d="M8.49869 4.35075C8.97264 4.38024 9.5261 4.40438 10.1199 4.42405C10.4166 4.43163 10.7236 4.44267 11.034 4.44664C11.3445 4.45061 11.6622 4.45613 11.9788 4.45647C12.6119 4.45647 13.2453 4.45181 13.8387 4.43232C14.1356 4.4256 14.4222 4.41421 14.6942 4.40076C14.9662 4.38731 15.223 4.37696 15.46 4.35989C15.9341 4.33195 16.3284 4.29607 16.6043 4.27089L17.0379 4.22898L16.6026 4.23467L16.1034 4.24502C15.9106 4.24623 15.6933 4.24778 15.4562 4.25261L14.6906 4.26106L13.8363 4.26761L12.9222 4.27055C12.6118 4.27296 12.2951 4.27055 11.9792 4.26934C11.663 4.27124 11.347 4.26727 11.0359 4.26606L10.1218 4.25985L8.50162 4.24381L6.92041 4.22898C6.92041 4.22898 7.07788 4.24623 7.354 4.26899C7.63013 4.29176 8.02457 4.32401 8.49869 4.35075Z" fill="#32200F"/>
<path d="M10.3654 7.34383L9.82768 7.34193L9.29009 7.34607L9.03345 7.35039C9.02966 7.35039 9.02431 7.35038 9.02172 7.35142L9.02034 7.36384L9.01776 7.38729L9.01465 7.41592C9.01258 7.4349 9.01068 7.4537 9.00879 7.47198C9.00488 7.50889 9.00108 7.54441 8.99741 7.57856C8.97222 7.85193 8.95532 8.03423 8.95532 8.03423L9.02345 7.58167L9.03794 7.4756C9.04058 7.45732 9.04317 7.43869 9.0457 7.41972L9.04949 7.39109C9.05122 7.3866 9.04949 7.38264 9.05294 7.38333L9.29095 7.3866L9.8282 7.38867L10.3654 7.38436L10.8342 7.37626L11.2918 7.36229L10.8344 7.35073L10.3654 7.34452" fill="#32200F"/>
<path d="M11.1446 6.10808L10.983 6.11429L10.9777 6.20501C10.9754 6.2771 10.9732 6.34936 10.9711 6.41697C10.969 6.48458 10.9701 6.54805 10.9697 6.60221C10.9709 6.71069 10.9746 6.78313 10.9746 6.78313C10.9746 6.78313 10.9846 6.71121 10.9959 6.60341C11.0004 6.54943 11.0058 6.48631 11.0115 6.41887C11.0172 6.35143 11.0201 6.27917 11.0244 6.20707L11.0254 6.17258V6.15844L11.1462 6.15016L11.3305 6.13291C11.4385 6.12118 11.5103 6.11066 11.5103 6.11066C11.5103 6.11066 11.4376 6.10739 11.3293 6.1067L11.1441 6.10894" fill="#32200F"/>
<path d="M11.9359 5.76313L11.7462 5.75398L11.5565 5.75105H11.4438L11.4483 5.83729C11.4559 5.93404 11.4637 5.99838 11.4637 5.99838C11.4637 5.99838 11.4695 5.9337 11.4745 5.83677C11.4745 5.81487 11.4766 5.78382 11.4766 5.78382L11.484 5.78503L11.5075 5.78675L11.5553 5.79038L11.745 5.79969L11.9347 5.80262L12.1003 5.8009C12.1974 5.79762 12.2621 5.79279 12.2621 5.79279C12.2621 5.79279 12.1977 5.78399 12.1011 5.77451L11.9359 5.76209" fill="#32200F"/>
<path d="M12.5947 6.1607L12.6637 6.1626L12.7316 6.15846L12.7908 6.15035C12.8253 6.14345 12.8484 6.13621 12.8484 6.13621C12.8484 6.13621 12.8251 6.12983 12.7904 6.12413L12.7309 6.11793L12.6619 6.11603L12.594 6.12017L12.5348 6.12827C12.5003 6.13517 12.4771 6.14242 12.4771 6.14242C12.4771 6.14242 12.5003 6.1488 12.5352 6.15449L12.5947 6.1607Z" fill="#32200F"/>
<path d="M14.0635 7.31622L13.6604 7.31311L13.2575 7.31622L12.9059 7.32346C12.7001 7.32967 12.563 7.33657 12.563 7.33657C12.563 7.33657 12.7001 7.34329 12.9059 7.34967L13.2575 7.35675L13.6604 7.35985L14.0635 7.35675L14.415 7.34967C14.6209 7.34347 14.758 7.33657 14.758 7.33657C14.758 7.33657 14.62 7.32967 14.415 7.32329L14.0635 7.31622Z" fill="#32200F"/>
<path d="M10.8278 9.75843L10.7642 9.72014L10.7354 9.7029L10.7209 9.6941L10.7135 9.68979L10.7099 9.68755C10.7097 9.68886 10.7097 9.6902 10.7099 9.69151L10.7062 9.7605C10.7035 9.80845 10.7007 9.85726 10.6978 9.90607C10.6942 10.0033 10.6907 10.1006 10.6873 10.1917C10.6838 10.2827 10.684 10.3681 10.6826 10.4411C10.6835 10.5873 10.684 10.6848 10.684 10.6848C10.684 10.6848 10.694 10.5878 10.7088 10.4433C10.7144 10.3705 10.7207 10.2857 10.7278 10.1948L10.7451 9.90952C10.7468 9.86105 10.7485 9.81276 10.7502 9.76516C10.7502 9.76257 10.7502 9.76067 10.7528 9.76292L10.8089 9.79517L11.027 9.9159L11.2431 10.028L11.0401 9.89296L10.8289 9.76016" fill="#32200F"/>
<path d="M12.7467 10.9293L12.8566 10.9951L12.9694 11.0556L13.0699 11.1044C13.1298 11.1311 13.1712 11.1467 13.1712 11.1467C13.1712 11.1467 13.1367 11.1191 13.0829 11.0815L12.9894 11.0202L12.8795 10.9545L12.7667 10.8942L12.666 10.8454C12.6062 10.8186 12.5649 10.8031 12.5649 10.8031C12.5649 10.8031 12.5994 10.8304 12.6531 10.8681L12.7467 10.9293Z" fill="#32200F"/>
<path d="M11.3517 11.9324C11.3467 12.0928 11.3407 12.2801 11.3345 12.4807C11.3283 12.6813 11.3247 12.8946 11.3197 13.1092C11.3147 13.3237 11.3138 13.5373 11.311 13.738C11.3083 13.9388 11.309 14.1259 11.3081 14.2865C11.3081 14.6076 11.3114 14.8211 11.3114 14.8211C11.3114 14.8211 11.3222 14.6073 11.3345 14.2865C11.3395 14.1261 11.3454 13.9388 11.3517 13.7382C11.3581 13.5376 11.3614 13.3243 11.3664 13.1097C11.3714 12.8951 11.3723 12.6816 11.375 12.4809C11.3778 12.2801 11.3771 12.093 11.378 11.9324C11.378 11.6113 11.3747 11.3978 11.3747 11.3978C11.3747 11.3978 11.364 11.6116 11.3517 11.9324Z" fill="#32200F"/>
<path d="M18.4036 4.41593C18.3418 4.06288 18.3066 3.86109 18.3066 3.86109C18.3066 3.86109 18.3289 4.06478 18.3677 4.42093C18.4098 4.77691 18.4698 5.28518 18.5419 5.89521C18.6197 6.50455 18.7106 7.21531 18.8078 7.97676C18.9113 8.73736 19.0222 9.54866 19.1329 10.36C19.252 11.1706 19.371 11.9812 19.4825 12.7401C19.6005 13.4989 19.7107 14.2061 19.8051 14.8137C19.9053 15.4197 19.9889 15.9247 20.0465 16.2783C20.1083 16.6314 20.1435 16.833 20.1435 16.833C20.1435 16.833 20.1214 16.6295 20.0826 16.2731C20.0405 15.9173 19.9805 15.4089 19.9086 14.7988C19.8306 14.1897 19.7397 13.4789 19.6424 12.7173L19.318 10.3344L18.9684 7.95434C18.8503 7.19547 18.7402 6.48834 18.6457 5.8809L18.4043 4.41628" fill="#32200F"/>
</svg>
