<svg xmlns="http://www.w3.org/2000/svg" width="24" height="24" fill="none">
  <path fill="#E59188" d="m18 14 2-1v-1l-2-1-1 1v1l1 1ZM6 14l-1-1v-1l1-1 1 1v1l-1 1Z"/>
  <path fill="#A55C56" d="M6 13v-1H5v1-1h1l-1 1h1Zm12 0v-1h1v1-1h-1l1 1h-1Z"/>
  <path fill="#56AF82" d="M19 23H5l1-3c0-1 1-2 3-2h6c2 0 3 1 3 2l1 3Z"/>
  <path fill="#417C5D" d="m12 19 2-1h-4l2 1Z"/>
  <path fill="#E59188" d="M13 18h-2v-3h2v3Z"/>
  <path fill="#A55C56" d="M11 18a9 9 0 0 0 2-1v-2h-2v3Z"/>
  <path fill="#E59188" d="M15 16H9c-2 0-3-1-3-3V9c0-2 2-4 4-4h4c2 0 4 2 4 4v4c0 2-1 3-3 3Z"/>
  <path fill="#A55C56" d="M12 13v1-1Zm-2 2 2 1 2-1v-1 1h-4l1-1-1 1Z"/>
  <path fill="#562A28" d="M8 10h1l1-1H9l-1 1Zm8 0h-1l-1-1h1l1 1Z"/>
  <path fill="#fff" d="m10 13 1-2-1-1-1 1 1 2Z"/>
  <path fill="#562A28" d="M9 12v-1l1-1v1h1l-1-1-1 1v1Z"/>
  <path fill="#562A28" d="M10 12a1 1 0 1 0 0-1 1 1 0 0 0 0 1Z"/>
  <path fill="#fff" d="M10 11Zm4 2 1-2-1-1-1 1 1 2Z"/>
  <path fill="#562A28" d="M15 12v-1l-1-1v1h-1l1-1 1 1v1Z"/>
  <path fill="#562A28" d="M14 12a1 1 0 1 0 0-1 1 1 0 0 0 0 1Z"/>
  <path fill="#fff" d="M14 11Z"/>
  <path fill="#562A28" d="M9 7 8 8l-2 2v1-4c0-2 1-3 2-3h1s4-2 7-1c2 0 2 2 2 2h2v3h-2l1 1h-1v2l-1-2-2-1-4-1 2 1-4-1Z"/>
</svg>
