<svg xmlns="http://www.w3.org/2000/svg" width="44" height="44" fill="none"><g filter="url(#a)"><path fill="url(#b)" d="M18 30a11.955 11.955 0 0 1-8.485-3.515A11.962 11.962 0 0 1 6 18a11.956 11.956 0 0 1 3.515-8.485A11.956 11.956 0 0 1 18 6a11.961 11.961 0 0 1 8.485 3.515A11.957 11.957 0 0 1 30 18a11.963 11.963 0 0 1-3.515 8.485A11.96 11.96 0 0 1 18 30Z"/><path fill="#fff" d="M11.718 19.562c.648 1.052 1.766 2.71 2.631 3.8a1.076 1.076 0 0 0 1.609.11c2.739-2.599 5.281-5.879 8.325-10.42a.536.536 0 0 0-.835-.667c-3.377 3.576-5.108 5.275-8.469 8.07 0 0-1.06-.672-2.339-1.705a.623.623 0 0 0-.922.812Z"/></g><defs><linearGradient id="b" x1="6" x2="30" y1="18" y2="18" gradientUnits="userSpaceOnUse"><stop stop-color="#82DFBB"/><stop offset="1" stop-color="#2BBF86"/></linearGradient><filter id="a" width="44" height="44" x="0" y="0" color-interpolation-filters="sRGB" filterUnits="userSpaceOnUse"><feFlood flood-opacity="0" result="BackgroundImageFix"/><feColorMatrix in="SourceAlpha" result="hardAlpha" values="0 0 0 0 0 0 0 0 0 0 0 0 0 0 0 0 0 0 127 0"/><feOffset dx="4" dy="4"/><feGaussianBlur stdDeviation="5"/><feComposite in2="hardAlpha" operator="out"/><feColorMatrix values="0 0 0 0 0 0 0 0 0 0 0 0 0 0 0 0 0 0 0.15 0"/><feBlend in2="BackgroundImageFix" result="effect1_dropShadow_22_65257"/><feBlend in="SourceGraphic" in2="effect1_dropShadow_22_65257" result="shape"/></filter></defs></svg>