<svg width="21" height="20" viewBox="0 0 21 20" fill="none" xmlns="http://www.w3.org/2000/svg">
<path d="M5.11666 16.2667C4.60832 16.2667 4.13332 16.0917 3.79166 15.7667C3.35832 15.3583 3.14999 14.7417 3.22499 14.075L3.53332 11.375C3.59166 10.8667 3.89999 10.1917 4.25832 9.82499L11.1 2.58332C12.8083 0.77499 14.5917 0.72499 16.4 2.43332C18.2083 4.14166 18.2583 5.92499 16.55 7.73332L9.70832 14.975C9.35832 15.35 8.70832 15.7 8.19999 15.7833L5.51666 16.2417C5.37499 16.25 5.24999 16.2667 5.11666 16.2667ZM13.775 2.42499C13.1333 2.42499 12.575 2.82499 12.0083 3.42499L5.16666 10.675C4.99999 10.85 4.80832 11.2667 4.77499 11.5083L4.46666 14.2083C4.43332 14.4833 4.49999 14.7083 4.64999 14.85C4.79999 14.9917 5.02499 15.0417 5.29999 15L7.98332 14.5417C8.22499 14.5 8.62499 14.2833 8.79166 14.1083L15.6333 6.86666C16.6667 5.76666 17.0417 4.74999 15.5333 3.33332C14.8667 2.69166 14.2917 2.42499 13.775 2.42499Z" fill="#C6525A"/>
<path d="M14.95 9.12501C14.9333 9.12501 14.9083 9.12501 14.8916 9.12501C12.2916 8.86667 10.2 6.89167 9.79996 4.30834C9.74996 3.96667 9.98329 3.65001 10.325 3.59167C10.6666 3.54167 10.9833 3.77501 11.0416 4.11667C11.3583 6.13334 12.9916 7.68334 15.025 7.88334C15.3666 7.91667 15.6166 8.22501 15.5833 8.56667C15.5416 8.88334 15.2666 9.12501 14.95 9.12501Z" fill="#C6525A"/>
<path d="M18 18.9583H3C2.65833 18.9583 2.375 18.675 2.375 18.3333C2.375 17.9917 2.65833 17.7083 3 17.7083H18C18.3417 17.7083 18.625 17.9917 18.625 18.3333C18.625 18.675 18.3417 18.9583 18 18.9583Z" fill="#C6525A"/>
</svg>
