<svg xmlns="http://www.w3.org/2000/svg" width="21" height="20" fill="none"><path fill="#C6525A" d="M15.033 12.808a.618.618 0 0 1-.441-.183.629.629 0 0 1 0-.883l1.691-1.692-1.691-1.692a.629.629 0 0 1 0-.883.629.629 0 0 1 .883 0l2.133 2.133a.629.629 0 0 1 0 .884l-2.133 2.133a.618.618 0 0 1-.442.183Z"/><path fill="#C6525A" d="M17.108 10.675H8.633a.63.63 0 0 1-.625-.625.63.63 0 0 1 .625-.625h8.475a.63.63 0 0 1 .625.625.63.63 0 0 1-.625.625Z"/><path fill="#C6525A" d="M10.3 17.292c-4.292 0-7.292-3-7.292-7.292s3-7.292 7.292-7.292a.63.63 0 0 1 .625.625.63.63 0 0 1-.625.625c-3.558 0-6.042 2.484-6.042 6.042s2.484 6.042 6.042 6.042a.63.63 0 0 1 .625.625.63.63 0 0 1-.625.625Z"/></svg>